<svg xmlns="http://www.w3.org/2000/svg" fill="none" viewBox="0 0 156 49" class="customer-logo">
<title>airbnb logo</title>
  <g class="airbnb" clip-path="url(#a)">
    <g class="Group">
      <path fill="#FF5A5F" d="M76.92 17.663h4.662v18.05h-4.661v-18.05ZM44.45 32.358c-.403-.878-.804-1.677-1.126-2.476l-.08-.08c-3.296-7.188-6.913-14.455-10.69-21.644l-.16-.319a29.063 29.063 0 0 1-1.126-2.236c-.482-.879-.965-1.757-1.768-2.636C27.973 1.05 25.802.012 23.39.012s-4.58 1.038-6.188 2.875a16.785 16.785 0 0 0-1.768 2.636c-.402.799-.804 1.517-1.125 2.236l-.16.32c-3.698 7.188-7.315 14.456-10.69 21.644l-.081.08c-.322.798-.723 1.597-1.125 2.475a39.523 39.523 0 0 0-.724 1.757 10.503 10.503 0 0 0-.562 5.192c.562 3.594 2.974 6.629 6.269 7.986 1.286.56 2.572.8 3.938.8.402 0 .884-.08 1.286-.08 1.608-.16 3.215-.72 4.823-1.598 2.01-1.118 3.858-2.716 5.947-4.952 2.09 2.316 4.02 3.914 5.948 4.952 1.608.878 3.215 1.438 4.823 1.597.402.08.884.08 1.286.08 1.366 0 2.732-.24 3.938-.799 3.376-1.357 5.707-4.392 6.27-7.986.401-1.677.16-3.355-.403-5.112a8.947 8.947 0 0 0-.643-1.757Zm-21.06 4.233c-2.572-3.274-4.26-6.31-4.903-8.945-.24-1.118-.321-2.076-.16-2.955.08-.799.401-1.438.803-1.997.884-1.278 2.492-2.076 4.26-2.076 1.768 0 3.376.798 4.26 2.076.402.56.643 1.278.804 1.997.16.879.08 1.837-.161 2.955-.643 2.556-2.33 5.59-4.903 8.945Zm19.21 2.236c-.322 2.476-2.01 4.633-4.42 5.591-1.126.48-2.412.639-3.698.48-1.206-.16-2.411-.56-3.697-1.279-1.769-.958-3.456-2.475-5.466-4.632 3.215-3.913 5.144-7.427 5.867-10.622.322-1.518.402-2.795.242-4.073-.161-1.198-.643-2.317-1.286-3.275-1.527-2.156-4.02-3.434-6.832-3.434-2.813 0-5.305 1.278-6.832 3.434-.643.958-1.125 2.077-1.286 3.275-.16 1.278-.16 2.635.241 4.073.723 3.195 2.733 6.789 5.867 10.622-2.009 2.236-3.777 3.674-5.465 4.632-1.286.72-2.492 1.119-3.697 1.278-1.286.16-2.572-.08-3.698-.479-2.33-.958-4.018-3.115-4.42-5.59-.16-1.199-.08-2.397.402-3.754.16-.48.402-.959.643-1.518.321-.798.723-1.597 1.125-2.396l.08-.08A533.992 533.992 0 0 1 16.88 9.516l.16-.32c.402-.718.804-1.517 1.126-2.236.402-.798.803-1.517 1.366-2.076 1.045-1.118 2.411-1.677 3.939-1.677 1.527 0 2.813.639 3.858 1.757.562.639.964 1.358 1.366 2.076.402.72.804 1.518 1.125 2.237l.16.32c3.698 7.107 7.235 14.455 10.53 21.563.402.799.723 1.598 1.125 2.396.241.56.482 1.038.643 1.518.402 1.278.563 2.476.322 3.753Zm26.845-20.525v.798s-1.527-1.917-4.662-1.917c-5.224 0-9.404 3.994-9.404 9.505 0 5.43 4.019 9.504 9.404 9.504 3.215 0 4.662-1.997 4.662-1.997v.799c0 .4.321.639.643.639h3.938v-17.97H70.09c-.322 0-.643.32-.643.639Zm0 11.58c-.724 1.039-2.17 1.997-3.939 1.997-3.054 0-5.465-1.917-5.465-5.191 0-3.275 2.33-5.192 5.465-5.192 1.688 0 3.215.959 3.939 1.997v6.39ZM79.25 8.957c-1.768 0-3.134 1.358-3.134 3.115 0 1.757 1.366 3.115 3.134 3.115 1.769 0 3.135-1.358 3.135-3.115a3.129 3.129 0 0 0-3.135-3.115Zm52.887 9.983c-1.366-1.118-3.054-1.757-5.064-1.757-1.768 0-3.536.56-4.903 1.917v-.798c0-.32-.321-.64-.643-.64h-3.697v18.05h4.662V23.095c.884-1.039 2.331-1.758 3.778-1.758 2.572 0 3.536 1.199 3.536 4.154v10.223h4.661V25.01c0-3.035-.642-4.792-2.33-6.07Zm14.065-1.757c-3.215 0-4.661 1.917-4.661 1.917V8.957h-4.662v26.756h3.939c.401 0 .643-.32.643-.64v-.798s1.526 1.997 4.661 1.997c5.224 0 9.404-3.994 9.404-9.504 0-5.591-4.18-9.585-9.324-9.585ZM145.4 31.8c-1.769 0-3.216-.878-3.938-1.997v-6.389c.722-.958 2.25-1.997 3.938-1.997 3.054 0 5.466 1.917 5.466 5.192 0 3.274-2.412 5.191-5.466 5.191Zm-38.821-14.616c-3.215 0-4.662 1.917-4.662 1.917V8.957h-4.662v26.756h3.939c.402 0 .643-.32.643-.64v-.798s1.527 1.997 4.661 1.997c5.225 0 9.404-3.994 9.404-9.504.081-5.591-4.018-9.585-9.323-9.585Zm-.804 14.616c-1.768 0-3.215-.878-3.938-1.997v-6.389c.723-.958 2.25-1.997 3.938-1.997 3.054 0 5.466 1.917 5.466 5.192 0 3.274-2.331 5.191-5.466 5.191ZM89.057 19.1v-.798c0-.32-.321-.64-.643-.64h-3.938v18.05h4.662V23.095c2.41-2.716 6.269-1.438 6.269-1.438v-4.233s-.724-.24-2.09-.24c-1.527 0-3.376.879-4.26 1.917Z" class="logo-fill"/>
    </g>
  </g>
  <defs>
    <clipPath id="a" class="a">
      <path fill="#fff" d="M.86.012h154.667v48H.86z"/>
    </clipPath>
  </defs>
</svg>
