<?xml version="1.0" encoding="UTF-8" standalone="no"?>
<!-- Created with Inkscape (http://www.inkscape.org/) -->

<svg
   version="1.1"
   id="svg2"
   width="231.17706"
   height="224.36974"
   viewBox="0 0 231.17706 224.36974"
   xmlns="http://www.w3.org/2000/svg"
   xmlns:svg="http://www.w3.org/2000/svg">
  <defs
     id="defs6">
    <clipPath
       clipPathUnits="userSpaceOnUse"
       id="clipPath18">
      <path
         d="M 0,1.206994e-5 H 720 V 540.00001 H 0 Z"
         id="path16" />
    </clipPath>
  </defs>
  <g
     id="g8"
     transform="matrix(1.3333333,0,0,-1.3333333,-481.4584,517.70827)">
    <g
       id="g10" />
    <g
       id="g12">
      <g
         id="g14"
         clip-path="url(#clipPath18)">
        <path
           d="M 0,540 H 720 V 1.206994e-5 H 0 Z"
           style="fill:#ffffff;fill-opacity:1;fill-rule:nonzero;stroke:none"
           id="path20" />
      </g>
    </g>
    <g
       id="g22">
      <path
         d="M 0,540 H 720 V 1.40816e-5 H 0 Z"
         style="fill:#ffffff;fill-opacity:1;fill-rule:nonzero;stroke:none"
         id="path24" />
      <g
         id="g26"
         transform="matrix(6.690874e-5,4.151183e-5,4.151183e-5,-6.690874e-5,103.3862,326.7417)">
        <path
           d="M 0,738504 457444,0 914888,738504 Z"
           style="fill:none;stroke:#bfbfbf;stroke-width:165100;stroke-linecap:butt;stroke-linejoin:miter;stroke-miterlimit:8;stroke-dasharray:none;stroke-opacity:1"
           id="path28" />
      </g>
      <g
         id="g30"
         transform="matrix(6.746655e-5,4.059897e-5,4.059897e-5,-6.746655e-5,117.2135,337.0033)">
        <path
           d="M 0,1130628 682958,0 1365916,1130628 Z"
           style="fill:none;stroke:#d9d9d9;stroke-width:165100;stroke-linecap:butt;stroke-linejoin:miter;stroke-miterlimit:8;stroke-dasharray:none;stroke-opacity:1"
           id="path32" />
      </g>
      <g
         id="g34"
         transform="matrix(7.874016e-5,0,0,7.874016e-5,134.0429,277.3293)">
        <path
           d="M 0,0 777418,482329"
           style="fill:none;stroke:#bfbfbf;stroke-width:165100;stroke-linecap:butt;stroke-linejoin:round;stroke-miterlimit:10;stroke-dasharray:none;stroke-opacity:1"
           id="path36" />
      </g>
      <g
         id="g38"
         transform="matrix(6.690874e-5,4.151183e-5,4.151183e-5,-6.690874e-5,357.435,318.5466)">
        <path
           d="M 0,738504 457444,0 914888,738504 Z"
           style="fill:none;stroke:#595959;stroke-width:165100;stroke-linecap:butt;stroke-linejoin:miter;stroke-miterlimit:8;stroke-dasharray:none;stroke-opacity:1"
           id="path40" />
      </g>
      <g
         id="g42"
         transform="matrix(6.746655e-5,4.059897e-5,4.059897e-5,-6.746655e-5,371.2622,328.8082)">
        <path
           d="M 0,1130628 682958,0 1365916,1130628 Z"
           style="fill:none;stroke:#c00000;stroke-width:165100;stroke-linecap:butt;stroke-linejoin:miter;stroke-miterlimit:8;stroke-dasharray:none;stroke-opacity:1"
           id="path44" />
      </g>
      <g
         id="g46"
         transform="matrix(7.874016e-5,0,0,7.874016e-5,388.0917,269.1343)">
        <path
           d="M 0,0 777418,482329"
           style="fill:none;stroke:#595959;stroke-width:165100;stroke-linecap:butt;stroke-linejoin:round;stroke-miterlimit:10;stroke-dasharray:none;stroke-opacity:1"
           id="path48" />
      </g>
    </g>
  </g>
</svg>
