<?xml version="1.0" encoding="UTF-8"?>
<!DOCTYPE svg PUBLIC "-//W3C//DTD SVG 1.1//EN" "http://www.w3.org/Graphics/SVG/1.1/DTD/svg11.dtd">
<svg xmlns="http://www.w3.org/2000/svg" version="1.1" width="225px" height="225px" style="shape-rendering:geometricPrecision; text-rendering:geometricPrecision; image-rendering:optimizeQuality; fill-rule:evenodd; clip-rule:evenodd" xmlns:xlink="http://www.w3.org/1999/xlink">
<g><path style="opacity:1" fill="#fdfdfd" d="M -0.5,-0.5 C 74.5,-0.5 149.5,-0.5 224.5,-0.5C 224.5,74.5 224.5,149.5 224.5,224.5C 149.5,224.5 74.5,224.5 -0.5,224.5C -0.5,149.5 -0.5,74.5 -0.5,-0.5 Z"/></g>
<g><path style="opacity:1" fill="#030303" d="M 40.5,104.5 C 79.8333,104.5 119.167,104.5 158.5,104.5C 158.5,122.833 158.5,141.167 158.5,159.5C 143.859,165.485 129.192,171.485 114.5,177.5C 100.287,171.373 85.9537,165.54 71.5,160C 70.5168,151.585 70.1834,143.085 70.5,134.5C 75.5,134.5 80.5,134.5 85.5,134.5C 85.1953,139.762 85.5286,144.928 86.5,150C 94.913,153.138 103.246,156.471 111.5,160C 113.5,160.667 115.5,160.667 117.5,160C 126.305,156.761 134.972,153.261 143.5,149.5C 144.494,139.347 144.828,129.014 144.5,118.5C 114.662,118.169 84.9953,118.502 55.5,119.5C 55.1672,136.513 55.5005,153.513 56.5,170.5C 75.8383,178.17 95.1716,185.836 114.5,193.5C 134.24,186.031 153.907,178.364 173.5,170.5C 174.667,140.839 174.833,111.172 174,81.5C 169.021,55.5194 153.854,38.686 128.5,31C 97.1832,25.908 74.3499,37.408 60,65.5C 56.8947,72.8598 55.3947,80.5264 55.5,88.5C 50.5,88.5 45.5,88.5 40.5,88.5C 44.5659,44.4341 68.5659,19.7675 112.5,14.5C 146.436,15.0369 170.269,30.7035 184,61.5C 186.28,67.3387 187.947,73.3387 189,79.5C 189.5,113.165 189.667,146.832 189.5,180.5C 164.452,189.962 139.452,199.629 114.5,209.5C 90.0928,200.031 65.7595,190.364 41.5,180.5C 40.5002,155.175 40.1669,129.842 40.5,104.5 Z"/></g>
<g><path style="opacity:1" fill="#040404" d="M 158.5,83.5 C 158.5,85.1667 158.5,86.8333 158.5,88.5C 153.833,88.5 149.167,88.5 144.5,88.5C 144.737,87.209 144.404,86.209 143.5,85.5C 140.637,69.1232 130.804,60.4565 114,59.5C 96.9267,61.7398 87.4267,71.4065 85.5,88.5C 80.5,88.5 75.5,88.5 70.5,88.5C 73.407,62.4261 87.907,47.7595 114,44.5C 139.012,46.0182 153.845,59.0182 158.5,83.5 Z"/></g>
<g><path style="opacity:1" fill="#b1b1b1" d="M 158.5,83.5 C 159.461,85.2646 159.795,87.2646 159.5,89.5C 154.167,89.5 148.833,89.5 143.5,89.5C 143.5,88.1667 143.5,86.8333 143.5,85.5C 144.404,86.209 144.737,87.209 144.5,88.5C 149.167,88.5 153.833,88.5 158.5,88.5C 158.5,86.8333 158.5,85.1667 158.5,83.5 Z"/></g>
<g><path style="opacity:1" fill="#969696" d="M 40.5,104.5 C 79.9965,103.501 119.663,103.168 159.5,103.5C 159.83,122.341 159.497,141.007 158.5,159.5C 158.5,141.167 158.5,122.833 158.5,104.5C 119.167,104.5 79.8333,104.5 40.5,104.5 Z"/></g>
<g><path style="opacity:1" fill="#818181" d="M 55.5,119.5 C 84.9953,118.502 114.662,118.169 144.5,118.5C 144.828,129.014 144.494,139.347 143.5,149.5C 143.5,139.5 143.5,129.5 143.5,119.5C 114.167,119.5 84.8333,119.5 55.5,119.5 Z"/></g>
</svg>
