<?xml version="1.0" encoding="utf-8"?>
<!-- Generator: Adobe Illustrator 26.1.0, SVG Export Plug-In . SVG Version: 6.00 Build 0)  -->
<svg version="1.1" id="_イヤー_1" xmlns="http://www.w3.org/2000/svg" xmlns:xlink="http://www.w3.org/1999/xlink" x="0px"
	 y="0px" viewBox="0 0 151.2 151.4" style="enable-background:new 0 0 151.2 151.4;" xml:space="preserve">
<style type="text/css">
	.st0{fill:#FF9933;}
	.st1{fill:#FFFFFF;}
	.st2{fill:#401C00;}
</style>
<path class="st0" d="M151.2,75.7C151.2,33.9,117.3,0,75.6,0S0,33.9,0,75.7s33.8,75.7,75.6,75.7S151.2,117.5,151.2,75.7"/>
<path class="st1" d="M108.7,40.6c-5.1,0-9.7,1.8-13.4,4.7C92,37.4,84.3,32,75.3,32c-7.6,0-14.3,4-18.2,9.9c-2.8-1.3-5.8-2-9-2
	c-12,0-21.7,9.8-21.7,21.9c0,9.5,6,17.5,14.4,20.6l-4.1,33.1c-0.1,1,0.2,2,0.8,2.8c0.7,0.8,1.6,1.2,2.6,1.2h59
	c1.7,0,3.2-1.3,3.4-3.1l3.9-32.2c0.7,0.1,1.4,0.1,2.1,0.1c12,0,21.7-9.8,21.7-21.9S120.7,40.6,108.7,40.6"/>
<path class="st2" d="M110.6,38.4c-5.4,0-10.3,1.9-14.2,5C92.9,35,84.7,29.2,75.2,29.2c-8.1,0-15.2,4.2-19.3,10.6
	c-2.9-1.3-6.2-2.1-9.6-2.1c-12.7,0-23,10.4-23,23.2c0,10.1,6.4,18.6,15.3,21.9L34.2,118c-0.1,1.1,0.2,2.2,0.9,3
	c0.7,0.8,1.7,1.3,2.8,1.3h62.7c1.8,0,3.4-1.4,3.6-3.3l4.2-34.2c0.8,0.1,1.5,0.1,2.3,0.1c12.7,0,23-10.4,23-23.2
	S123.3,38.4,110.6,38.4 M110.6,77.2c-0.4,0-0.9,0-1.3-0.1l0.5-4.1c0.2-2.1-1.2-4-3.2-4.3c-2-0.2-3.8,1.2-4.1,3.3
	c0,0-1.5,12.4-2.9,23.9H51.8c-2,0-3.7,1.7-3.7,3.8s1.6,3.8,3.7,3.8h46.9c-0.7,5.2-1.2,9.5-1.4,11.1H42c0.7-5.7,3.6-29.2,4.7-38.2
	c-0.1,0-0.3,0-0.4,0c-8.7,0-15.7-7-15.7-15.6s7-15.6,15.7-15.6c4.9,0,9.3,2.3,12.2,5.8c0.4,0.5,0.9,0.5,1-0.2
	C60.3,43,67,36.8,75.2,36.8s14.3,5.7,15.5,13.2c-0.6,1-1.1,2-1.5,3.1l6.6,3.5c2.1-6.2,8-10.6,14.9-10.6c8.7,0,15.7,7,15.7,15.6
	S119.3,77.2,110.6,77.2"/>
</svg>
