<svg width="738" height="159" viewBox="0 0 738 159" fill="none" xmlns="http://www.w3.org/2000/svg">
<mask id="mask0_1452_12" style="mask-type:luminance" maskUnits="userSpaceOnUse" x="0" y="0" width="738" height="157">
<path d="M738 0H0V156.903H738V0Z" fill="white"/>
</mask>
<g mask="url(#mask0_1452_12)">
<path d="M147.902 151.151L144.438 148.184H36.2969C35.5384 148.185 34.8045 147.911 34.2287 147.409L4.61458 122.119H3.21855C2.55996 122.117 1.91684 122.322 1.37667 122.705C0.836498 123.087 0.425473 123.63 0.199497 124.258C-0.0264784 124.886 -0.0564402 125.57 0.113687 126.217C0.283814 126.863 0.64577 127.441 1.15034 127.87L34.2287 156.207C34.8086 156.7 35.5409 156.97 36.2969 156.969H145.821C146.497 156.991 147.161 156.795 147.721 156.41C148.28 156.026 148.706 155.471 148.937 154.826C149.168 154.181 149.191 153.478 149.006 152.819C148.82 152.159 148.434 151.575 147.902 151.151Z" fill="#103830"/>
<path d="M147.902 133.713L144.438 130.746H36.2969C35.5384 130.747 34.8045 130.473 34.2287 129.971L4.61458 104.615H3.21855C2.55996 104.614 1.91684 104.818 1.37667 105.201C0.836498 105.583 0.425473 106.126 0.199497 106.754C-0.0264784 107.382 -0.0564402 108.067 0.113687 108.713C0.283814 109.359 0.64577 109.937 1.15034 110.367L34.2287 138.69C34.8045 139.192 35.5384 139.466 36.2969 139.465H145.821C146.481 139.469 147.126 139.266 147.668 138.885C148.211 138.503 148.623 137.961 148.851 137.332C149.079 136.703 149.11 136.018 148.94 135.37C148.77 134.722 148.408 134.144 147.902 133.713Z" fill="#103830"/>
<path d="M147.901 63.974L144.437 61.0064H36.296C35.539 61.0132 34.8049 60.7429 34.2278 60.2449L4.61371 34.889H3.21767C2.54349 34.8699 1.88057 35.0673 1.32325 35.4532C0.765919 35.839 0.342585 36.3936 0.11348 37.038C-0.115626 37.6824 -0.138829 38.3837 0.0471717 39.0423C0.233173 39.7008 0.618904 40.283 1.14947 40.706L35.1197 69.7258L74.9329 103.867C75.5159 104.362 76.2533 104.631 77.014 104.628H103.732L107.197 107.596C107.699 108.028 108.059 108.606 108.227 109.252C108.396 109.898 108.366 110.582 108.141 111.21C107.915 111.838 107.505 112.381 106.967 112.765C106.428 113.15 105.786 113.358 105.128 113.36H77.014C76.2619 113.342 75.5397 113.059 74.9715 112.559L45.241 87.1766H3.21767C2.55908 87.1749 1.91598 87.3793 1.3758 87.7621C0.835626 88.1448 0.424604 88.6871 0.198628 89.3157C-0.0273477 89.9444 -0.0573094 90.6281 0.112817 91.2743C0.282944 91.9205 0.644904 92.498 1.14947 92.9279L34.2278 121.251C34.8036 121.753 35.5375 122.028 36.296 122.027H145.821C146.48 122.027 147.123 121.821 147.664 121.438C148.204 121.054 148.616 120.512 148.843 119.882C149.07 119.254 149.101 118.569 148.933 117.922C148.765 117.274 148.405 116.695 147.901 116.262L103.732 78.4447H77.014C76.2675 78.4339 75.5471 78.1653 74.9715 77.6832L65.6647 69.7258H145.808C146.468 69.7326 147.115 69.5322 147.659 69.1517C148.204 68.7707 148.619 68.2284 148.848 67.5992C149.077 66.9694 149.109 66.2829 148.94 65.6344C148.77 64.9853 148.408 64.4055 147.901 63.974ZM74.9715 86.4021C75.5545 86.8978 76.2919 87.1675 77.0526 87.1636H103.746L107.197 90.1181C107.696 90.5491 108.054 91.1255 108.221 91.7694C108.388 92.4134 108.357 93.0943 108.132 93.7195C107.906 94.3447 107.497 94.8847 106.96 95.2669C106.423 95.649 105.784 95.8546 105.128 95.8563H77.014C76.2698 95.8586 75.5483 95.5985 74.9715 95.1209L45.241 69.7258H55.4269L74.9715 86.4021Z" fill="#103830"/>
<path d="M147.902 46.5368L144.438 43.5692H36.2966C35.5405 43.57 34.8084 43.3004 34.2284 42.8077L4.6143 17.4385H3.21827C2.56005 17.441 1.91841 17.6485 1.37985 18.0329C0.841289 18.4173 0.431705 18.9603 0.206308 19.5885C-0.0190884 20.2167 -0.0494588 20.9 0.119291 21.5464C0.28804 22.1926 0.647797 22.7708 1.15006 23.203L34.2284 51.5267C34.8055 52.0244 35.5396 52.2947 36.2966 52.2883H145.821C146.481 52.2926 147.125 52.0901 147.668 51.7084C148.21 51.3267 148.623 50.7844 148.851 50.1553C149.078 49.5263 149.109 48.8413 148.94 48.1937C148.77 47.5462 148.408 46.9676 147.902 46.5368Z" fill="#103830"/>
<path d="M1.15132 5.75139L34.2297 34.1407C34.8096 34.6335 35.5418 34.9031 36.2979 34.9023H145.822C146.482 34.9067 147.127 34.7042 147.669 34.3224C148.212 33.9407 148.624 33.3984 148.852 32.7694C149.08 32.1404 149.111 31.4553 148.941 30.8077C148.771 30.1602 148.409 29.5816 147.903 29.1509L114.825 0.761609C114.243 0.273697 113.512 0.0047235 112.757 1.00048e-05H3.21952C2.56093 -0.00164795 1.91782 0.202792 1.37765 0.585528C0.837474 0.968263 0.42645 1.51072 0.200474 2.13913C-0.0255018 2.76754 -0.0554637 3.45139 0.114663 4.09771C0.28479 4.74403 0.646746 5.32143 1.15132 5.75139Z" fill="#103830"/>
<path d="M147.902 151.151L144.438 148.184H36.2969C35.5384 148.185 34.8045 147.911 34.2287 147.409L4.61458 122.119H3.21855C2.55996 122.117 1.91684 122.322 1.37667 122.705C0.836498 123.087 0.425473 123.63 0.199497 124.258C-0.0264784 124.886 -0.0564402 125.57 0.113687 126.217C0.283814 126.863 0.64577 127.441 1.15034 127.87L34.2287 156.207C34.8086 156.7 35.5409 156.97 36.2969 156.969H145.821C146.497 156.991 147.161 156.795 147.721 156.41C148.28 156.026 148.706 155.471 148.937 154.826C149.168 154.181 149.191 153.478 149.006 152.819C148.82 152.159 148.434 151.575 147.902 151.151Z" fill="#103830"/>
<path d="M147.902 133.713L144.438 130.746H36.2969C35.5384 130.747 34.8045 130.473 34.2287 129.971L4.61458 104.615H3.21855C2.55996 104.614 1.91684 104.818 1.37667 105.201C0.836498 105.583 0.425473 106.126 0.199497 106.754C-0.0264784 107.382 -0.0564402 108.067 0.113687 108.713C0.283814 109.359 0.64577 109.937 1.15034 110.367L34.2287 138.69C34.8045 139.192 35.5384 139.466 36.2969 139.465H145.821C146.481 139.469 147.126 139.266 147.668 138.885C148.211 138.503 148.623 137.961 148.851 137.332C149.079 136.703 149.11 136.018 148.94 135.37C148.77 134.722 148.408 134.144 147.902 133.713Z" fill="#103830"/>
<path d="M147.901 63.974L144.437 61.0064H36.296C35.539 61.0132 34.8049 60.7429 34.2278 60.2449L4.61371 34.889H3.21767C2.54349 34.8699 1.88057 35.0673 1.32325 35.4532C0.765919 35.839 0.342585 36.3936 0.11348 37.038C-0.115626 37.6824 -0.138829 38.3837 0.0471717 39.0423C0.233173 39.7008 0.618904 40.283 1.14947 40.706L35.1197 69.7258L74.9329 103.867C75.5159 104.362 76.2533 104.631 77.014 104.628H103.732L107.197 107.596C107.699 108.028 108.059 108.606 108.227 109.252C108.396 109.898 108.366 110.582 108.141 111.21C107.915 111.838 107.505 112.381 106.967 112.765C106.428 113.15 105.786 113.358 105.128 113.36H77.014C76.2619 113.342 75.5397 113.059 74.9715 112.559L45.241 87.1766H3.21767C2.55908 87.1749 1.91598 87.3793 1.3758 87.7621C0.835626 88.1448 0.424604 88.6871 0.198628 89.3157C-0.0273477 89.9444 -0.0573094 90.6281 0.112817 91.2743C0.282944 91.9205 0.644904 92.498 1.14947 92.9279L34.2278 121.251C34.8036 121.753 35.5375 122.028 36.296 122.027H145.821C146.48 122.027 147.123 121.821 147.664 121.438C148.204 121.054 148.616 120.512 148.843 119.882C149.07 119.254 149.101 118.569 148.933 117.922C148.765 117.274 148.405 116.695 147.901 116.262L103.732 78.4447H77.014C76.2675 78.4339 75.5471 78.1653 74.9715 77.6832L65.6647 69.7258H145.808C146.468 69.7326 147.115 69.5322 147.659 69.1517C148.204 68.7707 148.619 68.2284 148.848 67.5992C149.077 66.9694 149.109 66.2829 148.94 65.6344C148.77 64.9853 148.408 64.4055 147.901 63.974ZM74.9715 86.4021C75.5545 86.8978 76.2919 87.1675 77.0526 87.1636H103.746L107.197 90.1181C107.696 90.5491 108.054 91.1255 108.221 91.7694C108.388 92.4134 108.357 93.0943 108.132 93.7195C107.906 94.3447 107.497 94.8847 106.96 95.2669C106.423 95.649 105.784 95.8546 105.128 95.8563H77.014C76.2698 95.8586 75.5483 95.5985 74.9715 95.1209L45.241 69.7258H55.4269L74.9715 86.4021Z" fill="#103830"/>
<path d="M147.903 46.5368L144.439 43.5692H36.2976C35.5415 43.57 34.8094 43.3004 34.2294 42.8077L4.61528 17.4385H3.21924C2.56102 17.441 1.91938 17.6485 1.38083 18.0329C0.842268 18.4173 0.432681 18.9603 0.207285 19.5885C-0.0181118 20.2167 -0.0484822 20.9 0.120268 21.5464C0.289017 22.1926 0.64877 22.7708 1.15104 23.203L34.2294 51.5267C34.8065 52.0244 35.5405 52.2947 36.2976 52.2883H145.822C146.482 52.2926 147.127 52.0901 147.669 51.7084C148.211 51.3267 148.624 50.7844 148.852 50.1553C149.08 49.5263 149.11 48.8413 148.941 48.1937C148.771 47.5462 148.409 46.9676 147.903 46.5368Z" fill="#103830"/>
<path d="M1.15132 5.75139L34.2297 34.1407C34.8096 34.6335 35.5418 34.9031 36.2979 34.9023H145.822C146.482 34.9067 147.127 34.7042 147.669 34.3224C148.212 33.9407 148.624 33.3984 148.852 32.7694C149.08 32.1404 149.111 31.4553 148.941 30.8077C148.771 30.1602 148.409 29.5816 147.903 29.1509L114.825 0.761609C114.243 0.273697 113.512 0.0047235 112.757 1.00048e-05H3.21952C2.56093 -0.00164795 1.91782 0.202792 1.37765 0.585528C0.837474 0.968263 0.42645 1.51072 0.200474 2.13913C-0.0255018 2.76754 -0.0554637 3.45139 0.114663 4.09771C0.28479 4.74403 0.646746 5.32143 1.15132 5.75139Z" fill="#103830"/>
<path d="M214.214 61.0465V122.04H236.434V61.0465H214.214ZM214.214 41.1396V54.0343H236.434V41.1396H214.214Z" fill="#103830"/>
<path d="M253.239 61.0464V122.04H275.459V92.4029C275.459 81.6619 281.819 75.0833 289.678 75.0833C297.719 75.0833 302.049 80.3354 302.049 91.0639V122.04H324.256V87.8992C324.256 68.9907 315.375 59.2344 298.404 59.2344C287.714 59.2344 280.397 63.252 275.589 73.0219V61.0464H253.239Z" fill="#103830"/>
<path d="M328.328 61.0459L354.026 122.039H381.042L406.623 61.0459H381.481L370.197 94.8317C369.134 97.671 368.215 100.564 367.443 103.498H366.835C366.238 100.555 365.435 97.6591 364.431 94.8317L352.306 61.0459H328.328Z" fill="#103830"/>
<path d="M444.935 108.988C435.809 108.988 429.928 102.764 429.928 91.4186C429.928 80.0734 435.809 74.099 444.935 74.099C454.061 74.099 459.956 80.0995 459.956 91.4186C459.956 102.738 454.061 108.988 444.935 108.988ZM444.935 123.865C467.039 123.865 482.887 112.048 482.887 91.4186C482.887 70.7901 467.039 59.2217 444.935 59.2217C422.831 59.2217 407.178 70.8031 407.178 91.4186C407.178 112.035 422.844 123.865 444.935 123.865Z" fill="#103830"/>
<path d="M529.537 107.767C520.411 107.767 514.297 101.91 514.297 92.8894V90.3289C514.297 80.3233 520.411 74.5714 529.666 74.5714C538.922 74.5714 544.195 80.6907 544.195 91.3005C544.195 101.425 538.663 107.767 529.537 107.767ZM492.555 61.0468V145.834H514.775V114.109C519.571 120.583 527.016 123.865 536.504 123.865C555.234 123.865 567.965 110.944 567.965 91.3005C567.965 71.9059 555.842 59.2217 537.344 59.2217C527.378 59.2217 518.976 63.371 514.167 71.3017V61.0468H492.555Z" fill="#103830"/>
<path d="M614.97 108.988C605.841 108.988 599.96 102.764 599.96 91.4186C599.96 80.0734 605.841 74.099 614.97 74.099C624.093 74.099 629.991 80.0995 629.991 91.4186C629.991 102.738 624.093 108.988 614.97 108.988ZM614.97 123.865C637.07 123.865 652.92 112.048 652.92 91.4186C652.92 70.7901 637.07 59.2217 614.97 59.2217C592.864 59.2217 577.145 70.8031 577.145 91.4186C577.145 112.035 592.875 123.865 614.97 123.865Z" fill="#103830"/>
<path d="M699.573 107.767C690.445 107.767 684.33 101.91 684.33 92.8894V90.3289C684.33 80.3233 690.445 74.5714 699.698 74.5714C708.957 74.5714 714.231 80.6776 714.231 91.2874C714.231 101.425 708.696 107.767 699.573 107.767ZM662.588 61.0468V145.834H684.807V114.109C689.604 120.583 697.052 123.865 706.539 123.865C725.267 123.865 738 110.944 738 91.3005C738 71.9059 725.874 59.2217 707.379 59.2217C697.41 59.2217 689.008 63.371 684.2 71.3017V61.0468H662.588Z" fill="#103830"/>
</g>
</svg>
