<?xml version="1.0" encoding="UTF-8"?>
<svg version="1.1" xmlns="http://www.w3.org/2000/svg" width="59" height="44">
<path d="M0 0 C1.93166016 0.01740234 1.93166016 0.01740234 3.90234375 0.03515625 C5.19269531 0.04417969 6.48304687 0.05320313 7.8125 0.0625 C8.81152344 0.07410156 9.81054688 0.08570313 10.83984375 0.09765625 C10.95782979 3.86821794 11.02768239 7.6382939 11.08984375 11.41015625 C11.14011719 12.98893555 11.14011719 12.98893555 11.19140625 14.59960938 C11.28659052 22.33333129 10.63268392 30.83420569 5.25 36.88476562 C3.58984375 38.28515625 3.58984375 38.28515625 0.83984375 40.09765625 C-0.50243443 38.8362743 -1.83374302 37.56321066 -3.16015625 36.28515625 C-3.90265625 35.57746094 -4.64515625 34.86976562 -5.41015625 34.140625 C-7.16015625 32.09765625 -7.16015625 32.09765625 -7.16015625 29.09765625 C-6.50015625 28.76765625 -5.84015625 28.43765625 -5.16015625 28.09765625 C-4.11990767 24.97691051 -4.05909218 22.85868467 -4.09765625 19.58984375 C-4.10539062 18.52121094 -4.113125 17.45257812 -4.12109375 16.3515625 C-4.13398438 15.23652344 -4.146875 14.12148438 -4.16015625 12.97265625 C-4.1855396 10.76176631 -4.2066153 8.55082121 -4.22265625 6.33984375 C-4.23425781 5.35870605 -4.24585938 4.37756836 -4.2578125 3.36669922 C-4.10432971 -0.1994733 -3.65404956 0.11291871 0 0 Z " fill="#FE4F3D" transform="translate(25.16015625,2.90234375)"/>
<path d="M0 0 C1.85625 0.061875 1.85625 0.061875 3.75 0.125 C4.08 1.775 4.41 3.425 4.75 5.125 C1.75 6.125 1.75 6.125 -1.25 5.125 C-1.085 5.805625 -0.92 6.48625 -0.75 7.1875 C0.09655647 12.16101927 0.60689594 15.83965609 -2.25 20.125 C-1.59 20.785 -0.93 21.445 -0.25 22.125 C-0.04774977 26.30483803 0.08650858 30.11547425 -1.25 34.125 C0.73 34.125 2.71 34.125 4.75 34.125 C4.75 35.775 4.75 37.425 4.75 39.125 C3.14620659 39.17916188 1.54188594 39.21786638 -0.0625 39.25 C-0.95582031 39.27320313 -1.84914063 39.29640625 -2.76953125 39.3203125 C-5.25 39.125 -5.25 39.125 -8.25 37.125 C-8.14300781 36.29355469 -8.03601563 35.46210937 -7.92578125 34.60546875 C-7.80589844 33.51878906 -7.68601562 32.43210938 -7.5625 31.3125 C-7.43488281 30.23355469 -7.30726562 29.15460937 -7.17578125 28.04296875 C-6.94353456 25.11815923 -6.94353456 25.11815923 -8.71875 23.40625 C-9.2240625 22.9834375 -9.729375 22.560625 -10.25 22.125 C-10.4375 19.4375 -10.4375 19.4375 -10.25 17.125 C-9.26 17.125 -8.27 17.125 -7.25 17.125 C-7.58 12.175 -7.91 7.225 -8.25 2.125 C-4.63863788 0.31931894 -3.705469 -0.12351563 0 0 Z " fill="#3249FE" transform="translate(13.25,1.875)"/>
<path d="M0 0 C0.80824219 0.19464844 1.61648437 0.38929688 2.44921875 0.58984375 C3.06410156 0.74582031 3.67898437 0.90179688 4.3125 1.0625 C5.37052584 4.30316655 5.2150427 6.40419585 4.375 9.6875 C3.56556985 12.84058455 3.56556985 12.84058455 3.3125 16.0625 C4.6325 16.3925 5.9525 16.7225 7.3125 17.0625 C6.9825 18.7125 6.6525 20.3625 6.3125 22.0625 C5.3225 22.3925 4.3325 22.7225 3.3125 23.0625 C3.78756169 25.9807361 4.26759035 28.86938849 4.9375 31.75 C5.3125 34.0625 5.3125 34.0625 4.3125 37.0625 C0.61757279 39.06831763 -2.52617893 39.34622644 -6.6875 39.0625 C-7.6875 38.0625 -7.6875 38.0625 -7.75 35.5 C-7.729375 34.695625 -7.70875 33.89125 -7.6875 33.0625 C-6.0375 33.0625 -4.3875 33.0625 -2.6875 33.0625 C-2.81318359 32.20978516 -2.81318359 32.20978516 -2.94140625 31.33984375 C-3.60609497 26.29998881 -3.45012226 22.11487245 -2.6875 17.0625 C-3.00783957 15.06037771 -3.34009077 13.06010305 -3.6875 11.0625 C-3.25 8.1875 -3.25 8.1875 -2.6875 6.0625 C-4.3375 5.7325 -5.9875 5.4025 -7.6875 5.0625 C-7.6875 3.4125 -7.6875 1.7625 -7.6875 0.0625 C-4.39053895 -1.03648702 -3.28255097 -0.80874444 0 0 Z " fill="#3049FE" transform="translate(46.6875,2.9375)"/>
<path d="M0 0 C1 4 1 4 1 4 Z " fill="#1B5580" transform="translate(58,33)"/>
</svg>
