<?xml version="1.0" encoding="UTF-8"?>
<svg version="1.1" xmlns="http://www.w3.org/2000/svg" width="830" height="260">
<path d="M0 0 C9.11566472 0.01519277 17.87479478 0.87390256 24.6953125 7.53125 C32.25589482 16.62047465 32.40957049 28.68211325 32.3984375 39.98046875 C32.41870962 42.18685419 32.43956005 44.39323437 32.4609375 46.59960938 C32.48357384 50.02926126 32.500036 53.45870438 32.50585938 56.88842773 C32.51540079 60.23197735 32.54917139 63.57462291 32.5859375 66.91796875 C32.58089203 67.93585983 32.57584656 68.95375092 32.57064819 70.00248718 C32.66007332 76.50835186 33.703379 80.68195843 37.125 86.25 C38.9171499 87.94812138 38.9171499 87.94812138 40.875 88.75 C41.9475 89.245 43.02 89.74 44.125 90.25 C44.125 95.2 44.125 100.15 44.125 105.25 C42.4853125 106.11625 42.4853125 106.11625 40.8125 107 C36.62569752 109.39366687 34.66413351 111.63259946 33.125 116.25 C33.02466332 117.88367112 32.97939526 119.52101019 32.96728516 121.15771484 C32.95189194 122.65605362 32.95189194 122.65605362 32.93618774 124.18466187 C32.92888641 125.26583282 32.92158508 126.34700378 32.9140625 127.4609375 C32.88596649 129.76172553 32.85730189 132.06250667 32.828125 134.36328125 C32.78708357 137.98127852 32.75018973 141.59915105 32.72363281 145.21728516 C32.45167472 179.32927058 32.45167472 179.32927058 25.125 187.25 C15.30141788 195.03885353 5.00581513 194.50953237 -6.875 194.25 C-8.24752731 191.50494537 -8.00729255 189.24672588 -8 186.1875 C-8.00257813 185.10339844 -8.00515625 184.01929688 -8.0078125 182.90234375 C-7.875 180.25 -7.875 180.25 -6.875 179.25 C-4.98311609 178.95283005 -3.0862072 178.68739135 -1.1875 178.4375 C4.00217226 177.5920956 7.28984777 176.88330212 11.125 173.25 C13.81547595 167.53339305 13.42156763 161.56884981 13.43359375 155.38671875 C13.45875538 153.03189858 13.48415338 150.67708093 13.50976562 148.32226562 C13.538473 144.62931989 13.56250551 140.93641783 13.58129883 137.2434082 C13.60304121 133.66594985 13.64248783 130.08899954 13.68359375 126.51171875 C13.68370956 125.41768234 13.68382538 124.32364594 13.6839447 123.19645691 C13.78401124 115.38654509 14.44735568 108.4769047 19.5625 102.3125 C21.72302636 100.57353976 23.56939766 99.29117132 26.125 98.25 C26.125 97.59 26.125 96.93 26.125 96.25 C25.2896875 95.940625 25.2896875 95.940625 24.4375 95.625 C18.93473445 92.35308535 16.59803757 87.73909509 14.73388672 81.85964966 C13.62381886 77.10196958 13.70467379 72.36024508 13.71875 67.49609375 C13.70791382 66.39580338 13.69707764 65.295513 13.68591309 64.16188049 C13.64034635 59.49085509 13.62859365 54.81988926 13.61376953 50.14868164 C13.59802411 46.72262142 13.56501947 43.2970162 13.53125 39.87109375 C13.53427124 38.82505478 13.53729248 37.77901581 13.54040527 36.70127869 C13.47741187 30.52469431 12.79570118 25.85254834 10.125 20.25 C6.64546157 17.32766193 3.2511461 16.6965923 -1.1875 16.0625 C-2.25613281 15.90394531 -3.32476563 15.74539062 -4.42578125 15.58203125 C-5.23402344 15.47246094 -6.04226563 15.36289063 -6.875 15.25 C-7.06890729 12.93802845 -7.25496367 10.6253971 -7.4375 8.3125 C-7.59412109 6.38083984 -7.59412109 6.38083984 -7.75390625 4.41015625 C-7.79386719 3.36730469 -7.83382812 2.32445312 -7.875 1.25 C-5.94447822 -0.68052178 -2.55979448 0.03090295 0 0 Z " fill="#9A9D9B" transform="translate(748.875,54.75)"/>
<path d="M0 0 C0 4.95 0 9.9 0 15 C-5.22460938 15.92773438 -5.22460938 15.92773438 -10.44921875 16.85546875 C-14.55510901 18.17892953 -16.32609706 19.65142025 -19 23 C-20.03742558 26.07232875 -20.13456187 28.94893544 -20.15771484 32.17651367 C-20.17310806 33.72413643 -20.17310806 33.72413643 -20.18881226 35.30302429 C-20.19611359 36.41345596 -20.20341492 37.52388763 -20.2109375 38.66796875 C-20.23901353 41.02930372 -20.26767804 43.39063175 -20.296875 45.75195312 C-20.33806203 49.46687572 -20.37495856 53.18166983 -20.40136719 56.89672852 C-20.42909263 60.48741283 -20.4749718 64.07751227 -20.5234375 67.66796875 C-20.52669037 68.76827927 -20.52994324 69.86858978 -20.53329468 71.00224304 C-20.70143613 81.63394432 -22.77075172 88.62549483 -30.25 96.3125 C-30.8275 96.869375 -31.405 97.42625 -32 98 C-30.63875 98.99 -30.63875 98.99 -29.25 100 C-24.57952969 103.87549664 -22.24054055 109.13727214 -21 115 C-20.897897 116.66217914 -20.84462249 118.32770731 -20.82641602 119.99291992 C-20.81292618 120.98462692 -20.79943634 121.97633392 -20.78553772 122.99809265 C-20.77509933 124.06477676 -20.76466095 125.13146088 -20.75390625 126.23046875 C-20.72095703 128.50065474 -20.68774557 130.77083694 -20.65429688 133.04101562 C-20.60699046 136.61105652 -20.56257077 140.18108323 -20.52319336 143.7512207 C-20.48326167 147.20280099 -20.43175902 150.65406542 -20.37890625 154.10546875 C-20.3704921 155.16203171 -20.36207794 156.21859467 -20.35340881 157.30717468 C-20.25500456 163.26433867 -20.12526215 169.35775738 -18 175 C-15.84404736 176.67952863 -15.84404736 176.67952863 -13 177 C-11.90042969 177.20882812 -10.80085938 177.41765625 -9.66796875 177.6328125 C-7.94513672 177.87644531 -7.94513672 177.87644531 -6.1875 178.125 C-4.145625 178.41375 -2.10375 178.7025 0 179 C0 183.95 0 188.9 0 194 C-21.75274411 194.91805251 -21.75274411 194.91805251 -30.9375 187.6875 C-38.65614761 177.62986827 -39.28299917 167.41592955 -39.30859375 155.015625 C-39.33372925 152.75911173 -39.35912759 150.50260137 -39.38476562 148.24609375 C-39.41357578 144.73519503 -39.43763636 141.22434647 -39.45629883 137.71337891 C-39.47797059 134.29305155 -39.51737797 130.87326457 -39.55859375 127.453125 C-39.55870956 126.40819885 -39.55882538 125.36327271 -39.5589447 124.28668213 C-39.63811045 118.44055046 -40.12598755 114.14112327 -43 109 C-44.9891612 107.68415383 -44.9891612 107.68415383 -47.1875 107 C-49.32421875 105.86328125 -49.32421875 105.86328125 -51 104 C-51.72431962 98.91887062 -51.4616073 94.09691395 -51 89 C-50.05769531 88.5565625 -49.11539063 88.113125 -48.14453125 87.65625 C-43.7462935 85.33966266 -41.56601499 82.69804496 -40 78 C-39.89448877 76.31464517 -39.84410999 74.62557337 -39.82641602 72.93701172 C-39.81292618 71.90518768 -39.79943634 70.87336365 -39.78553772 69.81027222 C-39.77509933 68.69467926 -39.76466095 67.5790863 -39.75390625 66.4296875 C-39.72095297 64.06510067 -39.68774158 61.70051743 -39.65429688 59.3359375 C-39.60700039 55.61005243 -39.56259709 51.88418032 -39.52319336 48.15820312 C-39.48327269 44.56103998 -39.43176129 40.96418068 -39.37890625 37.3671875 C-39.36628502 35.71201614 -39.36628502 35.71201614 -39.35340881 34.02340698 C-39.16901652 22.38130746 -37.4542262 13.84381379 -29.375 5.1875 C-20.91125216 -1.15495408 -9.9764289 -0.27458061 0 0 Z " fill="#9D9F9D" transform="translate(83,55)"/>
<path d="M0 0 C8.09041649 6.65212022 12.55228285 14.07864109 14.8125 24.3125 C16.10123846 39.48406245 14.95099212 54.21487897 4.8125 66.3125 C-0.7816878 72.58136372 -7.89095524 75.63398838 -16.17578125 76.6953125 C-23.64993924 76.98613577 -32.23711111 75.88747396 -37.99609375 70.67578125 C-38.38925781 70.22589844 -38.78242187 69.77601563 -39.1875 69.3125 C-39.24142397 72.08359307 -39.28113455 74.85363818 -39.3125 77.625 C-39.32925781 78.41068359 -39.34601562 79.19636719 -39.36328125 80.00585938 C-39.36972656 80.76318359 -39.37617187 81.52050781 -39.3828125 82.30078125 C-39.39328613 82.99727783 -39.40375977 83.69377441 -39.41455078 84.41137695 C-39.29324595 86.643673 -39.29324595 86.643673 -37.1875 89.3125 C-34.6108497 89.52464273 -32.1742705 89.30714652 -29.59765625 89.125 C-27.1875 89.3125 -27.1875 89.3125 -25.36328125 90.62109375 C-24.1875 92.3125 -24.1875 92.3125 -24.3125 95.375 C-25.1875 98.3125 -25.1875 98.3125 -28.1875 100.3125 C-30.89815502 100.52035815 -33.5035597 100.61653514 -36.21484375 100.61328125 C-37.00016983 100.61756638 -37.78549591 100.6218515 -38.59461975 100.62626648 C-40.25472042 100.63200642 -41.91484625 100.6325125 -43.57495117 100.62817383 C-46.11225399 100.62501586 -48.64838839 100.64846885 -51.18554688 100.67382812 C-52.7994777 100.67610139 -54.41341165 100.67680449 -56.02734375 100.67578125 C-56.7847435 100.684991 -57.54214325 100.69420074 -58.32249451 100.70368958 C-61.52093281 100.67565993 -63.82961269 100.50411114 -66.67407227 98.98120117 C-68.1875 97.3125 -68.1875 97.3125 -68.5625 94.25 C-68.1875 91.3125 -68.1875 91.3125 -66.1875 89.3125 C-63.62109375 89.15234375 -63.62109375 89.15234375 -60.625 89.25 C-58.81319047 89.30418936 -57.00000532 89.33286523 -55.1875 89.3125 C-51.28613426 85.41113426 -53.05385203 73.38326475 -53.04855347 68.15457153 C-53.05034256 66.73065151 -53.05239334 65.3067318 -53.0546875 63.8828125 C-53.05401272 62.40070581 -53.05304124 60.91859923 -53.05178833 59.43649292 C-53.05032233 56.34860162 -53.05243222 53.26073945 -53.05712891 50.17285156 C-53.06285571 46.21512121 -53.05952172 42.25745825 -53.05355644 38.2997303 C-53.04994668 35.2474415 -53.05109081 32.19516876 -53.05368423 29.14287949 C-53.0543508 27.68282946 -53.05353453 26.22277797 -53.05120468 24.76272964 C-53.04866814 22.72870155 -53.05321903 20.69466833 -53.05810547 18.66064453 C-53.05890106 17.50420441 -53.05969666 16.34776428 -53.06051636 15.15628052 C-53.06098109 12.2360676 -53.06098109 12.2360676 -54.1875 9.3125 C-55.32638672 9.36470703 -55.32638672 9.36470703 -56.48828125 9.41796875 C-57.48214844 9.44503906 -58.47601562 9.47210938 -59.5 9.5 C-60.48613281 9.53480469 -61.47226562 9.56960937 -62.48828125 9.60546875 C-65.1875 9.3125 -65.1875 9.3125 -67.01953125 7.9921875 C-68.82407259 5.39702771 -68.57845659 3.37499332 -68.1875 0.3125 C-64.87179699 -1.89796868 -63.79635231 -1.94380672 -59.93359375 -1.953125 C-58.91458984 -1.95570312 -57.89558594 -1.95828125 -56.84570312 -1.9609375 C-55.78287109 -1.95320313 -54.72003906 -1.94546875 -53.625 -1.9375 C-52.55830078 -1.94523437 -51.49160156 -1.95296875 -50.39257812 -1.9609375 C-48.86600586 -1.95707031 -48.86600586 -1.95707031 -47.30859375 -1.953125 C-45.90758423 -1.94974121 -45.90758423 -1.94974121 -44.47827148 -1.94628906 C-42.1875 -1.6875 -42.1875 -1.6875 -40.1875 0.3125 C-39.5625 2.4375 -39.5625 2.4375 -39.1875 4.3125 C-38.78660156 3.91417969 -38.38570312 3.51585938 -37.97265625 3.10546875 C-26.99483946 -7.12555778 -12.86597951 -6.81140092 0 0 Z M-32.875 11.7734375 C-39.67746999 19.75014338 -39.3888868 28.22960513 -39.4375 38.25 C-39.458125 39.30896484 -39.47875 40.36792969 -39.5 41.45898438 C-39.53782086 49.03733937 -38.85213415 54.05572493 -33.9375 60.0625 C-29.82173549 63.42994369 -26.10782363 65.09913071 -20.8125 65.6875 C-14.73084652 65.05836343 -9.28939812 63.92993041 -4.875 59.4375 C2.05106672 50.27348415 2.80058716 38.61484214 1.4921875 27.62109375 C0.35656738 20.85899214 -1.65834056 14.91001511 -6.5 9.9375 C-15.03421464 4.7772772 -25.18309712 5.11424381 -32.875 11.7734375 Z " fill="#010100" transform="translate(640.1875,112.6875)"/>
<path d="M0 0 C5.26432058 5.03082249 7.24142987 10.90899078 7.72071838 18.13557434 C7.74403481 19.37134468 7.74403481 19.37134468 7.76782227 20.63208008 C7.7977401 22.04297661 7.7977401 22.04297661 7.82826233 23.4823761 C7.84497482 24.4846373 7.86168732 25.4868985 7.87890625 26.51953125 C7.89968735 27.55567062 7.92046844 28.59181 7.94187927 29.65934753 C8.0071213 32.96033265 8.06614179 36.26139549 8.125 39.5625 C8.16820932 41.80404441 8.21182438 44.04558103 8.25585938 46.28710938 C8.36277667 51.77465807 8.46458962 57.26228361 8.5625 62.75 C10.2125 62.75 11.8625 62.75 13.5625 62.75 C16.42115075 58.16927049 15.95053806 53.20805577 16.12109375 47.96484375 C16.5625 44.75 16.5625 44.75 17.94140625 42.8125 C19.5625 41.75 19.5625 41.75 22.0625 41.8125 C25.16533877 42.97606454 25.91567146 43.89046391 27.5625 46.75 C28.34817418 53.68589787 28.44504026 61.29860037 25.5625 67.75 C22.95171813 70.82938375 21.39976728 72.47091091 17.5625 73.75 C5.20699475 74.7562561 5.20699475 74.7562561 0.9375 72 C-1.15072782 70.0216789 -2.8838256 68.16682684 -4.4375 65.75 C-4.82679688 66.14832031 -5.21609375 66.54664063 -5.6171875 66.95703125 C-12.03814494 73.03770753 -18.69004618 74.85550206 -27.4375 75.125 C-36.3734185 74.83859236 -43.29417492 72.95126639 -49.80859375 66.62109375 C-54.5192451 61.21005779 -54.99781838 55.59625073 -54.7734375 48.68359375 C-54.15618228 43.29337669 -52.58154215 39.73992496 -48.58984375 36.03515625 C-39.82493027 29.5290771 -29.19412417 28.61187725 -18.6640625 27.22265625 C-14.81827548 26.65929035 -11.17698385 25.79705548 -7.4375 24.75 C-6.13898111 19.96432957 -5.6433932 15.69114996 -7.5625 11 C-10.55849855 7.40480174 -13.34748992 5.98012177 -18.02734375 5.46484375 C-23.95625781 5.2777861 -28.20611144 5.9599261 -33.4375 8.75 C-32.93993908 11.50641416 -32.93993908 11.50641416 -31.4375 13.75 C-31.0625 17.0625 -31.0625 17.0625 -31.4375 20.75 C-34.14256 23.94688909 -35.79365434 24.65802205 -39.9375 25.25 C-43.97511333 24.6731981 -45.58400217 23.60349783 -48.4375 20.75 C-50.51999458 16.58501084 -49.83105266 11.95525502 -48.4375 7.6875 C-43.50225279 0.43885566 -37.13504383 -3.82561404 -28.6875 -5.9375 C-18.23168646 -6.94286669 -8.49293485 -6.89663505 0 0 Z M-9.22265625 36.203125 C-9.97417969 36.46609375 -10.72570312 36.7290625 -11.5 37 C-14.87649388 38.09427977 -18.1656377 38.91056977 -21.66796875 39.4453125 C-22.41232178 39.5597168 -23.1566748 39.67412109 -23.92358398 39.79199219 C-25.40382689 40.00972661 -26.88651469 40.21158561 -28.37133789 40.39550781 C-33.7752552 41.2021931 -36.62328994 42.78976353 -40.4375 46.75 C-41.61905794 49.42752185 -41.69675869 51.84512418 -41.4375 54.75 C-39.86419516 58.4762483 -37.88633864 60.65979476 -34.4375 62.75 C-27.69399344 65.3078818 -20.78290204 63.52909525 -14.4375 60.75 C-9.5074114 57.64190067 -7.39591753 53.97376805 -5.75 48.4375 C-5.29678454 44.53984707 -5.36065741 40.66897189 -5.4375 36.75 C-7.35083144 35.52103383 -7.35083144 35.52103383 -9.22265625 36.203125 Z " fill="#020201" transform="translate(540.4375,114.25)"/>
<path d="M0 0 C6.42688629 4.38003967 10.37713371 9.28510324 12 17 C12.1108507 18.58712459 12.17538956 20.1778453 12.20532227 21.76855469 C12.2352401 23.17956451 12.2352401 23.17956451 12.26576233 24.61907959 C12.28247482 25.62650208 12.29918732 26.63392456 12.31640625 27.671875 C12.33718735 28.70942932 12.35796844 29.74698364 12.37937927 30.815979 C12.44471408 34.12725258 12.50368517 37.43860482 12.5625 40.75 C12.60570049 42.99610185 12.64931527 45.24219578 12.69335938 47.48828125 C12.80037903 52.99210457 12.90217522 58.49600598 13 64 C13.84304688 63.97679687 14.68609375 63.95359375 15.5546875 63.9296875 C16.65039062 63.91164063 17.74609375 63.89359375 18.875 63.875 C19.96554687 63.85179687 21.05609375 63.82859375 22.1796875 63.8046875 C25 64 25 64 27 66 C27.375 68.9375 27.375 68.9375 27 72 C24.52594067 74.72429891 22.98469782 75.00160058 19.28881836 75.38818359 C17.80595412 75.40791268 16.32279156 75.4103275 14.83984375 75.3984375 C13.66041954 75.40274277 13.66041954 75.40274277 12.45716858 75.40713501 C10.79883095 75.40917242 9.14046911 75.40366512 7.48217773 75.39111328 C4.94265157 75.37503262 2.40471163 75.39098296 -0.13476562 75.41015625 C-1.74739935 75.40817418 -3.36003208 75.40433125 -4.97265625 75.3984375 C-5.73208023 75.40451019 -6.49150421 75.41058289 -7.27394104 75.4168396 C-12.48388305 75.34721404 -12.48388305 75.34721404 -14.98217773 73.66650391 C-16.56367005 71.07709001 -16.31427671 68.95420111 -16 66 C-14 64 -14 64 -11.3984375 63.8046875 C-10.40070313 63.82789063 -9.40296875 63.85109375 -8.375 63.875 C-7.37210937 63.89304687 -6.36921875 63.91109375 -5.3359375 63.9296875 C-4.56507813 63.95289063 -3.79421875 63.97609375 -3 64 C-0.12621054 55.37863163 -0.81801998 45.31559142 -0.8125 36.3125 C-0.80025391 35.24966797 -0.78800781 34.18683594 -0.77539062 33.09179688 C-0.65761873 21.87841509 -0.65761873 21.87841509 -5.3125 12.0625 C-10.90739013 7.76874711 -16.07978699 7.16788915 -23 8 C-27.63628771 9.32352145 -30.3415237 11.18556879 -33.375 14.9375 C-38.25538257 25.11031499 -37.14318601 37.34722236 -36.625 48.3125 C-36.56656067 49.74669849 -36.50926289 51.18094396 -36.453125 52.61523438 C-36.31518439 56.07746203 -36.16199842 59.53880446 -36 63 C-33.15707701 63.75729651 -30.81800131 64.06618637 -27.875 63.9375 C-24 64 -24 64 -22 66 C-21.43925121 71.27103858 -21.43925121 71.27103858 -23.28320312 73.6681366 C-26.24879586 75.96879574 -29.89819462 75.40442148 -33.5 75.36328125 C-34.74813477 75.36402901 -34.74813477 75.36402901 -36.02148438 75.36479187 C-37.77997222 75.36245236 -39.53846347 75.35273102 -41.296875 75.33618164 C-43.98988765 75.31258859 -46.68191027 75.31562149 -49.375 75.32226562 C-51.08333924 75.31668877 -52.79167431 75.30957885 -54.5 75.30078125 C-55.30630859 75.30169266 -56.11261719 75.30260406 -56.94335938 75.30354309 C-60.80831979 75.25447945 -62.71103717 75.19264189 -66 73 C-66.3125 69.5 -66.3125 69.5 -66 66 C-64 64 -64 64 -61.3984375 63.8046875 C-60.40070313 63.82789063 -59.40296875 63.85109375 -58.375 63.875 C-57.37210937 63.89304687 -56.36921875 63.91109375 -55.3359375 63.9296875 C-54.56507813 63.95289063 -53.79421875 63.97609375 -53 64 C-51.27468244 60.99956046 -50.75088351 58.85184261 -50.75708008 55.40258789 C-50.75400345 54.49807388 -50.75092682 53.59355988 -50.74775696 52.66163635 C-50.75494247 51.69177292 -50.76212799 50.72190948 -50.76953125 49.72265625 C-50.76998947 48.71915634 -50.77044769 47.71565643 -50.7709198 46.68174744 C-50.77393866 44.56101295 -50.78181401 42.44028061 -50.79418945 40.31958008 C-50.8124117 37.07820755 -50.81469927 33.83712148 -50.81445312 30.59570312 C-50.81937 28.5338517 -50.82519905 26.47200221 -50.83203125 24.41015625 C-50.83314407 23.44231705 -50.8342569 22.47447784 -50.83540344 21.47731018 C-50.84178329 20.56964401 -50.84816315 19.66197784 -50.85473633 18.72680664 C-50.85854813 17.93278946 -50.86235992 17.13877228 -50.86628723 16.32069397 C-51.01114018 13.80665306 -51.45322008 11.45541966 -52 9 C-52.75925781 9.09539062 -53.51851563 9.19078125 -54.30078125 9.2890625 C-55.29464844 9.39992188 -56.28851563 9.51078125 -57.3125 9.625 C-58.79169922 9.79902344 -58.79169922 9.79902344 -60.30078125 9.9765625 C-63 10 -63 10 -66 8 C-66.375 4.5 -66.375 4.5 -66 1 C-62.7338047 -1.17746353 -61.75054166 -1.25606429 -57.96484375 -1.265625 C-56.99095703 -1.26820312 -56.01707031 -1.27078125 -55.01367188 -1.2734375 C-53.99853516 -1.26570313 -52.98339844 -1.25796875 -51.9375 -1.25 C-50.91849609 -1.25773437 -49.89949219 -1.26546875 -48.84960938 -1.2734375 C-47.87701172 -1.27085938 -46.90441406 -1.26828125 -45.90234375 -1.265625 C-45.01023193 -1.26336914 -44.11812012 -1.26111328 -43.19897461 -1.25878906 C-41 -1 -41 -1 -39 1 C-38.375 3.125 -38.375 3.125 -38 5 C-37.236875 4.2575 -36.47375 3.515 -35.6875 2.75 C-25.12054757 -5.97705954 -11.80361677 -6.00751242 0 0 Z " fill="#010201" transform="translate(404,112)"/>
<path d="M0 0 C2.22888246 4.45776491 1.22992729 10.5422677 1.25 15.4375 C1.270625 16.69111328 1.29125 17.94472656 1.3125 19.23632812 C1.32023437 21.03553711 1.32023437 21.03553711 1.328125 22.87109375 C1.3374707 23.97380615 1.34681641 25.07651855 1.35644531 26.21264648 C1 29 1 29 -0.36425781 30.85961914 C-2.70774892 32.4934172 -4.20906259 32.41864061 -7 32 C-9.24270868 30.32738034 -9.92805569 29.4536278 -10.37109375 26.66015625 C-10.39300781 25.80292969 -10.41492188 24.94570312 -10.4375 24.0625 C-10.74449755 20.07926731 -10.74449755 20.07926731 -12.5625 16.5625 C-18.5578659 12.71931673 -23.53594749 11.42611367 -30.66015625 12.4140625 C-34.16419692 13.29153512 -36.2471197 14.67063975 -39 17 C-40.56471233 20.12942465 -40.69701958 23.61082223 -40 27 C-37.0268621 30.99311952 -34.16439948 31.74358058 -29.375 32.625 C-28.13105469 32.86605469 -26.88710937 33.10710937 -25.60546875 33.35546875 C-23.46319083 33.73843284 -21.32020651 34.11753 -19.17578125 34.48828125 C-11.36585516 35.89823651 -3.74419466 38.25580534 2 44 C5.48125805 49.594879 6.52851202 54.95822452 5.4375 61.4375 C3.71333299 68.14005651 -0.17074571 73.03473431 -5.875 76.875 C-14.42720535 81.65843689 -24.38211845 82.37318827 -33.91796875 80.39453125 C-37.82249869 79.25835341 -41.39323039 77.88108166 -45 76 C-45.309375 76.804375 -45.61875 77.60875 -45.9375 78.4375 C-47 81 -47 81 -48 82 C-53.28664521 82.45970828 -53.28664521 82.45970828 -55.67260742 80.92211914 C-57.69091202 77.99953093 -57.37153337 75.5126128 -57.36328125 71.99609375 C-57.36377975 71.31700455 -57.36427826 70.63791534 -57.36479187 69.93824768 C-57.36245453 68.5051073 -57.35274586 67.07196257 -57.33618164 65.63891602 C-57.31254678 63.44184831 -57.31562767 61.245991 -57.32226562 59.04882812 C-57.27914633 48.27914633 -57.27914633 48.27914633 -55 46 C-49.66666667 45.66666667 -49.66666667 45.66666667 -47 47 C-46.65746895 49.07275202 -46.4007191 51.15998419 -46.1875 53.25 C-45.58789031 57.49839736 -45.28606626 59.60268575 -42.75 63.125 C-35.61506473 67.98972859 -28.67968875 69.94015971 -20 69 C-15.43029318 67.47676439 -11.90832632 65.91505466 -9 62 C-7.88148454 58.49531824 -7.70448931 56.74746822 -9.0625 53.3125 C-13.7185763 47.75524765 -20.49270905 47.17766505 -27.25 46.0625 C-46.70511644 42.55452909 -46.70511644 42.55452909 -52.94140625 34.78125 C-55.75314062 30.05006598 -55.65564174 24.3213713 -55 19 C-53.01009262 12.65833257 -49.85720499 7.87306083 -44.296875 4.18359375 C-36.39473557 0.11157292 -27.13511066 -1.54784902 -18.4453125 0.64453125 C-15.52459039 1.59166637 -12.7465606 2.6267197 -10 4 C-9.71125 3.360625 -9.4225 2.72125 -9.125 2.0625 C-6.87922036 -2.05476267 -4.09688328 -0.95884502 0 0 Z " fill="#010201" transform="translate(235,108)"/>
<path d="M0 0 C8.14155807 6.8350376 13.02118935 15.47526262 14.12890625 26.08203125 C15.03718299 39.9856521 13.86749233 52.44193758 5.10546875 63.92578125 C-1.30174563 70.91546967 -9.45701193 74.47035722 -18.8203125 75.36328125 C-28.30867748 75.65485713 -36.53916282 73.98207078 -43.98828125 67.875 C-50.03257604 62.11912591 -53.93948808 56.22449206 -55.87109375 48.08203125 C-56.05414063 47.33695313 -56.2371875 46.591875 -56.42578125 45.82421875 C-58.62556888 32.27815807 -57.03094906 18.93198506 -49.53125 7.3046875 C-38.17558944 -7.89853805 -15.51087648 -10.36168755 0 0 Z M-38.36328125 13.55859375 C-42.42442593 20.35522449 -43.40236342 27.21114322 -43.30859375 35.01953125 C-43.30174561 35.89617432 -43.29489746 36.77281738 -43.2878418 37.67602539 C-43.08708186 45.75980846 -41.6612026 51.71959238 -36.43359375 58.01953125 C-30.30105673 62.95547568 -25.76213277 64.60810052 -17.87109375 64.08203125 C-10.89024314 62.70784806 -6.78837271 58.89041039 -2.87109375 53.08203125 C2.50563009 42.54522812 2.10249493 30.93670026 -0.95703125 19.78515625 C-2.85698495 14.16648974 -5.88383866 10.25573904 -10.87109375 7.08203125 C-21.51762592 3.27351568 -30.82018387 4.92229385 -38.36328125 13.55859375 Z " fill="#010101" transform="translate(311.87109375,113.91796875)"/>
<path d="M0 0 C1.10923828 -0.00386719 2.21847656 -0.00773437 3.36132812 -0.01171875 C4.51955078 -0.00011719 5.67777344 0.01148437 6.87109375 0.0234375 C8.03318359 0.01183594 9.19527344 0.00023438 10.39257812 -0.01171875 C11.50052734 -0.00785156 12.60847656 -0.00398438 13.75 0 C15.27669312 0.00507568 15.27669312 0.00507568 16.83422852 0.01025391 C17.65076904 0.13835449 18.46730957 0.26645508 19.30859375 0.3984375 C21.72124649 4.0174166 21.55495096 6.58391271 21.47558594 10.75634766 C21.46933701 11.5031076 21.46308807 12.24986755 21.45664978 13.01925659 C21.43314244 15.4922352 21.39473552 17.96472502 21.35546875 20.4375 C21.33436272 22.16042344 21.31388431 23.88335468 21.29400635 25.60629272 C21.24995362 29.22284061 21.19859775 32.83919228 21.14208984 36.45556641 C21.07048807 41.07190601 21.01630677 45.68824858 20.96763229 50.30488014 C20.92820577 53.86708061 20.87965544 57.42911308 20.82840729 60.99116135 C20.80496841 62.69183199 20.7842483 64.3925425 20.76638031 66.09328079 C20.5088045 89.29025692 20.5088045 89.29025692 12.30859375 99.3984375 C6.1952625 105.21355747 -0.49345168 106.28567334 -8.69140625 106.3984375 C-15.0685333 105.84568491 -20.82265466 103.62502761 -25.69140625 99.3984375 C-27.83494204 95.82587785 -28.47581936 92.56645064 -28.69140625 88.3984375 C-27.17623997 84.38324687 -26.28588095 82.79475397 -22.69140625 80.3984375 C-19.07590233 79.93688381 -17.35504531 79.94436867 -14.31640625 82.0234375 C-12.25323939 85.03883521 -12.38595062 86.80933388 -12.69140625 90.3984375 C-12.69140625 91.3884375 -12.69140625 92.3784375 -12.69140625 93.3984375 C-9.4954256 94.99642783 -6.16817869 94.76617305 -2.69140625 94.3984375 C1.51314375 92.62318305 3.32351861 90.46784153 5.30859375 86.3984375 C6.48446279 82.8135446 6.43552138 79.39662597 6.43798828 75.64208984 C6.4397406 74.97172195 6.44149292 74.30135406 6.44329834 73.610672 C6.44768842 71.40187976 6.44478956 69.19316801 6.44140625 66.984375 C6.44207995 65.44788599 6.44305053 63.91139709 6.44430542 62.37490845 C6.4457784 59.15878278 6.44364007 55.94268493 6.43896484 52.7265625 C6.43325818 48.59931929 6.436555 44.47214098 6.44253731 40.34490013 C6.44614551 37.17426054 6.44500331 34.00363642 6.44240952 30.83299637 C6.44174146 29.31071592 6.44256444 27.78843407 6.44488907 26.26615524 C6.44742086 24.1427308 6.44356799 22.0194126 6.43798828 19.89599609 C6.43719269 18.68672455 6.43639709 17.477453 6.43557739 16.23153687 C6.5032853 13.44889082 6.5032853 13.44889082 5.30859375 11.3984375 C4.54933594 11.42164062 3.79007813 11.44484375 3.0078125 11.46875 C2.01394531 11.48679687 1.02007812 11.50484375 -0.00390625 11.5234375 C-1.48310547 11.55824219 -1.48310547 11.55824219 -2.9921875 11.59375 C-5.69140625 11.3984375 -5.69140625 11.3984375 -8.69140625 9.3984375 C-9.08152662 6.34249461 -9.33493696 4.31684449 -7.52368164 1.73193359 C-4.96771402 -0.1282523 -3.14146122 0.01043262 0 0 Z " fill="#010201" transform="translate(133.69140625,110.6015625)"/>
<path d="M0 0 C1.06412109 -0.00257812 2.12824219 -0.00515625 3.22460938 -0.0078125 C4.89040039 0.00378906 4.89040039 0.00378906 6.58984375 0.015625 C7.70423828 0.00789063 8.81863281 0.00015625 9.96679688 -0.0078125 C11.02962891 -0.00523438 12.09246094 -0.00265625 13.1875 0 C14.65135132 0.00338379 14.65135132 0.00338379 16.14477539 0.00683594 C18.52734375 0.265625 18.52734375 0.265625 20.52734375 2.265625 C20.75439453 4.62969971 20.75439453 4.62969971 20.72265625 7.62988281 C20.7160498 8.75154846 20.70944336 9.87321411 20.70263672 11.02886963 C20.68604004 12.24653015 20.66944336 13.46419067 20.65234375 14.71875 C20.64477051 15.96686462 20.63719727 17.21497925 20.62939453 18.50091553 C20.60073774 23.18315799 20.55441833 27.86510301 20.5065918 32.54718018 C20.46072764 37.12516918 20.43003784 41.70310746 20.40234375 46.28125 C20.38574707 47.4908136 20.36915039 48.7003772 20.35205078 49.94659424 C20.34544434 51.08086853 20.33883789 52.21514282 20.33203125 53.38378906 C20.32155762 54.37703186 20.31108398 55.37027466 20.30029297 56.39361572 C20.55413449 59.60450631 21.39925189 62.25935498 22.52734375 65.265625 C23.29820312 65.24242187 24.0690625 65.21921875 24.86328125 65.1953125 C26.36761719 65.16824219 26.36761719 65.16824219 27.90234375 65.140625 C28.90007813 65.11742187 29.8978125 65.09421875 30.92578125 65.0703125 C33.52734375 65.265625 33.52734375 65.265625 35.52734375 67.265625 C35.90234375 70.203125 35.90234375 70.203125 35.52734375 73.265625 C33.03354994 76.04034105 31.47530126 76.27072 27.72436523 76.63793945 C26.19910842 76.65093991 24.6736432 76.6469317 23.1484375 76.62890625 C22.33995865 76.62940475 21.5314798 76.62990326 20.69850159 76.63041687 C18.99306779 76.6280807 17.28763026 76.61837911 15.58227539 76.60180664 C12.97055294 76.57817665 10.35984934 76.58125357 7.74804688 76.58789062 C6.08983766 76.58231478 4.43163274 76.57520548 2.7734375 76.56640625 C1.60149086 76.56777336 1.60149086 76.56777336 0.40586853 76.56916809 C-3.40956473 76.51918563 -5.22302035 76.43204893 -8.47265625 74.265625 C-8.78515625 70.765625 -8.78515625 70.765625 -8.47265625 67.265625 C-6.47265625 65.265625 -6.47265625 65.265625 -3.87109375 65.0703125 C-2.87335937 65.09351563 -1.875625 65.11671875 -0.84765625 65.140625 C0.15523437 65.15867187 1.158125 65.17671875 2.19140625 65.1953125 C2.96226562 65.21851563 3.733125 65.24171875 4.52734375 65.265625 C6.2528609 62.26355273 6.77923684 60.10312317 6.78613281 56.65234375 C6.79558929 55.2907312 6.79558929 55.2907312 6.80523682 53.90161133 C6.80118835 52.92861084 6.79713989 51.95561035 6.79296875 50.953125 C6.79583893 49.44431763 6.79583893 49.44431763 6.79876709 47.9050293 C6.800127 45.78010813 6.79644411 43.6551786 6.78808594 41.53027344 C6.77738383 38.27780495 6.78798795 35.02588881 6.80078125 31.7734375 C6.79945962 29.70833211 6.79689716 27.64322707 6.79296875 25.578125 C6.79701721 24.60512451 6.80106567 23.63212402 6.80523682 22.62963867 C6.7989325 21.72189697 6.79262817 20.81415527 6.78613281 19.87890625 C6.78454163 19.08266846 6.78295044 18.28643066 6.78131104 17.46606445 C6.49929607 15.02261248 5.74567691 13.38529341 4.52734375 11.265625 C3.49673828 11.30042969 3.49673828 11.30042969 2.4453125 11.3359375 C1.09373047 11.36300781 1.09373047 11.36300781 -0.28515625 11.390625 C-1.17847656 11.41382812 -2.07179688 11.43703125 -2.9921875 11.4609375 C-5.47265625 11.265625 -5.47265625 11.265625 -8.47265625 9.265625 C-8.84765625 5.765625 -8.84765625 5.765625 -8.47265625 2.265625 C-5.10806707 0.02256554 -3.93749354 0.00909127 0 0 Z " fill="#030402" transform="translate(675.47265625,110.734375)"/>
<path d="M0 0 C2.8100346 1.79363911 4.50940468 3.01880935 6 6 C6.70153846 13.13230769 6.70153846 13.13230769 3.625 16.9375 C-0.15401664 19.90672736 -2.17380821 20.55686828 -7 20 C-10.95364129 17.53829882 -12.67678008 16.0457115 -14.0625 11.5625 C-13.99118687 7.49765169 -13.20649268 5.38854234 -11 2 C-7.31502204 -0.45665197 -4.28028214 -0.70086491 0 0 Z " fill="#9DA09C" transform="translate(460,169)"/>
<path d="M0 0 C2.8100346 1.79363911 4.50940468 3.01880935 6 6 C6.43103448 13.75862069 6.43103448 13.75862069 4 17 C0.98660438 19.5702492 -1.1993941 20.23964236 -5.0625 19.9375 C-7.74084848 19.45236518 -9.09774049 18.93734584 -11.4375 17.4375 C-13.61580694 14.03934118 -14.34844668 11.03423823 -14 7 C-10.55894767 0.47386627 -7.2947632 -1.04809816 0 0 Z " fill="#9D9F9C" transform="translate(460,119)"/>
<path d="M0 0 C2.53802389 0.54132677 3.58204971 1.17187245 5.359375 3.0390625 C7.234375 6.4765625 7.234375 6.4765625 7.296875 10.1015625 C6.12213452 13.83309108 5.52729344 15.36571735 2.234375 17.4765625 C-2.46603765 18.0734403 -4.60048182 18.14590007 -8.703125 15.7890625 C-11.03101521 13.17900378 -11.68080774 11.95406996 -11.765625 8.4765625 C-9.83598513 1.72282296 -6.81285609 -0.24490659 0 0 Z " fill="#020302" transform="translate(147.765625,86.5234375)"/>
<path d="M0 0 C3 2.0625 3 2.0625 5 5 C5.7878128 9.4117517 5.52975133 11.22192774 3 14.9375 C-1.15080314 17.79117716 -3.0301078 17.7099846 -8 17 C-11.34238038 14.85744848 -11.89167954 13.39717502 -12.9375 9.5625 C-13.00698608 5.60179332 -12.43366566 4.06461602 -10 1 C-6.77061633 -0.61469184 -3.49143247 -0.58079278 0 0 Z " fill="#000100" transform="translate(691,87)"/>
<path d="" fill="#798D55" transform="translate(0,0)"/>
</svg>
