<?xml version="1.0" encoding="UTF-8"?>
<svg version="1.1" xmlns="http://www.w3.org/2000/svg" width="160" height="160">
<path d="M0 0 C1.6260609 1.39148162 3.22959916 2.80961114 4.8125 4.25 C5.71742188 5.06210937 6.62234375 5.87421875 7.5546875 6.7109375 C18.20071549 16.76715784 25.45289894 28.20823275 29.8125 42.25 C30.17601562 43.39855469 30.53953125 44.54710937 30.9140625 45.73046875 C35.55024139 64.98879447 32.6051923 87.36067106 23.125 104.5625 C11.5965016 123.38806293 -6.10521396 139.04015609 -27.9453125 144.40625 C-34.75012375 145.72066022 -41.65323851 145.72807387 -48.5625 145.75 C-49.83416016 145.75644531 -51.10582031 145.76289063 -52.41601562 145.76953125 C-73.99587281 145.47592775 -91.95807722 136.17304917 -106.90136719 121.00683594 C-121.40041023 105.80417388 -128.7961374 87.01638397 -128.6875 66.125 C-128.68177979 64.84689453 -128.67605957 63.56878906 -128.67016602 62.25195312 C-128.29850248 42.49997589 -121.40367951 26.08093829 -108.1875 11.25 C-107.52234375 10.49074219 -106.8571875 9.73148438 -106.171875 8.94921875 C-97.17931608 -0.69280276 -85.63118706 -7.53600239 -73.1875 -11.75 C-72.28902344 -12.06839844 -71.39054687 -12.38679687 -70.46484375 -12.71484375 C-46.86450404 -19.60754054 -19.4411654 -14.96417778 0 0 Z M-58.1875 33.25 C-67.56617919 43.30210449 -70.80163524 54.67886922 -70.59033203 68.1472168 C-70.15964632 78.85961151 -66.68257215 88.52199608 -59.16015625 96.36328125 C-53.72020563 101.52575351 -53.72020563 101.52575351 -46.75 103.12890625 C-40.02288663 100.8215884 -33.68709527 93.88740694 -30.21484375 87.74609375 C-24.39281176 73.60054834 -23.88211636 60.4797854 -28.99609375 45.953125 C-32.68149128 37.76335271 -39.04839311 30.99398917 -47.1875 27.25 C-51.45022995 27.25 -55.02849764 30.65024686 -58.1875 33.25 Z " fill="#2A2A2A" transform="translate(128.1875,14.75)"/>
<path d="M0 0 C0.73863281 0.4125 1.47726563 0.825 2.23828125 1.25 C15.60241854 9.37465687 25.33768724 22.13162946 30 37 C29.67 37.66 29.34 38.32 29 39 C28.01 37.35 27.02 35.7 26 34 C24.02288891 35.43170114 22.16563775 36.83436225 20.4375 38.5625 C19 40 19 40 16 42 C15.01 42 14.02 42 13 42 C13 42.66 13 43.32 13 44 C11.625 45.625 11.625 45.625 10 47 C9.34 47 8.68 47 8 47 C7.505 47.99 7.505 47.99 7 49 C5.01310269 50.35278115 3.01254782 51.68568305 1 53 C0.01 53.99 0.01 53.99 -1 55 C-1.71285156 54.10796875 -2.42570312 53.2159375 -3.16015625 52.296875 C-4.127022 51.11410719 -5.09450297 49.93184212 -6.0625 48.75 C-6.52849609 48.16347656 -6.99449219 47.57695313 -7.47460938 46.97265625 C-10.90546522 42.81828659 -14.18611509 40.42797691 -19 38 C-19 37.34 -19 36.68 -19 36 C-29.23397543 34.45524899 -38.75546126 33.56974338 -48 39 C-59.30626978 47.52576492 -68.4446905 59.25422526 -70.515625 73.5625 C-71.08890664 78.36421465 -71.33627528 83.17140018 -71.5625 88 C-71.60568359 88.87011719 -71.64886719 89.74023438 -71.69335938 90.63671875 C-71.79824218 92.75768219 -71.89950075 94.87882433 -72 97 C-72.99 97 -73.98 97 -75 97 C-75 97.66 -75 98.32 -75 99 C-75.66 99 -76.32 99 -77 99 C-77.33 99.66 -77.66 100.32 -78 101 C-78.495 100.505 -78.495 100.505 -79 100 C-79.66 100.99 -80.32 101.98 -81 103 C-82.97321053 104.3726682 -84.97543152 105.70427617 -87 107 C-87.7425 107.5775 -88.485 108.155 -89.25 108.75 C-91 110 -91 110 -93 110 C-98.48784657 98.71787888 -100.56527215 88.42708241 -100.5 75.875 C-100.49427979 74.59689453 -100.48855957 73.31878906 -100.48266602 72.00195312 C-100.11100248 52.24997589 -93.21617951 35.83093829 -80 21 C-79.33484375 20.24074219 -78.6696875 19.48148438 -77.984375 18.69921875 C-60.63731313 0.09931352 -23.82076306 -14.30139621 0 0 Z " fill="#2B2B2B" transform="translate(100,5)"/>
<path d="M0 0 C-1.66215268 1.33895632 -3.32963607 2.67130142 -5 4 C-5.721875 4.5775 -6.44375 5.155 -7.1875 5.75 C-9 7 -9 7 -11 7 C-11.26941406 7.57621094 -11.53882813 8.15242188 -11.81640625 8.74609375 C-13.01815935 11.03458067 -14.40866498 12.98126148 -15.9375 15.0625 C-22.92394561 25.60195463 -23.63799711 38.78923367 -21.4609375 51.03125 C-19.96943103 56.34166866 -17.60351701 61.15207178 -15 66 C-15.66 66 -16.32 66 -17 66 C-17.495 67.485 -17.495 67.485 -18 69 C-19.9375 71.6875 -19.9375 71.6875 -22 74 C-22.66 74 -23.32 74 -24 74 C-24.495 75.485 -24.495 75.485 -25 77 C-25.66 77 -26.32 77 -27 77 C-27.33 77.66 -27.66 78.32 -28 79 C-29.66666667 80.33333333 -31.33333333 81.66666667 -33 83 C-33.33 83.66 -33.66 84.32 -34 85 C-34.97753644 86.02196992 -35.9805881 87.01979625 -37 88 C-37.495 88.556875 -37.99 89.11375 -38.5 89.6875 C-40 91 -40 91 -43 91 C-34.48012037 105.13297679 -23.80391664 113.33654919 -8 118 C-8 118.33 -8 118.66 -8 119 C-23.38793278 119.87101506 -40.38124795 112.44435459 -51.82763672 102.39550781 C-71.84646005 83.97598442 -71.84646005 83.97598442 -73 74 C-70.96337175 71.96337175 -68.80816871 70.13391814 -66.58203125 68.30859375 C-65.15629705 67.12928275 -63.76336539 65.9105838 -62.375 64.6875 C-60 63 -60 63 -56 63 C-56 62.34 -56 61.68 -56 61 C-55.01 61 -54.02 61 -53 61 C-53.02320312 59.75605469 -53.04640625 58.51210937 -53.0703125 57.23046875 C-53.32850674 37.77592377 -50.51546146 22.80067722 -36.6875 8.25 C-25.94011693 -2.1342958 -14.19407352 -4.28500333 0 0 Z " fill="#727272" transform="translate(81,41)"/>
<path d="M0 0 C2.53888607 1.95422145 4.91950985 4.00003328 7.2890625 6.15625 C8.19398438 6.96835937 9.09890625 7.78046875 10.03125 8.6171875 C17.13342219 15.32588754 26.65502056 25.07965805 28.2890625 35.15625 C26.8040625 34.66125 26.8040625 34.66125 25.2890625 34.15625 C24.6015625 32.09375 24.6015625 32.09375 24.2890625 30.15625 C22.9690625 30.15625 21.6490625 30.15625 20.2890625 30.15625 C19.9590625 31.14625 19.6290625 32.13625 19.2890625 33.15625 C18.2990625 33.65125 18.2990625 33.65125 17.2890625 34.15625 C16.33 35.4246875 16.33 35.4246875 15.3515625 36.71875 C14.6709375 37.523125 13.9903125 38.3275 13.2890625 39.15625 C12.2990625 39.15625 11.3090625 39.15625 10.2890625 39.15625 C10.2890625 40.14625 10.2890625 41.13625 10.2890625 42.15625 C9.2990625 42.15625 8.3090625 42.15625 7.2890625 42.15625 C7.29075439 43.31072632 7.29075439 43.31072632 7.29248047 44.48852539 C7.21673504 66.5123328 5.28365925 82.18843502 -10.0234375 98.96875 C-17.66065549 106.2611726 -26.52839715 108.39381821 -36.7734375 108.32421875 C-41.19331227 108.07148655 -45.41671124 107.19953273 -49.7109375 106.15625 C-49.2159375 105.16625 -49.2159375 105.16625 -48.7109375 104.15625 C-47.7209375 104.115 -46.7309375 104.07375 -45.7109375 104.03125 C-39.36579702 103.28706686 -35.184614 97.95557505 -31.16796875 93.41015625 C-25.21374665 85.1841694 -23.21422147 73.13030778 -23.7109375 63.15625 C-24.11463322 60.89149163 -24.59049481 58.63802074 -25.1484375 56.40625 C-25.41527344 55.31828125 -25.68210938 54.2303125 -25.95703125 53.109375 C-26.20582031 52.13484375 -26.45460937 51.1603125 -26.7109375 50.15625 C-27.04427083 48.82291667 -27.37760417 47.48958333 -27.7109375 46.15625 C-26.9065625 45.8675 -26.1021875 45.57875 -25.2734375 45.28125 C-22.5782907 44.42362432 -22.5782907 44.42362432 -21.7109375 42.15625 C-20.59796715 41.07954184 -19.44711406 40.04144147 -18.2734375 39.03125 C-17.65597656 38.49242187 -17.03851563 37.95359375 -16.40234375 37.3984375 C-14.7109375 36.15625 -14.7109375 36.15625 -12.7109375 36.15625 C-12.7109375 35.49625 -12.7109375 34.83625 -12.7109375 34.15625 C-11.6590625 33.599375 -10.6071875 33.0425 -9.5234375 32.46875 C-5.97140277 30.4544864 -3.46180064 28.1571916 -0.7109375 25.15625 C0.2790625 25.81625 1.2690625 26.47625 2.2890625 27.15625 C-4.71373277 10.18173244 -14.56339337 -1.45090744 -31.1171875 -9.5 C-37.25416788 -11.73575848 -43.7755004 -11.15878153 -50.2109375 -11.03125 C-51.5103125 -11.01771484 -52.8096875 -11.00417969 -54.1484375 -10.99023438 C-57.33637162 -10.95507334 -60.52343349 -10.90585664 -63.7109375 -10.84375 C-63.7109375 -11.17375 -63.7109375 -11.50375 -63.7109375 -11.84375 C-41.35788405 -15.94983461 -18.93718344 -12.8794677 0 0 Z " fill="#6F6F6F" transform="translate(125.7109375,12.84375)"/>
<path d="M0 0 C2.63201075 -0.07995476 5.26311154 -0.13043122 7.89599609 -0.171875 C8.73573975 -0.1934668 9.5754834 -0.21505859 10.44067383 -0.23730469 C16.1789568 -0.26678702 20.42554901 0.64506595 25.64599609 3.078125 C26.14099609 4.068125 26.14099609 4.068125 26.64599609 5.078125 C23.64599609 7.078125 23.64599609 7.078125 20.64599609 7.078125 C20.31599609 7.738125 19.98599609 8.398125 19.64599609 9.078125 C17.65268768 10.42144154 15.65214743 11.75406512 13.64599609 13.078125 C12.62580036 14.0575129 11.62449804 15.05707949 10.64599609 16.078125 C7.15703877 19.06865985 3.47379323 21.45597459 -0.42822266 23.8515625 C-3.58552239 25.86249986 -6.43162934 28.08479854 -8.97900391 30.828125 C-10.35400391 32.078125 -10.35400391 32.078125 -13.35400391 32.078125 C-13.35400391 32.738125 -13.35400391 33.398125 -13.35400391 34.078125 C-14.99733895 35.11602081 -16.66644257 36.11380424 -18.35400391 37.078125 C-19.01400391 37.738125 -19.67400391 38.398125 -20.35400391 39.078125 C-23.54971065 41.84197948 -26.34943019 43.7051283 -30.35400391 45.078125 C-30.35400391 45.738125 -30.35400391 46.398125 -30.35400391 47.078125 C-32.02067057 48.078125 -33.68733724 49.078125 -35.35400391 50.078125 C-36.19962891 50.944375 -37.04525391 51.810625 -37.91650391 52.703125 C-40.23763209 54.96473707 -41.21512253 55.7293604 -44.35400391 56.078125 C-44.35400391 56.738125 -44.35400391 57.398125 -44.35400391 58.078125 C-45.34400391 58.078125 -46.33400391 58.078125 -47.35400391 58.078125 C-48.36131471 59.40594378 -49.36013057 60.74021859 -50.35400391 62.078125 C-53.02559878 63.88145154 -55.29131997 65.05723036 -58.35400391 66.078125 C-58.68400391 67.068125 -59.01400391 68.058125 -59.35400391 69.078125 C-60.83900391 69.573125 -60.83900391 69.573125 -62.35400391 70.078125 C-63.83900391 71.068125 -63.83900391 71.068125 -65.35400391 72.078125 C-66.01400391 72.078125 -66.67400391 72.078125 -67.35400391 72.078125 C-67.35400391 72.738125 -67.35400391 73.398125 -67.35400391 74.078125 C-68.34400391 74.078125 -69.33400391 74.078125 -70.35400391 74.078125 C-70.35400391 75.728125 -70.35400391 77.378125 -70.35400391 79.078125 C-70.68400391 79.078125 -71.01400391 79.078125 -71.35400391 79.078125 C-71.7812272 57.62202162 -66.48411287 40.0822957 -51.46606445 24.23510742 C-50.10745922 22.83759888 -48.73119392 21.45732258 -47.35400391 20.078125 C-46.69658203 19.40910156 -46.03916016 18.74007813 -45.36181641 18.05078125 C-32.77165393 6.13605667 -17.01100425 0.56456351 0 0 Z " fill="#0E0E0E" transform="translate(72.35400390625,0.921875)"/>
<path d="M0 0 C0.33 0 0.66 0 1 0 C2.15909166 23.46516663 -3.75215884 41.34379848 -19.37890625 59.25390625 C-32.64145574 73.14894692 -50.32834557 83.56609703 -69.83203125 84.3359375 C-84.45492638 84.56397485 -84.45492638 84.56397485 -90 83 C-90 82.34 -90 81.68 -90 81 C-88.02 81 -86.04 81 -84 81 C-83.505 80.01 -83.505 80.01 -83 79 C-82.01 78.01 -82.01 78.01 -81 77 C-80.54625 76.484375 -80.0925 75.96875 -79.625 75.4375 C-78 74 -78 74 -75.9375 73.625 C-74.9784375 73.315625 -74.9784375 73.315625 -74 73 C-73.29788106 71.34795544 -72.63028587 69.68076231 -72 68 C-70.515 67.505 -70.515 67.505 -69 67 C-69 66.34 -69 65.68 -69 65 C-68.01 65 -67.02 65 -66 65 C-65.67 64.01 -65.34 63.02 -65 62 C-64.01 62 -63.02 62 -62 62 C-62.33 61.01 -62.66 60.02 -63 59 C-61.2421875 58.05598958 -59.484375 57.11197917 -57.7265625 56.16796875 C-55.69497635 54.95236507 -55.69497635 54.95236507 -54 52 C-51.05939607 48.84157355 -47.80877675 46.11175123 -44.48828125 43.3671875 C-42.87617982 42.04914224 -42.87617982 42.04914224 -42 40 C-41.34 40 -40.68 40 -40 40 C-40 39.34 -40 38.68 -40 38 C-39.360625 37.71125 -38.72125 37.4225 -38.0625 37.125 C-35.84793921 36.17176549 -35.84793921 36.17176549 -35 34 C-33.22669684 31.8720362 -32.07605012 31.02782321 -29.4375 30.0625 C-26.8745412 29.21873536 -26.8745412 29.21873536 -25.75 27 C-25.37875 26.01 -25.37875 26.01 -25 25 C-24.67 24.34 -24.34 23.68 -24 23 C-23.34 23 -22.68 23 -22 23 C-21.67 22.34 -21.34 21.68 -21 21 C-19 19 -17 17 -15 15 C-14.46375 14.4225 -13.9275 13.845 -13.375 13.25 C-12 12 -12 12 -10 12 C-10 11.34 -10 10.68 -10 10 C-9.34 10 -8.68 10 -8 10 C-7.67 9.01 -7.34 8.02 -7 7 C-6.01 7 -5.02 7 -4 7 C-3.67 6.01 -3.34 5.02 -3 4 C-2.34 4 -1.68 4 -1 4 C-0.67 2.68 -0.34 1.36 0 0 Z " fill="#0F0F0F" transform="translate(159,76)"/>
<path d="M0 0 C-1.66215268 1.33895632 -3.32963607 2.67130142 -5 4 C-5.721875 4.5775 -6.44375 5.155 -7.1875 5.75 C-9 7 -9 7 -11 7 C-11.26941406 7.57621094 -11.53882813 8.15242188 -11.81640625 8.74609375 C-13.01815935 11.03458067 -14.40866498 12.98126148 -15.9375 15.0625 C-23.28177722 26.19563418 -22.33927131 38.17051821 -22 51 C-25.00617269 47.99382731 -24.59585316 45.17618402 -25 41 C-25.66 42.32 -26.32 43.64 -27 45 C-27.66 45 -28.32 45 -29 45 C-29.103125 45.639375 -29.20625 46.27875 -29.3125 46.9375 C-29.539375 47.618125 -29.76625 48.29875 -30 49 C-31.485 49.495 -31.485 49.495 -33 50 C-35.17109497 50.82719145 -35.17109497 50.82719145 -35.9375 53 C-37 55 -37 55 -40 56 C-40 56.66 -40 57.32 -40 58 C-40.66 58 -41.32 58 -42 58 C-42.33 58.66 -42.66 59.32 -43 60 C-44.64363134 60.72159424 -46.31050386 61.39351421 -48 62 C-47.67 62.99 -47.34 63.98 -47 65 C-48.65 65 -50.3 65 -52 65 C-54.888012 47.16363789 -53.2330361 30.32046897 -42.7578125 15.265625 C-31.37168681 0.59017411 -18.13960106 -5.47610598 0 0 Z " fill="#A5A5A5" transform="translate(81,41)"/>
<path d="M0 0 C0.33 0 0.66 0 1 0 C2.12912861 18.25424579 -1.82361387 30.72563853 -13.6484375 44.98828125 C-19.69027376 51.61160879 -27.58252152 55.57611125 -36.54296875 56.16796875 C-42.93640145 56.2151876 -48.78815143 55.50916928 -55 54 C-54.67 53.34 -54.34 52.68 -54 52 C-52.515 51.938125 -52.515 51.938125 -51 51.875 C-44.65485952 51.13081686 -40.4736765 45.79932505 -36.45703125 41.25390625 C-29.65181771 31.85224201 -28.23474169 18.2237885 -29 7 C-26.41073669 9.58926331 -26.62601957 11.02705279 -26.375 14.625 C-26.30023438 15.62789062 -26.22546875 16.63078125 -26.1484375 17.6640625 C-26.07496094 18.82035156 -26.07496094 18.82035156 -26 20 C-22.63900297 18.42082052 -20.59142023 16.66994812 -18 14 C-9.72727273 7 -9.72727273 7 -6 7 C-6 6.34 -6 5.68 -6 5 C-5.195625 4.731875 -4.39125 4.46375 -3.5625 4.1875 C-2.716875 3.795625 -1.87125 3.40375 -1 3 C-0.67 2.01 -0.34 1.02 0 0 Z " fill="#A1A1A1" transform="translate(131,65)"/>
<path d="M0 0 C3 0 3 0 4.46484375 1.4609375 C5.19380859 2.40839844 5.19380859 2.40839844 5.9375 3.375 C8.06593577 6.13345276 9.78135722 7.62356097 13 9 C13 9.66 13 10.32 13 11 C17.455 11.99 17.455 11.99 22 13 C21.67 14.65 21.34 16.3 21 18 C20.34 18 19.68 18 19 18 C18.67 18.66 18.34 19.32 18 20 C17.01 20.33 16.02 20.66 15 21 C14.67 21.66 14.34 22.32 14 23 C13.01 23.66 12.02 24.32 11 25 C10.731875 25.61875 10.46375 26.2375 10.1875 26.875 C8.48939818 29.91370851 5.87451619 31.12531553 3 33 C3 33.66 3 34.32 3 35 C1 36.33333333 -1 37.66666667 -3 39 C-4.02323436 40.31558703 -5.03126968 41.64377755 -6 43 C-6.66 43 -7.32 43 -8 43 C-8.33 43.66 -8.66 44.32 -9 45 C-16.2244679 39.02444277 -23.66221673 32.45095641 -28 24 C-27.67 23.34 -27.34 22.68 -27 22 C-26.67 22.99 -26.34 23.98 -26 25 C-25.401875 24.360625 -24.80375 23.72125 -24.1875 23.0625 C-22 21 -22 21 -19 20 C-18.70222656 19.38382813 -18.40445313 18.76765625 -18.09765625 18.1328125 C-16.68383807 15.38567825 -15.05207424 14.47815788 -12.4375 12.875 C-9.12890878 10.98528237 -9.12890878 10.98528237 -7 8 C-6.34 8 -5.68 8 -5 8 C-4.67 7.01 -4.34 6.02 -4 5 C-3.34 5 -2.68 5 -2 5 C-1.67 4.01 -1.34 3.02 -1 2 C-0.67 1.34 -0.34 0.68 0 0 Z " fill="#616161" transform="translate(64,107)"/>
<path d="M0 0 C1.44010481 0.25662245 2.8770687 0.53090821 4.3125 0.8125 C5.11300781 0.96332031 5.91351563 1.11414063 6.73828125 1.26953125 C9.23445587 2.07572236 10.32422106 3.02052002 12 5 C9 7 9 7 6 7 C5.67 7.66 5.34 8.32 5 9 C3.00669158 10.34331654 1.00615134 11.67594012 -1 13 C-2.02019573 13.9793879 -3.02149805 14.97895449 -4 16 C-7.48895732 18.99053485 -11.17220287 21.37784959 -15.07421875 23.7734375 C-18.23151848 25.78437486 -21.07762543 28.00667354 -23.625 30.75 C-25 32 -25 32 -28 32 C-28 32.66 -28 33.32 -28 34 C-29.64333504 35.03789581 -31.31243867 36.03567924 -33 37 C-33.66 37.66 -34.32 38.32 -35 39 C-38.19570675 41.76385448 -40.99542629 43.6270033 -45 45 C-45 45.66 -45 46.32 -45 47 C-46.66666667 48 -48.33333333 49 -50 50 C-50.845625 50.86625 -51.69125 51.7325 -52.5625 52.625 C-54.88362818 54.88661207 -55.86111862 55.6512354 -59 56 C-59 56.66 -59 57.32 -59 58 C-59.99 58 -60.98 58 -62 58 C-63.0073108 59.32781878 -64.00612666 60.66209359 -65 62 C-67.67159488 63.80332654 -69.93731607 64.97910536 -73 66 C-73.33 66.99 -73.66 67.98 -74 69 C-75.485 69.495 -75.485 69.495 -77 70 C-78.485 70.99 -78.485 70.99 -80 72 C-80.66 72 -81.32 72 -82 72 C-82 72.66 -82 73.32 -82 74 C-82.99 74 -83.98 74 -85 74 C-85 75.65 -85 77.3 -85 79 C-85.33 79 -85.66 79 -86 79 C-86.39634801 59.09452202 -86.39634801 59.09452202 -83 54 C-83.33 56.64 -83.66 59.28 -84 62 C-80.56001929 60.79135813 -78.50075729 59.61442808 -76 57 C-74.515 56.505 -74.515 56.505 -73 56 C-72.67 55.01 -72.34 54.02 -72 53 C-69.9375 52.3125 -69.9375 52.3125 -68 52 C-68 51.34 -68 50.68 -68 50 C-67.36191406 49.82984375 -66.72382812 49.6596875 -66.06640625 49.484375 C-65.24011719 49.24203125 -64.41382812 48.9996875 -63.5625 48.75 C-62.32693359 48.40195313 -62.32693359 48.40195313 -61.06640625 48.046875 C-60.38449219 47.70140625 -59.70257813 47.3559375 -59 47 C-58.3430442 44.99744573 -58.3430442 44.99744573 -58 43 C-55.4375 41.75 -55.4375 41.75 -53 41 C-53 40.34 -53 39.68 -53 39 C-52.4225 38.87625 -51.845 38.7525 -51.25 38.625 C-48.94900359 37.98583433 -47.05890385 37.20694364 -45 36 C-44.505 35.01 -44.505 35.01 -44 34 C-42 32.66666667 -40 31.33333333 -38 30 C-36.64631404 28.68733482 -35.31200404 27.35432675 -34 26 C-32.35360035 24.64172029 -30.68704193 23.30745749 -29 22 C-28.278125 21.4225 -27.55625 20.845 -26.8125 20.25 C-25 19 -25 19 -23 19 C-22.67 18.34 -22.34 17.68 -22 17 C-20.55642203 15.90954775 -19.07076266 14.87407318 -17.5625 13.875 C-16.75941406 13.33617187 -15.95632812 12.79734375 -15.12890625 12.2421875 C-13 11 -13 11 -11 11 C-10.67 10.01 -10.34 9.02 -10 8 C-9.34 7.67 -8.68 7.34 -8 7 C-7.34 6.34 -6.68 5.68 -6 5 C-2.30769231 2 -2.30769231 2 0 2 C0 1.34 0 0.68 0 0 Z " fill="#1B1B1B" transform="translate(87,1)"/>
<path d="M0 0 C8.13324441 4.44419291 13.05508816 15.85288381 15.56640625 24.40234375 C15.23640625 25.06234375 14.90640625 25.72234375 14.56640625 26.40234375 C13.57640625 24.75234375 12.58640625 23.10234375 11.56640625 21.40234375 C9.58929516 22.83404489 7.732044 24.236706 6.00390625 25.96484375 C4.56640625 27.40234375 4.56640625 27.40234375 1.56640625 29.40234375 C0.57640625 29.40234375 -0.41359375 29.40234375 -1.43359375 29.40234375 C-1.43359375 30.06234375 -1.43359375 30.72234375 -1.43359375 31.40234375 C-2.80859375 33.02734375 -2.80859375 33.02734375 -4.43359375 34.40234375 C-5.09359375 34.40234375 -5.75359375 34.40234375 -6.43359375 34.40234375 C-6.76359375 35.06234375 -7.09359375 35.72234375 -7.43359375 36.40234375 C-9.42049106 37.7551249 -11.42104593 39.0880268 -13.43359375 40.40234375 C-14.09359375 41.06234375 -14.75359375 41.72234375 -15.43359375 42.40234375 C-16.14644531 41.5103125 -16.85929687 40.61828125 -17.59375 39.69921875 C-18.56061575 38.51645094 -19.52809672 37.33418587 -20.49609375 36.15234375 C-20.96208984 35.56582031 -21.42808594 34.97929688 -21.90820312 34.375 C-25.33905897 30.22063034 -28.61970884 27.83032066 -33.43359375 25.40234375 C-30.80859375 19.65234375 -30.80859375 19.65234375 -27.43359375 17.40234375 C-26.63824219 16.83257812 -25.84289062 16.2628125 -25.0234375 15.67578125 C-23.71052734 14.73605469 -23.71052734 14.73605469 -22.37109375 13.77734375 C-21.05431641 12.82988281 -21.05431641 12.82988281 -19.7109375 11.86328125 C-17.43359375 10.40234375 -17.43359375 10.40234375 -15.43359375 10.40234375 C-15.10359375 9.74234375 -14.77359375 9.08234375 -14.43359375 8.40234375 C-12.4649936 6.66265059 -10.49760095 5.01994939 -8.43359375 3.40234375 C-7.42296875 2.59796875 -6.41234375 1.79359375 -5.37109375 0.96484375 C-2.43359375 -0.59765625 -2.43359375 -0.59765625 0 0 Z " fill="#616161" transform="translate(114.43359375,17.59765625)"/>
<path d="M0 0 C0.33 0 0.66 0 1 0 C1.05444001 3.00024947 1.0938836 5.99949039 1.125 9 C1.14175781 9.83917969 1.15851563 10.67835937 1.17578125 11.54296875 C1.21849117 17.05254877 0.55502007 21.71048292 -1 27 C-1.99 26.01 -1.99 26.01 -3 25 C-3 23.68 -3 22.36 -3 21 C-2.34 21 -1.68 21 -1 21 C-1.495 19.515 -1.495 19.515 -2 18 C-2.99 18 -3.98 18 -5 18 C-5.33 18.66 -5.66 19.32 -6 20 C-7.72269359 21.54999248 -9.51354823 22.99957695 -11.30859375 24.46484375 C-13.23379984 26.08710661 -13.23379984 26.08710661 -15 29 C-16.31558703 30.02323436 -17.65368175 31.01755155 -19 32 C-26.71305679 38.32714506 -26.71305679 38.32714506 -33 46 C-34.546875 47.0209375 -34.546875 47.0209375 -36.125 48.0625 C-37.07375 48.701875 -38.0225 49.34125 -39 50 C-39 50.66 -39 51.32 -39 52 C-41.475 52.495 -41.475 52.495 -44 53 C-44.061875 53.78375 -44.12375 54.5675 -44.1875 55.375 C-44.455625 56.24125 -44.72375 57.1075 -45 58 C-47.5625 59.3125 -47.5625 59.3125 -50 60 C-50 60.66 -50 61.32 -50 62 C-50.99 62.33 -51.98 62.66 -53 63 C-53.66 63.99 -54.32 64.98 -55 66 C-56.73152392 67.5681726 -58.53186555 69.02592452 -60.34375 70.5 C-62.2388252 72.09351395 -62.2388252 72.09351395 -64 75 C-65.485 75.495 -65.485 75.495 -67 76 C-67 76.99 -67 77.98 -67 79 C-69.31 79.99 -71.62 80.98 -74 82 C-70.7 82.33 -67.4 82.66 -64 83 C-64 83.33 -64 83.66 -64 84 C-67.58331625 84.02907084 -71.16660208 84.04682263 -74.75 84.0625 C-75.76578125 84.07087891 -76.7815625 84.07925781 -77.828125 84.08789062 C-78.8078125 84.09111328 -79.7875 84.09433594 -80.796875 84.09765625 C-81.69760742 84.10289307 -82.59833984 84.10812988 -83.52636719 84.11352539 C-85.83389804 84.00762312 -87.79134405 83.65132813 -90 83 C-90 82.34 -90 81.68 -90 81 C-88.02 81 -86.04 81 -84 81 C-83.505 80.01 -83.505 80.01 -83 79 C-82.01 78.01 -82.01 78.01 -81 77 C-80.54625 76.484375 -80.0925 75.96875 -79.625 75.4375 C-78 74 -78 74 -75.9375 73.625 C-74.9784375 73.315625 -74.9784375 73.315625 -74 73 C-73.29788106 71.34795544 -72.63028587 69.68076231 -72 68 C-70.515 67.505 -70.515 67.505 -69 67 C-69 66.34 -69 65.68 -69 65 C-68.01 65 -67.02 65 -66 65 C-65.67 64.01 -65.34 63.02 -65 62 C-64.01 62 -63.02 62 -62 62 C-62.33 61.01 -62.66 60.02 -63 59 C-61.2421875 58.05598958 -59.484375 57.11197917 -57.7265625 56.16796875 C-55.69497635 54.95236507 -55.69497635 54.95236507 -54 52 C-51.05939607 48.84157355 -47.80877675 46.11175123 -44.48828125 43.3671875 C-42.87617982 42.04914224 -42.87617982 42.04914224 -42 40 C-41.34 40 -40.68 40 -40 40 C-40 39.34 -40 38.68 -40 38 C-39.360625 37.71125 -38.72125 37.4225 -38.0625 37.125 C-35.84793921 36.17176549 -35.84793921 36.17176549 -35 34 C-33.22669684 31.8720362 -32.07605012 31.02782321 -29.4375 30.0625 C-26.8745412 29.21873536 -26.8745412 29.21873536 -25.75 27 C-25.37875 26.01 -25.37875 26.01 -25 25 C-24.67 24.34 -24.34 23.68 -24 23 C-23.34 23 -22.68 23 -22 23 C-21.67 22.34 -21.34 21.68 -21 21 C-19 19 -17 17 -15 15 C-14.46375 14.4225 -13.9275 13.845 -13.375 13.25 C-12 12 -12 12 -10 12 C-10 11.34 -10 10.68 -10 10 C-9.34 10 -8.68 10 -8 10 C-7.67 9.01 -7.34 8.02 -7 7 C-6.01 7 -5.02 7 -4 7 C-3.67 6.01 -3.34 5.02 -3 4 C-2.34 4 -1.68 4 -1 4 C-0.67 2.68 -0.34 1.36 0 0 Z " fill="#1D1D1D" transform="translate(159,76)"/>
<path d="M0 0 C1.35863175 2.21724661 2.04835734 3.5027406 1.79296875 6.12890625 C1.59316406 6.93199219 1.39335937 7.73507813 1.1875 8.5625 C-0.58120257 16.9381625 -0.6641591 25.47140868 -1 34 C-1.99 34 -2.98 34 -4 34 C-4 34.66 -4 35.32 -4 36 C-4.66 36 -5.32 36 -6 36 C-6.33 36.66 -6.66 37.32 -7 38 C-7.495 37.505 -7.495 37.505 -8 37 C-8.66 37.99 -9.32 38.98 -10 40 C-11.97321053 41.3726682 -13.97543152 42.70427617 -16 44 C-16.7425 44.5775 -17.485 45.155 -18.25 45.75 C-20 47 -20 47 -22 47 C-26.97669172 36.76873022 -29.59720111 27.43529541 -29 16 C-28.67 16 -28.34 16 -28 16 C-28 17.98 -28 19.96 -28 22 C-27.54625 21.505 -27.0925 21.01 -26.625 20.5 C-25 19 -25 19 -23 19 C-23 18.34 -23 17.68 -23 17 C-22.195625 16.731875 -21.39125 16.46375 -20.5625 16.1875 C-19.716875 15.795625 -18.87125 15.40375 -18 15 C-17.67 14.01 -17.34 13.02 -17 12 C-16.34 11.67 -15.68 11.34 -15 11 C-14.34 10.34 -13.68 9.68 -13 9 C-12.34 9 -11.68 9 -11 9 C-9.82250192 7.82250192 -8.6658404 6.62225436 -7.5625 5.375 C-6 4 -6 4 -3 4 C-2.67 3.01 -2.34 2.02 -2 1 C-1.34 0.67 -0.68 0.34 0 0 Z " fill="#3E3E3E" transform="translate(29,68)"/>
<path d="M0 0 C1.32 0.33 2.64 0.66 4 1 C4.33 2.32 4.66 3.64 5 5 C5.91845703 5.05220703 5.91845703 5.05220703 6.85546875 5.10546875 C9 6 9 6 10.30078125 8.80078125 C10.63464844 9.95964844 10.96851563 11.11851563 11.3125 12.3125 C11.65925781 13.46363281 12.00601563 14.61476563 12.36328125 15.80078125 C12.96771979 18.83780679 13.06516159 20.17825615 12 23 C11.67 23.99 11.34 24.98 11 26 C10.360625 26.12375 9.72125 26.2475 9.0625 26.375 C8.381875 26.58125 7.70125 26.7875 7 27 C6.28272222 28.64551962 5.61674772 30.31422289 5 32 C2 34 2 34 -1 34 C-1.99 36.475 -1.99 36.475 -3 39 C-3.66 39 -4.32 39 -5 39 C-5.37125 39.9590625 -5.37125 39.9590625 -5.75 40.9375 C-7.32987939 43.544301 -8.16780311 43.29195078 -11 44 C-11.33 44.66 -11.66 45.32 -12 46 C-13 48 -13 48 -15.125 48.75 C-15.74375 48.8325 -16.3625 48.915 -17 49 C-16.125 43.25 -16.125 43.25 -15 41 C-14.84504237 38.75025839 -14.74989072 36.49628464 -14.68359375 34.2421875 C-14.66281265 33.57913605 -14.64203156 32.91608459 -14.62062073 32.23294067 C-14.55520769 30.11373306 -14.49627895 27.994401 -14.4375 25.875 C-14.39430691 24.43878919 -14.35069236 23.00259098 -14.30664062 21.56640625 C-14.19953501 18.04440406 -14.09824425 14.52226175 -14 11 C-13.67 11.66 -13.34 12.32 -13 13 C-12.01 13 -11.02 13 -10 13 C-10 12.01 -10 11.02 -10 10 C-8.33720673 8.9935725 -6.67016516 7.99414593 -5 7 C-3.67206394 4.93299345 -3.67206394 4.93299345 -3 3 C-2.34 3.33 -1.68 3.66 -1 4 C-0.67 2.68 -0.34 1.36 0 0 Z M4 5 C5 7 5 7 5 7 Z " fill="#393939" transform="translate(146,42)"/>
<path d="M0 0 C0 0.66 0 1.32 0 2 C0.66 2.33 1.32 2.66 2 3 C1.01 3.33 0.02 3.66 -1 4 C-1.33 4.66 -1.66 5.32 -2 6 C-2.61875 6.12375 -3.2375 6.2475 -3.875 6.375 C-6.17823506 6.82223522 -6.17823506 6.82223522 -7.5 9 C-9 11 -9 11 -11.1875 11.75 C-12.0846875 11.87375 -12.0846875 11.87375 -13 12 C-12.505 12.99 -12.505 12.99 -12 14 C-13.98 14.33 -15.96 14.66 -18 15 C-18.495 16.485 -18.495 16.485 -19 18 C-19.99 18.495 -19.99 18.495 -21 19 C-24.08343019 20.94703749 -24.08343019 20.94703749 -26.8125 23.5625 C-29.72903138 26.04776484 -32.13516669 26.72394048 -36 27 C-36 27.66 -36 28.32 -36 29 C-36.66 29.66 -37.32 30.32 -38 31 C-38.33 31.66 -38.66 32.32 -39 33 C-40.32 33 -41.64 33 -43 33 C-43 33.99 -43 34.98 -43 36 C-46.6922906 39.6922906 -50.06128619 40.83794969 -55 42 C-50.54876657 26.32794895 -35.40103114 13.79979907 -21.76806641 5.95458984 C-7.40359689 -1.80087492 -7.40359689 -1.80087492 0 0 Z " fill="#111111" transform="translate(63,3)"/>
<path d="M0 0 C1.32 0 2.64 0 4 0 C4 0.66 4 1.32 4 2 C8.455 2.99 8.455 2.99 13 4 C12.67 5.65 12.34 7.3 12 9 C11.34 9 10.68 9 10 9 C9.67 9.66 9.34 10.32 9 11 C8.01 11.33 7.02 11.66 6 12 C5.67 12.66 5.34 13.32 5 14 C4.01 14.66 3.02 15.32 2 16 C1.731875 16.61875 1.46375 17.2375 1.1875 17.875 C-0.51060182 20.91370851 -3.12548381 22.12531553 -6 24 C-6 24.66 -6 25.32 -6 26 C-8 27.33333333 -10 28.66666667 -12 30 C-13.02323436 31.31558703 -14.03126968 32.64377755 -15 34 C-15.66 34 -16.32 34 -17 34 C-17.33 34.66 -17.66 35.32 -18 36 C-19.34212062 34.90653119 -20.67347975 33.7998425 -22 32.6875 C-22.7425 32.07261719 -23.485 31.45773438 -24.25 30.82421875 C-26 29 -26 29 -26 26 C-25.360625 25.896875 -24.72125 25.79375 -24.0625 25.6875 C-23.0415625 25.3471875 -23.0415625 25.3471875 -22 25 C-21.67 24.01 -21.34 23.02 -21 22 C-18.14756605 19.37884447 -15.87915244 17.57468925 -12 17 C-11.896875 16.38125 -11.79375 15.7625 -11.6875 15.125 C-11 13 -11 13 -8 11 C-7.34 10.34 -6.68 9.68 -6 9 C-5.34 9.33 -4.68 9.66 -4 10 C-3.896875 9.401875 -3.79375 8.80375 -3.6875 8.1875 C-2.90356813 5.69317133 -1.81478403 4.81478403 0 3 C0 2.01 0 1.02 0 0 Z " fill="#4C4C4C" transform="translate(73,116)"/>
<path d="M0 0 C2.84260884 1.87013739 4.55338006 3.68994547 6.375 6.5625 C6.045 7.5525 5.715 8.5425 5.375 9.5625 C4.88 9.0675 4.88 9.0675 4.375 8.5625 C3.715 9.2225 3.055 9.8825 2.375 10.5625 C1.715 10.2325 1.055 9.9025 0.375 9.5625 C0.0346875 10.738125 0.0346875 10.738125 -0.3125 11.9375 C-1.96816347 15.24882694 -3.21531406 15.398217 -6.625 16.5625 C-7.64604551 17.54100195 -8.6456121 18.54230427 -9.625 19.5625 C-10.924375 20.3359375 -10.924375 20.3359375 -12.25 21.125 C-14.73690375 22.34162906 -14.73690375 22.34162906 -15.625 24.5625 C-16.223125 24.68625 -16.82125 24.81 -17.4375 24.9375 C-19.83037022 25.41397666 -19.83037022 25.41397666 -21.5625 27.6875 C-23.625 29.5625 -23.625 29.5625 -26.0625 29.5625 C-29.1057065 28.37490722 -31.19034398 26.71890961 -33.625 24.5625 C-29.875 18.6875 -29.875 18.6875 -27.625 17.5625 C-25.04814223 15.74738228 -22.49252301 13.90430078 -19.9375 12.05859375 C-17.625 10.5625 -17.625 10.5625 -15.625 10.5625 C-15.295 9.9025 -14.965 9.2425 -14.625 8.5625 C-12.65639985 6.82280684 -10.6890072 5.18010564 -8.625 3.5625 C-7.614375 2.758125 -6.60375 1.95375 -5.5625 1.125 C-2.625 -0.4375 -2.625 -0.4375 0 0 Z " fill="#4D4D4D" transform="translate(114.625,17.4375)"/>
<path d="M0 0 C0.66 0.33 1.32 0.66 2 1 C0.44595914 15.09280892 -11.95291678 28.90448798 -22.25 37.75 C-30.84321201 44.43225693 -40.05102935 50.48979715 -51 52 C-50.01 51.505 -50.01 51.505 -49 51 C-49 50.34 -49 49.68 -49 49 C-46.15273042 46.94731728 -43.25534002 45.14185557 -40.1875 43.4375 C-37.69750148 42.12442867 -37.69750148 42.12442867 -37 39 C-34.9375 38.3125 -34.9375 38.3125 -33 38 C-33 37.01 -33 36.02 -33 35 C-32.38125 34.9175 -31.7625 34.835 -31.125 34.75 C-28.86046092 34.22739701 -28.86046092 34.22739701 -28.125 32.25 C-26.48196627 28.96393255 -23.84663715 27.26569079 -21 25 C-20.46375 24.46375 -19.9275 23.9275 -19.375 23.375 C-17.70208972 21.70208972 -15.95812878 20.32647433 -14 19 C-13.34 19 -12.68 19 -12 19 C-11.7525 18.4225 -11.505 17.845 -11.25 17.25 C-9.81700012 14.67060021 -8.21575324 12.93878408 -6 11 C-5.34 11 -4.68 11 -4 11 C-4 9.68 -4 8.36 -4 7 C-3.34 7 -2.68 7 -2 7 C-1.34 4.69 -0.68 2.38 0 0 Z " fill="#1F1F1F" transform="translate(154,105)"/>
<path d="M0 0 C-0.66 0 -1.32 0 -2 0 C-2 0.66 -2 1.32 -2 2 C-2.99 2 -3.98 2 -5 2 C-5 2.66 -5 3.32 -5 4 C-5.66 4 -6.32 4 -7 4 C-7.3403125 4.86625 -7.3403125 4.86625 -7.6875 5.75 C-9.33783478 8.57914534 -11.43258577 9.98274596 -14 12 C-14.680625 12.886875 -15.36125 13.77375 -16.0625 14.6875 C-18.08708852 17.10394436 -18.93313028 17.67140682 -22 18 C-22 18.99 -22 19.98 -22 21 C-23.93823179 23.39971554 -24.99390037 23.99796679 -28 25 C-28.763125 25.763125 -29.52625 26.52625 -30.3125 27.3125 C-33.0843745 30.0843745 -35.51879106 32.18687035 -39 34 C-41.875 33.25 -41.875 33.25 -44 32 C-44 29 -44 29 -42.125 26.875 C-40 25 -40 25 -38 24 C-37.67 23.34 -37.34 22.68 -37 22 C-35.0625 19.875 -35.0625 19.875 -33 18 C-32.34 18 -31.68 18 -31 18 C-30.34 16.68 -29.68 15.36 -29 14 C-28.34 14 -27.68 14 -27 14 C-26.34 12.68 -25.68 11.36 -25 10 C-24.34 10 -23.68 10 -23 10 C-22.67 9.34 -22.34 8.68 -22 8 C-20 5 -20 5 -17.375 4.3125 C-16.199375 4.1578125 -16.199375 4.1578125 -15 4 C-15.33 2.68 -15.66 1.36 -16 0 C-13.89651926 -0.19504458 -11.79217415 -0.38078496 -9.6875 -0.5625 C-8.51574219 -0.66691406 -7.34398437 -0.77132812 -6.13671875 -0.87890625 C-3 -1 -3 -1 0 0 Z " fill="#373737" transform="translate(100,121)"/>
<path d="M0 0 C1.14926266 0.95421808 2.29430541 1.91352045 3.4375 2.875 C4.07558594 3.40867187 4.71367188 3.94234375 5.37109375 4.4921875 C7 6 7 6 8 8 C7.4225 8.103125 6.845 8.20625 6.25 8.3125 C3.63814092 9.11056805 2.13906154 10.31467879 0 12 C-1.2684375 12.7425 -1.2684375 12.7425 -2.5625 13.5 C-4.95126318 14.84027834 -4.95126318 14.84027834 -6.4375 16.4375 C-8.70909068 18.70909068 -11.27433718 20.31820804 -14 22 C-14.66 22 -15.32 22 -16 22 C-16.33 22.66 -16.66 23.32 -17 24 C-18.95216435 25.95216435 -20.53199953 26.84826645 -23 28 C-23 28.99 -23 29.98 -23 31 C-27.25061356 32.41687119 -29.71851625 31.19320039 -34 30 C-34.33 28.68 -34.66 27.36 -35 26 C-33.58680023 24.87064804 -32.16928595 23.74669374 -30.75 22.625 C-29.96109375 21.99851562 -29.1721875 21.37203125 -28.359375 20.7265625 C-26.28192489 19.20630927 -24.29752679 18.12912642 -22 17 C-21.34 16.34 -20.68 15.68 -20 15 C-18 13.66666667 -16 12.33333333 -14 11 C-13.0925 10.2575 -12.185 9.515 -11.25 8.75 C-9 7 -9 7 -7 7 C-7 6.34 -7 5.68 -7 5 C-6.01 4.34 -5.02 3.68 -4 3 C-2.66209359 2.00612666 -1.32781878 1.0073108 0 0 Z " fill="#383838" transform="translate(107,10)"/>
<path d="M0 0 C2.38455892 2.38455892 2.48555172 3.60724253 3.0625 6.875 C3.61777177 9.94964532 4.20569866 12.97743738 5 16 C4.67 15.34 4.34 14.68 4 14 C3.34 14 2.68 14 2 14 C1.67 14.66 1.34 15.32 1 16 C-1.21267406 18.95023208 -2.90812473 20.93874982 -6 23 C-9.92008449 26.1592819 -9.92008449 26.1592819 -13.5625 29.625 C-15 31 -15 31 -17.5625 32.4375 C-20.15777979 34.10114089 -20.92565703 35.16764125 -22 38 C-24 37 -24 37 -24.8515625 34.99609375 C-26.52969169 29.44470679 -27.32200738 24.79613286 -27 19 C-26.67 19 -26.34 19 -26 19 C-26 21.31 -26 23.62 -26 26 C-24.68 25.67 -23.36 25.34 -22 25 C-22 24.34 -22 23.68 -22 23 C-20.3038631 21.76946931 -18.60339832 20.54416417 -16.875 19.359375 C-14.30162614 17.49367895 -12.18391277 15.30196211 -10 13 C-8.66666667 11.66666667 -7.33333333 10.33333333 -6 9 C-5.46375 8.443125 -4.9275 7.88625 -4.375 7.3125 C-3 6 -3 6 -1 5 C-0.34444881 2.47266765 -0.34444881 2.47266765 0 0 Z " fill="#868686" transform="translate(55,80)"/>
<path d="M0 0 C2.668947 4.0034205 2.83267518 7.29249972 2 12 C-0.375 15.0625 -0.375 15.0625 -3 17 C-3.66 17 -4.32 17 -5 17 C-5 17.66 -5 18.32 -5 19 C-6.79296875 20.40234375 -6.79296875 20.40234375 -9.1875 21.9375 C-10.00734375 22.46859375 -10.8271875 22.9996875 -11.671875 23.546875 C-13.40558123 24.62898694 -15.1653977 25.66948379 -16.9375 26.6875 C-19.28096478 27.983603 -19.28096478 27.983603 -21 31 C-22.65 31.66 -24.3 32.32 -26 33 C-26 28.71 -26 24.42 -26 20 C-24.68 19.67 -23.36 19.34 -22 19 C-20.31126121 17.35570171 -18.64694485 15.68615782 -17 14 C-15.02514795 12.6296945 -13.02613283 11.29327628 -11 10 C-10.34 9.505 -9.68 9.01 -9 8.5 C-7 7 -7 7 -3.8125 5 C-0.75237027 3.24023246 -0.75237027 3.24023246 0 0 Z " fill="#8A8A8A" transform="translate(130,53)"/>
<path d="M0 0 C0.33 0 0.66 0 1 0 C1 5.28 1 10.56 1 16 C0.01 16 -0.98 16 -2 16 C-2 16.66 -2 17.32 -2 18 C-2.66 18 -3.32 18 -4 18 C-4.33 18.66 -4.66 19.32 -5 20 C-5.33 19.67 -5.66 19.34 -6 19 C-6.66 19.99 -7.32 20.98 -8 22 C-9.97321053 23.3726682 -11.97543152 24.70427617 -14 26 C-14.7425 26.5775 -15.485 27.155 -16.25 27.75 C-18 29 -18 29 -20 29 C-20.67119549 27.5437455 -21.33681807 26.08492133 -22 24.625 C-22.37125 23.81289062 -22.7425 23.00078125 -23.125 22.1640625 C-24 20 -24 20 -24 18 C-23.34 18 -22.68 18 -22 18 C-21.67 17.01 -21.34 16.02 -21 15 C-20.236875 14.71125 -19.47375 14.4225 -18.6875 14.125 C-15.35892109 12.73164139 -14.1704232 10.82155016 -12 8 C-11.01 7.67 -10.02 7.34 -9 7 C-8.67 6.34 -8.34 5.68 -8 5 C-7.34 5 -6.68 5 -6 5 C-5.34 4.34 -4.68 3.68 -4 3 C-3.01 2.67 -2.02 2.34 -1 2 C-0.67 1.34 -0.34 0.68 0 0 Z " fill="#505050" transform="translate(27,86)"/>
<path d="M0 0 C1.32 0.33 2.64 0.66 4 1 C4.33 2.32 4.66 3.64 5 5 C5.93392578 5.11408203 5.93392578 5.11408203 6.88671875 5.23046875 C9 6 9 6 10.08203125 7.92578125 C10.32308594 8.71339844 10.56414062 9.50101563 10.8125 10.3125 C11.06644531 11.09238281 11.32039063 11.87226562 11.58203125 12.67578125 C12.02792519 15.15528491 11.79557487 16.63492369 11 19 C10.67 17.02 10.34 15.04 10 13 C6.47311709 12.62578842 6.47311709 12.62578842 3.5 14.25 C3.005 14.8275 2.51 15.405 2 16 C1.154375 16.66 0.30875 17.32 -0.5625 18 C-3.17306437 19.94393448 -3.17306437 19.94393448 -5 23 C-6.6396721 24.36639342 -8.30327614 25.70513179 -10 27 C-10.66 26.67 -11.32 26.34 -12 26 C-12.33 28.31 -12.66 30.62 -13 33 C-13.33 33 -13.66 33 -14 33 C-14 25.74 -14 18.48 -14 11 C-13.67 11.66 -13.34 12.32 -13 13 C-12.01 13 -11.02 13 -10 13 C-10 12.01 -10 11.02 -10 10 C-8.33720673 8.9935725 -6.67016516 7.99414593 -5 7 C-3.67206394 4.93299345 -3.67206394 4.93299345 -3 3 C-2.34 3.33 -1.68 3.66 -1 4 C-0.67 2.68 -0.34 1.36 0 0 Z M4 5 C5 7 5 7 5 7 Z " fill="#545454" transform="translate(146,42)"/>
<path d="M0 0 C2.47343724 2.45158709 4.91899163 4.91277085 7.2890625 7.46484375 C15.3615632 16.00981522 23.79318003 20.69306952 35 24 C35 24.33 35 24.66 35 25 C20.56123695 25.81728847 4.04362854 19.17403788 -7 10 C-7 7 -7 7 -6 4 C-5.34 4 -4.68 4 -4 4 C-3.67 3.34 -3.34 2.68 -3 2 C-2.01 1.34 -1.02 0.68 0 0 Z " fill="#A2A2A2" transform="translate(38,135)"/>
<path d="M0 0 C2.64 5.61 5.28 11.22 8 17 C3 21 3 21 1 22 C1 22.99 1 23.98 1 25 C-2.16854747 24.42308522 -3.78226459 23.58353113 -6.015625 21.27734375 C-6.54414063 20.73916016 -7.07265625 20.20097656 -7.6171875 19.64648438 C-8.15601563 19.08251953 -8.69484375 18.51855469 -9.25 17.9375 C-9.80429687 17.36966797 -10.35859375 16.80183594 -10.9296875 16.21679688 C-12.29334214 14.81787531 -13.64760417 13.40980886 -15 12 C-14.195625 11.38125 -13.39125 10.7625 -12.5625 10.125 C-9.96125481 8.25835959 -9.96125481 8.25835959 -9 6 C-8.34 6 -7.68 6 -7 6 C-6.67 5.34 -6.34 4.68 -6 4 C-2.35294118 0 -2.35294118 0 0 0 Z " fill="#7C7C7C" transform="translate(31,118)"/>
<path d="M0 0 C1.71794639 1.61375827 3.40152529 3.26782387 5 5 C4.38125 5.433125 3.7625 5.86625 3.125 6.3125 C0.7802755 7.99740483 0.7802755 7.99740483 -1 11 C-1.99 11.33 -2.98 11.66 -4 12 C-4.4125 11.50371094 -4.825 11.00742187 -5.25 10.49609375 C-12.76254968 1.65878643 -21.17591295 -6.66502336 -33 -9 C-35.17059032 -9.08147598 -37.34352851 -9.10752942 -39.515625 -9.09765625 C-41.39121094 -9.09282227 -41.39121094 -9.09282227 -43.3046875 -9.08789062 C-44.60664062 -9.07951172 -45.90859375 -9.07113281 -47.25 -9.0625 C-48.56742188 -9.05798828 -49.88484375 -9.05347656 -51.2421875 -9.04882812 C-54.49483741 -9.03704316 -57.74739584 -9.02059011 -61 -9 C-61 -9.33 -61 -9.66 -61 -10 C-39.88359528 -13.87892171 -18.35381211 -11.40592199 0 0 Z " fill="#9E9E9E" transform="translate(123,11)"/>
<path d="M0 0 C3.13492034 1.37867847 5.02772648 3.54773542 7.390625 6.00390625 C8.28265625 6.92300781 9.1746875 7.84210937 10.09375 8.7890625 C10.76921875 9.49933594 11.4446875 10.20960937 12.140625 10.94140625 C10.15992063 13.29184211 8.15481178 15.61963429 6.140625 17.94140625 C5.08875 19.17890625 5.08875 19.17890625 4.015625 20.44140625 C2.140625 21.94140625 2.140625 21.94140625 0.1875 21.8359375 C-2.70663832 20.57113278 -3.19614652 18.96716448 -4.484375 16.12890625 C-4.88914062 15.25621094 -5.29390625 14.38351563 -5.7109375 13.484375 C-6.08992188 12.64519531 -6.46890625 11.80601563 -6.859375 10.94140625 C-7.51974501 9.60494313 -8.18404852 8.27037441 -8.859375 6.94140625 C-3.47833521 -0.1096114 -3.47833521 -0.1096114 0 0 Z " fill="#7B7B7B" transform="translate(128.859375,16.05859375)"/>
<path d="M0 0 C2.4375 0.75 2.4375 0.75 5 2 C5.8125 4.125 5.8125 4.125 6 6 C5.2575 6.2475 4.515 6.495 3.75 6.75 C0.78493365 8.09775743 -0.83378665 9.60169237 -3 12 C-5.3433704 14.3433704 -8.70361508 15.77556676 -11.5546875 17.4296875 C-13.72175248 18.82131709 -15.25520028 20.13657367 -17 22 C-18.97159097 23.7029557 -20.98734522 25.34515051 -23 27 C-26.16115776 25.63016497 -26.9927092 25.0109362 -29 22 C-26.36 20.02 -23.72 18.04 -21 16 C-20.34 16.33 -19.68 16.66 -19 17 C-18.34 15.68 -17.68 14.36 -17 13 C-16.34 13.33 -15.68 13.66 -15 14 C-14.67 13.01 -14.34 12.02 -14 11 C-13.01 11 -12.02 11 -11 11 C-10.67 10.01 -10.34 9.02 -10 8 C-7.4375 6.8125 -7.4375 6.8125 -5 6 C-5 5.34 -5 4.68 -5 4 C-4.34 4 -3.68 4 -3 4 C-3 3.34 -3 2.68 -3 2 C-2.01 1.67 -1.02 1.34 0 1 C0 0.67 0 0.34 0 0 Z " fill="#565656" transform="translate(118,25)"/>
<path d="M0 0 C1.32 0.66 2.64 1.32 4 2 C1.25 7.875 1.25 7.875 -1 9 C-1.33 9.99 -1.66 10.98 -2 12 C-2.99 12.33 -3.98 12.66 -5 13 C-5.33 13.66 -5.66 14.32 -6 15 C-6.99 15.33 -7.98 15.66 -9 16 C-9.33 16.99 -9.66 17.98 -10 19 C-12.5625 20.1875 -12.5625 20.1875 -15 21 C-15 21.66 -15 22.32 -15 23 C-15.66 23 -16.32 23 -17 23 C-17.33 23.66 -17.66 24.32 -18 25 C-19.25 27.125 -19.25 27.125 -21 29 C-23.5 29.4375 -23.5 29.4375 -26 29 C-27.8125 27.5 -27.8125 27.5 -29 26 C-28.505 24.515 -28.505 24.515 -28 23 C-26.67696283 22.6278958 -25.34262065 22.29369827 -24 22 C-23.67 21.34 -23.34 20.68 -23 20 C-22.2575 19.5875 -21.515 19.175 -20.75 18.75 C-17.9937417 16.99601745 -16.33933733 15.11460169 -14.3359375 12.5625 C-12.16414573 10.02239267 -9.61685614 8.06914207 -7 6 C-6.34 6.33 -5.68 6.66 -5 7 C-5 6.34 -5 5.68 -5 5 C-4.34 5 -3.68 5 -3 5 C-2.690625 4.360625 -2.38125 3.72125 -2.0625 3.0625 C-1 1 -1 1 0 0 Z " fill="#555555" transform="translate(71,114)"/>
<path d="M0 0 C2.64 0.33 5.28 0.66 8 1 C7.67 2.65 7.34 4.3 7 6 C6.34 6 5.68 6 5 6 C4.67 6.66 4.34 7.32 4 8 C3.01 8.33 2.02 8.66 1 9 C0.67 9.66 0.34 10.32 0 11 C-0.99 11.66 -1.98 12.32 -3 13 C-3.268125 13.61875 -3.53625 14.2375 -3.8125 14.875 C-5.51060182 17.91370851 -8.12548381 19.12531553 -11 21 C-11 21.66 -11 22.32 -11 23 C-13 24.33333333 -15 25.66666667 -17 27 C-18.02323436 28.31558703 -19.03126968 29.64377755 -20 31 C-20.66 31 -21.32 31 -22 31 C-22.33 31.66 -22.66 32.32 -23 33 C-23.99 32.34 -24.98 31.68 -26 31 C-24.82088716 26.57832687 -23.91242401 24.41649718 -20 22 C-17.24570963 20.05579503 -15.91604672 18.87407007 -14 16 C-13.34 16.33 -12.68 16.66 -12 17 C-11.67 16.01 -11.34 15.02 -11 14 C-8.62278013 10.24649494 -5.42485944 7.78269829 -2 5 C-0.98319689 4.01709032 0.02738219 3.02665213 1 2 C0.67 1.34 0.34 0.68 0 0 Z " fill="#424242" transform="translate(78,119)"/>
<path d="M0 0 C0.99 0 1.98 0 3 0 C4.29243536 4.1196377 5.26252625 7.66831683 5 12 C4.01 11.34 3.02 10.68 2 10 C1.4225 10.61875 0.845 11.2375 0.25 11.875 C-2 14 -2 14 -3.9375 14.9375 C-6.27340526 16.00329404 -6.27340526 16.00329404 -8.5625 18.625 C-11 21 -11 21 -14 21 C-17.14408233 15.67924528 -17.14408233 15.67924528 -16.5625 12.9375 C-14.36482624 10.21238453 -11.73907688 8.14391943 -9 6 C-8.13375 5.236875 -7.2675 4.47375 -6.375 3.6875 C-4 2 -4 2 0 2 C0 1.34 0 0.68 0 0 Z " fill="#626262" transform="translate(25,102)"/>
<path d="M0 0 C0.70125 0.4125 1.4025 0.825 2.125 1.25 C2.125 3.25 2.125 3.25 0.9375 4.75 C-1.19458742 6.51448614 -3.31569108 7.22627643 -5.875 8.25 C-7.64777259 9.77007842 -7.64777259 9.77007842 -8.875 11.25 C-9.535 10.92 -10.195 10.59 -10.875 10.25 C-11.205 11.57 -11.535 12.89 -11.875 14.25 C-13.050625 14.37375 -13.050625 14.37375 -14.25 14.5 C-15.11625 14.7475 -15.9825 14.995 -16.875 15.25 C-17.96666275 17.18330603 -17.96666275 17.18330603 -18.875 19.25 C-20.875 20.375 -20.875 20.375 -22.875 21.25 C-23.535 21.91 -24.195 22.57 -24.875 23.25 C-25.865 23.58 -26.855 23.91 -27.875 24.25 C-27.875 24.91 -27.875 25.57 -27.875 26.25 C-29.855 25.92 -31.835 25.59 -33.875 25.25 C-31.25 19.5 -31.25 19.5 -27.875 17.25 C-27.07964844 16.68023437 -26.28429687 16.11046875 -25.46484375 15.5234375 C-24.15193359 14.58371094 -24.15193359 14.58371094 -22.8125 13.625 C-21.49572266 12.67753906 -21.49572266 12.67753906 -20.15234375 11.7109375 C-17.875 10.25 -17.875 10.25 -15.875 10.25 C-15.545 9.59 -15.215 8.93 -14.875 8.25 C-12.90639985 6.51030684 -10.9390072 4.86760564 -8.875 3.25 C-7.864375 2.445625 -6.85375 1.64125 -5.8125 0.8125 C-2.875 -0.75 -2.875 -0.75 0 0 Z " fill="#444444" transform="translate(114.875,17.75)"/>
<path d="M0 0 C0.33 0 0.66 0 1 0 C0.25 7.625 0.25 7.625 -2 11 C-3.64142963 12.0409066 -5.30712215 13.04504326 -7 14 C-7.33 14.33 -7.66 14.66 -8 15 C-11 17 -11 17 -13 17 C-14.25227484 18.47704212 -15.50166522 19.95827399 -16.68359375 21.4921875 C-18 23 -18 23 -21 25 C-21.33 24.67 -21.66 24.34 -22 24 C-22.33 24.66 -22.66 25.32 -23 26 C-23.66 26 -24.32 26 -25 26 C-25.33 24.02 -25.66 22.04 -26 20 C-25.36191406 19.59007813 -24.72382813 19.18015625 -24.06640625 18.7578125 C-23.24011719 18.21898438 -22.41382813 17.68015625 -21.5625 17.125 C-20.73878906 16.59132813 -19.91507813 16.05765625 -19.06640625 15.5078125 C-16.88961129 14.16165694 -16.88961129 14.16165694 -16 12 C-14.24398654 10.89818763 -12.42911499 9.96281442 -10.59375 9 C-8.82455659 8.08240231 -8.82455659 8.08240231 -8 6 C-6.68 6 -5.36 6 -4 6 C-3.67 5.34 -3.34 4.68 -3 4 C-2.01 4 -1.02 4 0 4 C0 2.68 0 1.36 0 0 Z " fill="#474747" transform="translate(28,78)"/>
<path d="M0 0 C0.33 0 0.66 0 1 0 C1 3.63 1 7.26 1 11 C0.01 11 -0.98 11 -2 11 C-2 11.66 -2 12.32 -2 13 C-2.66 13 -3.32 13 -4 13 C-4.33 13.66 -4.66 14.32 -5 15 C-5.33 14.67 -5.66 14.34 -6 14 C-6.99 15.485 -6.99 15.485 -8 17 C-9.97321053 18.3726682 -11.97543152 19.70427617 -14 21 C-14.7425 21.5775 -15.485 22.155 -16.25 22.75 C-18 24 -18 24 -20 24 C-20.66 22.02 -21.32 20.04 -22 18 C-21.0925 17.608125 -20.185 17.21625 -19.25 16.8125 C-15.80699959 14.89236516 -14.33486161 13.11314882 -12 10 C-9.3508769 7.68201729 -7.38382675 6.78955957 -4 6 C-2.04783565 4.04783565 -1.15173355 2.46800047 0 0 Z " fill="#585858" transform="translate(27,91)"/>
<path d="M0 0 C2 3 2 3 2 7 C-0.8125 9.0625 -0.8125 9.0625 -4 11 C-5.58935878 12.4716285 -6.97689705 13.97269652 -8.375 15.625 C-10.48059676 17.4066588 -12.30492384 17.63580052 -15 18 C-15.33 18.99 -15.66 19.98 -16 21 C-21.25714286 25 -21.25714286 25 -25 25 C-25.33 26.32 -25.66 27.64 -26 29 C-26 26.03 -26 23.06 -26 20 C-24.68 19.67 -23.36 19.34 -22 19 C-20.31126121 17.35570171 -18.64694485 15.68615782 -17 14 C-15.02514795 12.6296945 -13.02613283 11.29327628 -11 10 C-10.34 9.505 -9.68 9.01 -9 8.5 C-7 7 -7 7 -3.8125 5 C-0.75237027 3.24023246 -0.75237027 3.24023246 0 0 Z " fill="#828282" transform="translate(130,53)"/>
<path d="M0 0 C0.66 0.66 1.32 1.32 2 2 C1.85070537 6.18024963 -1.15381109 9.19378565 -4 12 C-6.5 13.5 -6.5 13.5 -9 15 C-10.67067133 16.99665598 -12.33752986 18.99651034 -14 21 C-16.25 22.25 -16.25 22.25 -18 23 C-18.33 23.66 -18.66 24.32 -19 25 C-19.66 25 -20.32 25 -21 25 C-20.67 21.7 -20.34 18.4 -20 15 C-19.236875 14.9175 -18.47375 14.835 -17.6875 14.75 C-14.32181871 13.81074011 -13.98127409 12.81950543 -12 10 C-10.2829797 8.43085705 -8.51126197 6.94681088 -6.71875 5.46484375 C-4.9755037 4.02263023 -4.9755037 4.02263023 -3.40625 2.37890625 C-2 1 -2 1 0 0 Z " fill="#424242" transform="translate(153,53)"/>
<path d="M0 0 C2.87192801 2.67885722 4.33787273 5.43829872 6 9 C1.25 12.875 1.25 12.875 -1 14 C-1 14.99 -1 15.98 -1 17 C-3.37948772 16.82374165 -4.70225849 16.30280227 -6.37890625 14.59765625 C-7.62115486 13.09350908 -8.81376056 11.54870149 -10 10 C-8.1205178 7.1807767 -6.42388373 5.49138447 -3.875 3.3125 C-3.15054687 2.68988281 -2.42609375 2.06726563 -1.6796875 1.42578125 C-0.84824219 0.72001953 -0.84824219 0.72001953 0 0 Z " fill="#848484" transform="translate(33,126)"/>
<path d="M0 0 C0.61875 0.28875 1.2375 0.5775 1.875 0.875 C2.875 3.875 2.875 3.875 2.09765625 5.69921875 C1.0234375 7.42447917 -0.05078125 9.14973958 -1.125 10.875 C-1.785 10.875 -2.445 10.875 -3.125 10.875 C-3.125 11.535 -3.125 12.195 -3.125 12.875 C-4.115 12.875 -5.105 12.875 -6.125 12.875 C-6.455 13.865 -6.785 14.855 -7.125 15.875 C-8.445 15.875 -9.765 15.875 -11.125 15.875 C-11.785 13.895 -12.445 11.915 -13.125 9.875 C-12.135 9.215 -11.145 8.555 -10.125 7.875 C-7.84232575 5.6493926 -5.60424923 3.45009907 -3.5625 1 C-2.125 -0.125 -2.125 -0.125 0 0 Z " fill="#6E6E6E" transform="translate(141.125,28.125)"/>
<path d="M0 0 C2.45327682 1.18706943 3.47654 2.673012 4.9375 4.9375 C2.1875 9.8125 2.1875 9.8125 -0.0625 10.9375 C-1.41558313 12.25078657 -2.75120078 13.58249081 -4.0625 14.9375 C-5.7125 12.6275 -7.3625 10.3175 -9.0625 7.9375 C-4.69505439 -0.14227438 -4.69505439 -0.14227438 0 0 Z " fill="#858585" transform="translate(129.0625,16.0625)"/>
<path d="M0 0 C2.6875 0.3125 2.6875 0.3125 5 1 C5 1.99 5 2.98 5 4 C3 5.33333333 1 6.66666667 -1 8 C-1 8.99 -1 9.98 -1 11 C-3.88575819 10.60196439 -4.82189513 10.20990931 -6.75 7.9375 C-7.1625 7.298125 -7.575 6.65875 -8 6 C-7.34 6 -6.68 6 -6 6 C-5.67 5.34 -5.34 4.68 -5 4 C-4.34 3.67 -3.68 3.34 -3 3 C-2.566875 2.46375 -2.13375 1.9275 -1.6875 1.375 C-1.130625 0.92125 -0.57375 0.4675 0 0 Z " fill="#909090" transform="translate(33,132)"/>
<path d="M0 0 C1.875 0.75 1.875 0.75 2.875 2.75 C1.42134731 3.92249353 -0.03807419 5.08783816 -1.5 6.25 C-2.31210938 6.8996875 -3.12421875 7.549375 -3.9609375 8.21875 C-6.125 9.75 -6.125 9.75 -8.125 9.75 C-8.455 8.76 -8.785 7.77 -9.125 6.75 C-4.17944887 -0.49169987 -4.17944887 -0.49169987 0 0 Z " fill="#8F8F8F" transform="translate(129.125,16.25)"/>
<path d="M0 0 C0.66 0.33 1.32 0.66 2 1 C-3.94 6.94 -9.88 12.88 -16 19 C-16.66 18.67 -17.32 18.34 -18 18 C-12.37361021 11.50903494 -6.55902307 5.55113536 0 0 Z " fill="#626262" transform="translate(33,14)"/>
<path d="M0 0 C8.07613852 -0.64323227 14.48666996 1.1082716 22 4 C22 4.33 22 4.66 22 5 C14.28588216 5.43664818 6.52995138 4.35330092 0 0 Z " fill="#C1C1C1" transform="translate(51,155)"/>
<path d="M0 0 C1 3 1 3 0.07421875 5.375 C-0.38339844 6.24125 -0.84101562 7.1075 -1.3125 8 C-1.76238281 8.86625 -2.21226563 9.7325 -2.67578125 10.625 C-4 13 -4 13 -6 16 C-6.6796875 14.35546875 -6.6796875 14.35546875 -7 12 C-5.8203125 9.23828125 -5.8203125 9.23828125 -4.125 6.3125 C-3.57070313 5.33925781 -3.01640625 4.36601563 -2.4453125 3.36328125 C-1 1 -1 1 0 0 Z " fill="#B9B9B9" transform="translate(65,51)"/>
<path d="M0 0 C0.66 0.33 1.32 0.66 2 1 C1.45660208 5.56454251 0.20536179 8.9728176 -2 13 C-4 10 -4 10 -4 7 C-3.34 7 -2.68 7 -2 7 C-1.34 4.69 -0.68 2.38 0 0 Z " fill="#484848" transform="translate(154,105)"/>
<path d="M0 0 C1.75070517 0.11470137 3.50057536 0.24219028 5.25 0.375 C6.22453125 0.44460937 7.1990625 0.51421875 8.203125 0.5859375 C10.89633189 0.98465249 12.66963279 1.63507063 15 3 C8.94474232 4.38766322 5.67989374 3.49118146 0 1 C0 0.67 0 0.34 0 0 Z " fill="#C7C7C7" transform="translate(88,0)"/>
<path d="M0 0 C-0.11509661 1.41750563 -0.24253658 2.83401169 -0.375 4.25 C-0.44460937 5.03890625 -0.51421875 5.8278125 -0.5859375 6.640625 C-1.01507113 9.085877 -1.78600638 10.84836903 -3 13 C-3.33 11.02 -3.66 9.04 -4 7 C-3.34 7 -2.68 7 -2 7 C-2 5.68 -2 4.36 -2 3 C-2.66 2.67 -3.32 2.34 -4 2 C-1 0 -1 0 0 0 Z " fill="#676767" transform="translate(160,90)"/>
<path d="M0 0 C3.0916909 2.52956528 3.90931332 5.22454612 5 9 C2 8 2 8 0.8125 6.1875 C0 4 0 4 0 0 Z " fill="#909090" transform="translate(149,39)"/>
</svg>
