<?xml version="1.0" encoding="UTF-8"?>
<svg version="1.1" xmlns="http://www.w3.org/2000/svg" width="200" height="200">
<path d="M0 0 C66 0 132 0 200 0 C200 66 200 132 200 200 C134 200 68 200 0 200 C0 134 0 68 0 0 Z " fill="#074C5E" transform="translate(0,0)"/>
<path d="M0 0 C3.24708942 -0.35592043 6.48913378 -0.56366479 9.75 -0.75 C11.10158203 -0.90082031 11.10158203 -0.90082031 12.48046875 -1.0546875 C18.60916649 -1.31548315 23.01803057 0.4907626 27.625 4.5 C34.09020969 10.91781597 34.31837396 18.13499076 34.43231201 26.86651611 C34.40984568 30.16275399 34.33148934 33.45474459 34.25 36.75 C34.23800772 39.00779004 34.23144956 41.26561583 34.23046875 43.5234375 C34.21635975 49.01760507 34.13493898 54.50754074 34 60 C34.73597412 59.09121094 35.47194824 58.18242188 36.23022461 57.24609375 C58.57345962 30.15780901 58.57345962 30.15780901 71.00520325 28.2119751 C79.71134943 27.45062901 88.43434792 28.40284743 97 30 C97 32.31 97 34.62 97 37 C95.948125 37.061875 94.89625 37.12375 93.8125 37.1875 C89.3441853 38.13976379 87.98894713 39.66945892 85 43 C84.34 43 83.68 43 83 43 C82.64083496 43.81658081 82.64083496 43.81658081 82.27441406 44.6496582 C77.07996785 54.22953056 65.56360892 67.93662269 54.99194336 71.71832275 C45.9061094 73.91455849 36.18408989 73.11872041 27 72 C27.97791504 72.77939941 28.95583008 73.55879883 29.96337891 74.36181641 C33.42952241 77.85037719 33.68224699 80.59351881 33.67977905 85.38827515 C33.64881134 86.31975372 33.61784363 87.2512323 33.5859375 88.2109375 C33.57744781 89.17907379 33.56895813 90.14721008 33.56021118 91.14468384 C33.52674972 94.22261048 33.45148326 97.29787168 33.375 100.375 C33.34489105 102.46740995 33.31751688 104.55986117 33.29296875 106.65234375 C33.2269819 111.7692488 33.1235095 116.88417325 33 122 C30.20161377 122.27435159 27.43055082 122.46938308 24.625 122.625 C23.85027344 122.70878906 23.07554688 122.79257813 22.27734375 122.87890625 C17.04567107 123.09509107 13.60489163 121.65801252 9.45947266 118.47119141 C1.8790538 110.06777359 3.77658734 98.46351028 4.0234375 87.8359375 C4.04210823 85.47371422 4.05633364 83.111452 4.0663147 80.74917603 C4.1043434 74.55694072 4.20243867 68.36708266 4.31335449 62.17578125 C4.41598611 55.84798334 4.4613947 49.51979807 4.51171875 43.19140625 C4.61869536 30.79323115 4.78917796 18.39681389 5 6 C3.35 6 1.7 6 0 6 C0 4.02 0 2.04 0 0 Z " fill="#E7FE00" transform="translate(53,42)"/>
<path d="M0 0 C0.66 0 1.32 0 2 0 C3.48046875 1.5390625 3.48046875 1.5390625 5.1875 3.625 C7.4835869 6.33466777 9.75017804 8.75296716 12.5 11 C15.71831279 13.65457286 18.33211319 16.5980455 21.03125 19.76953125 C27.28705059 27.28636492 27.28705059 27.28636492 35 33 C33.48623919 36.56764285 31.39486871 38.83706287 28.6484375 41.546875 C27.79765625 42.39121094 26.946875 43.23554688 26.0703125 44.10546875 C25.18085938 44.97816406 24.29140625 45.85085937 23.375 46.75 C22.4778125 47.63816406 21.580625 48.52632812 20.65625 49.44140625 C18.44192996 51.63216969 16.22307565 53.81812763 14 56 C12.68 55.01 11.36 54.02 10 53 C10.66 51.02 11.32 49.04 12 47 C8.52432972 43.52057133 5.04093654 40.04901196 1.55461121 36.58026123 C-1.31507753 33.72392606 -4.18214007 30.86496099 -7.04907227 28.00585938 C-8.56609596 26.49390825 -10.08400942 24.98284939 -11.6027832 23.47265625 C-13.79610775 21.29138164 -15.98625701 19.1069634 -18.17578125 16.921875 C-18.86005692 16.24276062 -19.54433258 15.56364624 -20.24934387 14.86395264 C-20.87386948 14.23950256 -21.49839508 13.61505249 -22.1418457 12.97167969 C-22.69524124 12.42050476 -23.24863678 11.86932983 -23.81880188 11.30145264 C-25 10 -25 10 -25 9 C-23.865625 9.020625 -22.73125 9.04125 -21.5625 9.0625 C-12.95134753 9.21929748 -12.95134753 9.21929748 -5.16015625 6.15234375 C-3.05133689 4.00033141 -3.05133689 4.00033141 -1.34765625 1.71484375 C-0.90292969 1.14894531 -0.45820312 0.58304687 0 0 Z " fill="#E6FD00" transform="translate(123,112)"/>
</svg>
