<?xml version="1.0" encoding="UTF-8"?>
<!DOCTYPE svg PUBLIC "-//W3C//DTD SVG 1.1//EN" "http://www.w3.org/Graphics/SVG/1.1/DTD/svg11.dtd">
<svg xmlns="http://www.w3.org/2000/svg" version="1.1" width="246px" height="205px" style="shape-rendering:geometricPrecision; text-rendering:geometricPrecision; image-rendering:optimizeQuality; fill-rule:evenodd; clip-rule:evenodd" xmlns:xlink="http://www.w3.org/1999/xlink">
<g><path style="opacity:1" fill="#fefefe" d="M -0.5,-0.5 C 81.5,-0.5 163.5,-0.5 245.5,-0.5C 245.5,67.8333 245.5,136.167 245.5,204.5C 163.5,204.5 81.5,204.5 -0.5,204.5C -0.5,136.167 -0.5,67.8333 -0.5,-0.5 Z"/></g>
<g><path style="opacity:1" fill="#103c91" d="M 187.5,52.5 C 170.78,62.692 153.113,71.0253 134.5,77.5C 134.5,76.8333 134.167,76.5 133.5,76.5C 121.915,61.0826 107.248,49.5826 89.5,42C 75.0391,37.3884 67.0391,42.5551 65.5,57.5C 67.2416,71.3916 71.575,84.3916 78.5,96.5C 74.9459,98.1089 71.2793,99.4422 67.5,100.5C 67.3341,95.4889 67.5007,90.4889 68,85.5C 68.6924,84.9747 69.1924,84.3081 69.5,83.5C 66.5,82.1667 63.5,82.1667 60.5,83.5C 60.8076,84.3081 61.3076,84.9747 62,85.5C 62.6667,91.1667 62.6667,96.8333 62,102.5C 58.0406,96.0823 54.2073,89.5823 50.5,83C 45.5,82.3333 40.5,82.3333 35.5,83C 36.3333,83.8333 37.1667,84.6667 38,85.5C 38.4998,94.4938 38.6664,103.494 38.5,112.5C 33.8333,114.5 29.1667,116.5 24.5,118.5C 17.2555,78.7512 30.2555,47.2512 63.5,24C 98.8863,4.7093 133.22,6.37597 166.5,29C 175.013,35.5592 182.013,43.3925 187.5,52.5 Z"/></g>
<g><path style="opacity:1" fill="#f3f4f8" d="M 128.5,25.5 C 130.337,25.6395 130.67,26.3061 129.5,27.5C 128.702,27.0431 128.369,26.3764 128.5,25.5 Z"/></g>
<g><path style="opacity:1" fill="#fa3d21" d="M 193.5,65.5 C 186.143,71.1976 178.809,76.8642 171.5,82.5C 168.527,84.1468 165.86,86.1468 163.5,88.5C 158.666,91.7516 153.666,94.7516 148.5,97.5C 147.89,96.609 147.557,95.609 147.5,94.5C 158.623,86.5505 169.623,78.3839 180.5,70C 169.845,75.3211 158.845,80.1544 147.5,84.5C 147.631,83.6236 147.298,82.9569 146.5,82.5C 140.954,84.4886 136.954,82.8219 134.5,77.5C 153.113,71.0253 170.78,62.692 187.5,52.5C 203.549,44.2916 217.049,32.9582 228,18.5C 225.361,26.7751 221.361,34.4418 216,41.5C 208.662,49.6711 201.162,57.6711 193.5,65.5 Z"/></g>
<g><path style="opacity:1" fill="#dee1ec" d="M 115.5,27.5 C 117.337,27.6395 117.67,28.3061 116.5,29.5C 115.702,29.0431 115.369,28.3764 115.5,27.5 Z"/></g>
<g><path style="opacity:1" fill="#dfe2ed" d="M 133.5,76.5 C 132.833,76.5 132.5,76.8333 132.5,77.5C 122.587,66.0414 111.254,56.2081 98.5,48C 91.6346,44.1162 84.3012,42.4496 76.5,43C 74.04,44.4578 71.8734,46.2911 70,48.5C 67.5457,59.1257 68.5457,69.459 73,79.5C 75.2547,85.0064 77.7547,90.3397 80.5,95.5C 80.1583,96.3382 79.4916,96.6716 78.5,96.5C 71.575,84.3916 67.2416,71.3916 65.5,57.5C 67.0391,42.5551 75.0391,37.3884 89.5,42C 107.248,49.5826 121.915,61.0826 133.5,76.5 Z"/></g>
<g><path style="opacity:1" fill="#103c91" d="M 132.5,77.5 C 132.5,77.8333 132.5,78.1667 132.5,78.5C 123.243,82.0304 113.909,85.3637 104.5,88.5C 103.841,86.8621 103.174,85.1955 102.5,83.5C 96.5276,82.3364 90.5276,82.1697 84.5,83C 85.8993,84.0616 86.8993,85.395 87.5,87C 86.7511,89.4966 86.0845,91.9966 85.5,94.5C 83.8828,95.038 82.2161,95.3713 80.5,95.5C 77.7547,90.3397 75.2547,85.0064 73,79.5C 68.5457,69.459 67.5457,59.1257 70,48.5C 71.8734,46.2911 74.04,44.4578 76.5,43C 84.3012,42.4496 91.6346,44.1162 98.5,48C 111.254,56.2081 122.587,66.0414 132.5,77.5 Z"/></g>
<g><path style="opacity:1" fill="#c1c8dc" d="M 129.5,45.5 C 131.76,46.2376 131.927,47.2376 130,48.5C 128.272,47.6477 128.105,46.6477 129.5,45.5 Z"/></g>
<g><path style="opacity:1" fill="#fbfbfd" d="M 86.5,53.5 C 88.337,53.6395 88.6704,54.3061 87.5,55.5C 86.7025,55.0431 86.3691,54.3764 86.5,53.5 Z"/></g>
<g><path style="opacity:1" fill="#113d91" d="M 193.5,65.5 C 197.136,71.5763 199.302,78.243 200,85.5C 204.143,130.063 186.309,162.229 146.5,182C 118.233,192.361 90.8999,190.361 64.5,176C 60.0251,173.35 56.0251,170.183 52.5,166.5C 67.959,153.045 84.2924,140.712 101.5,129.5C 103.934,132.438 106.601,135.271 109.5,138C 113.256,140.543 115.089,139.71 115,135.5C 111.624,132.617 108.124,129.951 104.5,127.5C 109.892,123.447 115.559,119.78 121.5,116.5C 121.369,117.239 121.536,117.906 122,118.5C 122.956,117.106 124.289,116.439 126,116.5C 134.694,119.092 142.361,117.426 149,111.5C 149.973,109.608 150.64,107.608 151,105.5C 153.575,108.745 154.409,112.245 153.5,116C 154.448,116.483 155.448,116.649 156.5,116.5C 157.292,120.211 158.292,123.878 159.5,127.5C 158.624,128.251 157.624,128.751 156.5,129C 157.253,130.487 158.086,130.654 159,129.5C 159.494,131.134 159.66,132.801 159.5,134.5C 155.5,135.167 155.5,135.833 159.5,136.5C 160.281,142.682 157.947,147.182 152.5,150C 145.64,150.609 138.973,149.942 132.5,148C 154.415,157.818 163.915,150.984 161,127.5C 160.227,123.847 159.06,120.347 157.5,117C 159.5,116.667 161.5,116.333 163.5,116C 162.565,113.619 162.232,111.119 162.5,108.5C 166.5,108.5 170.5,108.5 174.5,108.5C 174.945,111.365 174.278,113.865 172.5,116C 179.167,116.667 185.833,116.667 192.5,116C 191.333,115.5 190.5,114.667 190,113.5C 186.333,103.5 182.667,93.5 179,83.5C 176.619,82.565 174.119,82.2317 171.5,82.5C 178.809,76.8642 186.143,71.1976 193.5,65.5 Z"/></g>
<g><path style="opacity:1" fill="#2c4091" d="M 147.5,94.5 C 146.067,93.1667 144.733,91.6667 143.5,90C 144.449,89.3828 145.282,89.5494 146,90.5C 146.315,88.4144 146.815,86.4144 147.5,84.5C 158.845,80.1544 169.845,75.3211 180.5,70C 169.623,78.3839 158.623,86.5505 147.5,94.5 Z"/></g>
<g><path style="opacity:1" fill="#f6f6f9" d="M 67.5,100.5 C 67.5,102.833 67.5,105.167 67.5,107.5C 66.8748,110.97 67.8748,113.804 70.5,116C 65.467,116.829 60.467,116.662 55.5,115.5C 54.4793,114.099 53.4793,112.765 52.5,111.5C 52.2671,109.938 51.6005,108.605 50.5,107.5C 48.3448,103.861 46.1782,100.194 44,96.5C 43.501,100.821 43.3343,105.154 43.5,109.5C 43.1201,111.698 43.7868,113.365 45.5,114.5C 45.6107,115.117 45.944,115.617 46.5,116C 43.1832,116.498 39.8499,116.665 36.5,116.5C 37.1667,115.167 37.8333,113.833 38.5,112.5C 38.6664,103.494 38.4998,94.4938 38,85.5C 37.1667,84.6667 36.3333,83.8333 35.5,83C 40.5,82.3333 45.5,82.3333 50.5,83C 54.2073,89.5823 58.0406,96.0823 62,102.5C 62.6667,96.8333 62.6667,91.1667 62,85.5C 61.3076,84.9747 60.8076,84.3081 60.5,83.5C 63.5,82.1667 66.5,82.1667 69.5,83.5C 69.1924,84.3081 68.6924,84.9747 68,85.5C 67.5007,90.4889 67.3341,95.4889 67.5,100.5 Z"/></g>
<g><path style="opacity:1" fill="#f8f7f9" d="M 104.5,88.5 C 105.698,91.4262 106.698,94.4262 107.5,97.5C 109.833,103.5 112.167,109.5 114.5,115.5C 114.158,116.338 113.492,116.672 112.5,116.5C 107.167,116.5 101.833,116.5 96.5,116.5C 98.14,119.149 99.8067,121.816 101.5,124.5C 101.158,125.338 100.492,125.672 99.5,125.5C 95.1663,120.329 90.9996,114.995 87,109.5C 84.949,111.809 85.1157,113.976 87.5,116C 84.1667,116.667 80.8333,116.667 77.5,116C 81.0964,112.715 82.4298,108.881 81.5,104.5C 83.7318,101.62 85.0651,98.287 85.5,94.5C 86.0845,91.9966 86.7511,89.4966 87.5,87C 86.8993,85.395 85.8993,84.0616 84.5,83C 90.5276,82.1697 96.5276,82.3364 102.5,83.5C 103.174,85.1955 103.841,86.8621 104.5,88.5 Z"/></g>
<g><path style="opacity:1" fill="#fa3b20" d="M 132.5,78.5 C 133.364,79.6883 134.364,80.8549 135.5,82C 126.436,81.507 121.436,85.6737 120.5,94.5C 116.051,95.029 111.718,96.029 107.5,97.5C 106.698,94.4262 105.698,91.4262 104.5,88.5C 113.909,85.3637 123.243,82.0304 132.5,78.5 Z"/></g>
<g><path style="opacity:1" fill="#f5f4f7" d="M 133.5,76.5 C 134.167,76.5 134.5,76.8333 134.5,77.5C 136.954,82.8219 140.954,84.4886 146.5,82.5C 147.298,82.9569 147.631,83.6236 147.5,84.5C 146.815,86.4144 146.315,88.4144 146,90.5C 145.282,89.5494 144.449,89.3828 143.5,90C 144.733,91.6667 146.067,93.1667 147.5,94.5C 147.557,95.609 147.89,96.609 148.5,97.5C 151.423,102.346 154.09,107.346 156.5,112.5C 159.146,104.583 161.479,96.5834 163.5,88.5C 165.86,86.1468 168.527,84.1468 171.5,82.5C 174.119,82.2317 176.619,82.565 179,83.5C 182.667,93.5 186.333,103.5 190,113.5C 190.5,114.667 191.333,115.5 192.5,116C 185.833,116.667 179.167,116.667 172.5,116C 174.278,113.865 174.945,111.365 174.5,108.5C 170.5,108.5 166.5,108.5 162.5,108.5C 162.232,111.119 162.565,113.619 163.5,116C 161.5,116.333 159.5,116.667 157.5,117C 159.06,120.347 160.227,123.847 161,127.5C 163.915,150.984 154.415,157.818 132.5,148C 138.973,149.942 145.64,150.609 152.5,150C 157.947,147.182 160.281,142.682 159.5,136.5C 155.5,135.833 155.5,135.167 159.5,134.5C 159.66,132.801 159.494,131.134 159,129.5C 158.086,130.654 157.253,130.487 156.5,129C 157.624,128.751 158.624,128.251 159.5,127.5C 158.292,123.878 157.292,120.211 156.5,116.5C 155.448,116.649 154.448,116.483 153.5,116C 154.409,112.245 153.575,108.745 151,105.5C 150.64,107.608 149.973,109.608 149,111.5C 142.361,117.426 134.694,119.092 126,116.5C 124.289,116.439 122.956,117.106 122,118.5C 121.536,117.906 121.369,117.239 121.5,116.5C 123.267,114.11 125.6,112.443 128.5,111.5C 131.717,112.595 135.05,112.429 138.5,111C 139.612,108.892 138.946,107.392 136.5,106.5C 139.332,103.822 142.499,101.488 146,99.5C 146.74,98.2506 146.573,97.2506 145.5,96.5C 143.975,93.437 141.975,90.7703 139.5,88.5C 137.372,87.3709 135.039,87.2042 132.5,88C 131.748,88.6708 131.414,89.5041 131.5,90.5C 131.953,91.4584 132.619,92.2917 133.5,93C 136.894,94.0755 140.228,95.2422 143.5,96.5C 139.881,99.6496 135.881,102.316 131.5,104.5C 125.879,103.209 122.213,99.8753 120.5,94.5C 121.436,85.6737 126.436,81.507 135.5,82C 134.364,80.8549 133.364,79.6883 132.5,78.5C 132.5,78.1667 132.5,77.8333 132.5,77.5C 132.5,76.8333 132.833,76.5 133.5,76.5 Z"/></g>
<g><path style="opacity:1" fill="#f73417" d="M 139.5,88.5 C 136.779,88.9628 134.112,89.6295 131.5,90.5C 131.414,89.5041 131.748,88.6708 132.5,88C 135.039,87.2042 137.372,87.3709 139.5,88.5 Z"/></g>
<g><path style="opacity:1" fill="#1d3a8f" d="M 139.5,88.5 C 141.975,90.7703 143.975,93.437 145.5,96.5C 144.833,96.5 144.167,96.5 143.5,96.5C 140.228,95.2422 136.894,94.0755 133.5,93C 132.619,92.2917 131.953,91.4584 131.5,90.5C 134.112,89.6295 136.779,88.9628 139.5,88.5 Z"/></g>
<g><path style="opacity:1" fill="#183b90" d="M 163.5,88.5 C 161.479,96.5834 159.146,104.583 156.5,112.5C 154.09,107.346 151.423,102.346 148.5,97.5C 153.666,94.7516 158.666,91.7516 163.5,88.5 Z"/></g>
<g><path style="opacity:1" fill="#fa3b20" d="M 85.5,94.5 C 85.0651,98.287 83.7318,101.62 81.5,104.5C 76.7613,105.185 72.0946,106.185 67.5,107.5C 67.5,105.167 67.5,102.833 67.5,100.5C 71.2793,99.4422 74.9459,98.1089 78.5,96.5C 79.4916,96.6716 80.1583,96.3382 80.5,95.5C 82.2161,95.3713 83.8828,95.038 85.5,94.5 Z"/></g>
<g><path style="opacity:1" fill="#1d3d90" d="M 120.5,94.5 C 122.213,99.8753 125.879,103.209 131.5,104.5C 128.869,106.153 126.203,107.819 123.5,109.5C 121.797,108.34 121.131,109.007 121.5,111.5C 119.15,112.861 116.816,114.194 114.5,115.5C 112.167,109.5 109.833,103.5 107.5,97.5C 111.718,96.029 116.051,95.029 120.5,94.5 Z"/></g>
<g><path style="opacity:1" fill="#183d91" d="M 167.5,93.5 C 169.263,96.8637 170.93,100.364 172.5,104C 169.854,104.497 167.187,104.664 164.5,104.5C 165.036,100.686 166.036,97.0194 167.5,93.5 Z"/></g>
<g><path style="opacity:1" fill="#fa3e21" d="M 94.5,100.5 C 92.5,101.167 90.5,101.833 88.5,102.5C 89.1736,99.4741 90.0069,96.4741 91,93.5C 92.6455,95.6093 93.8122,97.9427 94.5,100.5 Z"/></g>
<g><path style="opacity:1" fill="#1a378e" d="M 50.5,107.5 C 48.2543,108.455 45.921,109.122 43.5,109.5C 43.3343,105.154 43.501,100.821 44,96.5C 46.1782,100.194 48.3448,103.861 50.5,107.5 Z"/></g>
<g><path style="opacity:1" fill="#354a95" d="M 94.5,100.5 C 95.2341,101.708 95.5674,103.041 95.5,104.5C 92.7531,104.813 90.0865,104.48 87.5,103.5C 87.6236,102.893 87.9569,102.56 88.5,102.5C 90.5,101.833 92.5,101.167 94.5,100.5 Z"/></g>
<g><path style="opacity:1" fill="#143d91" d="M 81.5,104.5 C 82.4298,108.881 81.0964,112.715 77.5,116C 80.8333,116.667 84.1667,116.667 87.5,116C 85.1157,113.976 84.949,111.809 87,109.5C 90.9996,114.995 95.1663,120.329 99.5,125.5C 91.0139,131.804 82.3472,137.97 73.5,144C 65.9623,151.041 58.2956,157.874 50.5,164.5C 37.5057,152.855 28.839,138.522 24.5,121.5C 28.5763,119.814 32.5763,118.147 36.5,116.5C 39.8499,116.665 43.1832,116.498 46.5,116C 45.944,115.617 45.6107,115.117 45.5,114.5C 47.5707,113.055 49.904,112.055 52.5,111.5C 53.4793,112.765 54.4793,114.099 55.5,115.5C 60.467,116.662 65.467,116.829 70.5,116C 67.8748,113.804 66.8748,110.97 67.5,107.5C 72.0946,106.185 76.7613,105.185 81.5,104.5 Z"/></g>
<g><path style="opacity:1" fill="#2a3f91" d="M 136.5,106.5 C 138.946,107.392 139.612,108.892 138.5,111C 135.05,112.429 131.717,112.595 128.5,111.5C 130.822,109.336 133.489,107.669 136.5,106.5 Z"/></g>
<g><path style="opacity:1" fill="#f93a20" d="M 50.5,107.5 C 51.6005,108.605 52.2671,109.938 52.5,111.5C 49.904,112.055 47.5707,113.055 45.5,114.5C 43.7868,113.365 43.1201,111.698 43.5,109.5C 45.921,109.122 48.2543,108.455 50.5,107.5 Z"/></g>
<g><path style="opacity:1" fill="#ffeae7" d="M 123.5,109.5 C 123.167,110.5 122.5,111.167 121.5,111.5C 121.131,109.007 121.797,108.34 123.5,109.5 Z"/></g>
<g><path style="opacity:1" fill="#183c91" d="M 96.5,116.5 C 93.835,114.36 91.5017,111.86 89.5,109C 97.9075,106.562 100.241,109.062 96.5,116.5 Z"/></g>
<g><path style="opacity:1" fill="#1c398f" d="M 96.5,116.5 C 101.833,116.5 107.167,116.5 112.5,116.5C 109.048,119.399 105.382,122.066 101.5,124.5C 99.8067,121.816 98.14,119.149 96.5,116.5 Z"/></g>
<g><path style="opacity:1" fill="#fb3b1c" d="M 38.5,112.5 C 37.8333,113.833 37.1667,115.167 36.5,116.5C 32.5763,118.147 28.5763,119.814 24.5,121.5C 20.1182,123.441 15.9515,125.774 12,128.5C 11.5,128 11,127.5 10.5,127C 15.3379,124.303 20.0046,121.47 24.5,118.5C 29.1667,116.5 33.8333,114.5 38.5,112.5 Z"/></g>
<g><path style="opacity:1" fill="#f83d23" d="M 143.5,96.5 C 144.167,96.5 144.833,96.5 145.5,96.5C 146.573,97.2506 146.74,98.2506 146,99.5C 142.499,101.488 139.332,103.822 136.5,106.5C 133.489,107.669 130.822,109.336 128.5,111.5C 125.6,112.443 123.267,114.11 121.5,116.5C 115.559,119.78 109.892,123.447 104.5,127.5C 103.29,127.932 102.29,128.599 101.5,129.5C 84.2924,140.712 67.959,153.045 52.5,166.5C 46.8726,170.956 41.3726,175.623 36,180.5C 35.3333,179.833 35.3333,179.167 36,178.5C 40.7287,173.603 45.562,168.936 50.5,164.5C 58.2956,157.874 65.9623,151.041 73.5,144C 82.3472,137.97 91.0139,131.804 99.5,125.5C 100.492,125.672 101.158,125.338 101.5,124.5C 105.382,122.066 109.048,119.399 112.5,116.5C 113.492,116.672 114.158,116.338 114.5,115.5C 116.816,114.194 119.15,112.861 121.5,111.5C 122.5,111.167 123.167,110.5 123.5,109.5C 126.203,107.819 128.869,106.153 131.5,104.5C 135.881,102.316 139.881,99.6496 143.5,96.5 Z"/></g>
<g><path style="opacity:1" fill="#eff0f5" d="M 104.5,127.5 C 108.124,129.951 111.624,132.617 115,135.5C 115.089,139.71 113.256,140.543 109.5,138C 106.601,135.271 103.934,132.438 101.5,129.5C 102.29,128.599 103.29,127.932 104.5,127.5 Z"/></g>
<g><path style="opacity:1" fill="#e4e7ef" d="M 180.5,126.5 C 182.76,127.238 182.927,128.238 181,129.5C 179.272,128.648 179.105,127.648 180.5,126.5 Z"/></g>
<g><path style="opacity:1" fill="#e8ebf2" d="M 54.5,139.5 C 56.337,139.639 56.6704,140.306 55.5,141.5C 54.7025,141.043 54.3691,140.376 54.5,139.5 Z"/></g>
<g><path style="opacity:1" fill="#d4d9e6" d="M 57.5,147.5 C 59.337,147.639 59.6704,148.306 58.5,149.5C 57.7025,149.043 57.3691,148.376 57.5,147.5 Z"/></g>
<g><path style="opacity:1" fill="#dfe2ed" d="M 84.5,147.5 C 86.337,147.639 86.6704,148.306 85.5,149.5C 84.7025,149.043 84.3691,148.376 84.5,147.5 Z"/></g>
<g><path style="opacity:1" fill="#e5e8f0" d="M 78.5,164.5 C 80.7602,165.238 80.9269,166.238 79,167.5C 77.2716,166.648 77.105,165.648 78.5,164.5 Z"/></g>
</svg>
