<?xml version="1.0" encoding="UTF-8" standalone="no"?>
<!-- Created with Inkscape (http://www.inkscape.org/) -->

<svg
   width="145"
   height="35"
   viewBox="0 0 38.364581 9.2604207"
   version="1.1"
   id="svg1"
   inkscape:version="1.4.3 (1:1.4.3+202512261034+0d15f75042)"
   sodipodi:docname="osiris-logo-color-positive.svg"
   xmlns:inkscape="http://www.inkscape.org/namespaces/inkscape"
   xmlns:sodipodi="http://sodipodi.sourceforge.net/DTD/sodipodi-0.dtd"
   xmlns="http://www.w3.org/2000/svg"
   xmlns:svg="http://www.w3.org/2000/svg"
   xmlns:rdf="http://www.w3.org/1999/02/22-rdf-syntax-ns#"
   xmlns:cc="http://creativecommons.org/ns#"
   xmlns:dc="http://purl.org/dc/elements/1.1/">
  <title
     id="title1">OSIRIS JSON Logo</title>
  <sodipodi:namedview
     id="namedview1"
     pagecolor="#ffffff"
     bordercolor="#666666"
     borderopacity="1.0"
     inkscape:showpageshadow="2"
     inkscape:pageopacity="0.0"
     inkscape:pagecheckerboard="0"
     inkscape:deskcolor="#d1d1d1"
     inkscape:document-units="mm"
     inkscape:zoom="5.6568543"
     inkscape:cx="79.461124"
     inkscape:cy="35.532115"
     inkscape:window-width="1762"
     inkscape:window-height="1078"
     inkscape:window-x="2977"
     inkscape:window-y="146"
     inkscape:window-maximized="0"
     inkscape:current-layer="layer1"
     showgrid="true">
    <inkscape:grid
       id="grid1"
       units="mm"
       originx="0"
       originy="0"
       spacingx="0.26458334"
       spacingy="0.26458334"
       empcolor="#0099e5"
       empopacity="0.30196078"
       color="#0099e5"
       opacity="0.14901961"
       empspacing="5"
       enabled="true"
       visible="true" />
  </sodipodi:namedview>
  <defs
     id="defs1" />
  <g
     inkscape:label="Layer 1"
     inkscape:groupmode="layer"
     id="layer1">
    <g
       id="g1"
       inkscape:label="group">
      <path
         style="font-weight:bold;font-size:10.5833px;line-height:1.25;font-family:D-DIN;-inkscape-font-specification:'D-DIN Bold';stroke-width:0.262276;fill:#ffbe19;fill-opacity:1"
         d="M 2.6460932,9.2578499 2.6458334,8.2020803 c -0.5291667,0 -0.79375,-0.2645833 -0.79375,-0.5291665 V 6.0854144 c 0,-0.7938207 -0.2645833,-1.3229162 -0.7881915,-1.462131 C 1.5875001,4.497915 1.8520834,3.9690062 1.8520834,3.1749988 V 1.5874994 c 0,-0.2645832 0.2645833,-0.5291665 0.79375,-0.5291665 L 2.6460932,5.8159089e-4 C 1.3229167,0 0.79375003,0.26458323 0.79375003,1.3229162 l 0,1.8520826 C 0.79375003,3.969032 0.52916668,4.2333317 0,4.2333317 v 0.7937497 c 0.52916668,0 0.79375003,0.2642956 0.79375003,1.058333 l 0,1.8520826 c 0,1.058333 0.52916667,1.3229162 1.85234317,1.3203529 z"
         id="text1-3"
         aria-label="{"
         sodipodi:nodetypes="ccsscssccssccssc"
         inkscape:label="left-curly-bracket" />
      <path
         style="font-weight:bold;font-size:10.5833px;line-height:1.25;font-family:D-DIN;-inkscape-font-specification:'D-DIN Bold';stroke-width:0.248591;fill:#080808;fill-opacity:1"
         d="m 3.9687501,5.2916647 c 0,1.8520826 0.7937501,2.6458323 2.6458334,2.6458323 1.8520834,0 2.6458335,-0.7937497 2.6458335,-2.6458323 V 3.9687485 c 0,-1.8520826 -0.7937501,-2.6458323 -2.6458335,-2.6458323 -1.8520833,0 -2.6458334,0.7937497 -2.6458334,2.6458323 z m 2.6458334,1.5874994 c -1.0583333,0 -1.3229167,-0.7937497 -1.3229167,-1.5874994 V 3.9687485 c 0,-0.7937497 0.2645834,-1.5874994 1.3229167,-1.5874994 1.0583334,0 1.3229168,0.7937497 1.3229168,1.5874994 v 1.3229162 c 0,0.8027993 -0.2645834,1.5874994 -1.3229168,1.5874994 z"
         id="text1-2"
         aria-label="O"
         sodipodi:nodetypes="ssssssssssssss"
         inkscape:label="o-letter" />
      <path
         style="font-weight:bold;font-size:10.5833px;line-height:1.25;font-family:D-DIN;-inkscape-font-specification:'D-DIN Bold';stroke-width:0.251969;fill:#080808;fill-opacity:1"
         d="m 13.229167,7.937497 c 1.5875,0 2.645834,-0.6359719 2.645834,-2.004731 0,-1.9640175 -2.203434,-1.6580473 -3.502477,-2.2201928 -0.173498,-0.1311504 -0.20169,-0.2729912 -0.20169,-0.5375744 0,-0.5291665 0.504841,-0.7811315 1.058333,-0.7937497 0.529167,0 1.058333,0.2645832 1.322917,0.7937497 h 1.322917 c -0.0684,-0.6401893 -0.736727,-1.8520826 -2.645834,-1.8520826 -1.477938,0 -2.38125,0.7937497 -2.38125,1.8520826 0,2.741817 3.704167,1.3229162 3.704167,2.9104156 0,0.5291664 -0.529167,0.7937497 -1.322917,0.7937497 -0.529167,0 -1.322917,0 -1.322917,-1.058333 h -1.322916 c 0,1.5874995 1.322916,2.1166659 2.645833,2.1166659 z"
         id="text1-0"
         aria-label="S"
         sodipodi:nodetypes="sscssccssssccs"
         inkscape:label="s-letter" />
      <path
         style="font-weight:bold;font-size:10.5833px;line-height:1.25;font-family:D-DIN;-inkscape-font-specification:'D-DIN Bold';stroke-width:0.245979;fill:#080808;fill-opacity:1"
         d="M 17.197917,1.3229162 V 7.937497 h 1.322917 V 1.3229162 Z"
         id="text1-75"
         aria-label="I"
         sodipodi:nodetypes="ccccc"
         inkscape:label="i-letter" />
      <path
         style="font-weight:bold;font-size:10.5833px;line-height:1.25;font-family:D-DIN;-inkscape-font-specification:'D-DIN Bold';stroke-width:0.249088;fill:#080808;fill-opacity:1"
         d="m 22.225001,5.2916647 1.346734,2.6458323 h 1.563682 l -1.5875,-2.9104156 C 24.607479,4.7725826 24.910492,4.2329131 24.880542,3.2743181 24.836473,1.8638154 23.812501,1.3229162 22.489584,1.3229162 H 19.843751 V 7.937497 h 1.322916 V 5.2916647 Z M 21.166667,4.2333317 V 2.3812491 h 1.322917 c 0.79375,0 1.029482,0.304372 1.022693,0.9047621 -0.0077,0.6836232 -0.228943,0.9473205 -1.022693,0.9473205 z"
         id="text1-7"
         aria-label="R"
         sodipodi:nodetypes="ccccsscccccccsssc"
         inkscape:label="r-letter" />
      <path
         style="font-weight:bold;font-size:10.5833px;line-height:1.25;font-family:D-DIN;-inkscape-font-specification:'D-DIN Bold';stroke-width:0.245979;fill:#080808;fill-opacity:1"
         d="M 26.458334,1.3229162 V 7.937497 h 1.322917 V 1.3229162 Z"
         id="text1-75-3"
         aria-label="I"
         sodipodi:nodetypes="ccccc"
         inkscape:label="i-letter" />
      <path
         style="font-weight:bold;font-size:10.5833px;line-height:1.25;font-family:D-DIN;-inkscape-font-specification:'D-DIN Bold';stroke-width:0.251969;fill:#080808;fill-opacity:1"
         d="m 31.750001,7.937497 c 1.5875,0 2.645834,-0.6359719 2.645834,-2.004731 0,-1.9640175 -2.203434,-1.6580473 -3.502477,-2.2201928 -0.173498,-0.1311504 -0.20169,-0.2729912 -0.20169,-0.5375744 0,-0.5291665 0.504841,-0.7811315 1.058333,-0.7937497 0.529167,0 1.058333,0.2645832 1.322917,0.7937497 h 1.322917 c -0.0684,-0.6401893 -0.736727,-1.8520826 -2.645834,-1.8520826 -1.477938,0 -2.38125,0.7937497 -2.38125,1.8520826 0,2.741817 3.704167,1.3229162 3.704167,2.9104156 0,0.5291664 -0.529167,0.7937497 -1.322917,0.7937497 -0.529167,0 -1.322917,0 -1.322917,-1.058333 h -1.322916 c 0,1.5874995 1.322916,2.1166659 2.645833,2.1166659 z"
         id="text1-0-8"
         aria-label="S"
         sodipodi:nodetypes="sscssccssssccs"
         inkscape:label="s-letter" />
      <path
         style="font-weight:bold;font-size:10.5833px;line-height:1.25;font-family:D-DIN;-inkscape-font-specification:'D-DIN Bold';stroke-width:0.262276;fill:#ffbe19;fill-opacity:1"
         d="m 35.718621,0.00128169 2.6e-4,1.05576951 c 0.529167,0 0.79375,0.2645833 0.79375,0.5291665 v 1.5874994 c 0,0.7938207 0.264583,1.3229162 0.788192,1.462131 -0.523609,0.1253684 -0.788192,0.6542772 -0.788192,1.4482846 v 1.5874994 c 0,0.2645832 -0.264583,0.5291665 -0.79375,0.5291665 l -2.6e-4,1.0577513 c 1.323177,5.816e-4 1.852343,-0.2640016 1.852343,-1.3223346 V 6.0841327 c 0,-0.7940332 0.264584,-1.0583329 0.79375,-1.0583329 V 4.2320501 c -0.529166,0 -0.79375,-0.2642956 -0.79375,-1.058333 V 1.3216345 c 0,-1.05833281 -0.529166,-1.32291581 -1.852343,-1.32035281 z"
         id="text1-3-3"
         aria-label="{"
         sodipodi:nodetypes="ccsscssccssccssc"
         inkscape:label="right-curly-bracket" />
    </g>
  </g>
  <metadata
     id="metadata1">
    <rdf:RDF>
      <cc:Work
         rdf:about="">
        <dc:title>OSIRIS JSON Logo</dc:title>
        <dc:creator>
          <cc:Agent>
            <dc:title>Tia Zanella @skhell</dc:title>
          </cc:Agent>
        </dc:creator>
        <dc:rights>
          <cc:Agent>
            <dc:title>Tia Zanella @skhell</dc:title>
          </cc:Agent>
        </dc:rights>
        <dc:publisher>
          <cc:Agent>
            <dc:title>Tia Zanella @skhell</dc:title>
          </cc:Agent>
        </dc:publisher>
        <dc:subject>
          <rdf:Bag>
            <rdf:li>OSIRIS JSON Logo</rdf:li>
          </rdf:Bag>
        </dc:subject>
        <dc:description>OSIRIS JSON Logo in positive BW version</dc:description>
        <dc:date>12-12-2025</dc:date>
      </cc:Work>
    </rdf:RDF>
  </metadata>
</svg>
