<svg viewBox="0 0 90 90" xmlns="http://www.w3.org/2000/svg"><path d="M76.878 68.838h1.104V89h-3.308c-21.483 0-33.913-12.217-33.913-32.163V46.58l6.98-1.75a11.267 11.267 0 0 0 5.363-3.113 11.219 11.219 0 0 0 2.451-11.65 11.244 11.244 0 0 0-3.655-5.003 11.276 11.276 0 0 0-16.473 2.915 11.223 11.223 0 0 0-1.71 5.952v43.943H12V33.169a31.333 31.333 0 0 1 .256-4.023C14.283 13.28 28.166 1 44.991 1c15.254 0 28.094 10.098 31.887 23.816a31.496 31.496 0 0 1-1.806 21.593 32.493 32.493 0 0 1-12.264 13.849c1.793 7.256 5.608 8.597 14.07 8.597" fill="#5A05FF"/></svg>