<?xml version="1.0" encoding="UTF-8"?>
<svg version="1.1" xmlns="http://www.w3.org/2000/svg" width="201" height="201">
<path d="M0 0 C18.97447631 15.81206359 31.22702422 36.60386234 34.8125 61.125 C36.65732066 91.24519604 30.7103312 115.58614752 10.97241211 138.78930664 C-3.9092699 155.61242932 -25.84530873 166.77193943 -48.1875 169.125 C-66.92154997 170.20190926 -84.18314284 168.46905509 -101.1875 160.125 C-102.58548828 159.44630859 -102.58548828 159.44630859 -104.01171875 158.75390625 C-110.74038243 155.29103749 -116.43431274 151.01191356 -122.1875 146.125 C-123.16460937 145.34769531 -124.14171875 144.57039062 -125.1484375 143.76953125 C-141.87675628 129.78808901 -151.22962414 107.17863146 -154.1875 86.125 C-154.46567582 82.36946264 -154.52243862 78.63988015 -154.5 74.875 C-154.49436035 73.87138428 -154.4887207 72.86776855 -154.48291016 71.83374023 C-154.06673795 46.17322125 -143.46855877 23.8026664 -125.62890625 5.5 C-91.20806035 -27.27224225 -37.21292001 -28.93060088 0 0 Z " fill="#007FA0" transform="translate(160.1875,25.875)"/>
<path d="M0 0 C3.22522952 1.63679982 5.64290669 4.17093885 8.17744446 6.69645691 C9.02145813 7.48536316 9.02145813 7.48536316 9.88252258 8.29020691 C11.47822571 9.86833191 11.47822571 9.86833191 13.86494446 12.94645691 C13.77191816 17.77979077 11.29516338 20.00231239 7.97798157 23.28752136 C7.47064987 23.79543716 6.96331818 24.30335297 6.44061279 24.82666016 C4.76714687 26.49734707 3.07997802 28.1534315 1.39228821 29.80973816 C0.22699403 30.96756932 -0.93741811 32.12628882 -2.10098267 33.28585815 C-5.16154858 36.33117266 -8.2339367 39.36428261 -11.3089447 42.39500427 C-14.44636359 45.49146019 -17.57244914 48.59931138 -20.69950867 51.70622253 C-26.83365758 57.79750923 -32.98034306 63.87594897 -39.13505554 69.94645691 C-43.33625138 67.91204463 -46.14840147 65.3353887 -49.44755554 62.07145691 C-50.01023132 61.54165222 -50.5729071 61.01184753 -51.15263367 60.46598816 C-52.74833679 58.89176941 -52.74833679 58.89176941 -55.13505554 55.94645691 C-55.02418062 51.77677153 -52.1035542 49.52087925 -49.31156921 46.70304871 C-48.81066269 46.19367264 -48.30975616 45.68429657 -47.79367065 45.15948486 C-46.13788459 43.48032396 -44.47115033 41.81257225 -42.80302429 40.14567566 C-41.6478867 38.98343872 -40.49304965 37.82090301 -39.33850098 36.65808105 C-36.91835409 34.22448962 -34.49235038 31.7969177 -32.06254578 29.37297058 C-28.9449506 26.26128284 -25.84602079 23.13170606 -22.75164318 19.9969511 C-20.37282069 17.59232591 -17.98267071 15.19921726 -15.58909035 12.80928993 C-14.44124092 11.65974345 -13.297388 10.50619226 -12.1575985 9.34865379 C-10.56558377 7.73458815 -8.95859749 6.13709372 -7.34672546 4.54289246 C-6.4348497 3.62896225 -5.52297394 2.71503204 -4.58346558 1.77340698 C-2.13505554 -0.05354309 -2.13505554 -0.05354309 0 0 Z " fill="#3BB5AF" transform="translate(115.13505554199219,58.05354309082031)"/>
<path d="M0 0 C3.00335949 2.00421037 5.46543083 4.44063074 8 7 C8.66902344 7.64453125 9.33804688 8.2890625 10.02734375 8.953125 C15.76632594 14.53953711 15.76632594 14.53953711 16.5 19.125 C15.53335487 26.61649975 8.50984133 31.54197369 3.28515625 36.63671875 C2.78096161 37.12857666 2.27676697 37.62043457 1.7572937 38.12719727 C-0.34111382 40.17038898 -2.44018003 42.21235974 -4.55786133 44.2355957 C-6.12168637 45.73294571 -7.66920071 47.24563749 -9.21484375 48.76171875 C-10.13386475 49.64819092 -11.05288574 50.53466309 -11.99975586 51.44799805 C-14.20068225 53.82028925 -14.20068225 53.82028925 -14.38891602 56.67895508 C-14.12663663 59.12077452 -14.12663663 59.12077452 -12.5625 61.375 C-9.53283291 63.2962523 -9.09833552 63.00067258 -5.75 62.3125 C-1.56380882 61.65124064 -1.56380882 61.65124064 0.8293457 63.1315918 C1.7123938 63.96944214 1.7123938 63.96944214 2.61328125 64.82421875 C3.30147949 65.46770264 3.98967773 66.11118652 4.69873047 66.77416992 C5.45814941 67.50869385 6.21756836 68.24321777 7 69 C7.85609863 69.80348877 8.71219727 70.60697754 9.59423828 71.43481445 C12.40564099 74.09347245 15.17380199 76.79184409 17.9375 79.5 C18.41743408 79.95681152 18.89736816 80.41362305 19.3918457 80.88427734 C20.80551356 82.23087772 22.19798898 83.59961535 23.58984375 84.96875 C24.41347412 85.76732422 25.23710449 86.56589844 26.08569336 87.38867188 C28.46631593 90.63610702 28.82299699 93.01217484 29 97 C26.7371563 101.37386721 23.19983513 104.37608573 18.875 106.625 C15.38547904 107.08015491 14.12738393 106.59223634 11 105 C8.93338403 103.20518992 7.02470601 101.42218496 5.11328125 99.4765625 C4.57019821 98.93397797 4.02711517 98.39139343 3.46757507 97.83236694 C2.32527662 96.68773569 1.18665099 95.53942867 0.05151367 94.38769531 C-1.68349398 92.62906057 -3.43147247 90.88415908 -5.18164062 89.140625 C-6.29246152 88.02422782 -7.40251418 86.9070656 -8.51171875 85.7890625 C-9.03255539 85.26913727 -9.55339203 84.74921204 -10.0900116 84.21353149 C-14.94303195 79.26497984 -14.94303195 79.26497984 -16 76 C-15.731875 74.7625 -15.46375 73.525 -15.1875 72.25 C-14.73946985 70.14327429 -14.73946985 70.14327429 -15 68 C-16.62677371 65.79101254 -18.37237547 64.05709548 -20.43359375 62.25 C-22.31922504 59.54146228 -22.53377859 57.41539648 -22.457901 54.14682007 C-21.57023563 49.98509555 -18.47916943 47.60960853 -15.4375 44.83203125 C-14.43867798 43.86797615 -14.43867798 43.86797615 -13.41967773 42.88444519 C-11.29795994 40.84036524 -9.15175733 38.82489855 -7 36.8125 C-4.85107391 34.78688477 -2.7085968 32.75573076 -0.58032227 30.7084198 C0.74245957 29.4373829 2.07761415 28.17907114 3.42602539 26.93525696 C6.9641113 23.65632716 6.9641113 23.65632716 8.52001953 19.23046875 C7.77212734 16.02260815 6.19367249 14.49469392 3.875 12.1875 C3.10929687 11.39730469 2.34359375 10.60710937 1.5546875 9.79296875 C-1.56622802 7.60260143 -3.27442264 7.86182611 -7 8 C-9.375 5.5 -9.375 5.5 -11 3 C-7.46123498 -0.39721442 -4.80037412 -0.80006235 0 0 Z " fill="#F6FAFB" transform="translate(135,55)"/>
<path d="M0 0 C4 2 4 2 9 8 C-2.55 19.55 -14.1 31.1 -26 43 C-32.77013181 39.6149341 -38.75352796 34.31945395 -43 28 C-43 24 -43 24 -41.46875 22.078125 C-40.8190625 21.47484375 -40.169375 20.8715625 -39.5 20.25 C-38.52546875 19.32960938 -38.52546875 19.32960938 -37.53125 18.390625 C-37.0259375 17.93171875 -36.520625 17.4728125 -36 17 C-35.54109375 17.40992187 -35.0821875 17.81984375 -34.609375 18.2421875 C-33.99578125 18.78101562 -33.3821875 19.31984375 -32.75 19.875 C-32.14671875 20.40867187 -31.5434375 20.94234375 -30.921875 21.4921875 C-28.77772813 23.27800279 -28.77772813 23.27800279 -25 25 C-16.75 16.75 -8.5 8.5 0 0 Z " fill="#3CB5B0" transform="translate(83,65)"/>
<path d="M0 0 C6.18134869 5.10448822 11.79822878 10.68294942 17.4375 16.375 C18.35982422 17.30183594 19.28214844 18.22867188 20.23242188 19.18359375 C22.49058625 21.45345846 24.74636942 23.72563538 27 26 C26.05208552 27.12849651 25.10093866 28.25427841 24.1484375 29.37890625 C23.35445557 30.31972046 23.35445557 30.31972046 22.54443359 31.27954102 C20.86494625 33.15044638 19.10407724 34.62425719 17 36 C16.41992188 35.33291016 16.41992188 35.33291016 15.828125 34.65234375 C15.30734375 34.08644531 14.7865625 33.52054688 14.25 32.9375 C13.48429687 32.08478516 13.48429687 32.08478516 12.703125 31.21484375 C11.0760882 29.78430364 11.0760882 29.78430364 9 30.125 C6.71505411 31.12466383 5.44935922 32.24727538 3.75 34.0625 C3.22921875 34.61035156 2.7084375 35.15820312 2.171875 35.72265625 C1.59179688 36.35494141 1.59179688 36.35494141 1 37 C-3.29238623 35.34908222 -5.8793915 32.26245434 -9 29 C-7.01266924 24.63944901 -4.16176183 21.57416555 -1 18 C-3.64 15.36 -6.28 12.72 -9 10 C-3.19921875 3.16796875 -3.19921875 3.16796875 0 0 Z " fill="#3AB4AF" transform="translate(84,27)"/>
<path d="M0 0 C3.21043882 1.38188453 5.04936365 2.92421903 7.25 5.625 C7.77078125 6.25664063 8.2915625 6.88828125 8.828125 7.5390625 C9.40820312 8.26222656 9.40820312 8.26222656 10 9 C9.48308594 9.45890625 8.96617188 9.9178125 8.43359375 10.390625 C7.44552734 11.31101562 7.44552734 11.31101562 6.4375 12.25 C5.77621094 12.85328125 5.11492188 13.4565625 4.43359375 14.078125 C2.76336669 15.85958956 2.76336669 15.85958956 3.21728516 17.90869141 C4.13390199 20.35776808 5.22019183 21.56482306 7.08984375 23.3828125 C8.01893555 24.29740234 8.01893555 24.29740234 8.96679688 25.23046875 C9.61712891 25.85566406 10.26746094 26.48085938 10.9375 27.125 C11.58396484 27.75792969 12.23042969 28.39085938 12.89648438 29.04296875 C14.09551342 30.21585075 15.29759478 31.38562618 16.50366211 32.55126953 C17.67975881 33.68994759 18.84246141 34.84246141 20 36 C16.7 39.3 13.4 42.6 10 46 C4 40 -2 34 -8 28 C-6.27845212 24.23511958 -4.00765886 21.84936103 -1 19 C-2.55500981 15.18315774 -5.03595495 12.80804268 -8 10 C-6.34908222 5.70761377 -3.26245434 3.1206085 0 0 Z " fill="#3AB4AF" transform="translate(56,37)"/>
<path d="M0 0 C3.58123842 1.2662435 5.48677896 3.22877742 8.18481445 5.89550781 C8.68824875 6.39274353 9.19168304 6.88997925 9.71037292 7.40228271 C10.76829465 8.45312085 11.82113573 9.50909574 12.86914062 10.56982422 C14.47449499 12.18906615 16.10241861 13.78284807 17.73364258 15.37597656 C18.76048564 16.40186858 19.78592605 17.42916689 20.80981445 18.45800781 C21.74156494 19.3890332 22.67331543 20.32005859 23.63330078 21.27929688 C25.6652832 23.94238281 25.6652832 23.94238281 26.10546875 26.63671875 C25.6652832 28.94238281 25.6652832 28.94238281 23.4777832 31.31738281 C20.6652832 32.94238281 20.6652832 32.94238281 18.31860352 32.83984375 C14.80921751 31.65282655 13.02199544 29.81703851 10.3996582 27.20800781 C9.92079163 26.73296814 9.44192505 26.25792847 8.94854736 25.76849365 C7.9419768 24.76463677 6.94040675 23.75574373 5.94360352 22.7421875 C4.42005572 21.19722242 2.87635111 19.67475538 1.3293457 18.15332031 C0.35149815 17.17282939 -0.62510777 16.19109829 -1.6003418 15.20800781 C-2.48496094 14.31887695 -3.36958008 13.42974609 -4.28100586 12.51367188 C-6.42840783 9.82507968 -7.23094045 8.3641592 -7.3347168 4.94238281 C-3.61569875 -0.08922983 -3.61569875 -0.08922983 0 0 Z " fill="#0883A3" transform="translate(132.334716796875,123.0576171875)"/>
<path d="M0 0 C4 2 4 2 9 8 C3.39 13.61 -2.22 19.22 -8 25 C-12 23 -12 23 -17 17 C-11.39 11.39 -5.78 5.78 0 0 Z " fill="#3CB5B0" transform="translate(83,65)"/>
<path d="M0 0 C6.75 5.5 6.75 5.5 9 10 C6.36 12.64 3.72 15.28 1 18 C-5.75 12.5 -5.75 12.5 -8 8 C-5.36 5.36 -2.72 2.72 0 0 Z " fill="#3CB6B0" transform="translate(29,64)"/>
<path d="M0 0 C4.28359673 1.8855148 6.15103592 4.35965701 9 8 C6.03 10.97 3.06 13.94 0 17 C-5.46875 12.703125 -5.46875 12.703125 -7 11 C-7 7 -7 7 -5.46875 5.078125 C-4.8190625 4.47484375 -4.169375 3.8715625 -3.5 3.25 C-2.8503125 2.63640625 -2.200625 2.0228125 -1.53125 1.390625 C-1.0259375 0.93171875 -0.520625 0.4728125 0 0 Z " fill="#F1F8F9" transform="translate(102,46)"/>
<path d="M0 0 C3.57844494 1.78922247 5.5597889 2.92714158 8 6 C7.64571867 9.36567266 6.36249058 10.97979606 3.9375 13.25 C3.38964844 13.77078125 2.84179688 14.2915625 2.27734375 14.828125 C1.85582031 15.21484375 1.43429688 15.6015625 1 16 C-3.2742558 14.4169423 -5.26531794 11.49431596 -8 8 C-5.36 5.36 -2.72 2.72 0 0 Z " fill="#F7FBFB" transform="translate(56,92)"/>
<path d="M0 0 C3.57844494 1.78922247 5.5597889 2.92714158 8 6 C7.64571867 9.36567266 6.36249058 10.97979606 3.9375 13.25 C3.38964844 13.77078125 2.84179688 14.2915625 2.27734375 14.828125 C1.85582031 15.21484375 1.43429688 15.6015625 1 16 C-3.2742558 14.4169423 -5.26531794 11.49431596 -8 8 C-5.36 5.36 -2.72 2.72 0 0 Z " fill="#F6FAFB" transform="translate(74,74)"/>
</svg>
