<?xml version="1.0" encoding="UTF-8"?>
<svg id="Livello_1" data-name="Livello 1" xmlns="http://www.w3.org/2000/svg" version="1.1" viewBox="0 0 360 110">
  <defs>
    <style>
      .cls-1 {
        fill: #000;
      }

      .cls-1, .cls-2 {
        stroke-width: 0px;
      }

      .cls-2 {
        fill: #1644d6;
      }
    </style>
  </defs>
  <g>
    <path class="cls-1" d="M124.9,50.6c-1.8-.5-3.2-1.2-4.3-2.1l1.6-3.5c1,.8,2.3,1.4,3.8,1.9,1.5.5,3,.7,4.5.7s3.2-.3,4.2-.9c.9-.6,1.4-1.3,1.4-2.3s-.3-1.3-.8-1.7c-.5-.5-1.2-.8-1.9-1.1-.8-.3-1.9-.5-3.2-.9-1.9-.4-3.4-.9-4.6-1.3s-2.2-1.1-3-2.1c-.8-.9-1.3-2.2-1.3-3.8s.4-2.6,1.1-3.7c.8-1.1,1.9-2,3.4-2.6,1.5-.6,3.4-1,5.6-1s3,.2,4.5.6,2.8.9,3.8,1.6l-1.5,3.5c-1.1-.6-2.2-1.1-3.4-1.4-1.2-.3-2.3-.5-3.5-.5-1.8,0-3.2.3-4.1.9-.9.6-1.3,1.4-1.3,2.4s.3,1.3.8,1.7c.5.4,1.2.8,1.9,1,.8.3,1.9.5,3.2.9,1.9.4,3.4.8,4.6,1.3,1.2.5,2.2,1.1,3.1,2.1.8.9,1.3,2.2,1.3,3.7s-.4,2.6-1.1,3.6-1.9,2-3.4,2.6c-1.5.6-3.4,1-5.6,1s-3.8-.3-5.6-.8Z"/>
    <path class="cls-1" d="M173.6,34.4c1.4,1.4,2.1,3.4,2.1,6.1v10.6h-4.5v-10.1c0-1.6-.4-2.8-1.1-3.7-.7-.8-1.8-1.2-3.2-1.2s-2.7.5-3.6,1.4c-.9,1-1.4,2.3-1.4,4.1v9.4h-4.5v-10.1c0-1.6-.4-2.8-1.1-3.7-.7-.8-1.8-1.2-3.2-1.2s-2.7.5-3.6,1.4c-.9.9-1.3,2.3-1.3,4.1v9.4h-4.5v-18.5h4.3v2.4c.7-.8,1.6-1.5,2.7-1.9,1.1-.4,2.3-.7,3.6-.7s2.7.3,3.8.8c1.1.5,2,1.3,2.6,2.3.8-1,1.8-1.7,3-2.3,1.2-.5,2.6-.8,4.1-.8,2.4,0,4.3.7,5.7,2Z"/>
    <path class="cls-1" d="M194.3,34.3c1.5,1.3,2.2,3.3,2.2,5.9v10.9h-4.2v-2.3c-.5.8-1.3,1.4-2.3,1.9-1,.4-2.2.6-3.7.6s-2.7-.2-3.8-.7c-1.1-.5-1.9-1.1-2.5-2-.6-.8-.9-1.8-.9-2.9,0-1.7.6-3,1.9-4,1.3-1,3.3-1.5,6-1.5h4.9v-.3c0-1.3-.4-2.3-1.2-3-.8-.7-2-1-3.6-1s-2.1.2-3.2.5c-1,.3-1.9.8-2.6,1.4l-1.8-3.2c1-.7,2.2-1.3,3.6-1.7,1.4-.4,2.9-.6,4.5-.6,2.8,0,5,.7,6.4,2ZM190.2,47.4c.9-.5,1.5-1.2,1.8-2.1v-2.2h-4.6c-2.6,0-3.9.8-3.9,2.5s.3,1.4,1,1.9c.6.5,1.5.7,2.7.7s2.1-.2,3-.7Z"/>
    <path class="cls-1" d="M212.4,32.4v4.1c-.4,0-.7-.1-1-.1-1.7,0-3.1.5-4.1,1.5-1,1-1.5,2.4-1.5,4.3v9h-4.5v-18.5h4.3v2.7c1.3-1.9,3.5-2.9,6.8-2.9Z"/>
    <path class="cls-1" d="M227.5,50.1c-.5.4-1.2.7-1.9.9s-1.5.3-2.4.3c-2.1,0-3.7-.5-4.9-1.6-1.1-1.1-1.7-2.6-1.7-4.6v-8.9h-3.1v-3.5h3.1v-4.2h4.5v4.2h5.1v3.5h-5.1v8.8c0,.9.2,1.6.7,2.1.5.5,1.1.7,2,.7s1.8-.3,2.5-.8l1.2,3.1Z"/>
    <path class="cls-1" d="M122.7,59.2h10.9c2.7,0,5,.5,7.1,1.5s3.7,2.4,4.8,4.3,1.7,4,1.7,6.4-.6,4.5-1.7,6.4-2.8,3.3-4.8,4.3c-2.1,1-4.4,1.5-7.1,1.5h-10.9v-24.3ZM133.4,79.7c1.8,0,3.4-.3,4.8-1s2.5-1.7,3.2-2.9c.8-1.3,1.1-2.7,1.1-4.4s-.4-3.1-1.1-4.4c-.8-1.3-1.8-2.2-3.2-2.9-1.4-.7-3-1-4.8-1h-6.1v16.7h6.1Z"/>
    <path class="cls-1" d="M164.6,66.7c1.5,1.3,2.2,3.3,2.2,5.9v10.9h-4.2v-2.3c-.5.8-1.3,1.4-2.3,1.9-1,.4-2.2.6-3.7.6s-2.7-.2-3.8-.7c-1.1-.5-1.9-1.1-2.5-2-.6-.8-.9-1.8-.9-2.9,0-1.7.6-3,1.9-4,1.3-1,3.3-1.5,6-1.5h4.9v-.3c0-1.3-.4-2.3-1.2-3-.8-.7-2-1-3.6-1s-2.1.2-3.2.5c-1,.3-1.9.8-2.6,1.4l-1.8-3.2c1-.7,2.2-1.3,3.6-1.7,1.4-.4,2.9-.6,4.5-.6,2.8,0,5,.7,6.4,2ZM160.5,79.8c.9-.5,1.5-1.2,1.8-2.1v-2.2h-4.6c-2.6,0-3.9.8-3.9,2.5s.3,1.4,1,1.9c.6.5,1.5.7,2.7.7s2.1-.2,3-.7Z"/>
    <path class="cls-1" d="M183.1,82.5c-.5.4-1.2.7-1.9.9-.7.2-1.5.3-2.4.3-2.1,0-3.7-.5-4.9-1.6-1.1-1.1-1.7-2.6-1.7-4.6v-8.9h-3.1v-3.5h3.1v-4.2h4.5v4.2h5.1v3.5h-5.1v8.8c0,.9.2,1.6.7,2.1.5.5,1.1.7,2,.7s1.8-.3,2.5-.8l1.2,3.1Z"/>
    <path class="cls-1" d="M199.6,66.7c1.5,1.3,2.2,3.3,2.2,5.9v10.9h-4.2v-2.3c-.5.8-1.3,1.4-2.3,1.9-1,.4-2.2.6-3.7.6s-2.7-.2-3.8-.7c-1.1-.5-1.9-1.1-2.5-2-.6-.8-.9-1.8-.9-2.9,0-1.7.6-3,1.9-4,1.3-1,3.3-1.5,6-1.5h4.9v-.3c0-1.3-.4-2.3-1.2-3-.8-.7-2-1-3.6-1s-2.1.2-3.2.5-1.9.8-2.6,1.4l-1.8-3.2c1-.7,2.2-1.3,3.6-1.7,1.4-.4,2.9-.6,4.5-.6,2.8,0,5,.7,6.4,2ZM195.6,79.8c.9-.5,1.5-1.2,1.8-2.1v-2.2h-4.6c-2.6,0-3.9.8-3.9,2.5s.3,1.4,1,1.9c.6.5,1.5.7,2.7.7s2.1-.2,3-.7Z"/>
    <path class="cls-1" d="M239.1,83.5v-16.1s-8.3,13.3-8.3,13.3h-2.1l-8.2-13.1v15.9h-4.4v-24.3h3.8l9.9,16.1,9.8-16.1h3.8v24.3s-4.4,0-4.4,0Z"/>
    <path class="cls-1" d="M252.2,82.5c-1.5-.8-2.8-1.9-3.6-3.4-.9-1.4-1.3-3.1-1.3-4.9s.4-3.5,1.3-4.9c.9-1.4,2.1-2.6,3.6-3.4s3.3-1.2,5.2-1.2,3.7.4,5.3,1.2,2.8,1.9,3.6,3.4c.9,1.4,1.3,3.1,1.3,4.9s-.4,3.5-1.3,4.9c-.9,1.4-2.1,2.6-3.6,3.4-1.5.8-3.3,1.2-5.3,1.2s-3.7-.4-5.2-1.2ZM261.5,78.4c1.1-1.1,1.6-2.5,1.6-4.2s-.5-3.1-1.6-4.2-2.4-1.6-4.1-1.6-3,.5-4.1,1.6-1.6,2.5-1.6,4.2.5,3.1,1.6,4.2,2.4,1.6,4.1,1.6,3-.5,4.1-1.6Z"/>
    <path class="cls-1" d="M289.7,57.7v25.7h-4.3v-2.4c-.7.9-1.6,1.5-2.7,2-1.1.4-2.3.7-3.6.7s-3.5-.4-4.9-1.2c-1.5-.8-2.6-1.9-3.4-3.3-.8-1.4-1.2-3.1-1.2-5s.4-3.5,1.2-5c.8-1.4,2-2.5,3.4-3.3,1.5-.8,3.1-1.2,4.9-1.2s2.4.2,3.5.6c1,.4,1.9,1,2.7,1.9v-9.5h4.5ZM282.5,79.3c.9-.5,1.5-1.2,2-2,.5-.9.8-1.9.8-3.1s-.2-2.2-.8-3.1c-.5-.9-1.2-1.6-2-2-.9-.5-1.8-.7-2.9-.7s-2,.2-2.9.7c-.9.5-1.5,1.2-2,2-.5.9-.8,1.9-.8,3.1s.2,2.2.8,3.1c.5.9,1.2,1.6,2,2,.9.5,1.8.7,2.9.7s2-.2,2.9-.7Z"/>
    <path class="cls-1" d="M312.5,75.6h-15c.3,1.4.9,2.4,2.1,3.2s2.5,1.2,4.1,1.2,3.8-.7,5.2-2l2.4,2.7c-.9,1-1.9,1.7-3.3,2.3s-2.8.8-4.4.8-3.9-.4-5.5-1.2c-1.6-.8-2.8-1.9-3.7-3.4-.9-1.4-1.3-3.1-1.3-4.9s.4-3.4,1.3-4.9c.8-1.4,2-2.6,3.5-3.4s3.2-1.2,5.1-1.2,3.5.4,5,1.2c1.5.8,2.6,1.9,3.4,3.4.8,1.4,1.2,3.1,1.2,5s0,.7,0,1.3ZM299.3,69.4c-1,.8-1.6,1.9-1.8,3.3h10.8c-.2-1.3-.8-2.4-1.8-3.3-1-.8-2.2-1.2-3.6-1.2s-2.6.4-3.6,1.2Z"/>
    <path class="cls-1" d="M316,57.7h4.5v25.7h-4.5v-25.7Z"/>
    <path class="cls-1" d="M326.8,83.1c-1.5-.4-2.7-.9-3.5-1.5l1.7-3.3c.9.6,1.9,1,3.1,1.3,1.2.3,2.4.5,3.6.5,2.7,0,4-.7,4-2s-.3-1.1-1-1.4c-.7-.3-1.8-.5-3.3-.7-1.6-.2-2.9-.5-3.8-.8s-1.8-.8-2.6-1.6c-.7-.8-1.1-1.8-1.1-3.1s.8-3.2,2.3-4.2c1.5-1.1,3.6-1.6,6.1-1.6s2.6.1,3.9.4c1.3.3,2.4.7,3.2,1.2l-1.7,3.3c-1.6-.9-3.4-1.4-5.5-1.4s-2.3.2-3,.6-1,.9-1,1.5.4,1.2,1.1,1.5c.7.3,1.9.6,3.4.8,1.5.2,2.8.5,3.8.8s1.8.8,2.5,1.5c.7.7,1.1,1.7,1.1,3.1s-.8,3.1-2.3,4.2-3.7,1.6-6.3,1.6-3.1-.2-4.5-.6Z"/>
  </g>
  <g>
    <path class="cls-2" d="M74.2,48.1h-32c-5.3,0-9.6-4.2-9.6-9.3s4.3-9.3,9.6-9.3h15.3c.7,2.6,3.1,4.5,6,4.5s6.2-2.7,6.2-6-2.8-6-6.2-6-5.3,1.9-6,4.5h-15.3c-7,0-12.6,5.5-12.6,12.3s5.7,12.3,12.6,12.3h32c11.4,0,20.7,9,20.7,20.1s-9.3,20.1-20.7,20.1h-40.6c-.7-2.6-3.1-4.5-6-4.5s-6.2,2.7-6.2,6,2.8,6,6.2,6,5.3-1.9,6-4.5h40.6c13.1,0,23.8-10.4,23.8-23.1s-10.7-23.1-23.8-23.1ZM63.5,25c1.7,0,3.1,1.3,3.1,3s-1.4,3-3.1,3-3.1-1.3-3.1-3,1.4-3,3.1-3ZM27.7,95.7c-1.7,0-3.1-1.3-3.1-3s1.4-3,3.1-3,3.1,1.3,3.1,3-1.4,3-3.1,3Z"/>
    <path class="cls-2" d="M42.2,61.9h32c5.3,0,9.6,4.2,9.6,9.3s-4.3,9.3-9.6,9.3h-19.9c-.7-2.6-3.1-4.5-6-4.5s-6.2,2.7-6.2,6,2.8,6,6.2,6,5.3-1.9,6-4.5h19.9c7,0,12.6-5.5,12.6-12.3s-5.7-12.3-12.6-12.3h-32c-11.4,0-20.7-9-20.7-20.1s9.3-20.1,20.7-20.1h27.6c.7,2.6,3.1,4.5,6,4.5s6.2-2.7,6.2-6-2.8-6-6.2-6-5.3,1.9-6,4.5h-27.6c-13.1,0-23.8,10.3-23.8,23.1s10.7,23.1,23.8,23.1ZM48.4,85c-1.7,0-3.1-1.3-3.1-3s1.4-3,3.1-3,3.1,1.3,3.1,3-1.4,3-3.1,3ZM75.8,14.3c1.7,0,3.1,1.3,3.1,3s-1.4,3-3.1,3-3.1-1.3-3.1-3,1.4-3,3.1-3Z"/>
    <path class="cls-2" d="M75.8,71.2c0-.8-.7-1.5-1.5-1.5h-32.2c-.7-2.6-3.1-4.5-6-4.5s-6.2,2.7-6.2,6,2.8,6,6.2,6,5.3-1.9,6-4.5h32.2c.8,0,1.5-.7,1.5-1.5ZM36.1,74.2c-1.7,0-3.1-1.3-3.1-3s1.4-3,3.1-3,3.1,1.3,3.1,3-1.4,3-3.1,3Z"/>
    <path class="cls-2" d="M75.4,37.3h-33.2s0,0,0,0c-.8,0-1.5.7-1.5,1.5,0,.8.7,1.5,1.5,1.5h33.2c.7,2.6,3.1,4.5,6,4.5s6.2-2.7,6.2-6-2.8-6-6.2-6-5.3,1.9-6,4.5ZM84.5,38.8c0,1.6-1.4,3-3.1,3s-3.1-1.3-3.1-3,1.4-3,3.1-3,3.1,1.3,3.1,3Z"/>
  </g>
</svg>