<svg width="531" height="531" viewBox="0 0 531 531" fill="none" xmlns="http://www.w3.org/2000/svg">
<path d="M147.79 154.57C150.23 156.596 152.354 158.5 154.379 160.208L265.439 96.0485L375.254 159.378L381.819 153.741L265.439 86.604L147.79 154.57Z" fill="#3E4755"/>
<path d="M420.182 288.502C417.512 289.831 414.776 291.021 411.982 292.065V349.782L338.772 392.001C340.895 392.563 342.311 392.807 342.311 392.807C339.87 396.077 333.818 398.517 328.889 400.128L333.769 404.472L420.133 354.614L420.182 288.502Z" fill="#3E4755"/>
<path d="M283.962 520.662L310.074 505.58L295.017 495.404L291.063 497.673C289.157 505.471 286.786 513.148 283.962 520.662Z" fill="#3E4755"/>
<path d="M188.544 392.807C188.544 392.807 189.984 392.538 192.107 392.001L119.019 349.782V292.968C116.286 292.016 113.528 290.918 110.844 289.674V354.516L199.16 405.497L204.407 400.616C199.331 399.347 191.326 396.638 188.544 392.807Z" fill="#3E4755"/>
<path d="M118.774 128.044C121.898 131.071 125.022 133.999 128.072 136.854L265.439 57.4911L401.391 136C404.449 133.153 407.54 130.208 410.664 127.166L265.439 43.3365L118.774 128.044Z" fill="#3E4755"/>
<path d="M457.641 254.825C453.853 259.832 449.779 264.615 445.439 269.15V369.062L352.706 422.581C355.659 425.607 358.563 428.707 361.272 431.806L457.641 376.139V254.825Z" fill="#3E4755"/>
<path d="M103.936 113.205L267.171 19.0774L426.696 111.18C430.601 107.055 434.359 102.907 437.922 98.7579L267.098 0.188354L92.5156 100.979C96.2249 104.981 100.032 109.105 103.936 113.205Z" fill="#3E4755"/>
<path d="M208.358 477.514L53.9089 388.34V181.44C48.3937 175.485 42.8297 168.652 37.5586 161.745V397.785L207.602 495.964C207.504 490.205 207.821 483.835 208.358 477.514Z" fill="#3E4755"/>
<path d="M480.433 174.973V388.341L325.861 477.588C326.398 483.933 326.691 490.303 326.593 496.062L496.807 397.785V154.034C491.683 161.062 486.094 168.335 480.433 174.973Z" fill="#3E4755"/>
<path d="M212.971 442.592L207.797 439.615L190.275 443.714L210.896 455.623C211.75 450.206 212.434 445.691 212.971 442.592Z" fill="#3E4755"/>
<path d="M180.369 423.752L85.6353 369.061V271.566C81.2991 267.258 77.2246 262.694 73.4336 257.899V376.139L171.926 433.025C174.537 429.95 177.417 426.827 180.369 423.752Z" fill="#3E4755"/>
<path d="M250.187 520.565C247.381 513.049 245.026 505.372 243.134 497.576L239.254 495.355L224.197 505.556L250.187 520.565Z" fill="#3E4755"/>
<path d="M324.006 439.078L320.834 440.909C321.322 443.618 322.103 448.23 322.957 453.867L341.552 443.129L324.006 439.078Z" fill="#3E4755"/>
<path d="M259.729 269.028C262.169 274.299 264.878 279.717 267.416 285.232C269.856 279.717 272.565 274.299 275.128 269.028C292.771 232.421 301.679 211.189 278.983 199.451L277.983 198.694C274.298 195.033 270.662 193.179 267.416 193.179C263.313 193.557 259.524 195.539 256.874 198.694L255.849 199.451C233.178 211.189 242.061 232.445 259.729 269.028Z" fill="#00CBC6"/>
<path d="M505.812 109.374C453.369 195.18 342.309 235.765 342.309 235.765C537.83 119.99 530.484 3.5808 530.484 3.5808C460.398 135.462 342.749 206.772 299.603 229.566C296.968 242.671 289.842 257.436 282.521 272.591C278.738 280.425 274.834 288.552 271.222 296.995L267.464 305.732L263.706 296.995C260.119 288.649 256.19 280.547 252.407 272.591C245.525 258.314 238.79 244.379 235.837 231.884C196.792 211.897 73.0908 140.27 0.392966 3.5564C0.392966 3.5564 -6.92806 119.966 188.568 235.74C188.568 235.74 77.5566 195.156 25.0648 109.35C25.0648 109.35 62.4753 222.538 175.243 248.162C175.243 248.162 104.083 247.235 63.6466 205.332C63.6466 205.332 61.3283 255.728 169.85 263.317C169.85 263.317 116.504 276.252 90.3928 252.531C90.3928 252.531 91.6862 278.106 171.51 280.547C171.51 280.547 206.7 278.106 229.077 293.725C228.37 322.376 235.056 352.076 241.767 374.26C240.596 375.065 240.254 380.727 200.55 393.271C200.55 393.881 226.003 400.08 238.375 388.39C241.035 391.197 209.555 399.787 180.027 436.735C180.368 435.271 218.657 422.776 245.647 410.745C245.94 410.574 225.71 430.683 221.61 490.62C222.293 490.425 234.105 471.097 252.651 449.621C251.352 477.264 256.255 504.848 267 530.351V437.004V530.351C277.322 505.962 282.25 479.63 281.447 453.16C298.261 473.196 308.828 490.425 309.487 490.62C305.387 430.683 285.083 410.574 285.449 410.745C312.293 422.776 350.729 435.149 351.07 436.735C321.566 399.787 289.842 391.197 292.673 388.415C305.045 400.031 330.62 393.832 330.523 393.295C290.355 380.605 290.476 374.968 289.256 374.26C295.992 352.125 302.727 322.425 302.093 293.725C324.495 278.155 359.441 280.693 359.441 280.693C439.264 278.253 440.558 252.677 440.558 252.677C414.446 276.398 361.1 263.464 361.1 263.464C469.622 255.874 467.304 205.479 467.304 205.479C426.794 247.235 355.731 248.162 355.731 248.162C468.402 222.538 505.812 109.374 505.812 109.374Z" fill="#00CBC6"/>
</svg>
