<svg xmlns="http://www.w3.org/2000/svg" xmlns:xlink="http://www.w3.org/1999/xlink" viewBox="0 0 62 24"><g id="ss3388467174_1"><path d="M 0 0 L 62 0 L 62 22 L 0 22 Z" fill="transparent"></path><path d="M 5.657 18.543 C 6.742 18.543 7.673 18.15 7.673 17.129 C 7.673 16.421 7.207 16.029 6.355 15.793 L 4.495 15.321 C 1.55 14.536 0.465 13.043 0.465 11.157 C 0.465 8.643 2.325 6.679 5.735 6.679 C 8.447 6.679 10.617 8.014 11.005 10.371 L 7.75 11.157 C 7.673 10.214 6.82 9.664 5.812 9.664 C 4.727 9.664 4.03 10.214 4.03 11.079 C 4.03 11.786 4.495 12.179 5.58 12.493 L 7.362 12.964 C 9.92 13.671 11.238 15.086 11.238 17.129 C 11.238 19.721 9.223 21.45 5.658 21.45 C 2.17 21.45 0.31 19.721 0 17.443 L 3.333 16.893 C 3.487 17.914 4.34 18.543 5.657 18.543 Z M 13.175 2.75 L 13.175 21.136 L 16.74 21.136 L 16.74 10.136 L 19.375 10.136 L 19.375 7.07 L 16.74 7.07 L 16.74 2.75 Z M 23.87 12.886 L 30.535 12.886 C 30.38 10.764 29.14 9.743 27.357 9.743 C 25.42 9.743 24.257 10.843 23.87 12.886 Z M 34.255 15.4 L 23.87 15.4 C 24.102 17.521 25.73 18.307 27.357 18.307 C 29.062 18.307 30.07 17.522 30.69 16.264 L 33.712 17.443 C 32.705 19.879 30.225 21.371 27.357 21.371 C 23.25 21.371 20.382 18.464 20.382 13.986 C 20.382 9.586 23.172 6.521 27.357 6.521 C 31.465 6.521 34.255 9.429 34.255 13.986 Z M 57.738 7.071 L 54.095 7.071 L 54.095 21.057 L 57.738 21.057 Z M 43.633 18.15 C 41.463 18.15 39.835 16.579 39.835 14.064 C 39.835 11.55 41.463 9.979 43.633 9.979 C 45.88 9.979 47.43 11.55 47.43 14.064 C 47.43 16.579 45.88 18.15 43.633 18.15 Z M 51.15 17.521 L 51.15 0 L 47.508 0 L 47.508 8.564 C 46.5 7.23 44.718 6.68 43.09 6.68 C 39.06 6.68 36.038 9.587 36.038 14.144 C 36.038 19.015 38.983 21.53 43.013 21.53 C 44.873 21.53 46.655 20.744 47.585 19.408 C 47.663 20.115 47.663 20.665 47.818 21.137 L 51.15 21.137 L 51.15 17.52 Z M 57.727 0.001 L 57.717 3.694 L 61.359 3.704 L 61.369 0.012 L 57.727 0.002 Z" fill="rgb(41,122,113)"></path></g></svg>