<?xml version="1.0" encoding="UTF-8"?>
<!DOCTYPE svg PUBLIC "-//W3C//DTD SVG 1.1//EN" "http://www.w3.org/Graphics/SVG/1.1/DTD/svg11.dtd">
<svg xmlns="http://www.w3.org/2000/svg" version="1.1" width="500px" height="500px" style="shape-rendering:geometricPrecision; text-rendering:geometricPrecision; image-rendering:optimizeQuality; fill-rule:evenodd; clip-rule:evenodd" xmlns:xlink="http://www.w3.org/1999/xlink">
<g><path style="opacity:0.024" fill="#fefefe" d="M 144.5,117.5 C 143.42,120.743 143.253,124.076 144,127.5C 146.069,128.264 148.236,128.764 150.5,129C 151.056,129.383 151.389,129.883 151.5,130.5C 142.729,130.691 139.396,126.358 141.5,117.5C 142.5,117.5 143.5,117.5 144.5,117.5 Z"/></g>
<g><path style="opacity:0.987" fill="#232528" d="M 81.5,127.5 C 78.6874,127.025 76.6874,128.025 75.5,130.5C 74.6851,131.429 73.8518,132.429 73,133.5C 72.6667,144.167 72.3333,154.833 72,165.5C 69.4137,170.049 65.5804,173.049 60.5,174.5C 64.1835,176.005 67.5168,178.005 70.5,180.5C 71.1098,181.391 71.4431,182.391 71.5,183.5C 71.1678,194.853 71.5012,206.186 72.5,217.5C 74.2773,218.901 75.944,220.401 77.5,222C 80.146,222.497 82.8127,222.664 85.5,222.5C 85.5,225.167 85.5,227.833 85.5,230.5C 79.6885,231.226 74.3552,230.059 69.5,227C 66.6594,223.976 64.6594,220.476 63.5,216.5C 62.7662,206.192 62.2662,195.859 62,185.5C 60.1641,182.83 57.6641,181.163 54.5,180.5C 53.4324,179.566 52.099,179.232 50.5,179.5C 50.5,176.167 50.5,172.833 50.5,169.5C 51.791,169.737 52.791,169.404 53.5,168.5C 57.1398,168.525 59.4731,166.858 60.5,163.5C 61.2216,163.082 61.7216,162.416 62,161.5C 62.4997,153.173 62.6664,144.84 62.5,136.5C 62.5,136.167 62.5,135.833 62.5,135.5C 64.6941,122.659 72.3607,116.992 85.5,118.5C 85.5,121.5 85.5,124.5 85.5,127.5C 84.1667,127.5 82.8333,127.5 81.5,127.5 Z"/></g>
<g><path style="opacity:0.987" fill="#212326" d="M 160.5,121.5 C 163.458,123.403 165.458,126.07 166.5,129.5C 167.066,139.651 167.733,149.651 168.5,159.5C 168.652,163.141 170.318,165.807 173.5,167.5C 175.515,168.924 177.848,169.59 180.5,169.5C 180.5,172.833 180.5,176.167 180.5,179.5C 174.673,178.937 170.506,181.27 168,186.5C 167.5,195.494 167.334,204.494 167.5,213.5C 166.901,216.963 165.901,220.296 164.5,223.5C 159.307,228.722 152.973,231.056 145.5,230.5C 145.5,227.5 145.5,224.5 145.5,221.5C 151.412,222.391 155.079,220.058 156.5,214.5C 157.222,214.082 157.722,213.416 158,212.5C 158.212,201.788 158.712,191.121 159.5,180.5C 162.412,177.209 166.079,175.209 170.5,174.5C 166.387,173.705 163.054,171.705 160.5,168.5C 160.108,166.821 159.608,165.154 159,163.5C 158.927,153.094 158.26,142.761 157,132.5C 154.217,128.527 150.384,126.861 145.5,127.5C 145.5,124.5 145.5,121.5 145.5,118.5C 150.667,118.709 155.667,119.709 160.5,121.5 Z"/></g>
<g><path style="opacity:0.02" fill="#f3f3f3" d="M 156.5,117.5 C 162.534,118.354 166.7,121.688 169,127.5C 169.988,130.424 170.654,133.424 171,136.5C 171.333,144.833 171.667,153.167 172,161.5C 172.465,162.931 173.299,164.097 174.5,165C 181.964,163.966 185.298,167.133 184.5,174.5C 184.333,176.5 184.167,178.5 184,180.5C 181.242,182.643 178.076,183.81 174.5,184C 173.667,184.833 172.833,185.667 172,186.5C 171.812,197.203 171.145,207.87 170,218.5C 168.672,222.871 166.172,226.204 162.5,228.5C 163.167,226.833 163.833,225.167 164.5,223.5C 166.714,221.424 168.214,218.758 169,215.5C 169.5,206.506 169.666,197.506 169.5,188.5C 171.036,182.403 175.036,179.736 181.5,180.5C 181.5,176.5 181.5,172.5 181.5,168.5C 178.833,168.167 176.167,167.833 173.5,167.5C 170.318,165.807 168.652,163.141 168.5,159.5C 168.666,150.161 168.5,140.827 168,131.5C 167.722,130.584 167.222,129.918 166.5,129.5C 165.458,126.07 163.458,123.403 160.5,121.5C 159.661,119.616 158.328,118.283 156.5,117.5 Z"/></g>
<g><path style="opacity:0.019" fill="#ececed" d="M 235.5,119.5 C 238.85,119.335 242.183,119.502 245.5,120C 246,120.5 246.5,121 247,121.5C 247.667,133.833 247.667,146.167 247,158.5C 242.505,169.969 234.338,173.802 222.5,170C 216.633,167.452 213.299,162.952 212.5,156.5C 212.529,154.971 213.196,153.804 214.5,153C 218.167,152.333 221.833,152.333 225.5,153C 227.037,154.11 227.703,155.61 227.5,157.5C 229.167,157.5 230.833,157.5 232.5,157.5C 232.657,146.211 232.823,134.878 233,123.5C 233.662,122.016 234.496,120.683 235.5,119.5 Z"/></g>
<g><path style="opacity:0.021" fill="#e8e9e9" d="M 339.5,119.5 C 343.308,119.163 346.974,119.663 350.5,121C 355.705,127.908 360.538,135.074 365,142.5C 365.202,135.45 365.702,128.45 366.5,121.5C 368.535,119.987 370.869,119.321 373.5,119.5C 376.011,119.288 378.178,119.955 380,121.5C 380.667,137.167 380.667,152.833 380,168.5C 379.5,169 379,169.5 378.5,170C 375.167,170.667 371.833,170.667 368.5,170C 362.631,162.429 357.131,154.596 352,146.5C 351.667,153.833 351.333,161.167 351,168.5C 349.178,170.045 347.011,170.712 344.5,170.5C 341.989,170.712 339.822,170.045 338,168.5C 337.333,152.833 337.333,137.167 338,121.5C 338.717,120.956 339.217,120.289 339.5,119.5 Z"/></g>
<g><path style="opacity:0.607" fill="#67686a" d="M 243.5,158.5 C 243.5,146.833 243.5,135.167 243.5,123.5C 241.167,123.5 238.833,123.5 236.5,123.5C 236.828,134.679 236.495,145.679 235.5,156.5C 235.5,145.167 235.5,133.833 235.5,122.5C 238.5,122.5 241.5,122.5 244.5,122.5C 244.828,134.678 244.495,146.678 243.5,158.5 Z"/></g>
<g><path style="opacity:0.978" fill="#212326" d="M 243.5,158.5 C 242.452,162.719 239.785,165.553 235.5,167C 231.167,167.667 226.833,167.667 222.5,167C 220.963,165.293 219.296,163.793 217.5,162.5C 216.781,160.236 216.448,157.903 216.5,155.5C 219.167,155.5 221.833,155.5 224.5,155.5C 225.618,160.254 228.618,161.754 233.5,160C 234.823,159.184 235.489,158.017 235.5,156.5C 236.495,145.679 236.828,134.679 236.5,123.5C 238.833,123.5 241.167,123.5 243.5,123.5C 243.5,135.167 243.5,146.833 243.5,158.5 Z"/></g>
<g><path style="opacity:0.98" fill="#212326" d="M 366.5,149.5 C 366.415,150.995 367.081,151.995 368.5,152.5C 369.498,142.856 369.832,133.19 369.5,123.5C 371.833,123.5 374.167,123.5 376.5,123.5C 376.5,137.833 376.5,152.167 376.5,166.5C 374.167,166.5 371.833,166.5 369.5,166.5C 363.413,157.325 357.079,148.325 350.5,139.5C 350.217,138.711 349.717,138.044 349,137.5C 348.5,147.494 348.334,157.494 348.5,167.5C 345.833,167.5 343.167,167.5 340.5,167.5C 340.5,152.5 340.5,137.5 340.5,122.5C 343.247,122.187 345.914,122.52 348.5,123.5C 354.51,132.196 360.51,140.862 366.5,149.5 Z"/></g>
<g><path style="opacity:0.635" fill="#4a4c4e" d="M 369.5,123.5 C 369.5,123.167 369.5,122.833 369.5,122.5C 372.167,122.5 374.833,122.5 377.5,122.5C 377.5,137.5 377.5,152.5 377.5,167.5C 374.615,167.806 371.948,167.473 369.5,166.5C 371.833,166.5 374.167,166.5 376.5,166.5C 376.5,152.167 376.5,137.833 376.5,123.5C 374.167,123.5 371.833,123.5 369.5,123.5 Z"/></g>
<g><path style="opacity:0.023" fill="#ebebeb" d="M 265.5,118.5 C 273.084,118.015 279.584,120.348 285,125.5C 291.707,136.127 288.874,140.294 276.5,138C 275.092,134.582 272.592,132.749 269,132.5C 264.493,132.404 263.659,133.904 266.5,137C 273.87,137.96 280.37,140.793 286,145.5C 286.667,146.833 287.333,148.167 288,149.5C 287.136,131.849 295.302,121.515 312.5,118.5C 328.192,120.531 336.192,129.531 336.5,145.5C 332.723,168.552 320.057,175.719 298.5,167C 294.813,163.79 291.979,159.956 290,155.5C 286.767,165.876 279.601,171.209 268.5,171.5C 259.55,171.366 253.05,167.366 249,159.5C 247.674,151.83 250.841,148.997 258.5,151C 261.167,152.333 263.167,154.333 264.5,157C 267.5,157.667 270.5,157.667 273.5,157C 274.706,154.291 273.706,152.625 270.5,152C 261.283,151.486 254.45,147.319 250,139.5C 248.844,127.824 254.011,120.824 265.5,118.5 Z M 309.5,132.5 C 315.862,131.594 319.695,134.26 321,140.5C 321.937,145.403 321.27,150.07 319,154.5C 312.914,159.096 307.914,158.096 304,151.5C 303.174,146.411 303.508,141.411 305,136.5C 306.397,134.93 307.897,133.596 309.5,132.5 Z"/></g>
<g><path style="opacity:0.985" fill="#242629" d="M 331.5,135.5 C 332.383,140.103 332.717,144.77 332.5,149.5C 328.869,164.161 319.535,169.994 304.5,167C 300.362,165.022 297.029,162.189 294.5,158.5C 292.731,151.984 292.064,145.317 292.5,138.5C 293.73,130.767 298.063,125.601 305.5,123C 316.041,120.687 324.541,123.854 331,132.5C 331.483,133.448 331.649,134.448 331.5,135.5 Z M 309.5,132.5 C 307.897,133.596 306.397,134.93 305,136.5C 303.508,141.411 303.174,146.411 304,151.5C 307.914,158.096 312.914,159.096 319,154.5C 321.27,150.07 321.937,145.403 321,140.5C 319.695,134.26 315.862,131.594 309.5,132.5 Z"/></g>
<g><path style="opacity:0.982" fill="#242629" d="M 279.5,124.5 C 280.5,126.167 281.833,127.5 283.5,128.5C 283.5,130.167 283.5,131.833 283.5,133.5C 281.5,133.5 279.5,133.5 277.5,133.5C 277.512,130.858 276.179,129.525 273.5,129.5C 270.15,129.335 266.817,129.502 263.5,130C 260.657,133.619 260.99,136.952 264.5,140C 272.071,141.014 278.737,143.847 284.5,148.5C 286.73,155.128 285.397,160.795 280.5,165.5C 274.319,167.252 267.986,167.919 261.5,167.5C 256.468,165.801 253.134,162.468 251.5,157.5C 251.5,156.5 251.5,155.5 251.5,154.5C 254.167,154.5 256.833,154.5 259.5,154.5C 260.391,156.291 261.391,158.124 262.5,160C 266.956,160.867 271.289,160.534 275.5,159C 278.167,156.333 278.167,153.667 275.5,151C 270.258,149.123 264.925,147.456 259.5,146C 253.636,142.434 251.47,137.267 253,130.5C 254.666,127.669 256.832,125.336 259.5,123.5C 266.306,121.896 272.972,122.23 279.5,124.5 Z"/></g>
<g><path style="opacity:0.142" fill="#c6c7c7" d="M 279.5,124.5 C 272.972,122.23 266.306,121.896 259.5,123.5C 262.12,121.105 265.287,120.105 269,120.5C 273.344,120.105 276.844,121.438 279.5,124.5 Z"/></g>
<g><path style="opacity:0.137" fill="#bfbfc1" d="M 144.5,117.5 C 148.5,117.5 152.5,117.5 156.5,117.5C 158.328,118.283 159.661,119.616 160.5,121.5C 155.667,119.709 150.667,118.709 145.5,118.5C 145.5,121.5 145.5,124.5 145.5,127.5C 150.384,126.861 154.217,128.527 157,132.5C 158.26,142.761 158.927,153.094 159,163.5C 159.608,165.154 160.108,166.821 160.5,168.5C 159.034,167.653 158.2,166.32 158,164.5C 157.667,155.167 157.333,145.833 157,136.5C 156.285,133.359 154.452,131.359 151.5,130.5C 151.389,129.883 151.056,129.383 150.5,129C 148.236,128.764 146.069,128.264 144,127.5C 143.253,124.076 143.42,120.743 144.5,117.5 Z"/></g>
<g><path style="opacity:0.023" fill="#e2e2e3" d="M 307.5,129.5 C 321.544,129.537 327.044,136.537 324,150.5C 321.573,158.874 316.073,162.041 307.5,160C 304.569,157.738 302.403,154.905 301,151.5C 300.333,146.5 300.333,141.5 301,136.5C 302.694,133.642 304.861,131.309 307.5,129.5 Z M 309.5,132.5 C 307.897,133.596 306.397,134.93 305,136.5C 303.508,141.411 303.174,146.411 304,151.5C 307.914,158.096 312.914,159.096 319,154.5C 321.27,150.07 321.937,145.403 321,140.5C 319.695,134.26 315.862,131.594 309.5,132.5 Z"/></g>
<g><path style="opacity:0.018" fill="#e4e5e5" d="M 68.5,175.5 C 69.1667,177.167 69.8333,178.833 70.5,180.5C 67.5168,178.005 64.1835,176.005 60.5,174.5C 65.5804,173.049 69.4137,170.049 72,165.5C 72.3333,154.833 72.6667,144.167 73,133.5C 73.8518,132.429 74.6851,131.429 75.5,130.5C 77.5439,129.492 79.5439,128.492 81.5,127.5C 82.8333,127.5 84.1667,127.5 85.5,127.5C 85.5,124.5 85.5,121.5 85.5,118.5C 72.3607,116.992 64.6941,122.659 62.5,135.5C 62.6159,132.14 62.9492,128.807 63.5,125.5C 64.9274,122.236 67.2608,119.736 70.5,118C 76.4908,117.501 82.4908,117.334 88.5,117.5C 88.7592,121.24 88.4259,124.906 87.5,128.5C 85.1178,130.071 82.4512,130.904 79.5,131C 78.6667,131.833 77.8333,132.667 77,133.5C 75.4725,139.415 75.1392,145.415 76,151.5C 76.5,150.333 77.3333,149.5 78.5,149C 85.8582,147.786 92.3582,149.619 98,154.5C 104.368,143.794 112.535,134.628 122.5,127C 127.877,123.302 133.377,122.802 139,125.5C 139.667,126.833 139.667,128.167 139,129.5C 132.74,133.756 127.073,138.756 122,144.5C 114.869,155.257 108.369,166.424 102.5,178C 101.584,178.374 100.75,178.874 100,179.5C 95.3482,174.506 91.0148,169.172 87,163.5C 83.7008,160.022 80.0341,157.022 76,154.5C 75.6667,158.167 75.3333,161.833 75,165.5C 72.9778,169.003 70.8112,172.337 68.5,175.5 Z"/></g>
<g><path style="opacity:0.981" fill="#27292c" d="M 108.5,161.5 C 105.753,164.723 103.753,168.389 102.5,172.5C 102.489,174.686 101.489,175.519 99.5,175C 96.8773,171.588 94.3773,168.088 92,164.5C 87.6953,160.606 83.5287,156.606 79.5,152.5C 86.0392,151.401 91.7059,153.235 96.5,158C 97.5,158.667 98.5,158.667 99.5,158C 105.307,147.188 112.974,137.855 122.5,130C 126.891,127.231 131.558,126.398 136.5,127.5C 123.859,136.119 114.526,147.453 108.5,161.5 Z"/></g>
<g><path style="opacity:0.329" fill="#999a9b" d="M 81.5,127.5 C 79.5439,128.492 77.5439,129.492 75.5,130.5C 76.6874,128.025 78.6874,127.025 81.5,127.5 Z"/></g>
<g><path style="opacity:0.863" fill="#444648" d="M 283.5,128.5 C 285.163,130.438 285.829,132.772 285.5,135.5C 282.813,135.664 280.146,135.497 277.5,135C 276.588,132.795 275.255,130.962 273.5,129.5C 276.179,129.525 277.512,130.858 277.5,133.5C 279.5,133.5 281.5,133.5 283.5,133.5C 283.5,131.833 283.5,130.167 283.5,128.5 Z"/></g>
<g><path style="opacity:0.235" fill="#a6a7a8" d="M 331.5,135.5 C 332.117,135.611 332.617,135.944 333,136.5C 333.814,141.02 333.647,145.354 332.5,149.5C 332.717,144.77 332.383,140.103 331.5,135.5 Z"/></g>
<g><path style="opacity:0.48" fill="#7d7e7f" d="M 369.5,122.5 C 369.5,122.833 369.5,123.167 369.5,123.5C 369.832,133.19 369.498,142.856 368.5,152.5C 367.081,151.995 366.415,150.995 366.5,149.5C 367.117,149.611 367.617,149.944 368,150.5C 368.17,140.991 368.67,131.658 369.5,122.5 Z"/></g>
<g><path style="opacity:0.475" fill="#818183" d="M 166.5,129.5 C 167.222,129.918 167.722,130.584 168,131.5C 168.5,140.827 168.666,150.161 168.5,159.5C 167.733,149.651 167.066,139.651 166.5,129.5 Z"/></g>
<g><path style="opacity:0.281" fill="#d1d1d3" d="M 62.5,136.5 C 62.6664,144.84 62.4997,153.173 62,161.5C 61.7216,162.416 61.2216,163.082 60.5,163.5C 61.0849,154.356 61.7515,145.356 62.5,136.5 Z"/></g>
<g><path style="opacity:0.316" fill="#9d9e9e" d="M 350.5,139.5 C 349.833,148.833 349.167,158.167 348.5,167.5C 348.334,157.494 348.5,147.494 349,137.5C 349.717,138.044 350.217,138.711 350.5,139.5 Z"/></g>
<g><path style="opacity:0.515" fill="#8b8c8d" d="M 259.5,154.5 C 256.833,154.5 254.167,154.5 251.5,154.5C 251.5,155.5 251.5,156.5 251.5,157.5C 250.566,156.432 250.232,155.099 250.5,153.5C 253.713,153.19 256.713,153.523 259.5,154.5 Z"/></g>
<g><path style="opacity:0.305" fill="#b7b8b8" d="M 224.5,155.5 C 221.833,155.5 219.167,155.5 216.5,155.5C 216.448,157.903 216.781,160.236 217.5,162.5C 216.883,162.389 216.383,162.056 216,161.5C 215.503,159.19 215.337,156.857 215.5,154.5C 218.713,154.19 221.713,154.523 224.5,155.5 Z"/></g>
<g><path style="opacity:0.173" fill="#a6a7a9" d="M 292.5,138.5 C 292.064,145.317 292.731,151.984 294.5,158.5C 293.21,157.942 292.377,156.942 292,155.5C 291.182,149.651 291.348,143.985 292.5,138.5 Z"/></g>
<g><path style="opacity:0.157" fill="#a3a4a6" d="M 280.5,165.5 C 279.942,166.79 278.942,167.623 277.5,168C 271.984,168.817 266.65,168.651 261.5,167.5C 267.986,167.919 274.319,167.252 280.5,165.5 Z"/></g>
<g><path style="opacity:0.628" fill="#5e5f62" d="M 53.5,168.5 C 52.791,169.404 51.791,169.737 50.5,169.5C 50.5,172.833 50.5,176.167 50.5,179.5C 52.099,179.232 53.4324,179.566 54.5,180.5C 52.8333,180.5 51.1667,180.5 49.5,180.5C 49.5,176.5 49.5,172.5 49.5,168.5C 50.8333,168.5 52.1667,168.5 53.5,168.5 Z"/></g>
<g><path style="opacity:0.263" fill="#b2b2b4" d="M 108.5,161.5 C 107.807,164.639 106.64,167.639 105,170.5C 104.292,171.381 103.458,172.047 102.5,172.5C 103.753,168.389 105.753,164.723 108.5,161.5 Z"/></g>
<g><path style="opacity:0.018" fill="#eeeeee" d="M 63.5,125.5 C 62.9492,128.807 62.6159,132.14 62.5,135.5C 62.5,135.833 62.5,136.167 62.5,136.5C 61.7515,145.356 61.0849,154.356 60.5,163.5C 59.4731,166.858 57.1398,168.525 53.5,168.5C 52.1667,168.5 50.8333,168.5 49.5,168.5C 49.5,172.5 49.5,176.5 49.5,180.5C 53.4267,181.096 56.9267,182.763 60,185.5C 61.2514,194.759 61.918,204.092 62,213.5C 62.2321,214.737 62.7321,215.737 63.5,216.5C 64.6594,220.476 66.6594,223.976 69.5,227C 74.3552,230.059 79.6885,231.226 85.5,230.5C 85.5,227.833 85.5,225.167 85.5,222.5C 84.791,221.596 83.791,221.263 82.5,221.5C 80.8984,219.926 78.8984,219.259 76.5,219.5C 74.7304,217.887 73.5637,215.887 73,213.5C 72.8302,203.325 72.3302,193.325 71.5,183.5C 71.4431,182.391 71.1098,181.391 70.5,180.5C 69.8333,178.833 69.1667,177.167 68.5,175.5C 71.8228,177.102 73.9894,179.769 75,183.5C 75.0705,194.239 75.7371,204.906 77,215.5C 80.507,217.578 84.1737,219.245 88,220.5C 90.7428,233.401 85.9094,237.234 73.5,232C 65.4887,228.506 60.9887,222.339 60,213.5C 59.6667,204.833 59.3333,196.167 59,187.5C 58.5348,186.069 57.7014,184.903 56.5,184C 53.4294,183.853 50.5961,183.02 48,181.5C 47.3333,176.833 47.3333,172.167 48,167.5C 50.966,165.966 54.1327,164.8 57.5,164C 58.1258,163.25 58.6258,162.416 59,161.5C 59.3333,152.833 59.6667,144.167 60,135.5C 60.3022,131.755 61.4688,128.422 63.5,125.5 Z"/></g>
<g><path style="opacity:0.322" fill="#bdbdbf" d="M 159.5,180.5 C 158.712,191.121 158.212,201.788 158,212.5C 157.722,213.416 157.222,214.082 156.5,214.5C 157.241,203.525 157.741,192.525 158,181.5C 158.383,180.944 158.883,180.611 159.5,180.5 Z"/></g>
<g><path style="opacity:0.019" fill="#eeeeee" d="M 397.5,202.5 C 397.666,210.507 397.5,218.507 397,226.5C 396.5,227.667 395.667,228.5 394.5,229C 390.756,229.929 387.256,229.429 384,227.5C 383.667,219.5 383.333,211.5 383,203.5C 381.333,202.167 379.667,202.167 378,203.5C 377.667,211.5 377.333,219.5 377,227.5C 373.817,229.523 370.317,230.023 366.5,229C 365.692,228.692 365.025,228.192 364.5,227.5C 363.711,221.885 363.211,216.218 363,210.5C 362.535,211.931 361.701,213.097 360.5,214C 362.396,215.808 362.896,217.975 362,220.5C 355.572,229.438 347.072,231.938 336.5,228C 331.158,224.985 327.658,220.485 326,214.5C 325.774,218.887 325.274,223.221 324.5,227.5C 320.367,230.133 316.2,230.133 312,227.5C 311.125,226.127 310.625,224.627 310.5,223C 311.561,216.86 311.727,210.694 311,204.5C 308.667,201.833 306.333,201.833 304,204.5C 303.817,212.412 303.317,220.246 302.5,228C 292.839,232.09 288.339,228.923 289,218.5C 283.161,229.168 274.661,232.168 263.5,227.5C 268.867,228.902 274.2,228.735 279.5,227C 281.426,226.578 282.426,225.411 282.5,223.5C 282.427,221.973 283.094,220.973 284.5,220.5C 285.117,220.389 285.617,220.056 286,219.5C 286.495,217.527 286.662,215.527 286.5,213.5C 283.615,213.194 280.948,213.527 278.5,214.5C 278.262,216.404 277.262,217.738 275.5,218.5C 272.43,218.632 269.43,218.299 266.5,217.5C 266.167,216.833 265.833,216.167 265.5,215.5C 265.5,211.167 265.5,206.833 265.5,202.5C 270.385,196.865 274.719,197.365 278.5,204C 281.146,204.497 283.813,204.664 286.5,204.5C 286.483,202.435 286.15,200.435 285.5,198.5C 285.167,197.167 284.833,195.833 284.5,194.5C 286.934,195.771 288.434,197.771 289,200.5C 289.333,193.833 289.667,187.167 290,180.5C 293.941,177.007 298.108,176.674 302.5,179.5C 303.262,183.111 303.762,186.778 304,190.5C 316.531,186.774 323.865,191.441 326,204.5C 331.175,189.498 341.009,185.332 355.5,192C 359.956,195.413 362.456,199.913 363,205.5C 363.333,200.833 363.667,196.167 364,191.5C 368.073,189.195 372.406,188.861 377,190.5C 382.812,188.092 388.312,188.758 393.5,192.5C 402.322,186.582 409.822,187.915 416,196.5C 417.085,201.437 417.752,206.437 418,211.5C 419.5,208.667 421.667,206.5 424.5,205C 420.943,205.104 418.943,203.437 418.5,200C 421.461,192.73 426.961,188.897 435,188.5C 441.287,188.151 446.287,190.485 450,195.5C 450.5,206.828 450.667,218.162 450.5,229.5C 442.508,228.467 434.508,228.301 426.5,229C 422.427,227.928 419.593,225.428 418,221.5C 416.676,229.353 412.176,231.686 404.5,228.5C 403.808,227.975 403.308,227.308 403,226.5C 402.832,218.479 402.332,210.479 401.5,202.5C 400.274,201.637 398.94,201.637 397.5,202.5 Z M 269.5,201.5 C 270.873,201.343 272.207,201.51 273.5,202C 276.408,207.091 280.742,208.757 286.5,207C 287.667,206.5 288.5,205.667 289,204.5C 289.667,207.5 289.667,210.5 289,213.5C 288.5,213 288,212.5 287.5,212C 284.167,211.333 280.833,211.333 277.5,212C 271.686,218.642 268.352,217.642 267.5,209C 267.303,206.176 267.969,203.676 269.5,201.5 Z M 340.5,215.5 C 343.304,214.362 346.304,214.195 349.5,215C 346.726,218.07 343.726,218.237 340.5,215.5 Z M 433.5,214.5 C 438.623,214.899 438.79,215.899 434,217.5C 430.993,217.001 430.826,216.001 433.5,214.5 Z"/></g>
<g><path style="opacity:0.451" fill="#9b9c9d" d="M 320.5,196.5 C 315.794,192.574 310.461,191.574 304.5,193.5C 304.611,192.883 304.944,192.383 305.5,192C 309.926,191.209 314.259,191.543 318.5,193C 319.823,193.816 320.489,194.983 320.5,196.5 Z"/></g>
<g><path style="opacity:0.135" fill="#c5c5c6" d="M 411.5,195.5 C 407.307,192.803 402.64,191.803 397.5,192.5C 397.611,191.883 397.944,191.383 398.5,191C 402.711,190.079 406.711,190.579 410.5,192.5C 411.127,193.417 411.461,194.417 411.5,195.5 Z"/></g>
<g><path style="opacity:0.139" fill="#c7c7c8" d="M 354.5,194.5 C 349.659,192.848 344.659,192.182 339.5,192.5C 340.871,191.213 342.705,190.547 345,190.5C 349.115,189.823 352.282,191.156 354.5,194.5 Z"/></g>
<g><path style="opacity:0.322" fill="#aaaaaa" d="M 300.5,181.5 C 301.167,185.833 301.833,190.167 302.5,194.5C 302.217,195.289 301.717,195.956 301,196.5C 300.501,191.511 300.334,186.511 300.5,181.5 Z"/></g>
<g><path style="opacity:0.982" fill="#242629" d="M 275.5,192.5 C 279.424,193.464 282.757,195.464 285.5,198.5C 286.15,200.435 286.483,202.435 286.5,204.5C 283.813,204.664 281.146,204.497 278.5,204C 274.719,197.365 270.385,196.865 265.5,202.5C 262.91,206.863 262.91,211.196 265.5,215.5C 265.833,216.167 266.167,216.833 266.5,217.5C 267.768,219.387 269.601,220.387 272,220.5C 273.699,220.613 274.866,219.947 275.5,218.5C 277.262,217.738 278.262,216.404 278.5,214.5C 280.833,214.5 283.167,214.5 285.5,214.5C 285.483,216.565 285.15,218.565 284.5,220.5C 283.094,220.973 282.427,221.973 282.5,223.5C 276.866,226.387 270.866,227.22 264.5,226C 259.997,222.999 257.331,218.833 256.5,213.5C 256.231,207.849 257.231,202.516 259.5,197.5C 260.167,196.167 261.167,195.167 262.5,194.5C 266.674,192.936 271.007,192.269 275.5,192.5 Z"/></g>
<g><path style="opacity:0.984" fill="#212326" d="M 300.5,181.5 C 300.334,186.511 300.501,191.511 301,196.5C 301.717,195.956 302.217,195.289 302.5,194.5C 303.167,194.167 303.833,193.833 304.5,193.5C 310.461,191.574 315.794,192.574 320.5,196.5C 320.833,197.167 321.167,197.833 321.5,198.5C 321.5,207.5 321.5,216.5 321.5,225.5C 319.167,225.5 316.833,225.5 314.5,225.5C 314.826,217.316 314.492,209.316 313.5,201.5C 309.072,197.279 305.072,197.612 301.5,202.5C 300.508,209.982 300.175,217.648 300.5,225.5C 298.167,225.5 295.833,225.5 293.5,225.5C 293.5,210.833 293.5,196.167 293.5,181.5C 295.833,181.5 298.167,181.5 300.5,181.5 Z"/></g>
<g><path style="opacity:0.982" fill="#25272a" d="M 339.5,192.5 C 344.659,192.182 349.659,192.848 354.5,194.5C 357.683,197.033 359.349,200.366 359.5,204.5C 359.5,206.5 359.5,208.5 359.5,210.5C 351.648,210.175 343.982,210.508 336.5,211.5C 338.72,221.087 343.72,222.921 351.5,217C 354.146,216.503 356.813,216.336 359.5,216.5C 358.66,219.676 356.993,222.342 354.5,224.5C 348.167,227.167 341.833,227.167 335.5,224.5C 329.018,218.513 326.851,211.18 329,202.5C 331.075,197.59 334.575,194.257 339.5,192.5 Z"/></g>
<g><path style="opacity:0.979" fill="#212326" d="M 397.5,192.5 C 402.64,191.803 407.307,192.803 411.5,195.5C 411.833,196.5 412.5,197.167 413.5,197.5C 413.5,206.833 413.5,216.167 413.5,225.5C 411.167,225.5 408.833,225.5 406.5,225.5C 406.826,217.316 406.492,209.316 405.5,201.5C 405.167,201.5 404.833,201.5 404.5,201.5C 400.844,197.358 397.51,197.691 394.5,202.5C 393.508,209.982 393.175,217.648 393.5,225.5C 391.167,225.5 388.833,225.5 386.5,225.5C 386.666,217.493 386.5,209.493 386,201.5C 383.249,198.246 380.416,197.912 377.5,200.5C 376.542,200.953 375.708,201.619 375,202.5C 374.5,210.159 374.334,217.826 374.5,225.5C 372.167,225.5 369.833,225.5 367.5,225.5C 367.5,214.833 367.5,204.167 367.5,193.5C 369.5,193.5 371.5,193.5 373.5,193.5C 373.238,194.978 373.571,196.311 374.5,197.5C 375.107,197.376 375.44,197.043 375.5,196.5C 376.489,193.065 378.822,191.732 382.5,192.5C 386.783,192.26 390.449,193.593 393.5,196.5C 395.188,195.479 396.521,194.145 397.5,192.5 Z"/></g>
<g><path style="opacity:0.757" fill="#6e6f70" d="M 441.5,192.5 C 436.012,192.248 430.678,192.915 425.5,194.5C 426.842,193.207 428.509,192.374 430.5,192C 434.358,191.19 438.024,191.357 441.5,192.5 Z"/></g>
<g><path style="opacity:0.184" fill="#d0d1d1" d="M 169.5,188.5 C 169.666,197.506 169.5,206.506 169,215.5C 168.214,218.758 166.714,221.424 164.5,223.5C 165.901,220.296 166.901,216.963 167.5,213.5C 168.167,205.167 168.833,196.833 169.5,188.5 Z"/></g>
<g><path style="opacity:0.28" fill="#ceced0" d="M 49.5,180.5 C 51.1667,180.5 52.8333,180.5 54.5,180.5C 57.6641,181.163 60.1641,182.83 62,185.5C 62.2662,195.859 62.7662,206.192 63.5,216.5C 62.7321,215.737 62.2321,214.737 62,213.5C 61.918,204.092 61.2514,194.759 60,185.5C 56.9267,182.763 53.4267,181.096 49.5,180.5 Z"/></g>
<g><path style="opacity:0.649" fill="#505254" d="M 375.5,196.5 C 375.44,197.043 375.107,197.376 374.5,197.5C 373.571,196.311 373.238,194.978 373.5,193.5C 371.5,193.5 369.5,193.5 367.5,193.5C 367.5,204.167 367.5,214.833 367.5,225.5C 369.833,225.5 372.167,225.5 374.5,225.5C 372.052,226.473 369.385,226.806 366.5,226.5C 366.5,215.167 366.5,203.833 366.5,192.5C 369.167,192.5 371.833,192.5 374.5,192.5C 374.232,194.099 374.566,195.432 375.5,196.5 Z"/></g>
<g><path style="opacity:0.031" fill="#e3e3e4" d="M 351.5,202.5 C 351.5,203.5 351.5,204.5 351.5,205.5C 346.381,206.103 341.715,205.436 337.5,203.5C 338.649,199.997 341.149,198.331 345,198.5C 348.062,198.398 350.229,199.731 351.5,202.5 Z"/></g>
<g><path style="opacity:0.017" fill="#ebebec" d="M 144.5,169.5 C 147.518,169.335 150.518,169.502 153.5,170C 155.368,170.899 156.368,172.399 156.5,174.5C 151.68,180.819 146.347,186.652 140.5,192C 143.033,196.898 145.699,201.731 148.5,206.5C 146.978,210.564 144.311,213.564 140.5,215.5C 138.833,214.667 137.167,213.833 135.5,213C 133.355,209.688 130.688,206.854 127.5,204.5C 122.295,211.383 116.295,217.549 109.5,223C 100.506,224.005 97.3393,220.172 100,211.5C 106.18,204.655 112.346,197.822 118.5,191C 116.225,186.449 114.225,181.783 112.5,177C 112.89,174.541 114.224,172.874 116.5,172C 119.5,171.333 122.5,171.333 125.5,172C 127.365,174.858 129.532,177.358 132,179.5C 136.31,176.272 140.476,172.939 144.5,169.5 Z"/></g>
<g><path style="opacity:0.247" fill="#a7a9a9" d="M 148.5,180.5 C 145.5,184.167 142.167,187.5 138.5,190.5C 140.833,186.167 144.167,182.833 148.5,180.5 Z"/></g>
<g><path style="opacity:0.986" fill="#242629" d="M 148.5,180.5 C 144.167,182.833 140.833,186.167 138.5,190.5C 137.503,190.47 136.836,190.97 136.5,192C 139.119,196.068 141.619,200.234 144,204.5C 144.713,207.475 143.879,209.975 141.5,212C 140.5,212.667 139.5,212.667 138.5,212C 136.333,208.667 133.666,205.834 130.5,203.5C 130.278,200.924 128.945,200.09 126.5,201C 124.21,202.777 122.543,204.944 121.5,207.5C 120.5,207.833 119.833,208.5 119.5,209.5C 116.119,211.88 113.453,214.88 111.5,218.5C 103.553,222.729 100.719,220.395 103,211.5C 109,205.5 115,199.5 121,193.5C 121.667,191.833 121.667,190.167 121,188.5C 118.911,184.332 117.411,179.998 116.5,175.5C 119.266,174.768 121.932,174.768 124.5,175.5C 126.149,178.643 128.316,181.31 131,183.5C 135.775,180.396 140.275,176.896 144.5,173C 147.482,172.502 150.482,172.335 153.5,172.5C 153.649,173.552 153.483,174.552 153,175.5C 151.293,177.037 149.793,178.704 148.5,180.5 Z"/></g>
<g><path style="opacity:0.165" fill="#aaaaab" d="M 130.5,203.5 C 129.542,203.047 128.708,202.381 128,201.5C 125.963,203.706 123.797,205.706 121.5,207.5C 122.543,204.944 124.21,202.777 126.5,201C 128.945,200.09 130.278,200.924 130.5,203.5 Z"/></g>
<g><path style="opacity:0.647" fill="#747577" d="M 124.5,175.5 C 121.932,174.768 119.266,174.768 116.5,175.5C 118.055,174.367 119.889,173.701 122,173.5C 123.376,173.684 124.209,174.351 124.5,175.5 Z"/></g>
<g><path style="opacity:0.475" fill="#7f8082" d="M 173.5,167.5 C 176.167,167.833 178.833,168.167 181.5,168.5C 181.5,172.5 181.5,176.5 181.5,180.5C 175.036,179.736 171.036,182.403 169.5,188.5C 168.833,196.833 168.167,205.167 167.5,213.5C 167.334,204.494 167.5,195.494 168,186.5C 170.506,181.27 174.673,178.937 180.5,179.5C 180.5,176.167 180.5,172.833 180.5,169.5C 177.848,169.59 175.515,168.924 173.5,167.5 Z"/></g>
<g><path style="opacity:0.629" fill="#585a5d" d="M 448.5,198.5 C 449.494,207.652 449.827,216.985 449.5,226.5C 446.615,226.806 443.948,226.473 441.5,225.5C 443.833,225.5 446.167,225.5 448.5,225.5C 448.5,216.5 448.5,207.5 448.5,198.5 Z"/></g>
<g><path style="opacity:0.554" fill="#747678" d="M 351.5,202.5 C 352.434,203.568 352.768,204.901 352.5,206.5C 347.167,206.5 341.833,206.5 336.5,206.5C 336.263,205.209 336.596,204.209 337.5,203.5C 341.715,205.436 346.381,206.103 351.5,205.5C 351.5,204.5 351.5,203.5 351.5,202.5 Z"/></g>
<g><path style="opacity:0.89" fill="#585a5c" d="M 440.5,200.5 C 441.461,202.265 441.795,204.265 441.5,206.5C 438.167,206.5 434.833,206.5 431.5,206.5C 434.287,205.523 437.287,205.19 440.5,205.5C 440.5,203.833 440.5,202.167 440.5,200.5 Z"/></g>
<g><path style="opacity:0.239" fill="#c0c1c1" d="M 386.5,225.5 C 388.948,226.473 391.615,226.806 394.5,226.5C 394.5,218.5 394.5,210.5 394.5,202.5C 397.51,197.691 400.844,197.358 404.5,201.5C 403.033,201.106 401.533,200.773 400,200.5C 398.624,200.684 397.791,201.351 397.5,202.5C 395.532,210.433 394.865,218.766 395.5,227.5C 392.167,227.5 388.833,227.5 385.5,227.5C 385.666,219.16 385.5,210.827 385,202.5C 382.865,200.722 380.365,200.055 377.5,200.5C 380.416,197.912 383.249,198.246 386,201.5C 386.5,209.493 386.666,217.493 386.5,225.5 Z"/></g>
<g><path style="opacity:0.541" fill="#6b6c6e" d="M 394.5,202.5 C 394.5,210.5 394.5,218.5 394.5,226.5C 391.615,226.806 388.948,226.473 386.5,225.5C 388.833,225.5 391.167,225.5 393.5,225.5C 393.175,217.648 393.508,209.982 394.5,202.5 Z"/></g>
<g><path style="opacity:0.639" fill="#68696b" d="M 300.5,181.5 C 298.167,181.5 295.833,181.5 293.5,181.5C 293.5,196.167 293.5,210.833 293.5,225.5C 295.833,225.5 298.167,225.5 300.5,225.5C 300.175,217.648 300.508,209.982 301.5,202.5C 301.5,210.5 301.5,218.5 301.5,226.5C 298.5,226.5 295.5,226.5 292.5,226.5C 292.5,211.167 292.5,195.833 292.5,180.5C 295.385,180.194 298.052,180.527 300.5,181.5 Z"/></g>
<g><path style="opacity:0.175" fill="#b6b7b8" d="M 265.5,202.5 C 265.5,206.833 265.5,211.167 265.5,215.5C 262.91,211.196 262.91,206.863 265.5,202.5 Z"/></g>
<g><path style="opacity:0.976" fill="#242629" d="M 441.5,192.5 C 444.391,193.789 446.725,195.789 448.5,198.5C 448.5,207.5 448.5,216.5 448.5,225.5C 446.167,225.5 443.833,225.5 441.5,225.5C 441.649,224.448 441.483,223.448 441,222.5C 434.597,227.773 428.263,227.773 422,222.5C 417.862,212.808 421.028,207.475 431.5,206.5C 434.833,206.5 438.167,206.5 441.5,206.5C 441.795,204.265 441.461,202.265 440.5,200.5C 437.823,198.568 434.823,198.068 431.5,199C 428.972,202.771 425.639,203.604 421.5,201.5C 421.961,198.697 423.295,196.363 425.5,194.5C 430.678,192.915 436.012,192.248 441.5,192.5 Z M 433.5,214.5 C 430.826,216.001 430.993,217.001 434,217.5C 438.79,215.899 438.623,214.899 433.5,214.5 Z"/></g>
<g><path style="opacity:0.018" fill="#e6e6e7" d="M 229.5,191.5 C 229.5,192.833 229.5,194.167 229.5,195.5C 238.57,196.23 246.07,199.896 252,206.5C 255.718,191.892 264.885,186.392 279.5,190C 281.66,190.996 283.327,192.496 284.5,194.5C 284.833,195.833 285.167,197.167 285.5,198.5C 282.757,195.464 279.424,193.464 275.5,192.5C 272.696,191.362 269.696,191.195 266.5,192C 264.68,192.2 263.347,193.034 262.5,194.5C 261.167,195.167 260.167,196.167 259.5,197.5C 257.172,198.736 256.006,200.736 256,203.5C 255.192,207.027 255.359,210.36 256.5,213.5C 257.331,218.833 259.997,222.999 264.5,226C 270.866,227.22 276.866,226.387 282.5,223.5C 282.426,225.411 281.426,226.578 279.5,227C 274.2,228.735 268.867,228.902 263.5,227.5C 258.931,225.433 255.431,222.1 253,217.5C 251.077,223.721 246.91,227.554 240.5,229C 230.43,231.523 221.93,229.023 215,221.5C 210.223,211.238 213.389,207.404 224.5,210C 226.213,211.378 227.547,213.045 228.5,215C 232.444,217.397 235.778,216.897 238.5,213.5C 238.182,212.353 237.516,211.519 236.5,211C 228.514,210.125 221.68,206.958 216,201.5C 211.896,189.206 216.062,181.373 228.5,178C 239.055,175.744 246.888,179.244 252,188.5C 252.944,191.347 252.444,193.847 250.5,196C 247.5,196.667 244.5,196.667 241.5,196C 238.601,191.378 234.601,189.878 229.5,191.5 Z"/></g>
<g><path style="opacity:0.431" fill="#8b8c8e" d="M 275.5,192.5 C 271.007,192.269 266.674,192.936 262.5,194.5C 263.347,193.034 264.68,192.2 266.5,192C 269.696,191.195 272.696,191.362 275.5,192.5 Z"/></g>
<g><path style="opacity:0.09" fill="#c0c2c3" d="M 229.5,188.5 C 233.215,188.423 236.881,188.756 240.5,189.5C 241.11,190.391 241.443,191.391 241.5,192.5C 239.184,190.726 236.517,189.726 233.5,189.5C 231.645,189.34 230.312,190.007 229.5,191.5C 228.5,191.5 227.5,191.5 226.5,191.5C 226.5,192.833 226.5,194.167 226.5,195.5C 224.67,192.022 225.67,189.689 229.5,188.5 Z"/></g>
<g><path style="opacity:0.98" fill="#252729" d="M 241.5,192.5 C 241.443,191.391 241.11,190.391 240.5,189.5C 239.129,188.213 237.295,187.547 235,187.5C 232.967,187.506 231.134,187.839 229.5,188.5C 225.67,189.689 224.67,192.022 226.5,195.5C 227.343,197.173 228.676,198.34 230.5,199C 238.24,199.736 244.74,202.903 250,208.5C 251.395,215.435 249.228,220.935 243.5,225C 237.235,226.484 230.902,226.818 224.5,226C 220.504,223.506 217.837,220.006 216.5,215.5C 218.718,213.156 221.385,212.823 224.5,214.5C 228.817,220.213 234.15,221.046 240.5,217C 243.167,214.667 243.167,212.333 240.5,210C 235.36,207.731 230.027,206.065 224.5,205C 218.092,201.677 215.925,196.511 218,189.5C 218.346,187.152 219.513,185.319 221.5,184C 231.44,178.534 240.44,179.701 248.5,187.5C 249.348,189.409 249.682,191.409 249.5,193.5C 246.615,193.806 243.948,193.473 241.5,192.5 Z"/></g>
<g><path style="opacity:0.886" fill="#545658" d="M 229.5,188.5 C 231.134,187.839 232.967,187.506 235,187.5C 237.295,187.547 239.129,188.213 240.5,189.5C 236.881,188.756 233.215,188.423 229.5,188.5 Z"/></g>
<g><path style="opacity:0.602" fill="#5e6061" d="M 259.5,197.5 C 257.231,202.516 256.231,207.849 256.5,213.5C 255.359,210.36 255.192,207.027 256,203.5C 256.006,200.736 257.172,198.736 259.5,197.5 Z"/></g>
<g><path style="opacity:0.639" fill="#46484a" d="M 359.5,204.5 C 360.468,206.607 360.802,208.941 360.5,211.5C 352.5,211.5 344.5,211.5 336.5,211.5C 343.982,210.508 351.648,210.175 359.5,210.5C 359.5,208.5 359.5,206.5 359.5,204.5 Z"/></g>
<g><path style="opacity:0.2" fill="#b1b1b4" d="M 440.5,215.5 C 440.5,214.5 440.5,213.5 440.5,212.5C 437.833,212.5 435.167,212.5 432.5,212.5C 435.311,211.525 438.311,210.858 441.5,210.5C 441.784,212.415 441.451,214.081 440.5,215.5 Z"/></g>
<g><path style="opacity:0.231" fill="#b1b1b2" d="M 119.5,209.5 C 117.913,212.268 116.08,214.935 114,217.5C 113.329,218.252 112.496,218.586 111.5,218.5C 113.453,214.88 116.119,211.88 119.5,209.5 Z"/></g>
<g><path style="opacity:0.593" fill="#696a6c" d="M 224.5,214.5 C 221.385,212.823 218.718,213.156 216.5,215.5C 215.596,214.791 215.263,213.791 215.5,212.5C 219.012,211.945 222.012,212.612 224.5,214.5 Z"/></g>
<g><path style="opacity:0.028" fill="#f3f3f3" d="M 431.5,212.5 C 431.833,212.5 432.167,212.5 432.5,212.5C 435.167,212.5 437.833,212.5 440.5,212.5C 440.5,213.5 440.5,214.5 440.5,215.5C 440.167,217.833 438.833,219.167 436.5,219.5C 429.552,220.574 427.885,218.241 431.5,212.5 Z M 433.5,214.5 C 430.826,216.001 430.993,217.001 434,217.5C 438.79,215.899 438.623,214.899 433.5,214.5 Z"/></g>
<g><path style="opacity:0.31" fill="#a9aaab" d="M 278.5,214.5 C 280.948,213.527 283.615,213.194 286.5,213.5C 286.662,215.527 286.495,217.527 286,219.5C 285.617,220.056 285.117,220.389 284.5,220.5C 285.15,218.565 285.483,216.565 285.5,214.5C 283.167,214.5 280.833,214.5 278.5,214.5 Z"/></g>
<g><path style="opacity:0.943" fill="#3d3f42" d="M 71.5,183.5 C 72.3302,193.325 72.8302,203.325 73,213.5C 73.5637,215.887 74.7304,217.887 76.5,219.5C 78.1016,221.074 80.1016,221.741 82.5,221.5C 83.791,221.263 84.791,221.596 85.5,222.5C 82.8127,222.664 80.146,222.497 77.5,222C 75.944,220.401 74.2773,218.901 72.5,217.5C 71.5012,206.186 71.1678,194.853 71.5,183.5 Z"/></g>
<g><path style="opacity:0.619" fill="#6f7072" d="M 413.5,197.5 C 414.494,206.986 414.827,216.652 414.5,226.5C 411.5,226.5 408.5,226.5 405.5,226.5C 405.5,218.167 405.5,209.833 405.5,201.5C 406.492,209.316 406.826,217.316 406.5,225.5C 408.833,225.5 411.167,225.5 413.5,225.5C 413.5,216.167 413.5,206.833 413.5,197.5 Z"/></g>
<g><path style="opacity:0.267" fill="#b1b1b3" d="M 431.5,212.5 C 427.885,218.241 429.552,220.574 436.5,219.5C 433.531,221.006 430.698,220.673 428,218.5C 426.878,215.128 428.045,213.128 431.5,212.5 Z"/></g>
<g><path style="opacity:0.616" fill="#717274" d="M 321.5,198.5 C 322.494,207.652 322.827,216.985 322.5,226.5C 319.5,226.5 316.5,226.5 313.5,226.5C 313.5,218.167 313.5,209.833 313.5,201.5C 314.492,209.316 314.826,217.316 314.5,225.5C 316.833,225.5 319.167,225.5 321.5,225.5C 321.5,216.5 321.5,207.5 321.5,198.5 Z"/></g>
<g><path style="opacity:0.22" fill="#b5b5b6" d="M 266.5,217.5 C 269.43,218.299 272.43,218.632 275.5,218.5C 274.866,219.947 273.699,220.613 272,220.5C 269.601,220.387 267.768,219.387 266.5,217.5 Z"/></g>
<g><path style="opacity:0.322" fill="#a8a8a9" d="M 76.5,219.5 C 78.8984,219.259 80.8984,219.926 82.5,221.5C 80.1016,221.741 78.1016,221.074 76.5,219.5 Z"/></g>
<g><path style="opacity:0.021" fill="#f7f7f7" d="M 151.5,130.5 C 154.452,131.359 156.285,133.359 157,136.5C 157.333,145.833 157.667,155.167 158,164.5C 158.2,166.32 159.034,167.653 160.5,168.5C 163.054,171.705 166.387,173.705 170.5,174.5C 166.079,175.209 162.412,177.209 159.5,180.5C 158.883,180.611 158.383,180.944 158,181.5C 157.741,192.525 157.241,203.525 156.5,214.5C 155.079,220.058 151.412,222.391 145.5,221.5C 144.521,224.625 144.187,227.958 144.5,231.5C 148.833,231.5 153.167,231.5 157.5,231.5C 153.11,233.373 148.444,233.873 143.5,233C 141.005,229.015 140.839,224.848 143,220.5C 145.966,218.966 149.133,217.8 152.5,217C 153.126,216.25 153.626,215.416 154,214.5C 155.26,204.239 155.927,193.906 156,183.5C 156.814,179.52 158.981,176.52 162.5,174.5C 159.368,172.201 157.201,169.201 156,165.5C 155.667,156.167 155.333,146.833 155,137.5C 154.347,134.861 153.18,132.527 151.5,130.5 Z"/></g>
<g><path style="opacity:0.275" fill="#bebfc0" d="M 335.5,224.5 C 341.833,227.167 348.167,227.167 354.5,224.5C 354.423,225.75 353.756,226.583 352.5,227C 347.833,227.667 343.167,227.667 338.5,227C 336.881,226.764 335.881,225.931 335.5,224.5 Z"/></g>
<g><path style="opacity:0.094" fill="#cccccd" d="M 145.5,221.5 C 145.5,224.5 145.5,227.5 145.5,230.5C 152.973,231.056 159.307,228.722 164.5,223.5C 163.833,225.167 163.167,226.833 162.5,228.5C 161.341,230.25 159.674,231.25 157.5,231.5C 153.167,231.5 148.833,231.5 144.5,231.5C 144.187,227.958 144.521,224.625 145.5,221.5 Z"/></g>
<g><path style="opacity:0.033" fill="#fcfcfe" d="M 47.5,281.5 C 47.8333,281.5 48.1667,281.5 48.5,281.5C 56.3159,282.492 64.3159,282.826 72.5,282.5C 72.1692,305.673 72.5025,328.673 73.5,351.5C 78.5,351.5 83.5,351.5 88.5,351.5C 89.4975,328.673 89.8308,305.673 89.5,282.5C 97.8333,282.5 106.167,282.5 114.5,282.5C 115.824,277.766 115.824,272.933 114.5,268C 92.1692,267.5 69.8358,267.333 47.5,267.5C 58.1458,266.168 69.1458,265.501 80.5,265.5C 91.5,265.667 102.5,265.833 113.5,266C 114.931,266.465 116.097,267.299 117,268.5C 117.667,272.833 117.667,277.167 117,281.5C 116.692,282.308 116.192,282.975 115.5,283.5C 107.556,284.469 99.5559,284.802 91.5,284.5C 91.6666,307.169 91.5,329.836 91,352.5C 90.5,353 90,353.5 89.5,354C 83.8333,354.667 78.1667,354.667 72.5,354C 72,353.5 71.5,353 71,352.5C 70.5,329.836 70.3334,307.169 70.5,284.5C 62.8333,284.5 55.1667,284.5 47.5,284.5C 47.5,283.5 47.5,282.5 47.5,281.5 Z"/></g>
<g><path style="opacity:0.04" fill="#f5f7fd" d="M 262.5,267.5 C 262.918,266.778 263.584,266.278 264.5,266C 269.167,265.333 273.833,265.333 278.5,266C 279.333,266.833 280.167,267.667 281,268.5C 281.667,296.5 281.667,324.5 281,352.5C 280.5,353 280,353.5 279.5,354C 273.833,354.667 268.167,354.667 262.5,354C 262,353.5 261.5,353 261,352.5C 260.333,324.5 260.333,296.5 261,268.5C 261.383,267.944 261.883,267.611 262.5,267.5 Z"/></g>
<g><path style="opacity:0.176" fill="#bdc6ee" d="M 47.5,267.5 C 69.8358,267.333 92.1692,267.5 114.5,268C 115.824,272.933 115.824,277.766 114.5,282.5C 114.818,277.968 114.485,273.634 113.5,269.5C 91.8333,269.5 70.1667,269.5 48.5,269.5C 48.5,273.5 48.5,277.5 48.5,281.5C 48.1667,281.5 47.8333,281.5 47.5,281.5C 47.5,276.833 47.5,272.167 47.5,267.5 Z"/></g>
<g><path style="opacity:0.019" fill="#eaedfa" d="M 306.5,281.5 C 297.133,285.875 291.133,282.875 288.5,272.5C 291.744,262.612 298.077,259.779 307.5,264C 314.36,270.479 314.027,276.313 306.5,281.5 Z"/></g>
<g><path style="opacity:0.962" fill="#0c31c5" d="M 308.5,276.5 C 307.038,277.458 305.705,278.624 304.5,280C 302.527,280.495 300.527,280.662 298.5,280.5C 292.421,277.924 290.921,273.591 294,267.5C 303.628,262.976 308.461,265.976 308.5,276.5 Z"/></g>
<g><path style="opacity:0.979" fill="#072fc4" d="M 113.5,269.5 C 113.5,273.5 113.5,277.5 113.5,281.5C 105.167,281.5 96.8333,281.5 88.5,281.5C 88.5,304.833 88.5,328.167 88.5,351.5C 83.5,351.5 78.5,351.5 73.5,351.5C 73.5,328.167 73.5,304.833 73.5,281.5C 65.1667,281.5 56.8333,281.5 48.5,281.5C 48.5,277.5 48.5,273.5 48.5,269.5C 70.1667,269.5 91.8333,269.5 113.5,269.5 Z"/></g>
<g><path style="opacity:0.635" fill="#4261d3" d="M 278.5,268.5 C 278.831,296.338 278.498,324.005 277.5,351.5C 277.5,324.167 277.5,296.833 277.5,269.5C 273.167,269.5 268.833,269.5 264.5,269.5C 264.5,296.833 264.5,324.167 264.5,351.5C 264.167,351.5 263.833,351.5 263.5,351.5C 263.5,323.833 263.5,296.167 263.5,268.5C 268.5,268.5 273.5,268.5 278.5,268.5 Z"/></g>
<g><path style="opacity:0.976" fill="#012dc4" d="M 277.5,351.5 C 273.167,351.5 268.833,351.5 264.5,351.5C 264.5,324.167 264.5,296.833 264.5,269.5C 268.833,269.5 273.167,269.5 277.5,269.5C 277.5,296.833 277.5,324.167 277.5,351.5 Z"/></g>
<g><path style="opacity:0.059" fill="#bdc6f0" d="M 308.5,276.5 C 307.833,278.167 307.167,279.833 306.5,281.5C 304.453,281.511 302.453,281.844 300.5,282.5C 299.287,282.253 298.62,281.586 298.5,280.5C 300.527,280.662 302.527,280.495 304.5,280C 305.705,278.624 307.038,277.458 308.5,276.5 Z"/></g>
<g><path style="opacity:0.025" fill="#f1f3fb" d="M 243.5,294.5 C 242.5,294.5 241.5,294.5 240.5,294.5C 238.517,293.529 236.517,292.529 234.5,291.5C 233.653,290.034 232.32,289.2 230.5,289C 225.316,288.184 220.316,288.35 215.5,289.5C 213.5,289.833 211.5,290.167 209.5,290.5C 207.973,290.427 206.973,291.094 206.5,292.5C 197.737,297.611 193.071,305.278 192.5,315.5C 191.349,320.65 191.183,325.984 192,331.5C 192.424,334.025 193.59,336.025 195.5,337.5C 196.674,338.514 197.34,339.847 197.5,341.5C 198.833,343.833 200.167,346.167 201.5,348.5C 192.909,341.309 188.575,331.976 188.5,320.5C 191.878,292.65 207.211,281.817 234.5,288C 238.276,289.209 241.276,291.376 243.5,294.5 Z"/></g>
<g><path style="opacity:0.032" fill="#f0f2fb" d="M 351.5,285.5 C 368.989,284.827 378.489,293.16 380,310.5C 380.667,324.167 380.667,337.833 380,351.5C 379.5,352.667 378.667,353.5 377.5,354C 372.167,354.667 366.833,354.667 361.5,354C 361,353.5 360.5,353 360,352.5C 359.667,338.833 359.333,325.167 359,311.5C 356.351,304.452 351.517,302.619 344.5,306C 342.951,307.214 341.785,308.714 341,310.5C 340.667,324.5 340.333,338.5 340,352.5C 339.5,353 339,353.5 338.5,354C 332.833,354.667 327.167,354.667 321.5,354C 321,353.5 320.5,353 320,352.5C 319.333,331.167 319.333,309.833 320,288.5C 320.5,288 321,287.5 321.5,287C 326.833,286.333 332.167,286.333 337.5,287C 338.893,288.171 339.727,289.671 340,291.5C 343.372,288.444 347.206,286.444 351.5,285.5 Z"/></g>
<g><path style="opacity:0.027" fill="#edf0fb" d="M 410.5,285.5 C 417.948,284.65 424.448,286.65 430,291.5C 430.273,289.671 431.107,288.171 432.5,287C 437.833,286.333 443.167,286.333 448.5,287C 449,287.5 449.5,288 450,288.5C 450.667,312.5 450.667,336.5 450,360.5C 447.096,369.07 441.263,374.57 432.5,377C 422.426,377.923 412.426,377.59 402.5,376C 396.098,372.599 391.431,367.599 388.5,361C 389.101,359.395 390.101,358.062 391.5,357C 396.378,355.194 401.378,354.527 406.5,355C 412.201,361.85 419.201,363.35 427.5,359.5C 430.222,356.29 431.056,352.624 430,348.5C 420.534,354.611 410.701,355.111 400.5,350C 390.353,342.87 385.687,333.037 386.5,320.5C 386.005,302.711 394.005,291.044 410.5,285.5 Z M 409.5,308.5 C 410.167,308.5 410.5,308.167 410.5,307.5C 423.421,301.139 430.087,305.306 430.5,320C 431.007,332.166 425.34,337.166 413.5,335C 409.083,331.028 407.083,326.028 407.5,320C 407.649,316.06 408.316,312.227 409.5,308.5 Z"/></g>
<g><path style="opacity:0.239" fill="#98a7e7" d="M 215.5,289.5 C 220.316,288.35 225.316,288.184 230.5,289C 232.32,289.2 233.653,290.034 234.5,291.5C 228.319,289.748 221.986,289.081 215.5,289.5 Z"/></g>
<g><path style="opacity:0.017" fill="#fafbfe" d="M 291.5,288.5 C 290.845,309.86 291.511,330.86 293.5,351.5C 298.167,351.5 302.833,351.5 307.5,351.5C 309.489,330.86 310.155,309.86 309.5,288.5C 310.391,289.261 311.058,290.261 311.5,291.5C 310.678,311.79 310.178,332.123 310,352.5C 309.5,353 309,353.5 308.5,354C 303.167,354.667 297.833,354.667 292.5,354C 291.299,353.097 290.465,351.931 290,350.5C 289.777,331.183 289.61,312.017 289.5,293C 289.525,291.124 290.191,289.624 291.5,288.5 Z"/></g>
<g><path style="opacity:0.318" fill="#afbaeb" d="M 113.5,269.5 C 114.485,273.634 114.818,277.968 114.5,282.5C 106.167,282.5 97.8333,282.5 89.5,282.5C 89.8308,305.673 89.4975,328.673 88.5,351.5C 88.5,328.167 88.5,304.833 88.5,281.5C 96.8333,281.5 105.167,281.5 113.5,281.5C 113.5,277.5 113.5,273.5 113.5,269.5 Z"/></g>
<g><path style="opacity:0.333" fill="#a2afe8" d="M 367.5,291.5 C 359.296,288.516 351.296,288.85 343.5,292.5C 344.122,290.665 345.456,289.498 347.5,289C 352.833,288.333 358.167,288.333 363.5,289C 365.32,289.2 366.653,290.034 367.5,291.5 Z"/></g>
<g><path style="opacity:0.027" fill="#e9ebfa" d="M 147.5,285.5 C 167.948,284.473 180.448,293.807 185,313.5C 187.786,328.144 183.619,340.311 172.5,350C 160.879,356.508 148.879,357.174 136.5,352C 122.92,342.278 117.753,329.112 121,312.5C 124.027,297.641 132.86,288.641 147.5,285.5 Z M 149.5,303.5 C 157.65,302.819 162.484,306.486 164,314.5C 165.281,321.543 164.281,328.21 161,334.5C 151.631,340.28 145.297,337.946 142,327.5C 141.211,321.763 141.544,316.097 143,310.5C 144.694,307.642 146.861,305.309 149.5,303.5 Z"/></g>
<g><path style="opacity:0.977" fill="#0d30c5" d="M 182.5,326.5 C 181.259,331.217 179.592,335.884 177.5,340.5C 168.863,350.548 157.863,354.382 144.5,352C 133.834,348.502 127.167,341.335 124.5,330.5C 123.725,325.203 123.392,319.87 123.5,314.5C 128.296,293.75 141.296,285.583 162.5,290C 178.256,297.048 184.923,309.215 182.5,326.5 Z M 149.5,303.5 C 146.861,305.309 144.694,307.642 143,310.5C 141.544,316.097 141.211,321.763 142,327.5C 145.297,337.946 151.631,340.28 161,334.5C 164.281,328.21 165.281,321.543 164,314.5C 162.484,306.486 157.65,302.819 149.5,303.5 Z"/></g>
<g><path style="opacity:0.978" fill="#0c30c5" d="M 215.5,289.5 C 221.986,289.081 228.319,289.748 234.5,291.5C 236.517,292.529 238.517,293.529 240.5,294.5C 254.267,310.406 255.1,327.072 243,344.5C 230.929,353.705 218.096,354.872 204.5,348C 202.297,345.628 199.963,343.461 197.5,341.5C 197.34,339.847 196.674,338.514 195.5,337.5C 192.826,330.454 191.826,323.121 192.5,315.5C 193.071,305.278 197.737,297.611 206.5,292.5C 208.027,292.573 209.027,291.906 209.5,290.5C 211.5,290.167 213.5,289.833 215.5,289.5 Z M 218.5,303.5 C 227.073,302.902 231.907,306.902 233,315.5C 234.617,323.875 232.451,331.042 226.5,337C 218.457,339.231 213.29,336.398 211,328.5C 209.603,320.769 210.603,313.436 214,306.5C 215.652,305.601 217.152,304.601 218.5,303.5 Z"/></g>
<g><path style="opacity:0.977" fill="#062fc4" d="M 367.5,291.5 C 370.861,293.895 373.528,296.895 375.5,300.5C 376.458,317.465 376.791,334.465 376.5,351.5C 371.833,351.5 367.167,351.5 362.5,351.5C 362.667,337.829 362.5,324.163 362,310.5C 361.354,306.023 358.854,303.356 354.5,302.5C 351.36,301.359 348.027,301.192 344.5,302C 343.944,302.383 343.611,302.883 343.5,303.5C 341.167,303.833 339.833,305.167 339.5,307.5C 338.778,307.918 338.278,308.584 338,309.5C 337.5,323.496 337.333,337.496 337.5,351.5C 332.833,351.5 328.167,351.5 323.5,351.5C 323.5,331.167 323.5,310.833 323.5,290.5C 327.833,290.5 332.167,290.5 336.5,290.5C 336.335,293.85 336.502,297.183 337,300.5C 338.039,299.756 338.539,298.756 338.5,297.5C 339.833,295.5 341.5,293.833 343.5,292.5C 351.296,288.85 359.296,288.516 367.5,291.5 Z"/></g>
<g><path style="opacity:0.977" fill="#0c30c5" d="M 447.5,289.5 C 447.5,311.833 447.5,334.167 447.5,356.5C 446.142,363.508 442.475,368.841 436.5,372.5C 428.751,375.154 420.751,376.154 412.5,375.5C 403.181,375.17 396.514,370.837 392.5,362.5C 392.557,361.391 392.89,360.391 393.5,359.5C 396.885,359.154 400.218,358.488 403.5,357.5C 410.982,365.023 419.649,366.523 429.5,362C 430.758,360.259 431.758,358.426 432.5,356.5C 433.651,351.35 433.817,346.016 433,340.5C 431.519,341.471 430.685,342.804 430.5,344.5C 428.809,345.864 427.142,347.197 425.5,348.5C 420.324,350.184 414.991,350.85 409.5,350.5C 406.226,349.12 402.893,347.62 399.5,346C 396.949,342.956 394.616,339.789 392.5,336.5C 389.096,326.586 388.762,316.586 391.5,306.5C 396.155,293.333 405.488,287.499 419.5,289C 425.4,290.7 429.9,294.2 433,299.5C 433.498,296.183 433.665,292.85 433.5,289.5C 438.167,289.5 442.833,289.5 447.5,289.5 Z M 409.5,308.5 C 410.167,308.5 410.5,308.167 410.5,307.5C 423.421,301.139 430.087,305.306 430.5,320C 431.007,332.166 425.34,337.166 413.5,335C 409.083,331.028 407.083,326.028 407.5,320C 407.649,316.06 408.316,312.227 409.5,308.5 Z"/></g>
<g><path style="opacity:0.529" fill="#8596e1" d="M 209.5,290.5 C 209.027,291.906 208.027,292.573 206.5,292.5C 206.973,291.094 207.973,290.427 209.5,290.5 Z"/></g>
<g><path style="opacity:0.082" fill="#c7d0f1" d="M 309.5,288.5 C 310.155,309.86 309.489,330.86 307.5,351.5C 307.5,330.833 307.5,310.167 307.5,289.5C 302.833,289.5 298.167,289.5 293.5,289.5C 293.5,310.167 293.5,330.833 293.5,351.5C 291.511,330.86 290.845,309.86 291.5,288.5C 291.611,287.883 291.944,287.383 292.5,287C 297.833,286.333 303.167,286.333 308.5,287C 309.056,287.383 309.389,287.883 309.5,288.5 Z"/></g>
<g><path style="opacity:0.026" fill="#e6e9f9" d="M 240.5,294.5 C 241.5,294.5 242.5,294.5 243.5,294.5C 246.889,296.725 249.389,299.725 251,303.5C 256.637,317.902 255.303,331.568 247,344.5C 235.761,355.752 222.595,358.585 207.5,353C 204.894,352.208 202.894,350.708 201.5,348.5C 200.167,346.167 198.833,343.833 197.5,341.5C 199.963,343.461 202.297,345.628 204.5,348C 218.096,354.872 230.929,353.705 243,344.5C 255.1,327.072 254.267,310.406 240.5,294.5 Z"/></g>
<g><path style="opacity:0.447" fill="#9baae7" d="M 336.5,289.5 C 337.167,292.167 337.833,294.833 338.5,297.5C 338.539,298.756 338.039,299.756 337,300.5C 336.502,297.183 336.335,293.85 336.5,290.5C 336.5,290.167 336.5,289.833 336.5,289.5 Z"/></g>
<g><path style="opacity:0.082" fill="#b4c2ed" d="M 447.5,289.5 C 448.832,300.146 449.499,311.146 449.5,322.5C 449.333,333.5 449.167,344.5 449,355.5C 448.617,356.056 448.117,356.389 447.5,356.5C 447.5,334.167 447.5,311.833 447.5,289.5 Z"/></g>
<g><path style="opacity:0.322" fill="#a8b6ea" d="M 156.5,301.5 C 153.098,301.342 149.764,301.676 146.5,302.5C 146.611,301.883 146.944,301.383 147.5,301C 150.696,300.195 153.696,300.362 156.5,301.5 Z"/></g>
<g><path style="opacity:0.322" fill="#a6b3ea" d="M 216.5,301.5 C 217.964,300.84 219.631,300.507 221.5,300.5C 224.205,300.316 226.538,300.983 228.5,302.5C 224.534,301.838 220.534,301.505 216.5,301.5 Z"/></g>
<g><path style="opacity:0.031" fill="#eff1fb" d="M 156.5,301.5 C 160.046,302.385 162.712,304.385 164.5,307.5C 166.659,315.076 166.992,322.743 165.5,330.5C 164.166,337.33 160,340.664 153,340.5C 146.45,340.78 142.283,337.78 140.5,331.5C 140.091,327.682 139.757,323.848 139.5,320C 139.482,315.629 140.149,311.462 141.5,307.5C 142.167,304.833 143.833,303.167 146.5,302.5C 149.764,301.676 153.098,301.342 156.5,301.5 Z M 149.5,303.5 C 146.861,305.309 144.694,307.642 143,310.5C 141.544,316.097 141.211,321.763 142,327.5C 145.297,337.946 151.631,340.28 161,334.5C 164.281,328.21 165.281,321.543 164,314.5C 162.484,306.486 157.65,302.819 149.5,303.5 Z"/></g>
<g><path style="opacity:0.027" fill="#eff1fb" d="M 216.5,301.5 C 220.534,301.505 224.534,301.838 228.5,302.5C 230.914,303.911 232.581,305.911 233.5,308.5C 235.766,316.043 236.099,323.709 234.5,331.5C 230.772,339.691 224.439,342.525 215.5,340C 212.477,337.823 210.477,334.989 209.5,331.5C 208.254,323.845 208.254,316.179 209.5,308.5C 210.833,305.167 213.167,302.833 216.5,301.5 Z M 218.5,303.5 C 217.152,304.601 215.652,305.601 214,306.5C 210.603,313.436 209.603,320.769 211,328.5C 213.29,336.398 218.457,339.231 226.5,337C 232.451,331.042 234.617,323.875 233,315.5C 231.907,306.902 227.073,302.902 218.5,303.5 Z"/></g>
<g><path style="opacity:0.302" fill="#b6c1ee" d="M 354.5,302.5 C 350.766,302.323 347.099,302.656 343.5,303.5C 343.611,302.883 343.944,302.383 344.5,302C 348.027,301.192 351.36,301.359 354.5,302.5 Z"/></g>
<g><path style="opacity:0.028" fill="#eff1fb" d="M 428.5,305.5 C 432.389,313.073 433.389,321.073 431.5,329.5C 429.675,335.976 425.342,338.976 418.5,338.5C 411.877,338.867 407.877,335.867 406.5,329.5C 405.578,324.528 405.412,319.528 406,314.5C 406.353,311.848 407.52,309.848 409.5,308.5C 408.316,312.227 407.649,316.06 407.5,320C 407.083,326.028 409.083,331.028 413.5,335C 425.34,337.166 431.007,332.166 430.5,320C 430.087,305.306 423.421,301.139 410.5,307.5C 410.5,306.5 410.5,305.5 410.5,304.5C 410.953,303.542 411.619,302.708 412.5,302C 416.5,301.333 420.5,301.333 424.5,302C 426.324,302.66 427.657,303.827 428.5,305.5 Z"/></g>
<g><path style="opacity:0.32" fill="#c2cdf1" d="M 48.5,281.5 C 56.8333,281.5 65.1667,281.5 73.5,281.5C 73.5,304.833 73.5,328.167 73.5,351.5C 72.5025,328.673 72.1692,305.673 72.5,282.5C 64.3159,282.826 56.3159,282.492 48.5,281.5 Z"/></g>
<g><path style="opacity:0.648" fill="#3c5ed2" d="M 336.5,289.5 C 336.5,289.833 336.5,290.167 336.5,290.5C 332.167,290.5 327.833,290.5 323.5,290.5C 323.5,310.833 323.5,331.167 323.5,351.5C 322.503,331.007 322.169,310.34 322.5,289.5C 327.167,289.5 331.833,289.5 336.5,289.5 Z"/></g>
<g><path style="opacity:0.732" fill="#1138c6" d="M 307.5,351.5 C 302.833,351.5 298.167,351.5 293.5,351.5C 293.5,330.833 293.5,310.167 293.5,289.5C 298.167,289.5 302.833,289.5 307.5,289.5C 307.5,310.167 307.5,330.833 307.5,351.5 Z"/></g>
<g><path style="opacity:0.977" fill="#002cc3" d="M 294.5,290.5 C 298.5,290.5 302.5,290.5 306.5,290.5C 306.5,310.5 306.5,330.5 306.5,350.5C 302.5,350.5 298.5,350.5 294.5,350.5C 294.5,330.5 294.5,310.5 294.5,290.5 Z"/></g>
<g><path style="opacity:0.125" fill="#b9c3ee" d="M 164.5,307.5 C 165.793,308.842 166.626,310.509 167,312.5C 167.667,317.833 167.667,323.167 167,328.5C 166.722,329.416 166.222,330.082 165.5,330.5C 166.992,322.743 166.659,315.076 164.5,307.5 Z"/></g>
<g><path style="opacity:0.269" fill="#c6cff1" d="M 141.5,307.5 C 140.149,311.462 139.482,315.629 139.5,320C 139.757,323.848 140.091,327.682 140.5,331.5C 139.003,327.777 138.337,323.777 138.5,319.5C 138.667,316.833 138.833,314.167 139,311.5C 139.608,309.934 140.442,308.6 141.5,307.5 Z"/></g>
<g><path style="opacity:0.176" fill="#b9c2ee" d="M 209.5,308.5 C 208.254,316.179 208.254,323.845 209.5,331.5C 205.567,323.835 205.567,316.169 209.5,308.5 Z"/></g>
<g><path style="opacity:0.322" fill="#b7c1ee" d="M 391.5,306.5 C 388.762,316.586 389.096,326.586 392.5,336.5C 391.21,335.942 390.377,334.942 390,333.5C 388.586,326.215 388.253,318.882 389,311.5C 389.099,309.347 389.933,307.681 391.5,306.5 Z"/></g>
<g><path style="opacity:0.322" fill="#bdc7ef" d="M 410.5,304.5 C 410.5,305.5 410.5,306.5 410.5,307.5C 410.5,308.167 410.167,308.5 409.5,308.5C 407.52,309.848 406.353,311.848 406,314.5C 405.412,319.528 405.578,324.528 406.5,329.5C 405.778,329.082 405.278,328.416 405,327.5C 403.902,320.615 404.569,313.949 407,307.5C 408.039,306.29 409.206,305.29 410.5,304.5 Z"/></g>
<g><path style="opacity:0.322" fill="#b0bbec" d="M 428.5,305.5 C 430.984,307.12 432.484,309.453 433,312.5C 433.667,317.167 433.667,321.833 433,326.5C 432.768,327.737 432.268,328.737 431.5,329.5C 433.389,321.073 432.389,313.073 428.5,305.5 Z"/></g>
<g><path style="opacity:0.318" fill="#a9b5eb" d="M 233.5,308.5 C 235.914,312.021 236.914,316.021 236.5,320.5C 236.637,324.447 235.97,328.114 234.5,331.5C 236.099,323.709 235.766,316.043 233.5,308.5 Z"/></g>
<g><path style="opacity:0.306" fill="#ccd6f4" d="M 262.5,267.5 C 268.026,267.179 273.36,267.512 278.5,268.5C 273.5,268.5 268.5,268.5 263.5,268.5C 263.5,296.167 263.5,323.833 263.5,351.5C 262.502,323.672 262.169,295.672 262.5,267.5 Z"/></g>
<g><path style="opacity:0.314" fill="#aebbec" d="M 123.5,314.5 C 123.392,319.87 123.725,325.203 124.5,330.5C 123.778,330.082 123.278,329.416 123,328.5C 122.185,323.648 122.352,318.981 123.5,314.5 Z"/></g>
<g><path style="opacity:0.239" fill="#b0bbec" d="M 192.5,315.5 C 191.826,323.121 192.826,330.454 195.5,337.5C 193.59,336.025 192.424,334.025 192,331.5C 191.183,325.984 191.349,320.65 192.5,315.5 Z"/></g>
<g><path style="opacity:0.302" fill="#c5cff1" d="M 339.5,307.5 C 338.899,322.315 338.233,336.982 337.5,351.5C 337.333,337.496 337.5,323.496 338,309.5C 338.278,308.584 338.778,307.918 339.5,307.5 Z"/></g>
<g><path style="opacity:0.216" fill="#bcc5ef" d="M 375.5,300.5 C 377.13,302.026 377.963,304.026 378,306.5C 378.5,321.83 378.667,337.163 378.5,352.5C 372.974,352.821 367.64,352.488 362.5,351.5C 367.167,351.5 371.833,351.5 376.5,351.5C 376.791,334.465 376.458,317.465 375.5,300.5 Z"/></g>
<g><path style="opacity:0.137" fill="#bfc7f0" d="M 182.5,326.5 C 182.664,329.187 182.497,331.854 182,334.5C 181.114,337.093 179.614,339.093 177.5,340.5C 179.592,335.884 181.259,331.217 182.5,326.5 Z"/></g>
<g><path style="opacity:0.322" fill="#a9b8eb" d="M 432.5,356.5 C 432.666,352.154 432.499,347.821 432,343.5C 431.617,344.056 431.117,344.389 430.5,344.5C 430.685,342.804 431.519,341.471 433,340.5C 433.817,346.016 433.651,351.35 432.5,356.5 Z"/></g>
<g><path style="opacity:0.286" fill="#bcc6ef" d="M 425.5,348.5 C 424.653,349.966 423.32,350.8 421.5,351C 417.311,351.812 413.311,351.645 409.5,350.5C 414.991,350.85 420.324,350.184 425.5,348.5 Z"/></g>
<g><path style="opacity:0.471" fill="#7d91e0" d="M 393.5,359.5 C 392.89,360.391 392.557,361.391 392.5,362.5C 391.115,361.053 391.448,360.053 393.5,359.5 Z"/></g>
<g><path style="opacity:0.192" fill="#afbbec" d="M 436.5,372.5 C 434.615,374.311 432.281,375.478 429.5,376C 423.651,376.818 417.985,376.652 412.5,375.5C 420.751,376.154 428.751,375.154 436.5,372.5 Z"/></g>
</svg>
