<?xml version="1.0" encoding="UTF-8"?>
<!DOCTYPE svg PUBLIC "-//W3C//DTD SVG 1.1//EN" "http://www.w3.org/Graphics/SVG/1.1/DTD/svg11.dtd">
<svg xmlns="http://www.w3.org/2000/svg" version="1.1" width="500px" height="500px" style="shape-rendering:geometricPrecision; text-rendering:geometricPrecision; image-rendering:optimizeQuality; fill-rule:evenodd; clip-rule:evenodd" xmlns:xlink="http://www.w3.org/1999/xlink">
<g><path style="opacity:1" fill="#fefefe" d="M -0.5,-0.5 C 166.167,-0.5 332.833,-0.5 499.5,-0.5C 499.5,166.167 499.5,332.833 499.5,499.5C 332.833,499.5 166.167,499.5 -0.5,499.5C -0.5,332.833 -0.5,166.167 -0.5,-0.5 Z"/></g>
<g><path style="opacity:1" fill="#242629" d="M 54.5,180.5 C 53.4324,179.566 52.099,179.232 50.5,179.5C 50.5,176.167 50.5,172.833 50.5,169.5C 51.791,169.737 52.791,169.404 53.5,168.5C 57.9866,168.18 60.8199,165.847 62,161.5C 62.3333,152.833 62.6667,144.167 63,135.5C 64.9916,122.738 72.4916,117.071 85.5,118.5C 85.5,121.5 85.5,124.5 85.5,127.5C 78.7561,126.282 74.5894,128.949 73,135.5C 72.6667,145.5 72.3333,155.5 72,165.5C 69.3877,170.057 65.5543,173.057 60.5,174.5C 65.5543,175.943 69.3877,178.943 72,183.5C 72.0681,194.572 72.7348,205.572 74,216.5C 76.6235,220.903 80.4568,222.569 85.5,221.5C 85.5,224.5 85.5,227.5 85.5,230.5C 72.3175,231.502 64.8175,225.502 63,212.5C 62.6667,203.833 62.3333,195.167 62,186.5C 60.6922,182.938 58.1922,180.938 54.5,180.5 Z"/></g>
<g><path style="opacity:1" fill="#212326" d="M 175.5,168.5 C 176.919,169.451 178.585,169.784 180.5,169.5C 180.5,172.833 180.5,176.167 180.5,179.5C 178.901,179.232 177.568,179.566 176.5,180.5C 171.6,180.898 168.767,183.565 168,188.5C 167.667,198.167 167.333,207.833 167,217.5C 162.814,227.349 155.314,231.682 144.5,230.5C 144.5,227.5 144.5,224.5 144.5,221.5C 152.28,222.55 156.78,219.217 158,211.5C 158.1,201.108 158.767,190.775 160,180.5C 162.967,177.599 166.467,175.599 170.5,174.5C 165.698,173.53 162.198,170.863 160,166.5C 158.74,156.239 158.073,145.906 158,135.5C 157.55,133.481 156.717,131.648 155.5,130C 152.26,128.106 148.76,126.939 145,126.5C 144.503,123.854 144.336,121.187 144.5,118.5C 155.17,116.914 162.67,120.914 167,130.5C 167.333,140.167 167.667,149.833 168,159.5C 168.916,163.908 171.416,166.908 175.5,168.5 Z"/></g>
<g><path style="opacity:1" fill="#25272a" d="M 261.5,122.5 C 271.118,120.381 278.951,123.048 285,130.5C 285.494,132.134 285.66,133.801 285.5,135.5C 282.833,135.5 280.167,135.5 277.5,135.5C 276.503,130.816 273.503,128.816 268.5,129.5C 264.069,128.764 261.402,130.598 260.5,135C 261.439,136.944 262.773,138.611 264.5,140C 272.473,140.906 279.306,144.072 285,149.5C 287.352,159.486 283.519,165.653 273.5,168C 266.052,169.348 259.552,167.514 254,162.5C 249.357,155.341 251.191,153.008 259.5,155.5C 261.165,159.501 264.165,161.167 268.5,160.5C 276.37,160.843 278.703,157.676 275.5,151C 268.925,149.399 262.592,147.066 256.5,144C 250.102,134.954 251.768,127.787 261.5,122.5 Z"/></g>
<g><path style="opacity:1" fill="#202225" d="M 236.5,123.5 C 238.833,123.5 241.167,123.5 243.5,123.5C 243.5,135.167 243.5,146.833 243.5,158.5C 242.415,162.754 239.748,165.587 235.5,167C 224.655,170.085 217.988,166.252 215.5,155.5C 218.5,155.5 221.5,155.5 224.5,155.5C 224.297,157.39 224.963,158.89 226.5,160C 230.274,161.183 233.441,160.349 236,157.5C 236.5,146.172 236.667,134.838 236.5,123.5 Z"/></g>
<g><path style="opacity:1" fill="#242629" d="M 305.5,122.5 C 322.383,120.396 331.383,127.73 332.5,144.5C 331.848,162.671 322.515,170.171 304.5,167C 291.689,158.5 288.189,147 294,132.5C 296.818,127.839 300.651,124.505 305.5,122.5 Z"/></g>
<g><path style="opacity:1" fill="#202225" d="M 367.5,151.5 C 367.56,152.043 367.893,152.376 368.5,152.5C 369.499,142.522 369.832,132.522 369.5,122.5C 372.167,122.5 374.833,122.5 377.5,122.5C 377.5,137.5 377.5,152.5 377.5,167.5C 374.552,167.777 371.719,167.444 369,166.5C 363.305,157.087 357.138,148.087 350.5,139.5C 350.217,138.711 349.717,138.044 349,137.5C 348.5,147.494 348.334,157.494 348.5,167.5C 345.833,167.5 343.167,167.5 340.5,167.5C 340.5,152.5 340.5,137.5 340.5,122.5C 343.247,122.187 345.914,122.52 348.5,123.5C 354.859,132.851 361.192,142.185 367.5,151.5 Z"/></g>
<g><path style="opacity:1" fill="#919293" d="M 369.5,122.5 C 369.832,132.522 369.499,142.522 368.5,152.5C 367.893,152.376 367.56,152.043 367.5,151.5C 368.167,141.833 368.833,132.167 369.5,122.5 Z"/></g>
<g><path style="opacity:1" fill="#57595b" d="M 236.5,123.5 C 238.948,122.527 241.615,122.194 244.5,122.5C 244.828,134.678 244.495,146.678 243.5,158.5C 243.5,146.833 243.5,135.167 243.5,123.5C 241.167,123.5 238.833,123.5 236.5,123.5 Z"/></g>
<g><path style="opacity:1" fill="#242528" d="M 130.5,126.5 C 132.75,126.181 134.75,126.681 136.5,128C 129.092,132.073 122.925,137.573 118,144.5C 111.859,153.945 106.359,163.779 101.5,174C 101.15,175.257 100.483,175.591 99.5,175C 94.0753,166.408 87.4086,158.908 79.5,152.5C 86.987,151.443 93.3204,153.776 98.5,159.5C 104.503,149.323 111.837,140.157 120.5,132C 123.792,129.824 127.125,127.991 130.5,126.5 Z"/></g>
<g><path style="opacity:1" fill="#f9f9f9" d="M 307.5,129.5 C 321.053,129.236 326.553,135.903 324,149.5C 322.143,158.68 316.643,162.18 307.5,160C 303.835,158.332 301.668,155.499 301,151.5C 300.333,146.833 300.333,142.167 301,137.5C 302.479,134.172 304.645,131.506 307.5,129.5 Z"/></g>
<g><path style="opacity:1" fill="#c5c5c5" d="M 350.5,139.5 C 349.833,148.833 349.167,158.167 348.5,167.5C 348.334,157.494 348.5,147.494 349,137.5C 349.717,138.044 350.217,138.711 350.5,139.5 Z"/></g>
<g><path style="opacity:1" fill="#77797a" d="M 175.5,168.5 C 177.5,168.5 179.5,168.5 181.5,168.5C 181.5,172.5 181.5,176.5 181.5,180.5C 179.833,180.5 178.167,180.5 176.5,180.5C 177.568,179.566 178.901,179.232 180.5,179.5C 180.5,176.167 180.5,172.833 180.5,169.5C 178.585,169.784 176.919,169.451 175.5,168.5 Z"/></g>
<g><path style="opacity:1" fill="#626365" d="M 53.5,168.5 C 52.791,169.404 51.791,169.737 50.5,169.5C 50.5,172.833 50.5,176.167 50.5,179.5C 52.099,179.232 53.4324,179.566 54.5,180.5C 52.8333,180.5 51.1667,180.5 49.5,180.5C 49.5,176.5 49.5,172.5 49.5,168.5C 50.8333,168.5 52.1667,168.5 53.5,168.5 Z"/></g>
<g><path style="opacity:1" fill="#232528" d="M 144.5,172.5 C 147.187,172.336 149.854,172.503 152.5,173C 152.957,173.414 153.291,173.914 153.5,174.5C 147.331,179.836 141.664,185.669 136.5,192C 138.616,196.399 141.116,200.566 144,204.5C 144.6,209.478 142.434,211.645 137.5,211C 134.687,207.019 131.353,203.519 127.5,200.5C 122.011,206.158 116.677,211.991 111.5,218C 104.329,222.645 101.496,220.812 103,212.5C 109.203,205.299 115.703,198.466 122.5,192C 119.391,186.505 117.391,180.672 116.5,174.5C 119.247,174.187 121.914,174.52 124.5,175.5C 126.473,178.64 128.64,181.64 131,184.5C 135.694,180.635 140.194,176.635 144.5,172.5 Z"/></g>
<g><path style="opacity:1" fill="#242629" d="M 228.5,180.5 C 236.859,179.559 243.693,182.226 249,188.5C 249.494,190.134 249.66,191.801 249.5,193.5C 246.833,193.5 244.167,193.5 241.5,193.5C 238.634,187.354 233.967,185.854 227.5,189C 224.689,192.294 225.022,195.294 228.5,198C 232.711,199.71 237.044,201.043 241.5,202C 248.921,204.676 251.754,209.842 250,217.5C 246.608,224.615 240.942,227.615 233,226.5C 222.852,227.182 217.019,222.515 215.5,212.5C 218.5,212.5 221.5,212.5 224.5,212.5C 224.816,217.756 227.65,220.089 233,219.5C 237.756,219.878 240.923,217.878 242.5,213.5C 242.471,211.971 241.804,210.804 240.5,210C 234.898,207.799 229.231,205.799 223.5,204C 217.823,200.364 215.99,195.197 218,188.5C 220.855,184.789 224.355,182.123 228.5,180.5 Z"/></g>
<g><path style="opacity:1" fill="#545557" d="M 293.5,181.5 C 293.5,196.167 293.5,210.833 293.5,225.5C 295.833,225.5 298.167,225.5 300.5,225.5C 298.052,226.473 295.385,226.806 292.5,226.5C 292.171,211.324 292.504,196.324 293.5,181.5 Z"/></g>
<g><path style="opacity:1" fill="#202225" d="M 293.5,181.5 C 295.833,181.5 298.167,181.5 300.5,181.5C 300.334,186.511 300.501,191.511 301,196.5C 302.214,194.951 303.714,193.785 305.5,193C 313.591,190.317 318.925,192.817 321.5,200.5C 321.5,208.833 321.5,217.167 321.5,225.5C 319.167,225.5 316.833,225.5 314.5,225.5C 314.666,217.826 314.5,210.159 314,202.5C 309.749,197.274 305.415,197.274 301,202.5C 300.5,210.159 300.334,217.826 300.5,225.5C 298.167,225.5 295.833,225.5 293.5,225.5C 293.5,210.833 293.5,196.167 293.5,181.5 Z"/></g>
<g><path style="opacity:1" fill="#25272a" d="M 264.5,192.5 C 269.179,192.334 273.845,192.501 278.5,193C 283.383,195.369 286.05,199.203 286.5,204.5C 283.833,204.5 281.167,204.5 278.5,204.5C 277.203,199.345 273.87,197.512 268.5,199C 262.858,204.432 262.024,210.599 266,217.5C 271.228,222.054 275.395,221.221 278.5,215C 280.81,214.503 283.143,214.337 285.5,214.5C 285.792,220.377 283.125,224.21 277.5,226C 261.76,227.593 254.593,220.427 256,204.5C 257.629,199.55 260.462,195.55 264.5,192.5 Z"/></g>
<g><path style="opacity:1" fill="#232528" d="M 337.5,192.5 C 353.077,189.76 360.41,196.093 359.5,211.5C 351.833,211.5 344.167,211.5 336.5,211.5C 338.787,221.093 343.787,222.926 351.5,217C 359.18,215.208 360.847,217.208 356.5,223C 350.922,226.301 344.922,227.301 338.5,226C 334.183,223.685 331.35,220.185 330,215.5C 329.333,210.833 329.333,206.167 330,201.5C 331.642,197.7 334.142,194.7 337.5,192.5 Z"/></g>
<g><path style="opacity:1" fill="#4f5153" d="M 375.5,196.5 C 375.44,197.043 375.107,197.376 374.5,197.5C 373.571,196.311 373.238,194.978 373.5,193.5C 371.5,193.5 369.5,193.5 367.5,193.5C 367.5,204.167 367.5,214.833 367.5,225.5C 369.833,225.5 372.167,225.5 374.5,225.5C 372.052,226.473 369.385,226.806 366.5,226.5C 366.5,215.167 366.5,203.833 366.5,192.5C 369.167,192.5 371.833,192.5 374.5,192.5C 374.232,194.099 374.566,195.432 375.5,196.5 Z"/></g>
<g><path style="opacity:1" fill="#1f2024" d="M 413.5,199.5 C 413.5,208.167 413.5,216.833 413.5,225.5C 411.167,225.5 408.833,225.5 406.5,225.5C 406.825,217.648 406.492,209.982 405.5,202.5C 401.833,197.167 398.167,197.167 394.5,202.5C 393.508,209.982 393.175,217.648 393.5,225.5C 391.167,225.5 388.833,225.5 386.5,225.5C 386.666,217.493 386.5,209.493 386,201.5C 381.939,197.263 378.272,197.597 375,202.5C 374.5,210.159 374.334,217.826 374.5,225.5C 372.167,225.5 369.833,225.5 367.5,225.5C 367.5,214.833 367.5,204.167 367.5,193.5C 369.5,193.5 371.5,193.5 373.5,193.5C 373.238,194.978 373.571,196.311 374.5,197.5C 375.107,197.376 375.44,197.043 375.5,196.5C 376.929,193.252 379.429,191.919 383,192.5C 387.484,192.093 390.817,193.759 393,197.5C 397.517,192.255 403.017,191.088 409.5,194C 411.464,195.451 412.797,197.284 413.5,199.5 Z"/></g>
<g><path style="opacity:1" fill="#242629" d="M 448.5,199.5 C 448.5,208.167 448.5,216.833 448.5,225.5C 446.167,225.5 443.833,225.5 441.5,225.5C 441.657,224.127 441.49,222.793 441,221.5C 439.891,223.815 438.057,225.315 435.5,226C 424.553,228.053 419.72,223.553 421,212.5C 423.401,208.709 426.901,206.542 431.5,206C 434.5,205.667 437.5,205.333 440.5,205C 441.393,200.871 439.559,198.704 435,198.5C 433.833,198.667 432.667,198.833 431.5,199C 428.972,202.771 425.639,203.604 421.5,201.5C 423.403,194.784 427.903,191.784 435,192.5C 441.211,191.853 445.711,194.186 448.5,199.5 Z"/></g>
<g><path style="opacity:1" fill="#f4f5f5" d="M 351.5,202.5 C 351.5,203.5 351.5,204.5 351.5,205.5C 346.381,206.103 341.715,205.436 337.5,203.5C 338.649,199.997 341.149,198.331 345,198.5C 348.062,198.398 350.229,199.731 351.5,202.5 Z"/></g>
<g><path style="opacity:1" fill="#646568" d="M 321.5,200.5 C 322.493,208.984 322.826,217.651 322.5,226.5C 319.615,226.806 316.948,226.473 314.5,225.5C 316.833,225.5 319.167,225.5 321.5,225.5C 321.5,217.167 321.5,208.833 321.5,200.5 Z"/></g>
<g><path style="opacity:1" fill="#797a7c" d="M 413.5,199.5 C 414.493,208.318 414.827,217.318 414.5,226.5C 411.5,226.5 408.5,226.5 405.5,226.5C 405.5,218.5 405.5,210.5 405.5,202.5C 406.492,209.982 406.825,217.648 406.5,225.5C 408.833,225.5 411.167,225.5 413.5,225.5C 413.5,216.833 413.5,208.167 413.5,199.5 Z"/></g>
<g><path style="opacity:1" fill="#57585a" d="M 448.5,199.5 C 449.493,208.318 449.827,217.318 449.5,226.5C 446.615,226.806 443.948,226.473 441.5,225.5C 443.833,225.5 446.167,225.5 448.5,225.5C 448.5,216.833 448.5,208.167 448.5,199.5 Z"/></g>
<g><path style="opacity:1" fill="#828385" d="M 351.5,202.5 C 352.434,203.568 352.768,204.901 352.5,206.5C 347.167,206.5 341.833,206.5 336.5,206.5C 336.263,205.209 336.596,204.209 337.5,203.5C 341.715,205.436 346.381,206.103 351.5,205.5C 351.5,204.5 351.5,203.5 351.5,202.5 Z"/></g>
<g><path style="opacity:1" fill="#757678" d="M 394.5,202.5 C 394.5,210.5 394.5,218.5 394.5,226.5C 391.615,226.806 388.948,226.473 386.5,225.5C 388.833,225.5 391.167,225.5 393.5,225.5C 393.175,217.648 393.508,209.982 394.5,202.5 Z"/></g>
<g><path style="opacity:1" fill="#edeeee" d="M 438.5,210.5 C 439.5,210.5 440.5,210.5 441.5,210.5C 441.331,219.177 437.165,222.177 429,219.5C 428.333,217.5 428.333,215.5 429,213.5C 432.134,212.091 435.301,211.091 438.5,210.5 Z"/></g>
<g><path style="opacity:1" fill="#0d2fc5" d="M 296.5,265.5 C 307.402,264.557 310.736,269.057 306.5,279C 296.921,282.736 292.421,279.569 293,269.5C 294.376,268.295 295.542,266.962 296.5,265.5 Z"/></g>
<g><path style="opacity:1" fill="#052dc4" d="M 48.5,269.5 C 70.1667,269.5 91.8333,269.5 113.5,269.5C 113.5,273.5 113.5,277.5 113.5,281.5C 105.167,281.5 96.8333,281.5 88.5,281.5C 88.5,304.833 88.5,328.167 88.5,351.5C 83.5,351.5 78.5,351.5 73.5,351.5C 73.5,328.167 73.5,304.833 73.5,281.5C 65.1667,281.5 56.8333,281.5 48.5,281.5C 48.5,277.5 48.5,273.5 48.5,269.5 Z"/></g>
<g><path style="opacity:1" fill="#0f32c5" d="M 263.5,269.5 C 268.5,269.5 273.5,269.5 278.5,269.5C 278.5,296.833 278.5,324.167 278.5,351.5C 273.5,351.5 268.5,351.5 263.5,351.5C 263.5,324.167 263.5,296.833 263.5,269.5 Z"/></g>
<g><path style="opacity:1" fill="#0d2fc4" d="M 143.5,289.5 C 167.07,286.094 180.07,296.094 182.5,319.5C 181.151,345.855 167.484,356.355 141.5,351C 128.53,344.406 122.53,333.739 123.5,319C 123.842,304.8 130.509,294.966 143.5,289.5 Z"/></g>
<g><path style="opacity:1" fill="#0d2fc4" d="M 212.5,289.5 C 239.109,286.946 251.942,298.946 251,325.5C 247.175,346.296 234.675,355.13 213.5,352C 202.931,348.43 196.097,341.263 193,330.5C 188.885,311.406 195.385,297.74 212.5,289.5 Z"/></g>
<g><path style="opacity:1" fill="#052dc4" d="M 323.5,351.5 C 323.5,331.167 323.5,310.833 323.5,290.5C 327.833,290.5 332.167,290.5 336.5,290.5C 336.335,293.85 336.502,297.183 337,300.5C 340.797,292.851 346.963,289.185 355.5,289.5C 365.757,289.27 372.59,293.937 376,303.5C 376.5,319.497 376.667,335.497 376.5,351.5C 371.833,351.5 367.167,351.5 362.5,351.5C 362.667,337.496 362.5,323.496 362,309.5C 360.142,303.644 356.142,300.978 350,301.5C 344.128,301.431 340.128,304.098 338,309.5C 337.5,323.496 337.333,337.496 337.5,351.5C 332.833,351.5 328.167,351.5 323.5,351.5 Z"/></g>
<g><path style="opacity:1" fill="#0a2fc4" d="M 407.5,289.5 C 418.428,287.08 426.928,290.413 433,299.5C 433.498,296.183 433.665,292.85 433.5,289.5C 438.167,289.5 442.833,289.5 447.5,289.5C 447.667,312.836 447.5,336.169 447,359.5C 441.397,371.393 431.897,376.727 418.5,375.5C 406.34,376.422 397.34,371.589 391.5,361C 395.117,359.301 398.95,358.135 403,357.5C 410.706,364.973 419.539,366.473 429.5,362C 431.041,360.421 432.208,358.587 433,356.5C 433.667,351.167 433.667,345.833 433,340.5C 427.072,349.147 418.905,352.314 408.5,350C 401.472,348.078 396.306,343.911 393,337.5C 387.265,323.023 388.599,309.356 397,296.5C 400.341,293.759 403.841,291.426 407.5,289.5 Z"/></g>
<g><path style="opacity:1" fill="#012cc4" d="M 293.5,289.5 C 298.167,289.5 302.833,289.5 307.5,289.5C 307.5,310.167 307.5,330.833 307.5,351.5C 302.833,351.5 298.167,351.5 293.5,351.5C 293.5,330.833 293.5,310.167 293.5,289.5 Z"/></g>
<g><path style="opacity:1" fill="#3a5bd1" d="M 336.5,290.5 C 332.167,290.5 327.833,290.5 323.5,290.5C 323.5,310.833 323.5,331.167 323.5,351.5C 322.503,331.007 322.169,310.34 322.5,289.5C 327.363,289.181 332.03,289.514 336.5,290.5 Z"/></g>
<g><path style="opacity:1" fill="#fbfcfe" d="M 148.5,300.5 C 158.238,299.113 164.405,303.113 167,312.5C 168.356,320.529 167.356,328.195 164,335.5C 159.509,340.259 154.009,341.759 147.5,340C 143.942,338.108 141.442,335.275 140,331.5C 137.208,321.98 138.208,312.98 143,304.5C 144.812,303.023 146.645,301.69 148.5,300.5 Z"/></g>
<g><path style="opacity:1" fill="#fafafd" d="M 216.5,300.5 C 226.842,299.001 233.342,303.334 236,313.5C 237.451,321.713 236.117,329.379 232,336.5C 219.363,344.356 211.029,341.023 207,326.5C 204.968,315.75 208.134,307.083 216.5,300.5 Z"/></g>
<g><path style="opacity:1" fill="#fafafd" d="M 415.5,300.5 C 424.879,300.044 430.712,304.377 433,313.5C 434.634,321.701 433.134,329.201 428.5,336C 417.26,342.255 409.426,339.422 405,327.5C 401.796,315.573 405.296,306.573 415.5,300.5 Z"/></g>
</svg>
