<?xml version="1.0" encoding="UTF-8"?>
<!DOCTYPE svg PUBLIC "-//W3C//DTD SVG 1.1//EN" "http://www.w3.org/Graphics/SVG/1.1/DTD/svg11.dtd">
<svg xmlns="http://www.w3.org/2000/svg" version="1.1" width="500px" height="500px" style="shape-rendering:geometricPrecision; text-rendering:geometricPrecision; image-rendering:optimizeQuality; fill-rule:evenodd; clip-rule:evenodd" xmlns:xlink="http://www.w3.org/1999/xlink">
<g><path style="opacity:0.834" fill="#191b1e" d="M 125.5,123.5 C 123.691,122.519 122.357,121.019 121.5,119C 121.833,118.667 122.167,118.333 122.5,118C 121.809,116.933 121.309,115.766 121,114.5C 120.667,108.5 120.333,102.5 120,96.5C 118.51,94.442 116.51,93.1087 114,92.5C 113.333,89.5 113.333,86.5 114,83.5C 116.088,82.6919 118.088,81.6919 120,80.5C 120.188,74.2518 120.688,68.0851 121.5,62C 120.701,60.2513 121.368,58.918 123.5,58C 121.314,57.3964 121.148,56.2297 123,54.5C 127.484,49.9036 132.984,48.237 139.5,49.5C 139.663,51.8568 139.497,54.1902 139,56.5C 135.952,57.6073 133.118,59.1073 130.5,61C 131.516,61.5194 132.182,62.3527 132.5,63.5C 130.27,69.3948 129.936,75.3948 131.5,81.5C 130.408,84.0942 128.741,86.2609 126.5,88C 131.807,92.0943 133.14,97.261 130.5,103.5C 130.917,107.921 131.75,112.254 133,116.5C 134.763,117.944 136.763,118.944 139,119.5C 139.497,121.81 139.663,124.143 139.5,126.5C 135.455,126.358 131.621,126.358 128,126.5C 127.148,125.429 126.315,124.429 125.5,123.5 Z"/></g>
<g><path style="opacity:0.842" fill="#191a1e" d="M 186.5,93.5 C 187.945,91.867 189.279,90.0337 190.5,88C 188.259,86.2609 186.592,84.0942 185.5,81.5C 185.846,80.3044 186.346,80.3044 187,81.5C 187.667,76.1667 187.667,70.8333 187,65.5C 185.47,63.7738 184.47,61.7738 184,59.5C 182.088,58.3081 180.088,57.3081 178,56.5C 177.879,54.2729 177.046,52.4396 175.5,51C 185.37,46.7911 192.37,49.6244 196.5,59.5C 194.144,60.6539 193.977,61.9873 196,63.5C 196.333,68.8333 196.667,74.1667 197,79.5C 198.514,81.7656 200.681,82.9323 203.5,83C 207.109,88.6236 205.775,92.4569 199.5,94.5C 198.914,94.2907 198.414,93.9574 198,93.5C 196.796,99.7528 196.129,106.086 196,112.5C 194.049,114.137 194.216,115.637 196.5,117C 195.833,118.333 194.833,119.333 193.5,120C 194.28,121.073 194.113,122.24 193,123.5C 191.745,124.211 190.579,125.044 189.5,126C 185.514,126.499 181.514,126.666 177.5,126.5C 177.337,124.143 177.503,121.81 178,119.5C 179.785,118.76 181.618,118.093 183.5,117.5C 184.414,115.336 185.581,113.336 187,111.5C 187.819,105.319 187.653,99.3188 186.5,93.5 Z"/></g>
<g><path style="opacity:0.793" fill="#17181c" d="M 275.5,59.5 C 275.077,62.2471 273.41,63.5805 270.5,63.5C 268.112,62.685 266.112,61.3516 264.5,59.5C 263.167,59.5 261.833,59.5 260.5,59.5C 259.89,60.391 259.557,61.391 259.5,62.5C 262.843,63.2239 266.176,64.0572 269.5,65C 270.056,65.3826 270.389,65.8826 270.5,66.5C 272.833,66.8333 274.167,68.1667 274.5,70.5C 275.468,68.3926 275.802,66.0593 275.5,63.5C 276.5,63.5 277.5,63.5 278.5,63.5C 278.737,62.209 278.404,61.209 277.5,60.5C 279.812,56.1881 283.145,52.8548 287.5,50.5C 290.5,50.5 293.5,50.5 296.5,50.5C 300.855,52.8548 304.188,56.1881 306.5,60.5C 305.167,61.1667 305.167,61.8333 306.5,62.5C 306.56,63.0431 306.893,63.3764 307.5,63.5C 308.325,59.8776 308.825,56.211 309,52.5C 309.667,62.8333 309.667,73.1667 309,83.5C 308.667,80.1667 308.333,76.8333 308,73.5C 305.326,81.1796 299.993,85.513 292,86.5C 288.768,85.8216 285.935,84.4883 283.5,82.5C 283.167,81.1667 282.833,81.1667 282.5,82.5C 279.769,80.9286 277.935,78.5952 277,75.5C 272.062,85.8164 264.229,88.6497 253.5,84C 251.585,81.6004 249.919,79.1004 248.5,76.5C 249.239,76.631 249.906,76.4643 250.5,76C 249.292,73.355 250.292,72.1884 253.5,72.5C 254.5,72.6667 255.5,72.8333 256.5,73C 258.786,76.4921 261.786,77.6587 265.5,76.5C 265.271,74.567 264.438,72.9003 263,71.5C 257.812,72.3297 253.646,70.4963 250.5,66C 251.022,65.4387 251.355,64.772 251.5,64C 250.209,61.9497 249.709,59.783 250,57.5C 250.956,56.4214 251.789,55.2547 252.5,54C 253.449,53.3828 254.282,53.5494 255,54.5C 255.415,52.7091 256.415,51.3757 258,50.5C 259.628,51.0102 261.461,51.0102 263.5,50.5C 266.371,50.1147 268.537,51.1147 270,53.5C 270.333,53.1667 270.667,52.8333 271,52.5C 273.519,54.2115 275.019,56.5448 275.5,59.5 Z M 260.5,59.5 C 261.833,59.5 263.167,59.5 264.5,59.5C 266.112,61.3516 268.112,62.685 270.5,63.5C 273.41,63.5805 275.077,62.2471 275.5,59.5C 276.032,62.4596 276.699,62.7929 277.5,60.5C 278.404,61.209 278.737,62.209 278.5,63.5C 277.5,63.5 276.5,63.5 275.5,63.5C 275.802,66.0593 275.468,68.3926 274.5,70.5C 274.167,68.1667 272.833,66.8333 270.5,66.5C 270.389,65.8826 270.056,65.3826 269.5,65C 266.176,64.0572 262.843,63.2239 259.5,62.5C 259.557,61.391 259.89,60.391 260.5,59.5 Z M 288.5,60.5 C 292.849,59.5769 296.183,60.9102 298.5,64.5C 296.96,67.291 297.294,69.791 299.5,72C 297.627,73.0847 295.96,74.418 294.5,76C 292.833,76.6667 291.167,76.6667 289.5,76C 288.04,74.418 286.373,73.0847 284.5,72C 285.941,68.2152 287.275,64.3819 288.5,60.5 Z"/></g>
<g><path style="opacity:0.754" fill="#18191d" d="M 228.5,82.5 C 226.418,80.8736 225.085,78.707 224.5,76C 225.758,74.241 227.425,73.0743 229.5,72.5C 232.359,73.4297 234.693,75.0964 236.5,77.5C 237.086,77.2907 237.586,76.9574 238,76.5C 238.168,68.4793 238.668,60.4793 239.5,52.5C 241.264,50.5213 243.264,50.188 245.5,51.5C 246.361,60.8628 246.861,70.1961 247,79.5C 245.251,83.8335 242.251,85.5001 238,84.5C 237.612,85.428 236.945,86.0946 236,86.5C 232.952,85.9994 230.452,84.6661 228.5,82.5 Z"/></g>
<g><path style="opacity:0.004" fill="#000000" d="M 248.5,76.5 C 247.344,68.6775 247.177,60.6775 248,52.5C 248.5,60.4931 248.666,68.4931 248.5,76.5 Z"/></g>
<g><path style="opacity:0.754" fill="#181a1d" d="M 311.5,50.5 C 314.346,50.0301 316.679,50.8634 318.5,53C 318.167,53.3333 317.833,53.6667 317.5,54C 320.658,55.6606 322.992,58.1606 324.5,61.5C 323.145,62.6753 323.312,63.6753 325,64.5C 325.333,64.1667 325.667,63.8333 326,63.5C 326.667,64.8333 327.333,66.1667 328,67.5C 328.171,62.4671 328.671,57.4671 329.5,52.5C 332.149,49.9608 334.816,49.9608 337.5,52.5C 338.666,62.8172 338.832,73.1506 338,83.5C 335.782,85.6187 333.282,85.952 330.5,84.5C 327.703,81.4826 324.703,77.9826 321.5,74C 322.167,73.6667 322.833,73.3333 323.5,73C 321.479,72.487 319.979,71.3203 319,69.5C 318.677,74.8657 318.177,80.1991 317.5,85.5C 315.167,85.5 312.833,85.5 310.5,85.5C 310.209,73.7828 310.542,62.1162 311.5,50.5 Z"/></g>
<g><path style="opacity:0.766" fill="#17191c" d="M 167.5,53.5 C 175.807,53.2235 176.973,55.5568 171,60.5C 168.683,61.7596 166.349,63.7596 164,66.5C 158.893,73.7121 154.56,81.3788 151,89.5C 150.311,90.3567 149.478,91.0233 148.5,91.5C 143.352,86.4647 138.352,80.6313 133.5,74C 133.905,73.0546 134.572,72.3879 135.5,72C 134.833,71.6667 134.167,71.3333 133.5,71C 135.5,70.3333 137.5,70.3333 139.5,71C 138.833,71.3333 138.167,71.6667 137.5,72C 138.899,72.5946 140.232,72.4279 141.5,71.5C 142.799,72.09 143.632,73.09 144,74.5C 145.008,74.0183 146.175,73.8516 147.5,74C 148.376,72.4152 149.709,71.4152 151.5,71C 150.833,70.6667 150.167,70.3333 149.5,70C 151.049,68.786 152.215,67.286 153,65.5C 153.667,64.1667 154.333,64.1667 155,65.5C 156.303,61.8278 158.97,58.8278 163,56.5C 163.333,56.8333 163.667,57.1667 164,57.5C 164.333,56.5 164.667,55.5 165,54.5C 166.159,55.566 166.992,55.2327 167.5,53.5 Z"/></g>
<g><path style="opacity:0.005" fill="#000000" d="M 275.5,59.5 C 276.167,59.8333 276.833,60.1667 277.5,60.5C 276.699,62.7929 276.032,62.4596 275.5,59.5 Z"/></g>
<g><path style="opacity:0.008" fill="#080026" d="M 306.5,60.5 C 307.833,61.1667 307.833,61.8333 306.5,62.5C 306.5,61.8333 306.5,61.1667 306.5,60.5 Z"/></g>
<g><path style="opacity:0.004" fill="#000000" d="M 228.5,82.5 C 227.833,83.1667 227.833,83.1667 228.5,82.5 Z"/></g>
<g><path style="opacity:0.004" fill="#000000" d="M 282.5,82.5 C 282.833,82.5 283.167,82.5 283.5,82.5C 283.315,83.1701 282.981,83.1701 282.5,82.5 Z"/></g>
<g><path style="opacity:0.807" fill="#18191d" d="M 185.5,89.5 C 182.189,93.1466 178.855,96.8133 175.5,100.5C 176.925,103.688 178.592,106.688 180.5,109.5C 179.167,109.833 179.167,110.167 180.5,110.5C 179.308,112.878 177.641,114.878 175.5,116.5C 171.559,114.81 169.392,112.144 169,108.5C 166.36,109.047 164.026,110.713 162,113.5C 160.334,112.66 160.167,113.16 161.5,115C 159.115,118.397 155.949,120.563 152,121.5C 147.941,120.103 146.774,117.436 148.5,113.5C 151.224,108.904 155.557,104.404 161.5,100C 161.018,98.9916 160.852,97.825 161,96.5C 160.667,96.8333 160.333,97.1667 160,97.5C 157.806,95.6111 157.306,93.4444 158.5,91C 155.972,89.9826 155.972,88.8159 158.5,87.5C 161.822,86.0537 164.822,86.5537 167.5,89C 167.167,89.3333 166.833,89.6667 166.5,90C 167.609,90.6377 168.775,91.1377 170,91.5C 172.281,90.2237 174.281,88.5571 176,86.5C 176.333,86.8333 176.667,87.1667 177,87.5C 177.374,86.5838 177.874,85.7504 178.5,85C 180.473,84.5045 182.473,84.3379 184.5,84.5C 184.216,86.4147 184.549,88.0813 185.5,89.5 Z"/></g>
<g><path style="opacity:0.004" fill="#000000" d="M 185.5,88.5 C 186.833,89.1667 186.833,89.1667 185.5,88.5 Z"/></g>
<g><path style="opacity:0.751" fill="#18191c" d="M 228.5,121.5 C 227.791,120.596 226.791,120.263 225.5,120.5C 225.014,118.193 225.014,116.027 225.5,114C 228.167,113.333 230.833,113.333 233.5,114C 236.692,117.275 239.692,117.275 242.5,114C 242.354,112.273 241.687,112.106 240.5,113.5C 238.941,112.926 237.441,112.26 236,111.5C 234.984,112.634 234.317,112.301 234,110.5C 233.282,111.451 232.449,111.617 231.5,111C 222.667,102.672 223.667,96.0058 234.5,91C 242.812,88.9636 248.478,91.7969 251.5,99.5C 251.029,102.302 249.362,103.636 246.5,103.5C 243.886,102.387 241.386,101.053 239,99.5C 237.596,99.5093 236.43,100.009 235.5,101C 239.586,102.799 243.419,104.965 247,107.5C 248.943,107.041 250.276,108.041 251,110.5C 254.164,99.3355 260.997,95.8355 271.5,100C 274.887,102.002 276.387,104.835 276,108.5C 274.957,104.774 274.457,105.107 274.5,109.5C 270.987,109.693 267.654,109.026 264.5,107.5C 262.053,107.901 261.053,109.401 261.5,112C 261.343,114.852 262.51,117.018 265,118.5C 266.701,114.125 269.867,112.458 274.5,113.5C 274.983,116.149 275.483,118.149 276,119.5C 273.906,122.103 271.406,124.103 268.5,125.5C 264.399,125.845 260.732,125.345 257.5,124C 254.865,122.039 253.031,119.539 252,116.5C 251.439,119.29 250.106,121.623 248,123.5C 247.667,122.833 247.333,122.167 247,121.5C 246.71,123.044 246.044,124.377 245,125.5C 240.747,124.355 236.247,124.188 231.5,125C 230.364,123.855 229.364,122.688 228.5,121.5 Z"/></g>
<g><path style="opacity:0.004" fill="#000000" d="M 186.5,93.5 C 186.631,94.2389 186.464,94.9056 186,95.5C 185.308,94.5632 185.475,93.8966 186.5,93.5 Z"/></g>
<g><path style="opacity:0.004" fill="#000000" d="M 263.5,98.5 C 264.251,97.4265 265.251,97.2599 266.5,98C 265.552,98.4828 264.552,98.6495 263.5,98.5 Z"/></g>
<g><path style="opacity:0.004" fill="#000000" d="M 289.5,98.5 C 290.251,97.4265 291.251,97.2599 292.5,98C 291.552,98.4828 290.552,98.6495 289.5,98.5 Z"/></g>
<g><path style="opacity:0.004" fill="#000000" d="M 312.5,98.5 C 313.251,97.4265 314.251,97.2599 315.5,98C 314.552,98.4828 313.552,98.6495 312.5,98.5 Z"/></g>
<g><path style="opacity:0.004" fill="#000000" d="M 339.5,98.5 C 339.897,97.475 340.563,97.3083 341.5,98C 340.906,98.4643 340.239,98.631 339.5,98.5 Z"/></g>
<g><path style="opacity:0.004" fill="#000000" d="M 352.5,98.5 C 353.251,97.4265 354.251,97.2599 355.5,98C 354.552,98.4828 353.552,98.6495 352.5,98.5 Z"/></g>
<g><path style="opacity:0.004" fill="#000000" d="M 373.5,98.5 C 374.601,97.4017 375.934,97.235 377.5,98C 376.207,98.49 374.873,98.6567 373.5,98.5 Z"/></g>
<g><path style="opacity:0.76" fill="#18191c" d="M 278.5,90.5 C 280.5,90.5 282.5,90.5 284.5,90.5C 284.183,93.5719 284.516,96.5719 285.5,99.5C 288.455,99.5318 291.455,99.1984 294.5,98.5C 299.512,100.851 301.678,104.851 301,110.5C 301.068,107.681 302.234,105.514 304.5,104C 304.167,103.667 303.833,103.333 303.5,103C 305.321,101.257 307.321,99.7567 309.5,98.5C 312.167,99.8333 314.833,99.8333 317.5,98.5C 320.812,100.645 323.646,103.312 326,106.5C 326.333,104.5 326.667,102.5 327,100.5C 327.667,108.167 327.667,115.833 327,123.5C 326.667,122.167 326.333,120.833 326,119.5C 324.667,120.833 323.333,122.167 322,123.5C 321.667,123.167 321.333,122.833 321,122.5C 320.517,123.448 320.351,124.448 320.5,125.5C 317.111,124.797 313.778,124.797 310.5,125.5C 309.062,125.281 307.729,124.781 306.5,124C 306.833,123.667 307.167,123.333 307.5,123C 306.257,120.966 304.757,120.133 303,120.5C 301.956,118.285 301.29,115.952 301,113.5C 300.762,117.222 300.262,120.889 299.5,124.5C 297.579,125.641 295.579,125.808 293.5,125C 292.69,119.249 292.19,113.416 292,107.5C 291.667,108.167 291.333,108.833 291,109.5C 290.667,108.167 290.333,106.833 290,105.5C 288.348,106.068 286.682,107.401 285,109.5C 284.501,114.823 284.334,120.156 284.5,125.5C 282.208,125.756 280.041,125.423 278,124.5C 277.21,113.121 277.377,101.787 278.5,90.5 Z M 325.5,113.5 C 326.782,114.708 326.782,116.042 325.5,117.5C 324.374,116.192 324.374,114.858 325.5,113.5 Z"/></g>
<g><path style="opacity:0.782" fill="#191a1d" d="M 336.5,98.5 C 338.844,99.6716 341.177,99.6716 343.5,98.5C 346.181,100.54 348.514,100.54 350.5,98.5C 355.149,97.3857 358.983,98.719 362,102.5C 362.617,103.449 362.451,104.282 361.5,105C 362,105.167 362.5,105.333 363,105.5C 364.718,102.117 367.385,99.7841 371,98.5C 373.848,99.7826 376.682,99.7826 379.5,98.5C 380.914,99.624 382.414,100.624 384,101.5C 385.563,109.087 385.896,116.754 385,124.5C 383.938,125.097 382.772,125.43 381.5,125.5C 376.864,124.854 372.364,124.854 368,125.5C 367.667,124.5 367.333,123.5 367,122.5C 365.853,123.458 364.853,123.125 364,121.5C 362.309,125.213 359.475,126.379 355.5,125C 354.69,119.249 354.19,113.416 354,107.5C 353.497,127.467 352.663,127.467 351.5,107.5C 350.914,107.291 350.414,106.957 350,106.5C 349.667,112.167 349.333,117.833 349,123.5C 347.192,125.396 345.025,125.896 342.5,125C 341.69,119.249 341.19,113.416 341,107.5C 340.168,128.823 339.668,128.823 339.5,107.5C 338.5,107.5 337.5,107.5 336.5,107.5C 336.666,112.844 336.499,118.177 336,123.5C 333.865,125.278 331.365,125.945 328.5,125.5C 328.5,116.833 328.5,108.167 328.5,99.5C 330.792,99.2436 332.959,99.5769 335,100.5C 335.717,99.9558 336.217,99.2891 336.5,98.5 Z M 374.5,105.5 C 376.337,105.639 376.67,106.306 375.5,107.5C 374.702,107.043 374.369,106.376 374.5,105.5 Z M 363.5,107.5 C 364.833,107.5 366.167,107.5 367.5,107.5C 367.338,109.824 366.172,111.491 364,112.5C 363.506,110.866 363.34,109.199 363.5,107.5 Z M 375.5,115.5 C 376.043,115.56 376.376,115.893 376.5,116.5C 375.277,117.614 373.944,117.781 372.5,117C 373.737,116.768 374.737,116.268 375.5,115.5 Z"/></g>
<g><path style="opacity:0.004" fill="#000000" d="M 180.5,109.5 C 181.833,110.167 181.833,110.167 180.5,109.5 Z"/></g>
<g><path style="opacity:0.004" fill="#000000" d="M 290.5,110.5 C 291.647,114.646 291.814,118.98 291,123.5C 290.501,119.179 290.334,114.846 290.5,110.5 Z"/></g>
<g><path style="opacity:0.004" fill="#000000" d="M 228.5,121.5 C 227.833,122.167 227.833,122.167 228.5,121.5 Z"/></g>
<g><path style="opacity:0.004" fill="#000000" d="M 125.5,123.5 C 124.833,124.167 124.833,124.167 125.5,123.5 Z"/></g>
<g><path style="opacity:0.311" fill="#fbfbfe" d="M 283.5,172.5 C 276.696,172.064 270.029,172.731 263.5,174.5C 251.251,182.456 238.585,189.623 225.5,196C 223.046,197.828 220.713,199.661 218.5,201.5C 216.385,203.891 213.719,205.224 210.5,205.5C 215.439,197.542 222.106,190.542 230.5,184.5C 232.102,185.55 232.935,184.883 233,182.5C 233.333,182.833 233.667,183.167 234,183.5C 234.918,181.368 236.251,180.701 238,181.5C 239.351,179.981 240.851,178.648 242.5,177.5C 243.086,177.709 243.586,178.043 244,178.5C 247.057,176.908 250.057,175.241 253,173.5C 253.725,174.059 254.558,174.392 255.5,174.5C 264.827,171.6 274.16,170.933 283.5,172.5 Z"/></g>
<g><path style="opacity:0.004" fill="#fefffe" d="M 293.5,172.5 C 294.833,173.167 294.833,173.167 293.5,172.5 Z"/></g>
<g><path style="opacity:0.6" fill="#e4e7fa" d="M 283.5,172.5 C 287.3,172.411 290.966,173.078 294.5,174.5C 295.442,174.392 296.275,174.059 297,173.5C 299.959,174.495 302.959,176.162 306,178.5C 306.333,178.167 306.667,177.833 307,177.5C 314.237,181.569 321.07,186.236 327.5,191.5C 324.111,190.624 320.778,188.791 317.5,186C 311.328,185.467 305.328,186.3 299.5,188.5C 298.831,190.631 298.165,192.631 297.5,194.5C 297.599,191.763 297.265,189.096 296.5,186.5C 297.15,186.804 297.817,187.137 298.5,187.5C 303.13,186.041 307.796,184.707 312.5,183.5C 309.299,180.875 305.632,179.208 301.5,178.5C 298.196,176.583 294.529,175.416 290.5,175C 288.421,174.192 286.421,174.359 284.5,175.5C 274.029,181.906 263.362,188.072 252.5,194C 252.043,194.414 251.709,194.914 251.5,195.5C 254.306,196.168 256.972,196.834 259.5,197.5C 253.725,196.775 248.392,197.941 243.5,201C 241.859,202.129 240.859,203.629 240.5,205.5C 237.576,212.717 237.909,219.717 241.5,226.5C 239.827,225.657 238.66,224.324 238,222.5C 237.007,218.558 236.34,214.558 236,210.5C 233.099,206.975 229.599,204.308 225.5,202.5C 223.393,201.532 221.059,201.198 218.5,201.5C 220.713,199.661 223.046,197.828 225.5,196C 238.585,189.623 251.251,182.456 263.5,174.5C 270.029,172.731 276.696,172.064 283.5,172.5 Z"/></g>
<g><path style="opacity:0.6" fill="#cfd5fe" d="M 301.5,178.5 C 298.296,179.383 295.629,181.05 293.5,183.5C 282.162,183.879 279.495,188.879 285.5,198.5C 284.12,199.706 282.953,199.373 282,197.5C 277.6,200.398 274.1,204.065 271.5,208.5C 270.046,203.378 266.713,200.378 261.5,199.5C 260.833,198.833 260.167,198.167 259.5,197.5C 256.972,196.834 254.306,196.168 251.5,195.5C 251.709,194.914 252.043,194.414 252.5,194C 263.362,188.072 274.029,181.906 284.5,175.5C 286.421,174.359 288.421,174.192 290.5,175C 294.529,175.416 298.196,176.583 301.5,178.5 Z"/></g>
<g><path style="opacity:0.6" fill="#bec6fe" d="M 301.5,178.5 C 305.632,179.208 309.299,180.875 312.5,183.5C 307.796,184.707 303.13,186.041 298.5,187.5C 297.817,187.137 297.15,186.804 296.5,186.5C 295.694,185.272 294.694,184.272 293.5,183.5C 295.629,181.05 298.296,179.383 301.5,178.5 Z"/></g>
<g><path style="opacity:0.995" fill="#fcfcfe" d="M 293.5,183.5 C 294.694,184.272 295.694,185.272 296.5,186.5C 297.265,189.096 297.599,191.763 297.5,194.5C 296.853,196.141 295.853,197.474 294.5,198.5C 291.5,199.833 288.5,199.833 285.5,198.5C 279.495,188.879 282.162,183.879 293.5,183.5 Z"/></g>
<g><path style="opacity:0.599" fill="#a9b3fe" d="M 327.5,191.5 C 328.338,191.842 328.672,192.508 328.5,193.5C 328.53,194.497 328.03,195.164 327,195.5C 316.531,194.245 306.531,195.912 297,200.5C 296.292,199.619 295.458,198.953 294.5,198.5C 295.853,197.474 296.853,196.141 297.5,194.5C 298.165,192.631 298.831,190.631 299.5,188.5C 305.328,186.3 311.328,185.467 317.5,186C 320.778,188.791 324.111,190.624 327.5,191.5 Z"/></g>
<g><path style="opacity:0.052" fill="#fefefe" d="M 203.5,192.5 C 185.544,191.36 167.544,191.193 149.5,192C 148.364,193.145 147.364,194.312 146.5,195.5C 146.178,193.278 146.845,191.444 148.5,190C 166.509,189.167 184.509,189.334 202.5,190.5C 202.863,191.183 203.196,191.85 203.5,192.5 Z"/></g>
<g><path style="opacity:0.004" fill="#fefffe" d="M 204.5,191.5 C 205.833,192.167 205.833,192.167 204.5,191.5 Z"/></g>
<g><path style="opacity:0.996" fill="#b8b7b7" d="M 203.5,192.5 C 203.5,193.167 203.5,193.833 203.5,194.5C 185.574,193.348 167.574,193.181 149.5,194C 148.675,209.092 148.175,224.259 148,239.5C 147.617,238.944 147.117,238.611 146.5,238.5C 146.5,224.167 146.5,209.833 146.5,195.5C 147.364,194.312 148.364,193.145 149.5,192C 167.544,191.193 185.544,191.36 203.5,192.5 Z"/></g>
<g><path style="opacity:1" fill="#f8f9fb" d="M 203.5,194.5 C 203.667,209.17 203.5,223.837 203,238.5C 202.5,239 202,239.5 201.5,240C 195.509,240.499 189.509,240.666 183.5,240.5C 183.228,244.821 183.894,248.988 185.5,253C 185.333,253.5 185.167,254 185,254.5C 184.329,253.748 183.496,253.414 182.5,253.5C 180.854,251.188 178.854,249.188 176.5,247.5C 176.524,248.786 176.19,250.12 175.5,251.5C 173.424,250.573 172.257,248.907 172,246.5C 170.636,247.258 169.469,246.758 168.5,245C 162.167,244.667 155.833,244.333 149.5,244C 148.934,243.005 148.267,242.172 147.5,241.5C 146.89,240.609 146.557,239.609 146.5,238.5C 147.117,238.611 147.617,238.944 148,239.5C 148.175,224.259 148.675,209.092 149.5,194C 167.574,193.181 185.574,193.348 203.5,194.5 Z"/></g>
<g><path style="opacity:0.6" fill="#949ffe" d="M 335.5,199.5 C 336.254,202.091 337.921,203.924 340.5,205C 339.742,206.364 340.242,207.531 342,208.5C 342.608,210.154 343.108,211.821 343.5,213.5C 340.433,211.587 337.099,210.253 333.5,209.5C 333.772,199.804 329.439,196.804 320.5,200.5C 318.585,202.071 317.585,204.071 317.5,206.5C 311.555,206.869 305.888,208.369 300.5,211C 297.734,212.371 295.401,214.204 293.5,216.5C 289.79,220.208 286.457,224.208 283.5,228.5C 283.167,228.5 282.833,228.5 282.5,228.5C 279.013,233.144 276.347,238.144 274.5,243.5C 272.628,240.418 270.295,237.751 267.5,235.5C 268.787,232.594 269.787,229.594 270.5,226.5C 281.356,227.67 285.023,223.337 281.5,213.5C 296.641,197.881 314.641,193.215 335.5,199.5 Z"/></g>
<g><path style="opacity:0.973" fill="#a5a3a4" d="M 259.5,197.5 C 260.167,198.167 260.833,198.833 261.5,199.5C 253.235,197.135 246.235,199.135 240.5,205.5C 240.859,203.629 241.859,202.129 243.5,201C 248.392,197.941 253.725,196.775 259.5,197.5 Z"/></g>
<g><path style="opacity:1" fill="#f8f8f8" d="M 261.5,199.5 C 269.469,204.774 272.469,212.107 270.5,221.5C 266.354,229.738 259.687,232.905 250.5,231C 251.056,230.617 251.389,230.117 251.5,229.5C 252.695,229.134 253.361,228.301 253.5,227C 251.823,224.453 251.156,221.62 251.5,218.5C 254.649,218.789 257.649,218.289 260.5,217C 261.983,214.219 263.649,211.552 265.5,209C 264.591,206.681 262.925,206.014 260.5,207C 259.978,207.561 259.645,208.228 259.5,209C 262.41,212.209 261.743,214.542 257.5,216C 255.527,216.495 253.527,216.662 251.5,216.5C 251.415,212.602 251.915,208.936 253,205.5C 250.214,203.816 248.38,204.483 247.5,207.5C 250.167,213.833 250.167,220.167 247.5,226.5C 247.453,228.038 248.12,229.038 249.5,229.5C 249.265,230.097 248.765,230.43 248,230.5C 246.594,229.586 245.094,228.92 243.5,228.5C 243.167,227.5 242.5,226.833 241.5,226.5C 237.909,219.717 237.576,212.717 240.5,205.5C 246.235,199.135 253.235,197.135 261.5,199.5 Z"/></g>
<g><path style="opacity:0.599" fill="#b8bffe" d="M 328.5,193.5 C 331.447,194.781 333.781,196.781 335.5,199.5C 314.641,193.215 296.641,197.881 281.5,213.5C 278.233,211.593 274.9,209.926 271.5,208.5C 274.1,204.065 277.6,200.398 282,197.5C 282.953,199.373 284.12,199.706 285.5,198.5C 288.5,199.833 291.5,199.833 294.5,198.5C 295.458,198.953 296.292,199.619 297,200.5C 306.531,195.912 316.531,194.245 327,195.5C 328.03,195.164 328.53,194.497 328.5,193.5 Z"/></g>
<g><path style="opacity:0.997" fill="#f9fafe" d="M 333.5,209.5 C 332.864,211.795 331.531,213.461 329.5,214.5C 322.995,216.219 318.995,213.885 317.5,207.5C 317.5,207.167 317.5,206.833 317.5,206.5C 317.585,204.071 318.585,202.071 320.5,200.5C 329.439,196.804 333.772,199.804 333.5,209.5 Z"/></g>
<g><path style="opacity:1" fill="#4687f6" d="M 177.5,203.5 C 171.833,203.5 166.167,203.5 160.5,203.5C 159.316,202.312 159.316,201.145 160.5,200C 166.167,199.333 171.833,199.333 177.5,200C 178.684,201.145 178.684,202.312 177.5,203.5 Z"/></g>
<g><path style="opacity:1" fill="#4f8bf6" d="M 156.5,203.5 C 155.833,203.5 155.167,203.5 154.5,203.5C 153.046,200.6 154.046,199.267 157.5,199.5C 157.768,201.099 157.434,202.432 156.5,203.5 Z"/></g>
<g><path style="opacity:1" fill="#4184f5" d="M 187.5,206.5 C 187.5,207.5 187.5,208.5 187.5,209.5C 184.813,209.664 182.146,209.497 179.5,209C 178.748,208.329 178.414,207.496 178.5,206.5C 181.604,205.225 184.604,205.225 187.5,206.5 Z"/></g>
<g><path style="opacity:1" fill="#4184f5" d="M 154.5,205.5 C 157.187,205.336 159.854,205.503 162.5,206C 163.833,207 163.833,208 162.5,209C 160.19,209.497 157.857,209.663 155.5,209.5C 153.38,208.597 153.046,207.263 154.5,205.5 Z"/></g>
<g><path style="opacity:1" fill="#3e83f5" d="M 176.5,205.5 C 176.5,206.167 176.833,206.5 177.5,206.5C 177.586,207.496 177.252,208.329 176.5,209C 172.833,209.667 169.167,209.667 165.5,209C 164.167,208 164.167,207 165.5,206C 169.152,205.501 172.818,205.335 176.5,205.5 Z"/></g>
<g><path style="opacity:1" fill="#4385f5" d="M 196.5,209.5 C 194.143,209.663 191.81,209.497 189.5,209C 188.748,208.329 188.414,207.496 188.5,206.5C 191.408,205.431 194.408,205.264 197.5,206C 198.8,207.579 198.466,208.745 196.5,209.5 Z"/></g>
<g><path style="opacity:1" fill="#e2ecfd" d="M 154.5,203.5 C 155.167,203.5 155.833,203.5 156.5,203.5C 157.833,204.833 159.167,204.833 160.5,203.5C 166.167,203.5 171.833,203.5 177.5,203.5C 177.167,204.167 176.833,204.833 176.5,205.5C 172.818,205.335 169.152,205.501 165.5,206C 164.167,207 164.167,208 165.5,209C 169.167,209.667 172.833,209.667 176.5,209C 177.252,208.329 177.586,207.496 177.5,206.5C 177.833,206.5 178.167,206.5 178.5,206.5C 178.414,207.496 178.748,208.329 179.5,209C 182.146,209.497 184.813,209.664 187.5,209.5C 187.5,208.5 187.5,207.5 187.5,206.5C 187.833,206.5 188.167,206.5 188.5,206.5C 188.414,207.496 188.748,208.329 189.5,209C 191.81,209.497 194.143,209.663 196.5,209.5C 196.833,210.167 197.167,210.833 197.5,211.5C 194.167,211.5 190.833,211.5 187.5,211.5C 187.5,212.833 187.5,214.167 187.5,215.5C 190.833,215.5 194.167,215.5 197.5,215.5C 197.5,216.167 197.5,216.833 197.5,217.5C 195.5,217.5 193.5,217.5 191.5,217.5C 191.5,218.833 191.5,220.167 191.5,221.5C 193.167,221.5 194.833,221.5 196.5,221.5C 196.5,222.167 196.5,222.833 196.5,223.5C 194.143,223.337 191.81,223.503 189.5,224C 188.748,224.671 188.414,225.504 188.5,226.5C 188.167,226.5 187.833,226.5 187.5,226.5C 187.5,225.5 187.5,224.5 187.5,223.5C 184.813,223.336 182.146,223.503 179.5,224C 178.748,224.671 178.414,225.504 178.5,226.5C 178.167,226.5 177.833,226.5 177.5,226.5C 177.586,225.504 177.252,224.671 176.5,224C 169.508,223.5 162.508,223.334 155.5,223.5C 155.5,222.833 155.5,222.167 155.5,221.5C 157.833,221.5 160.167,221.5 162.5,221.5C 162.5,220.167 162.5,218.833 162.5,217.5C 159.833,217.5 157.167,217.5 154.5,217.5C 154.5,216.833 154.5,216.167 154.5,215.5C 158.833,215.5 163.167,215.5 167.5,215.5C 167.5,214.167 167.5,212.833 167.5,211.5C 163.167,211.5 158.833,211.5 154.5,211.5C 154.833,210.833 155.167,210.167 155.5,209.5C 157.857,209.663 160.19,209.497 162.5,209C 163.833,208 163.833,207 162.5,206C 159.854,205.503 157.187,205.336 154.5,205.5C 154.5,204.833 154.5,204.167 154.5,203.5 Z"/></g>
<g><path style="opacity:0.745" fill="#c0c7fe" d="M 317.5,206.5 C 317.5,206.833 317.5,207.167 317.5,207.5C 308.823,208.845 300.823,211.845 293.5,216.5C 295.401,214.204 297.734,212.371 300.5,211C 305.888,208.369 311.555,206.869 317.5,206.5 Z"/></g>
<g><path style="opacity:0.996" fill="#9da0a3" d="M 218.5,201.5 C 221.059,201.198 223.393,201.532 225.5,202.5C 219.139,202.661 213.972,205.328 210,210.5C 209.517,211.448 209.351,212.448 209.5,213.5C 207.891,213.906 206.557,213.906 205.5,213.5C 207.167,211.167 209.167,209.167 211.5,207.5C 211.376,206.893 211.043,206.56 210.5,206.5C 210.5,206.167 210.5,205.833 210.5,205.5C 213.719,205.224 216.385,203.891 218.5,201.5 Z"/></g>
<g><path style="opacity:1" fill="#2a2a2a" d="M 251.5,229.5 C 250.833,229.5 250.167,229.5 249.5,229.5C 248.12,229.038 247.453,228.038 247.5,226.5C 250.167,220.167 250.167,213.833 247.5,207.5C 248.38,204.483 250.214,203.816 253,205.5C 251.915,208.936 251.415,212.602 251.5,216.5C 253.527,216.662 255.527,216.495 257.5,216C 261.743,214.542 262.41,212.209 259.5,209C 259.645,208.228 259.978,207.561 260.5,207C 262.925,206.014 264.591,206.681 265.5,209C 263.649,211.552 261.983,214.219 260.5,217C 257.649,218.289 254.649,218.789 251.5,218.5C 251.156,221.62 251.823,224.453 253.5,227C 253.361,228.301 252.695,229.134 251.5,229.5 Z"/></g>
<g><path style="opacity:0.998" fill="#fafafe" d="M 271.5,208.5 C 274.9,209.926 278.233,211.593 281.5,213.5C 285.023,223.337 281.356,227.67 270.5,226.5C 270.5,225.833 270.167,225.5 269.5,225.5C 270.234,224.292 270.567,222.959 270.5,221.5C 271.972,219.883 272.639,217.883 272.5,215.5C 272.247,213.142 271.914,210.808 271.5,208.5 Z"/></g>
<g><path style="opacity:1" fill="#4a8af6" d="M 154.5,211.5 C 158.833,211.5 163.167,211.5 167.5,211.5C 167.5,212.833 167.5,214.167 167.5,215.5C 163.167,215.5 158.833,215.5 154.5,215.5C 153.167,214.167 153.167,212.833 154.5,211.5 Z"/></g>
<g><path style="opacity:1" fill="#4d8bf6" d="M 197.5,211.5 C 198.833,212.833 198.833,214.167 197.5,215.5C 194.167,215.5 190.833,215.5 187.5,215.5C 187.5,214.167 187.5,212.833 187.5,211.5C 190.833,211.5 194.167,211.5 197.5,211.5 Z"/></g>
<g><path style="opacity:0.6" fill="#8491fe" d="M 317.5,207.5 C 318.995,213.885 322.995,216.219 329.5,214.5C 329.799,215.76 329.799,216.927 329.5,218C 334.674,219.751 339.341,222.251 343.5,225.5C 343.672,226.492 343.338,227.158 342.5,227.5C 340.069,223.617 336.736,221.95 332.5,222.5C 331.711,222.217 331.044,221.717 330.5,221C 318.75,219.763 307.083,219.763 295.5,221C 295,221.5 294.5,222 294,222.5C 293.821,226.025 293.321,229.359 292.5,232.5C 292.892,229.278 292.392,226.278 291,223.5C 290.626,224.416 290.126,225.25 289.5,226C 287.58,227.122 285.58,227.956 283.5,228.5C 286.457,224.208 289.79,220.208 293.5,216.5C 300.823,211.845 308.823,208.845 317.5,207.5 Z"/></g>
<g><path style="opacity:1" fill="#538ff6" d="M 170.5,211.5 C 175.5,211.5 180.5,211.5 185.5,211.5C 185.5,212.833 185.5,214.167 185.5,215.5C 180.489,215.666 175.489,215.499 170.5,215C 169.316,213.855 169.316,212.688 170.5,211.5 Z"/></g>
<g><path style="opacity:0.599" fill="#6675ff" d="M 333.5,209.5 C 337.099,210.253 340.433,211.587 343.5,213.5C 344.458,213.953 345.292,214.619 346,215.5C 346.668,218.751 347.834,221.751 349.5,224.5C 347.435,224.517 345.435,224.85 343.5,225.5C 339.341,222.251 334.674,219.751 329.5,218C 329.799,216.927 329.799,215.76 329.5,214.5C 331.531,213.461 332.864,211.795 333.5,209.5 Z"/></g>
<g><path style="opacity:1" fill="#4a89f6" d="M 154.5,217.5 C 157.167,217.5 159.833,217.5 162.5,217.5C 162.5,218.833 162.5,220.167 162.5,221.5C 160.167,221.5 157.833,221.5 155.5,221.5C 153.38,220.597 153.046,219.263 154.5,217.5 Z"/></g>
<g><path style="opacity:1" fill="#4788f6" d="M 164.5,217.5 C 168.846,217.334 173.179,217.501 177.5,218C 178.833,219 178.833,220 177.5,221C 173.179,221.499 168.846,221.666 164.5,221.5C 164.5,220.167 164.5,218.833 164.5,217.5 Z"/></g>
<g><path style="opacity:1" fill="#4888f6" d="M 180.5,217.5 C 183.5,217.5 186.5,217.5 189.5,217.5C 189.625,220.893 187.958,222.226 184.5,221.5C 180.549,222.224 179.216,220.891 180.5,217.5 Z"/></g>
<g><path style="opacity:1" fill="#b0afb1" d="M 261.5,199.5 C 266.713,200.378 270.046,203.378 271.5,208.5C 271.914,210.808 272.247,213.142 272.5,215.5C 272.639,217.883 271.972,219.883 270.5,221.5C 272.469,212.107 269.469,204.774 261.5,199.5 Z"/></g>
<g><path style="opacity:1" fill="#4c8af6" d="M 197.5,217.5 C 198.954,219.263 198.62,220.597 196.5,221.5C 194.833,221.5 193.167,221.5 191.5,221.5C 191.5,220.167 191.5,218.833 191.5,217.5C 193.5,217.5 195.5,217.5 197.5,217.5 Z"/></g>
<g><path style="opacity:1" fill="#4084f5" d="M 155.5,223.5 C 162.508,223.334 169.508,223.5 176.5,224C 177.252,224.671 177.586,225.504 177.5,226.5C 169.913,227.631 162.246,227.798 154.5,227C 153.2,225.421 153.534,224.255 155.5,223.5 Z"/></g>
<g><path style="opacity:1" fill="#4185f5" d="M 187.5,226.5 C 184.604,227.775 181.604,227.775 178.5,226.5C 178.414,225.504 178.748,224.671 179.5,224C 182.146,223.503 184.813,223.336 187.5,223.5C 187.5,224.5 187.5,225.5 187.5,226.5 Z"/></g>
<g><path style="opacity:1" fill="#4687f5" d="M 196.5,223.5 C 198.466,224.255 198.8,225.421 197.5,227C 194.408,227.736 191.408,227.569 188.5,226.5C 188.414,225.504 188.748,224.671 189.5,224C 191.81,223.503 194.143,223.337 196.5,223.5 Z"/></g>
<g><path style="opacity:0.6" fill="#6172fe" d="M 342.5,227.5 C 341.883,227.611 341.383,227.944 341,228.5C 340.341,231.888 340.508,235.221 341.5,238.5C 339.427,236.42 337.093,234.754 334.5,233.5C 333.833,229.833 333.167,226.167 332.5,222.5C 336.736,221.95 340.069,223.617 342.5,227.5 Z"/></g>
<g><path style="opacity:0.991" fill="#f8f8ff" d="M 349.5,224.5 C 350.338,224.842 350.672,225.508 350.5,226.5C 349.167,227.5 349.167,228.5 350.5,229.5C 351.091,230.151 351.757,230.818 352.5,231.5C 352.258,234.319 352.258,237.319 352.5,240.5C 348.586,240.889 344.92,240.222 341.5,238.5C 340.508,235.221 340.341,231.888 341,228.5C 341.383,227.944 341.883,227.611 342.5,227.5C 343.338,227.158 343.672,226.492 343.5,225.5C 345.435,224.85 347.435,224.517 349.5,224.5 Z"/></g>
<g><path style="opacity:0.004" fill="#fefffe" d="M 350.5,226.5 C 351.833,227.5 351.833,228.5 350.5,229.5C 350.5,228.5 350.5,227.5 350.5,226.5 Z"/></g>
<g><path style="opacity:1" fill="#4988f6" d="M 154.5,229.5 C 158.182,229.335 161.848,229.501 165.5,230C 166.833,231 166.833,232 165.5,233C 161.514,233.499 157.514,233.666 153.5,233.5C 153.433,232.041 153.766,230.708 154.5,229.5 Z"/></g>
<g><path style="opacity:1" fill="#508cf6" d="M 168.5,229.5 C 172.241,228.599 174.241,229.932 174.5,233.5C 172.167,233.5 169.833,233.5 167.5,233.5C 167.433,232.041 167.766,230.708 168.5,229.5 Z"/></g>
<g><path style="opacity:0.004" fill="#fefffe" d="M 147.5,241.5 C 146.833,242.167 146.833,242.167 147.5,241.5 Z"/></g>
<g><path style="opacity:0.6" fill="#808ffe" d="M 334.5,233.5 C 339.579,237.657 342.579,242.99 343.5,249.5C 343.799,251.604 343.466,253.604 342.5,255.5C 339.868,257.059 337.368,258.726 335,260.5C 334.823,256.644 334.323,252.977 333.5,249.5C 333.179,243.974 333.512,238.64 334.5,233.5 Z"/></g>
<g><path style="opacity:1" fill="#a09f9f" d="M 203.5,194.5 C 204.492,201.982 204.825,209.648 204.5,217.5C 209.532,217.332 209.699,218.332 205,220.5C 204.667,226.833 204.333,233.167 204,239.5C 203.5,240 203,240.5 202.5,241C 196.472,241.17 190.472,241.67 184.5,242.5C 185.223,246.892 186.223,251.226 187.5,255.5C 187.192,256.308 186.692,256.975 186,257.5C 184.624,256.295 183.458,254.962 182.5,253.5C 183.496,253.414 184.329,253.748 185,254.5C 185.167,254 185.333,253.5 185.5,253C 183.894,248.988 183.228,244.821 183.5,240.5C 189.509,240.666 195.509,240.499 201.5,240C 202,239.5 202.5,239 203,238.5C 203.5,223.837 203.667,209.17 203.5,194.5 Z"/></g>
<g><path style="opacity:0.599" fill="#97a3fe" d="M 333.5,249.5 C 334.323,252.977 334.823,256.644 335,260.5C 337.368,258.726 339.868,257.059 342.5,255.5C 343.466,253.604 343.799,251.604 343.5,249.5C 344.965,256.303 343.298,262.303 338.5,267.5C 337.395,266.4 336.062,265.733 334.5,265.5C 333.551,260.26 333.218,254.927 333.5,249.5 Z"/></g>
<g><path style="opacity:0.598" fill="#919efe" d="M 341.5,238.5 C 344.92,240.222 348.586,240.889 352.5,240.5C 352.5,242.167 352.5,243.833 352.5,245.5C 352.515,249.56 352.015,253.56 351,257.5C 349.934,259.099 348.434,260.099 346.5,260.5C 345.672,255.868 345.172,251.202 345,246.5C 344.079,243.664 342.912,240.998 341.5,238.5 Z"/></g>
<g><path style="opacity:1" fill="#afb0b6" d="M 332.5,222.5 C 333.167,226.167 333.833,229.833 334.5,233.5C 333.512,238.64 333.179,243.974 333.5,249.5C 333.218,254.927 333.551,260.26 334.5,265.5C 332.393,269.221 329.06,270.888 324.5,270.5C 319.056,269.892 314.056,270.558 309.5,272.5C 309.631,273.239 309.464,273.906 309,274.5C 307.727,268.906 306.227,263.406 304.5,258C 283.833,257.333 263.167,257.333 242.5,258C 241.978,258.561 241.645,259.228 241.5,260C 244.075,271.795 247.075,283.462 250.5,295C 271.164,295.5 291.831,295.667 312.5,295.5C 312.019,289.424 311.019,283.424 309.5,277.5C 309.846,276.151 310.179,274.817 310.5,273.5C 315.007,275.113 319.673,275.779 324.5,275.5C 324.833,276.167 325.167,276.833 325.5,277.5C 320.699,277.65 316.033,276.984 311.5,275.5C 311.12,277.698 311.787,279.365 313.5,280.5C 313.385,285.488 313.385,290.488 313.5,295.5C 292.174,296.333 270.841,296.833 249.5,297C 274.164,297.5 298.831,297.667 323.5,297.5C 323.5,298.833 323.5,300.167 323.5,301.5C 323.167,301.5 322.833,301.5 322.5,301.5C 298.339,302.498 274.006,302.831 249.5,302.5C 248.699,300.958 248.366,299.292 248.5,297.5C 247.826,294.474 246.993,291.474 246,288.5C 241.868,292.997 237.368,297.164 232.5,301C 227.487,301.958 222.821,301.125 218.5,298.5C 217.713,296.896 216.38,296.229 214.5,296.5C 215.882,290.029 215.716,283.696 214,277.5C 217.556,282.529 218.389,288.029 216.5,294C 220.829,298.664 226.163,300.331 232.5,299C 235.649,296.851 238.482,294.351 241,291.5C 241.483,290.552 241.649,289.552 241.5,288.5C 243.606,288.321 245.272,287.321 246.5,285.5C 243.203,284.858 242.869,283.691 245.5,282C 244.683,277.38 243.35,272.88 241.5,268.5C 238.182,271.317 235.015,274.317 232,277.5C 231.175,279.701 231.675,281.534 233.5,283C 229.089,282.09 228.422,279.757 231.5,276C 228.435,273.473 225.101,272.973 221.5,274.5C 212.164,271.483 204.497,265.983 198.5,258C 197.167,257.667 195.833,257.333 194.5,257C 196.458,255.421 198.458,255.588 200.5,257.5C 200.824,246.184 205.491,236.851 214.5,229.5C 217.372,227.129 219.206,224.129 220,220.5C 220.896,223.025 220.396,225.192 218.5,227C 223.498,227.943 228.498,228.61 233.5,229C 240.712,233.206 247.045,238.539 252.5,245C 253.928,245.579 255.262,245.412 256.5,244.5C 254.731,248.355 252.564,248.355 250,244.5C 247.247,248.191 246.747,252.191 248.5,256.5C 256.772,257.085 264.772,256.418 272.5,254.5C 275.598,255.821 279.098,256.488 283,256.5C 286.683,256.499 290.183,256.165 293.5,255.5C 293.5,254.167 293.5,252.833 293.5,251.5C 293.5,248.167 293.5,244.833 293.5,241.5C 293.736,238.391 293.403,235.391 292.5,232.5C 293.321,229.359 293.821,226.025 294,222.5C 294.5,222 295,221.5 295.5,221C 307.083,219.763 318.75,219.763 330.5,221C 331.044,221.717 331.711,222.217 332.5,222.5 Z"/></g>
<g><path style="opacity:0.841" fill="#bfc4f4" d="M 282.5,228.5 C 277.953,236.9 275.953,245.9 276.5,255.5C 279.85,255.665 283.183,255.498 286.5,255C 285.263,254.768 284.263,254.268 283.5,253.5C 285.5,253.5 287.5,253.5 289.5,253.5C 289.082,254.222 288.416,254.722 287.5,255C 289.473,255.495 291.473,255.662 293.5,255.5C 290.183,256.165 286.683,256.499 283,256.5C 279.098,256.488 275.598,255.821 272.5,254.5C 275.57,251.366 276.237,247.7 274.5,243.5C 276.347,238.144 279.013,233.144 282.5,228.5 Z"/></g>
<g><path style="opacity:0.58" fill="#6473fd" d="M 293.5,251.5 C 293.5,252.833 293.5,254.167 293.5,255.5C 291.473,255.662 289.473,255.495 287.5,255C 288.416,254.722 289.082,254.222 289.5,253.5C 291.062,253.267 292.395,252.6 293.5,251.5 Z"/></g>
<g><path style="opacity:0.6" fill="#8693fe" d="M 245.5,241.5 C 246.695,241.866 247.361,242.699 247.5,244C 245.264,247.677 244.93,251.511 246.5,255.5C 243.369,254.908 241.036,255.908 239.5,258.5C 233.041,260.638 226.707,263.805 220.5,268C 219.695,269.113 219.028,270.279 218.5,271.5C 214.608,269.938 211.275,267.605 208.5,264.5C 219.901,258.293 231.234,251.793 242.5,245C 244.063,244.241 245.063,243.074 245.5,241.5 Z"/></g>
<g><path style="opacity:0.6" fill="#99a4fe" d="M 237.5,234.5 C 240.784,236.117 243.451,238.45 245.5,241.5C 245.063,243.074 244.063,244.241 242.5,245C 231.234,251.793 219.901,258.293 208.5,264.5C 206.188,262.854 204.188,260.854 202.5,258.5C 204.13,255.724 204.797,252.724 204.5,249.5C 205.222,249.918 205.722,250.584 206,251.5C 214.583,246.459 223.083,241.292 231.5,236C 233.345,234.872 235.345,234.372 237.5,234.5 Z"/></g>
<g><path style="opacity:0.998" fill="#fafafe" d="M 293.5,241.5 C 293.5,244.833 293.5,248.167 293.5,251.5C 292.395,252.6 291.062,253.267 289.5,253.5C 287.5,253.5 285.5,253.5 283.5,253.5C 281.248,253.084 279.748,251.751 279,249.5C 278.052,241.443 281.719,237.443 290,237.5C 290.66,239.324 291.827,240.657 293.5,241.5 Z"/></g>
<g><path style="opacity:0.976" fill="#b0b2b9" d="M 270.5,221.5 C 270.567,222.959 270.234,224.292 269.5,225.5C 268.203,227.798 266.537,229.798 264.5,231.5C 265.035,233.261 266.035,234.594 267.5,235.5C 270.295,237.751 272.628,240.418 274.5,243.5C 276.237,247.7 275.57,251.366 272.5,254.5C 273.221,251.183 273.388,247.849 273,244.5C 269.281,239.946 265.115,235.946 260.5,232.5C 259.679,235.447 259.179,238.447 259,241.5C 258.623,242.942 257.79,243.942 256.5,244.5C 258.092,241.034 258.758,237.367 258.5,233.5C 253.364,233.567 248.364,232.9 243.5,231.5C 243.5,230.5 243.5,229.5 243.5,228.5C 245.094,228.92 246.594,229.586 248,230.5C 248.765,230.43 249.265,230.097 249.5,229.5C 250.167,229.5 250.833,229.5 251.5,229.5C 251.389,230.117 251.056,230.617 250.5,231C 259.687,232.905 266.354,229.738 270.5,221.5 Z"/></g>
<g><path style="opacity:1" fill="#edf2fa" d="M 272.5,254.5 C 264.772,256.418 256.772,257.085 248.5,256.5C 246.747,252.191 247.247,248.191 250,244.5C 252.564,248.355 254.731,248.355 256.5,244.5C 257.79,243.942 258.623,242.942 259,241.5C 259.179,238.447 259.679,235.447 260.5,232.5C 265.115,235.946 269.281,239.946 273,244.5C 273.388,247.849 273.221,251.183 272.5,254.5 Z"/></g>
<g><path style="opacity:0.6" fill="#b3bcfe" d="M 237.5,234.5 C 235.345,234.372 233.345,234.872 231.5,236C 223.083,241.292 214.583,246.459 206,251.5C 205.722,250.584 205.222,249.918 204.5,249.5C 203.903,249.265 203.57,248.765 203.5,248C 204,246.5 204.5,245 205,243.5C 208.421,238.986 211.588,234.319 214.5,229.5C 219.06,230.061 223.727,230.061 228.5,229.5C 232.01,230.418 235.01,232.084 237.5,234.5 Z"/></g>
<g><path style="opacity:0.6" fill="#7685fe" d="M 292.5,232.5 C 293.403,235.391 293.736,238.391 293.5,241.5C 291.827,240.657 290.66,239.324 290,237.5C 281.719,237.443 278.052,241.443 279,249.5C 279.748,251.751 281.248,253.084 283.5,253.5C 284.263,254.268 285.263,254.768 286.5,255C 283.183,255.498 279.85,255.665 276.5,255.5C 275.953,245.9 277.953,236.9 282.5,228.5C 282.833,228.5 283.167,228.5 283.5,228.5C 285.58,227.956 287.58,227.122 289.5,226C 290.126,225.25 290.626,224.416 291,223.5C 292.392,226.278 292.892,229.278 292.5,232.5 Z"/></g>
<g><path style="opacity:0.718" fill="#b6bdfc" d="M 269.5,225.5 C 270.167,225.5 270.5,225.833 270.5,226.5C 269.787,229.594 268.787,232.594 267.5,235.5C 266.035,234.594 265.035,233.261 264.5,231.5C 266.537,229.798 268.203,227.798 269.5,225.5 Z"/></g>
<g><path style="opacity:1" fill="#e6ecfd" d="M 307.5,261.5 C 314.532,261.83 321.532,261.497 328.5,260.5C 321.344,259.181 314.344,259.181 307.5,260.5C 306.566,259.432 306.232,258.099 306.5,256.5C 302.833,256.5 299.167,256.5 295.5,256.5C 295.5,245.167 295.5,233.833 295.5,222.5C 307.414,222.179 319.247,222.512 331,223.5C 331.667,238.167 331.667,252.833 331,267.5C 323.587,268.481 316.087,268.814 308.5,268.5C 308.5,267.167 308.5,265.833 308.5,264.5C 315.175,264.666 321.842,264.5 328.5,264C 321.095,264.135 314.095,263.302 307.5,261.5 Z"/></g>
<g><path style="opacity:1" fill="#9cbffa" d="M 298.5,249.5 C 308.522,249.168 318.522,249.501 328.5,250.5C 323.5,250.833 318.5,251.167 313.5,251.5C 308.119,251.494 303.119,250.828 298.5,249.5 Z"/></g>
<g><path style="opacity:1" fill="#a9c7fa" d="M 298.5,246.5 C 308.522,246.168 318.522,246.501 328.5,247.5C 323.5,247.833 318.5,248.167 313.5,248.5C 308.119,248.494 303.119,247.828 298.5,246.5 Z"/></g>
<g><path style="opacity:1" fill="#91b8f9" d="M 298.5,233.5 C 308.522,233.168 318.522,233.501 328.5,234.5C 323.5,234.833 318.5,235.167 313.5,235.5C 308.119,235.494 303.119,234.828 298.5,233.5 Z"/></g>
<g><path style="opacity:1" fill="#3f84f5" d="M 298.5,226.5 C 308.506,226.334 318.506,226.5 328.5,227C 329.833,228 329.833,229 328.5,230C 318.506,230.5 308.506,230.666 298.5,230.5C 298.5,229.167 298.5,227.833 298.5,226.5 Z"/></g>
<g><path style="opacity:1" fill="#ecf0f6" d="M 203.5,192.5 C 203.833,192.5 204.167,192.5 204.5,192.5C 205.091,193.151 205.757,193.818 206.5,194.5C 205.379,200.114 205.212,205.78 206,211.5C 206.513,210.473 207.013,209.473 207.5,208.5C 208.222,207.449 209.222,206.782 210.5,206.5C 211.043,206.56 211.376,206.893 211.5,207.5C 209.167,209.167 207.167,211.167 205.5,213.5C 206.557,213.906 207.891,213.906 209.5,213.5C 209.351,212.448 209.517,211.448 210,210.5C 213.972,205.328 219.139,202.661 225.5,202.5C 229.599,204.308 233.099,206.975 236,210.5C 236.34,214.558 237.007,218.558 238,222.5C 238.66,224.324 239.827,225.657 241.5,226.5C 242.5,226.833 243.167,227.5 243.5,228.5C 243.5,229.5 243.5,230.5 243.5,231.5C 248.364,232.9 253.364,233.567 258.5,233.5C 258.758,237.367 258.092,241.034 256.5,244.5C 255.262,245.412 253.928,245.579 252.5,245C 247.045,238.539 240.712,233.206 233.5,229C 228.498,228.61 223.498,227.943 218.5,227C 220.396,225.192 220.896,223.025 220,220.5C 219.206,224.129 217.372,227.129 214.5,229.5C 205.491,236.851 200.824,246.184 200.5,257.5C 198.458,255.588 196.458,255.421 194.5,257C 195.833,257.333 197.167,257.667 198.5,258C 204.497,265.983 212.164,271.483 221.5,274.5C 225.101,272.973 228.435,273.473 231.5,276C 228.422,279.757 229.089,282.09 233.5,283C 231.675,281.534 231.175,279.701 232,277.5C 235.015,274.317 238.182,271.317 241.5,268.5C 243.35,272.88 244.683,277.38 245.5,282C 242.869,283.691 243.203,284.858 246.5,285.5C 245.272,287.321 243.606,288.321 241.5,288.5C 241.649,289.552 241.483,290.552 241,291.5C 238.482,294.351 235.649,296.851 232.5,299C 226.163,300.331 220.829,298.664 216.5,294C 218.389,288.029 217.556,282.529 214,277.5C 215.716,283.696 215.882,290.029 214.5,296.5C 207.952,304.605 199.952,306.438 190.5,302C 180.866,292.002 181.199,282.335 191.5,273C 186.726,274.785 183.56,278.285 182,283.5C 181.12,288.796 181.953,293.796 184.5,298.5C 182.589,298.426 181.422,297.426 181,295.5C 179.165,289.911 179.165,284.578 181,279.5C 182.666,280.34 182.833,279.84 181.5,278C 182.833,276 184.5,274.333 186.5,273C 185.167,272.333 185.167,271.667 186.5,271C 185.464,269.383 184.297,269.216 183,270.5C 180.735,269.084 179.569,267.084 179.5,264.5C 178.5,264.5 177.5,264.5 176.5,264.5C 176.863,262.089 175.863,260.589 173.5,260C 174.634,258.984 174.301,258.317 172.5,258C 173.167,256.667 173.833,255.333 174.5,254C 172.143,252.78 172.476,251.947 175.5,251.5C 176.19,250.12 176.524,248.786 176.5,247.5C 178.854,249.188 180.854,251.188 182.5,253.5C 183.458,254.962 184.624,256.295 186,257.5C 186.692,256.975 187.192,256.308 187.5,255.5C 186.223,251.226 185.223,246.892 184.5,242.5C 190.472,241.67 196.472,241.17 202.5,241C 203,240.5 203.5,240 204,239.5C 204.333,233.167 204.667,226.833 205,220.5C 209.699,218.332 209.532,217.332 204.5,217.5C 204.825,209.648 204.492,201.982 203.5,194.5C 203.5,193.833 203.5,193.167 203.5,192.5 Z"/></g>
<g><path style="opacity:0.004" fill="#fefffe" d="M 207.5,208.5 C 206.833,207.167 206.833,207.167 207.5,208.5 Z"/></g>
<g><path style="opacity:0.599" fill="#afb7fe" d="M 334.5,233.5 C 337.093,234.754 339.427,236.42 341.5,238.5C 342.912,240.998 344.079,243.664 345,246.5C 345.172,251.202 345.672,255.868 346.5,260.5C 348.434,260.099 349.934,259.099 351,257.5C 352.015,253.56 352.515,249.56 352.5,245.5C 353.07,251.318 353.07,257.318 352.5,263.5C 351.5,263.5 350.5,263.5 349.5,263.5C 349.326,268.207 348.326,272.707 346.5,277C 340.644,282.688 333.644,285.855 325.5,286.5C 323.689,280.261 319.689,278.261 313.5,280.5C 311.787,279.365 311.12,277.698 311.5,275.5C 316.033,276.984 320.699,277.65 325.5,277.5C 330.652,283.063 335.485,282.73 340,276.5C 340.932,273.177 340.432,270.177 338.5,267.5C 343.298,262.303 344.965,256.303 343.5,249.5C 342.579,242.99 339.579,237.657 334.5,233.5 Z"/></g>
<g><path style="opacity:1" fill="#aac8fa" d="M 307.5,261.5 C 307.5,261.167 307.5,260.833 307.5,260.5C 314.344,259.181 321.344,259.181 328.5,260.5C 321.532,261.497 314.532,261.83 307.5,261.5 Z"/></g>
<g><path style="opacity:0.6" fill="#7786fe" d="M 239.5,258.5 C 240.263,261.141 240.43,263.808 240,266.5C 238.178,269.321 236.011,271.821 233.5,274C 228.663,272.96 223.663,272.127 218.5,271.5C 219.028,270.279 219.695,269.113 220.5,268C 226.707,263.805 233.041,260.638 239.5,258.5 Z"/></g>
<g><path style="opacity:0.997" fill="#fbfcfe" d="M 334.5,265.5 C 336.062,265.733 337.395,266.4 338.5,267.5C 340.432,270.177 340.932,273.177 340,276.5C 335.485,282.73 330.652,283.063 325.5,277.5C 325.167,276.833 324.833,276.167 324.5,275.5C 324.5,273.833 324.5,272.167 324.5,270.5C 329.06,270.888 332.393,269.221 334.5,265.5 Z"/></g>
<g><path style="opacity:0.004" fill="#fefffe" d="M 350.5,270.5 C 351.833,271.167 351.833,271.167 350.5,270.5 Z"/></g>
<g><path style="opacity:0.596" fill="#9ca7fe" d="M 324.5,270.5 C 324.5,272.167 324.5,273.833 324.5,275.5C 319.673,275.779 315.007,275.113 310.5,273.5C 310.5,272.833 310.167,272.5 309.5,272.5C 314.056,270.558 319.056,269.892 324.5,270.5 Z"/></g>
<g><path style="opacity:1" fill="#0e0e0e" d="M 196.5,277.5 C 204.098,276.725 206.931,280.058 205,287.5C 204.097,288.701 202.931,289.535 201.5,290C 203.833,291 206.167,292 208.5,293C 209.711,293.893 209.711,294.726 208.5,295.5C 201.879,299.789 195.546,299.456 189.5,294.5C 191.677,292.242 194.343,290.742 197.5,290C 192.624,286.231 192.29,282.064 196.5,277.5 Z"/></g>
<g><path style="opacity:0.599" fill="#cbd1fe" d="M 352.5,263.5 C 350.338,266.621 349.672,269.954 350.5,273.5C 347.795,279.666 344.795,285.666 341.5,291.5C 341.043,292.298 340.376,292.631 339.5,292.5C 333.589,298.146 326.922,299.313 319.5,296C 324.144,294.552 326.144,291.385 325.5,286.5C 333.644,285.855 340.644,282.688 346.5,277C 348.326,272.707 349.326,268.207 349.5,263.5C 350.5,263.5 351.5,263.5 352.5,263.5 Z"/></g>
<g><path style="opacity:1" fill="#e7e7e7" d="M 309.5,272.5 C 310.167,272.5 310.5,272.833 310.5,273.5C 310.179,274.817 309.846,276.151 309.5,277.5C 311.019,283.424 312.019,289.424 312.5,295.5C 291.831,295.667 271.164,295.5 250.5,295C 247.075,283.462 244.075,271.795 241.5,260C 241.645,259.228 241.978,258.561 242.5,258C 263.167,257.333 283.833,257.333 304.5,258C 306.227,263.406 307.727,268.906 309,274.5C 309.464,273.906 309.631,273.239 309.5,272.5 Z"/></g>
<g><path style="opacity:1" fill="#1e50a6" d="M 245.5,259.5 C 264.503,259.333 283.503,259.5 302.5,260C 304.929,268.045 307.096,276.212 309,284.5C 309.667,286.5 309.667,288.5 309,290.5C 290.24,291.659 271.407,291.825 252.5,291C 249.362,281.738 246.696,272.238 244.5,262.5C 244.685,261.416 245.018,260.416 245.5,259.5 Z"/></g>
<g><path style="opacity:1" fill="#d9e1f0" d="M 261.5,263.5 C 265.515,263.276 266.181,264.443 263.5,267C 264.968,269.659 265.301,272.326 264.5,275C 266.828,277.761 268.494,280.927 269.5,284.5C 270.5,285.167 271.5,285.833 272.5,286.5C 270.994,287.747 269.494,287.747 268,286.5C 266.234,284.119 265.068,281.452 264.5,278.5C 263.758,277.713 262.925,277.047 262,276.5C 262.584,272.203 262.418,267.869 261.5,263.5 Z"/></g>
<g><path style="opacity:1" fill="#e0e7f3" d="M 282.5,263.5 C 287.262,264.441 289.762,267.441 290,272.5C 291.074,273.618 292.24,274.618 293.5,275.5C 292.833,276.5 292.167,277.5 291.5,278.5C 293.246,281.267 293.579,284.101 292.5,287C 291.056,287.781 289.723,287.614 288.5,286.5C 289.544,285.377 290.21,284.044 290.5,282.5C 290.064,279.821 289.564,277.155 289,274.5C 287.834,270.157 285.668,266.491 282.5,263.5 Z"/></g>
<g><path style="opacity:1" fill="#dce4f1" d="M 282.5,277.5 C 285.833,277.5 287.5,279.167 287.5,282.5C 283.5,283.167 281.833,281.5 282.5,277.5 Z"/></g>
<g><path style="opacity:1" fill="#dfe6f2" d="M 276.5,277.5 C 279.833,277.5 281.5,279.167 281.5,282.5C 277.5,283.167 275.833,281.5 276.5,277.5 Z"/></g>
<g><path style="opacity:1" fill="#d8e0f0" d="M 270.5,277.5 C 273.833,277.5 275.5,279.167 275.5,282.5C 271.5,283.167 269.833,281.5 270.5,277.5 Z"/></g>
<g><path style="opacity:0.6" fill="#7685fe" d="M 248.5,297.5 C 247.163,298.315 246.163,299.482 245.5,301C 241.835,302.497 238.502,304.497 235.5,307C 233.35,308.411 231.016,309.245 228.5,309.5C 223.44,306.806 220.107,303.139 218.5,298.5C 222.821,301.125 227.487,301.958 232.5,301C 237.368,297.164 241.868,292.997 246,288.5C 246.993,291.474 247.826,294.474 248.5,297.5 Z"/></g>
<g><path style="opacity:0.027" fill="#f0f0fa" d="M 325.5,286.5 C 326.144,291.385 324.144,294.552 319.5,296C 326.922,299.313 333.589,298.146 339.5,292.5C 339.611,293.117 339.944,293.617 340.5,294C 338.328,296.17 336.328,298.503 334.5,301C 333.906,301.464 333.239,301.631 332.5,301.5C 333.087,300.233 333.087,299.233 332.5,298.5C 329.202,298.914 326.202,299.914 323.5,301.5C 323.5,300.167 323.5,298.833 323.5,297.5C 298.831,297.667 274.164,297.5 249.5,297C 270.841,296.833 292.174,296.333 313.5,295.5C 313.385,290.488 313.385,285.488 313.5,280.5C 319.689,278.261 323.689,280.261 325.5,286.5 Z"/></g>
<g><path style="opacity:0.998" fill="#fafafa" d="M 322.5,301.5 C 298.498,301.667 274.498,301.5 250.5,301C 250.043,300.586 249.709,300.086 249.5,299.5C 273.824,298.5 298.158,298.167 322.5,298.5C 322.5,299.5 322.5,300.5 322.5,301.5 Z"/></g>
<g><path style="opacity:0.081" fill="#f2f3fe" d="M 214.5,296.5 C 216.38,296.229 217.713,296.896 218.5,298.5C 220.107,303.139 223.44,306.806 228.5,309.5C 230.946,312.231 233.946,314.231 237.5,315.5C 239.674,317.081 242.007,318.581 244.5,320C 245.793,320.49 247.127,320.657 248.5,320.5C 253.327,323.315 258.66,324.648 264.5,324.5C 275.885,326.297 287.219,325.464 298.5,322C 302.322,320.307 301.989,318.973 297.5,318C 300.063,317.846 302.563,318.346 305,319.5C 310.441,317.882 315.275,315.215 319.5,311.5C 316.553,310.679 313.553,310.179 310.5,310C 314.211,309.825 317.878,309.325 321.5,308.5C 323.434,303.454 327.1,301.12 332.5,301.5C 332.291,302.922 331.791,304.255 331,305.5C 328.112,307.862 325.279,310.196 322.5,312.5C 322.167,311.167 321.833,311.167 321.5,312.5C 318.373,315.062 315.206,317.395 312,319.5C 311.667,319.167 311.333,318.833 311,318.5C 308.613,320.17 306.279,321.837 304,323.5C 303.439,322.978 302.772,322.645 302,322.5C 299.12,324.208 296.453,325.541 294,326.5C 281.333,327.833 268.667,327.833 256,326.5C 253.394,325.401 250.894,324.068 248.5,322.5C 247.833,322.833 247.167,323.167 246.5,323.5C 244.709,322.076 242.875,320.742 241,319.5C 240.667,319.833 240.333,320.167 240,320.5C 237.99,319.553 235.99,317.886 234,315.5C 233.667,315.833 233.333,316.167 233,316.5C 231.287,315.122 229.953,313.455 229,311.5C 228.586,311.957 228.086,312.291 227.5,312.5C 225.909,309.744 223.576,307.911 220.5,307C 218.767,304.725 216.933,302.558 215,300.5C 213.341,302.784 211.174,304.451 208.5,305.5C 208.5,305.167 208.5,304.833 208.5,304.5C 210.909,302.098 212.909,299.431 214.5,296.5 Z"/></g>
<g><path style="opacity:0.6" fill="#8795fe" d="M 248.5,297.5 C 248.366,299.292 248.699,300.958 249.5,302.5C 250.919,303.451 252.585,303.784 254.5,303.5C 255.562,304.575 255.562,305.575 254.5,306.5C 248.933,309.782 243.267,312.782 237.5,315.5C 233.946,314.231 230.946,312.231 228.5,309.5C 231.016,309.245 233.35,308.411 235.5,307C 238.502,304.497 241.835,302.497 245.5,301C 246.163,299.482 247.163,298.315 248.5,297.5 Z"/></g>
<g><path style="opacity:0.6" fill="#9aa6fe" d="M 254.5,303.5 C 261.584,302.874 268.25,303.541 274.5,305.5C 273.596,306.209 273.263,307.209 273.5,308.5C 272.127,308.343 270.793,308.51 269.5,309C 263.087,313.874 256.087,317.707 248.5,320.5C 247.127,320.657 245.793,320.49 244.5,320C 242.007,318.581 239.674,317.081 237.5,315.5C 243.267,312.782 248.933,309.782 254.5,306.5C 255.562,305.575 255.562,304.575 254.5,303.5 Z"/></g>
<g><path style="opacity:0.997" fill="#fbfbfe" d="M 279.5,316.5 C 276.353,314.687 274.353,312.02 273.5,308.5C 273.263,307.209 273.596,306.209 274.5,305.5C 278.863,303.489 283.529,302.989 288.5,304C 290.729,306.553 291.062,309.386 289.5,312.5C 290.5,313.333 291.5,314.167 292.5,315C 288.215,315.028 283.882,315.528 279.5,316.5 Z"/></g>
<g><path style="opacity:0.067" fill="#fcfcfc" d="M 184.5,298.5 C 190.825,305.246 198.491,307.246 207.5,304.5C 207.5,304.833 207.5,305.167 207.5,305.5C 198.742,309.817 190.742,307.983 183.5,300C 184.056,299.617 184.389,299.117 184.5,298.5 Z"/></g>
<g><path style="opacity:0.918" fill="#adacac" d="M 214.5,296.5 C 212.909,299.431 210.909,302.098 208.5,304.5C 208.167,304.5 207.833,304.5 207.5,304.5C 198.491,307.246 190.825,305.246 184.5,298.5C 181.953,293.796 181.12,288.796 182,283.5C 183.56,278.285 186.726,274.785 191.5,273C 181.199,282.335 180.866,292.002 190.5,302C 199.952,306.438 207.952,304.605 214.5,296.5 Z"/></g>
<g><path style="opacity:0.008" fill="#fefffe" d="M 207.5,305.5 C 207.833,305.5 208.167,305.5 208.5,305.5C 208.315,306.17 207.981,306.17 207.5,305.5 Z"/></g>
<g><path style="opacity:0.004" fill="#fefffe" d="M 321.5,312.5 C 321.833,312.5 322.167,312.5 322.5,312.5C 322.315,313.17 321.981,313.17 321.5,312.5 Z"/></g>
<g><path style="opacity:0.6" fill="#b3bbfe" d="M 273.5,308.5 C 274.353,312.02 276.353,314.687 279.5,316.5C 274.973,319.932 269.973,322.598 264.5,324.5C 258.66,324.648 253.327,323.315 248.5,320.5C 256.087,317.707 263.087,313.874 269.5,309C 270.793,308.51 272.127,308.343 273.5,308.5 Z"/></g>
<g><path style="opacity:0.598" fill="#cdd2fc" d="M 332.5,301.5 C 327.1,301.12 323.434,303.454 321.5,308.5C 317.878,309.325 314.211,309.825 310.5,310C 313.553,310.179 316.553,310.679 319.5,311.5C 315.275,315.215 310.441,317.882 305,319.5C 302.563,318.346 300.063,317.846 297.5,318C 301.989,318.973 302.322,320.307 298.5,322C 287.219,325.464 275.885,326.297 264.5,324.5C 269.973,322.598 274.973,319.932 279.5,316.5C 283.882,315.528 288.215,315.028 292.5,315C 291.5,314.167 290.5,313.333 289.5,312.5C 291.062,309.386 290.729,306.553 288.5,304C 283.529,302.989 278.863,303.489 274.5,305.5C 268.25,303.541 261.584,302.874 254.5,303.5C 252.585,303.784 250.919,303.451 249.5,302.5C 274.006,302.831 298.339,302.498 322.5,301.5C 322.833,301.5 323.167,301.5 323.5,301.5C 326.202,299.914 329.202,298.914 332.5,298.5C 333.087,299.233 333.087,300.233 332.5,301.5 Z"/></g>
<g><path style="opacity:0.916" fill="#002bc4" d="M 101.5,358.5 C 123.5,358.5 145.5,358.5 167.5,358.5C 167.5,363.167 167.5,367.833 167.5,372.5C 159.167,372.5 150.833,372.5 142.5,372.5C 142.5,395.5 142.5,418.5 142.5,441.5C 137.167,441.5 131.833,441.5 126.5,441.5C 126.5,418.5 126.5,395.5 126.5,372.5C 118.167,372.5 109.833,372.5 101.5,372.5C 101.5,367.833 101.5,363.167 101.5,358.5 Z"/></g>
<g><path style="opacity:0.904" fill="#002bc4" d="M 316.5,358.5 C 321.833,358.5 327.167,358.5 332.5,358.5C 332.5,386.167 332.5,413.833 332.5,441.5C 327.167,441.5 321.833,441.5 316.5,441.5C 316.5,413.833 316.5,386.167 316.5,358.5 Z"/></g>
<g><path style="opacity:0.92" fill="#002bc4" d="M 199.5,378.5 C 223.002,376.4 235.335,387.067 236.5,410.5C 236.256,430.409 226.256,441.409 206.5,443.5C 186.987,441.485 176.987,430.652 176.5,411C 176.231,394.32 183.898,383.487 199.5,378.5 Z M 205.5,390.5 C 216.265,392.652 221.265,399.319 220.5,410.5C 221.485,419.367 218.151,425.867 210.5,430C 197.493,430.655 191.493,424.321 192.5,411C 191.737,400.65 196.07,393.816 205.5,390.5 Z"/></g>
<g><path style="opacity:0.92" fill="#002bc4" d="M 268.5,378.5 C 292.002,376.4 304.335,387.067 305.5,410.5C 305.256,430.409 295.256,441.409 275.5,443.5C 255.987,441.485 245.987,430.652 245.5,411C 245.231,394.32 252.898,383.487 268.5,378.5 Z M 274.5,390.5 C 285.265,392.652 290.265,399.319 289.5,410.5C 290.485,419.367 287.151,425.867 279.5,430C 266.493,430.655 260.493,424.321 261.5,411C 260.737,400.65 265.07,393.816 274.5,390.5 Z"/></g>
<g><path style="opacity:0.908" fill="#002bc4" d="M 363.5,378.5 C 371.005,377.988 378.339,378.822 385.5,381C 391.244,384.246 394.91,389.079 396.5,395.5C 391.602,397.49 386.602,397.823 381.5,396.5C 377.949,390.925 372.949,389.092 366.5,391C 361.338,393.164 360.338,396.498 363.5,401C 371.369,403.709 379.369,406.042 387.5,408C 395.871,411.909 399.037,418.409 397,427.5C 394.511,435.675 389.011,440.508 380.5,442C 371.639,444.127 362.972,443.46 354.5,440C 348.756,436.754 345.09,431.921 343.5,425.5C 344.025,424.808 344.692,424.308 345.5,424C 349.373,423.73 353.206,423.23 357,422.5C 359.164,424.29 360.998,426.456 362.5,429C 369.42,432.81 375.586,431.977 381,426.5C 381.896,423.975 381.396,421.808 379.5,420C 372.266,417.691 364.932,415.691 357.5,414C 345.047,407.97 342.214,398.803 349,386.5C 353.119,382.361 357.952,379.694 363.5,378.5 Z"/></g>
</svg>
