<?xml version="1.0" encoding="UTF-8"?>
<svg version="1.1" xmlns="http://www.w3.org/2000/svg" width="256" height="256">
<path d="M0 0 C15.279076 12.38968947 25.18318617 26.15808539 31 45 C31.35384766 46.13308594 31.35384766 46.13308594 31.71484375 47.2890625 C37.40426285 68.80088069 32.75459314 91.89492976 21.9375 110.94140625 C9.54252276 130.50847718 -9.22832547 143.86353365 -31.75 149.25 C-53.92245293 153.53883214 -75.48012132 149.34984622 -95 138 C-98.57150487 135.56327115 -101.80005333 132.90375326 -105 130 C-105.83144531 129.26136719 -106.66289063 128.52273437 -107.51953125 127.76171875 C-122.85752444 113.36615218 -132.10157714 93.1391438 -133.203125 72.125 C-133.66878607 47.5547049 -125.42394001 25.48331081 -108.5078125 7.52099609 C-80.07918433 -21.15619845 -32.17668587 -24.04628286 0 0 Z M-82.3203125 39.54296875 C-90.52873694 50.03824207 -93.25913695 60.78683445 -92 74 C-90.10906639 85.03305068 -83.80023508 95.13080478 -75 102 C-64.87371107 108.21668488 -54.13740327 111.79087875 -42.26953125 109.46484375 C-29.75551439 106.30613329 -19.74410857 100.25394893 -12.5625 89.1875 C-6.34594471 77.84624899 -5.61125905 66.26396107 -8.96484375 53.98828125 C-12.92977664 42.54234289 -20.46587677 34.44983647 -31.1875 29.0625 C-48.97489349 20.45316622 -69.07728677 25.02914762 -82.3203125 39.54296875 Z " fill="#000000" transform="translate(177,60)"/>
<path d="M0 0 C7.19979548 0 12.86338411 0.00401674 19.625 1.625 C20.76932495 1.89231934 20.76932495 1.89231934 21.93676758 2.16503906 C57.27310217 10.76360777 85.81012312 31.85782259 104.80664062 62.92724609 C121.39632989 91.7419887 126.1871126 127.76690538 117.58544922 159.87744141 C117.39225098 160.57788574 117.19905273 161.27833008 117 162 C116.82871582 162.65532715 116.65743164 163.3106543 116.48095703 163.98583984 C111.05945982 184.26046872 99.26380482 201.90004111 85 217 C84.31421875 217.75023437 83.6284375 218.50046875 82.921875 219.2734375 C63.62762714 239.63958802 35.61369618 251.82024105 8 255 C5.36 255 2.72 255 0 255 C0 244.44 0 233.88 0 223 C3.7434375 222.4121875 3.7434375 222.4121875 7.5625 221.8125 C33.20972366 217.42042841 55.582936 204.50417392 71.0625 183.4375 C85.72352192 162.67003726 91.90818679 136.89741889 87.77734375 111.734375 C84.0760985 93.95351843 77.46152053 77.53225447 65 64 C64.20207031 63.11054687 63.40414062 62.22109375 62.58203125 61.3046875 C45.38014052 43.0610279 24.08132041 35.81626408 0 31 C0 20.77 0 10.54 0 0 Z " fill="#3C79D7" transform="translate(134,0)"/>
<path d="M0 0 C3.05664968 1.48036529 5.84337347 3.18200765 8.66796875 5.0715332 C24.24657016 15.44652065 39.48719028 20.15187543 58 23 C58 33.56 58 44.12 58 55 C28.83894601 55 0.4565715 42.46061136 -21 23 C-19.48623919 19.43235715 -17.39486871 17.16293713 -14.6484375 14.453125 C-13.79765625 13.60878906 -12.946875 12.76445312 -12.0703125 11.89453125 C-11.18085937 11.02183594 -10.29140625 10.14914063 -9.375 9.25 C-8.4778125 8.36183594 -7.580625 7.47367188 -6.65625 6.55859375 C-4.44192996 4.36783031 -2.22307565 2.18187237 0 0 Z " fill="#FD1E56" transform="translate(63,200)"/>
<path d="M0 0 C10.23 0 20.46 0 31 0 C31.66 2.97 32.32 5.94 33 9 C37.06494594 27.04016708 43.2432058 41.63058486 55 56 C50.47008204 61.43733055 45.65705784 66.46458931 40.625 71.4375 C39.88894531 72.16904297 39.15289062 72.90058594 38.39453125 73.65429688 C36.59863926 75.43852723 34.80044015 77.22036124 33 79 C28.40808283 75.47287522 25.24419207 71.98237266 22.125 67.125 C21.48546387 66.14043823 21.48546387 66.14043823 20.83300781 65.13598633 C7.98402524 45.0600499 0 24.09958669 0 0 Z " fill="#FD1E56" transform="translate(0,134)"/>
</svg>
