<svg width="343" height="175" viewBox="0 0 343 175" fill="none" xmlns="http://www.w3.org/2000/svg">
<path d="M154.842 3.42252C153.743 2.31203 152.432 1.43662 150.988 0.848836C149.545 0.261052 147.998 -0.0269931 146.441 0.00198874H49.8832V11.6423C49.8676 13.1391 50.1616 14.6228 50.7464 15.999C51.3313 17.3751 52.1941 18.6137 53.28 19.6359C54.3331 20.7591 55.5977 21.66 57.0001 22.2861C58.4025 22.9122 59.9146 23.251 61.4483 23.2827H92.2816V139.681H103.841C105.404 139.715 106.958 139.429 108.408 138.841C109.858 138.253 111.175 137.375 112.279 136.26C113.367 135.222 114.234 133.972 114.828 132.585C115.421 131.199 115.728 129.705 115.731 128.196V23.2827H158.322V12.3396C158.336 9.02865 157.091 5.83799 154.842 3.42252Z" fill="#03031C"/>
<path d="M217.272 42.543C215.687 42.5034 214.11 42.7801 212.637 43.3565C211.163 43.933 209.823 44.7973 208.697 45.8975C207.588 46.9419 206.704 48.196 206.098 49.5848C205.492 50.9736 205.176 52.4686 205.168 53.9807V100.552C201.012 111.922 188.348 117.453 174.782 117.453C163.529 117.453 158.078 112.31 158.078 101.79V54.1433C158.08 52.6298 157.768 51.1321 157.161 49.742C156.554 48.3519 155.666 47.099 154.55 46.0601C153.442 44.935 152.114 44.0433 150.646 43.4388C149.179 42.8343 147.602 42.5295 146.012 42.543H134.515V103.762C134.515 127.278 146.786 139.227 172.234 139.227C184.731 139.227 198.425 134.973 205.014 126.541C205.205 132.636 203.22 138.603 199.406 143.402C194.583 149.628 185.253 152.026 175.529 152.026C165.863 151.919 156.297 150.084 147.296 146.61C145.835 146.238 144.335 146.03 142.826 145.991C141.708 145.854 140.572 145.969 139.505 146.329C138.439 146.688 137.468 147.281 136.668 148.064C135.868 148.847 135.258 149.799 134.885 150.848C134.512 151.897 134.385 153.017 134.515 154.121V163.597L135.219 163.982C147.448 170.96 161.405 174.441 175.526 174.035C208.736 174.035 228.732 156.4 228.732 121.555V42.543H217.272ZM325.645 96.6863C324.529 93.3444 322.306 90.4703 319.333 88.527C321.312 85.457 322.834 82.1228 323.853 78.6263L338.714 42.543H325.225C317.854 42.543 313.111 45.4831 311.148 51.2452L301.044 74.4509C300.26 76.3472 297.947 77.3517 294.104 77.3517H271.979V11.6029C271.988 10.1542 271.692 8.71941 271.112 7.3885C270.532 6.05758 269.679 4.85922 268.608 3.8685C267.534 2.68314 266.225 1.7281 264.761 1.06264C263.297 0.397173 261.71 0.0354803 260.099 0L248.336 0V139.227H260.099C261.701 139.257 263.293 138.964 264.776 138.365C266.26 137.767 267.603 136.875 268.725 135.746C269.863 134.717 270.763 133.458 271.365 132.055C271.967 130.652 272.256 129.139 272.213 127.616V100.552H298.13C301.815 100.552 302.797 102.215 303.227 103.492L315.341 131.031C317.184 136.483 321.851 139.269 329.221 139.269H342.67L325.645 96.6863Z" fill="#03031C"/>
<path d="M62.8925 65.9481C62.1632 58.5515 58.6 51.6743 52.8887 46.6404C47.1773 41.6066 39.7216 38.7718 31.9567 38.6819H0V70.0083C0.324703 77.5913 3.63199 84.7769 9.2594 90.1259C14.8868 95.4748 22.4188 98.5921 30.3466 98.8533H62.8951V66.0221L62.8925 65.9481Z" fill="#20EDBA"/>
</svg>
