<?xml version="1.0" encoding="UTF-8"?>
<!DOCTYPE svg PUBLIC "-//W3C//DTD SVG 1.1//EN" "http://www.w3.org/Graphics/SVG/1.1/DTD/svg11.dtd">
<svg xmlns="http://www.w3.org/2000/svg" version="1.1" width="216px" height="240px" style="shape-rendering:geometricPrecision; text-rendering:geometricPrecision; image-rendering:optimizeQuality; fill-rule:evenodd; clip-rule:evenodd" xmlns:xlink="http://www.w3.org/1999/xlink">
<g><path style="opacity:0.867" fill="#02599d" d="M 55.5,17.5 C 56.8333,17.5 58.1667,17.5 59.5,17.5C 61.1766,29.4794 62.8433,29.4794 64.5,17.5C 66.1439,17.2865 67.6439,17.6198 69,18.5C 70.2346,28.9533 71.9013,28.9533 74,18.5C 75.3561,17.6198 76.8561,17.2865 78.5,17.5C 77.5226,23.6049 76.0226,29.6049 74,35.5C 71.81,38.2486 70.1433,37.9153 69,34.5C 68.1779,32.2115 67.5112,29.8782 67,27.5C 66,30.5 65,33.5 64,36.5C 62.8173,37.731 61.6507,37.731 60.5,36.5C 58.5,30.8333 56.5,25.1667 54.5,19.5C 54.8627,18.8165 55.1961,18.1499 55.5,17.5 Z"/></g>
<g><path style="opacity:0.814" fill="#005a9b" d="M 81.5,17.5 C 85.8461,17.3343 90.1794,17.501 94.5,18C 95.3366,19.0113 95.67,20.1779 95.5,21.5C 92.1667,21.5 88.8333,21.5 85.5,21.5C 85.5,22.8333 85.5,24.1667 85.5,25.5C 87.5,25.5 89.5,25.5 91.5,25.5C 91.5,26.8333 91.5,28.1667 91.5,29.5C 89.5,29.5 87.5,29.5 85.5,29.5C 85.5,30.5 85.5,31.5 85.5,32.5C 88.5184,32.3354 91.5184,32.502 94.5,33C 95.8333,34.3333 95.8333,35.6667 94.5,37C 90.1103,37.7722 85.777,37.6055 81.5,36.5C 80.2097,30.1115 80.2097,23.7782 81.5,17.5 Z"/></g>
<g><path style="opacity:0.868" fill="#00599b" d="M 98.5,17.5 C 102.514,17.3345 106.514,17.5012 110.5,18C 113.508,20.0299 114.174,22.6966 112.5,26C 114.959,29.2622 114.959,32.4289 112.5,35.5C 108.058,37.4542 103.558,37.7875 99,36.5C 98.5005,30.1754 98.3338,23.8421 98.5,17.5 Z M 102.5,21.5 C 104.977,21.0508 106.977,21.7175 108.5,23.5C 106.604,24.4656 104.604,24.7989 102.5,24.5C 102.5,23.5 102.5,22.5 102.5,21.5 Z M 102.5,28.5 C 105.157,28.162 107.49,28.8287 109.5,30.5C 109.291,31.086 108.957,31.586 108.5,32C 106.527,32.4955 104.527,32.6621 102.5,32.5C 102.5,31.1667 102.5,29.8333 102.5,28.5 Z"/></g>
<g><path style="opacity:0.856" fill="#02599c" d="M 129.5,17.5 C 141.308,16.1351 145.808,21.1351 143,32.5C 136.549,39.3102 130.549,38.9769 125,31.5C 123.309,25.6102 124.809,20.9436 129.5,17.5 Z M 132.5,21.5 C 137.734,21.6234 139.901,24.2901 139,29.5C 135.206,33.741 131.873,33.4077 129,28.5C 128.576,25.3478 129.743,23.0144 132.5,21.5 Z"/></g>
<g><path style="opacity:0.805" fill="#005a9b" d="M 147.5,17.5 C 152.167,17.5 156.833,17.5 161.5,17.5C 161.5,18.8333 161.5,20.1667 161.5,21.5C 158.167,21.5 154.833,21.5 151.5,21.5C 151.5,22.5 151.5,23.5 151.5,24.5C 154.596,23.9066 156.929,24.9066 158.5,27.5C 158.291,28.086 157.957,28.586 157.5,29C 155.527,29.4955 153.527,29.6621 151.5,29.5C 151.663,31.8568 151.497,34.1902 151,36.5C 149.667,37.8333 148.333,37.8333 147,36.5C 146.21,30.0853 146.376,23.752 147.5,17.5 Z"/></g>
<g><path style="opacity:0.97" fill="#025a9c" d="M 40.5,49.5 C 49.6079,49.0568 58.6079,49.5568 67.5,51C 69.0037,52.4907 69.8371,54.324 70,56.5C 70.5222,64.2058 70.5222,71.8725 70,79.5C 77.3513,86.3523 84.8513,93.019 92.5,99.5C 95.7892,97.0224 99.4558,95.3558 103.5,94.5C 104.66,90.5411 104.827,86.5411 104,82.5C 91.8108,76.5991 88.8108,67.5991 95,55.5C 102.474,48.5691 110.64,47.7358 119.5,53C 124.146,58.3108 125.646,64.4775 124,71.5C 121.992,77.0069 118.159,80.6735 112.5,82.5C 111.509,86.4454 111.176,90.4454 111.5,94.5C 116.07,95.2237 120.404,96.3904 124.5,98C 133.333,88.5 142.167,79 151,69.5C 150.218,65.5903 148.551,61.9236 146,58.5C 145.022,55.3307 145.522,52.4973 147.5,50C 158.167,49.3333 168.833,49.3333 179.5,50C 181.478,52.4973 181.978,55.3307 181,58.5C 176.543,66.5844 171.709,74.4178 166.5,82C 161.03,83.2206 157.53,81.0539 156,75.5C 146.969,84.1964 138.303,93.1964 130,102.5C 129.333,103.5 129.333,104.5 130,105.5C 131.882,108.478 133.382,111.645 134.5,115C 138.821,115.499 143.154,115.666 147.5,115.5C 146.889,109.566 147.722,103.9 150,98.5C 151.579,96.9588 153.413,95.7922 155.5,95C 167.5,94.3333 179.5,94.3333 191.5,95C 195.333,96.1667 197.833,98.6667 199,102.5C 199.667,114.5 199.667,126.5 199,138.5C 197.833,142.333 195.333,144.833 191.5,146C 179.5,146.667 167.5,146.667 155.5,146C 152,144.5 149.5,142 148,138.5C 147.501,134.179 147.334,129.846 147.5,125.5C 142.901,125.2 138.401,125.533 134,126.5C 133.215,129.529 132.049,132.362 130.5,135C 137.434,141.934 144.434,148.934 151.5,156C 160.833,156.333 170.167,156.667 179.5,157C 181.478,159.497 181.978,162.331 181,165.5C 176.543,173.584 171.709,181.418 166.5,189C 163.653,189.944 161.153,189.444 159,187.5C 154.667,180.167 150.333,172.833 146,165.5C 145.667,163.5 145.333,161.5 145,159.5C 138.5,153.667 132,147.833 125.5,142C 121.266,143.434 116.932,144.934 112.5,146.5C 111.513,149.768 111.18,153.102 111.5,156.5C 114.85,156.335 118.183,156.502 121.5,157C 122.333,157.833 123.167,158.667 124,159.5C 126,168.5 126,177.5 124,186.5C 123.097,187.701 121.931,188.535 120.5,189C 112.167,189.667 103.833,189.667 95.5,189C 93.9512,187.786 92.7845,186.286 92,184.5C 91.3333,176.833 91.3333,169.167 92,161.5C 92.7845,159.714 93.9512,158.214 95.5,157C 98.4816,156.502 101.482,156.335 104.5,156.5C 104.82,153.102 104.487,149.768 103.5,146.5C 99.788,144.983 96.1214,143.816 92.5,143C 85.3645,151.136 77.8645,158.97 70,166.5C 71.5346,182.244 64.3679,189.744 48.5,189C 40.728,186.304 36.728,180.804 36.5,172.5C 37.6825,162.316 43.3491,156.982 53.5,156.5C 58.1056,157.165 62.4389,158.332 66.5,160C 73.6854,152.316 80.6854,144.482 87.5,136.5C 85.3546,133.232 83.688,129.732 82.5,126C 75.5,125.333 68.5,125.333 61.5,126C 57.9999,132.671 53.9999,139.004 49.5,145C 43.2258,147.967 38.3924,146.467 35,140.5C 29.2525,130.003 23.2525,119.67 17,109.5C 15.5167,106.298 15.1834,102.964 16,99.5C 16.8333,97.3333 18.3333,95.8333 20.5,95C 36.1667,94.3333 51.8333,94.3333 67.5,95C 72.1549,97.8966 73.6549,102.063 72,107.5C 70.8773,110.249 69.3773,112.749 67.5,115C 72.7513,115.804 77.918,115.637 83,114.5C 84.0711,111.068 85.0711,107.735 86,104.5C 78.5305,98.0316 71.3638,91.1983 64.5,84C 56.6033,82.73 48.6033,82.0633 40.5,82C 39.6667,81.1667 38.8333,80.3333 38,79.5C 36.396,71.2704 36.0627,62.9371 37,54.5C 37.9973,52.6769 39.1639,51.0103 40.5,49.5 Z"/></g>
<g><path style="opacity:1" fill="#4486b6" d="M 61.5,105.5 C 49.8333,104.167 38.1667,104.167 26.5,105.5C 25.9569,105.44 25.6236,105.107 25.5,104.5C 37.8333,103.167 50.1667,103.167 62.5,104.5C 62.3764,105.107 62.0431,105.44 61.5,105.5 Z"/></g>
<g><path style="opacity:1" fill="#f6f9fb" d="M 61.5,105.5 C 57.9312,112.302 54.0979,118.969 50,125.5C 48,122.167 46,118.833 44,115.5C 42,118.833 40,122.167 38,125.5C 34.4076,118.643 30.5743,111.976 26.5,105.5C 38.1667,104.167 49.8333,104.167 61.5,105.5 Z"/></g>
<g><path style="opacity:1" fill="#f8fafc" d="M 106.5,104.5 C 108.167,104.5 109.833,104.5 111.5,104.5C 111.959,108.82 113.792,109.487 117,106.5C 118.353,107.685 119.52,109.019 120.5,110.5C 119.146,114.09 120.479,115.756 124.5,115.5C 124.5,117.167 124.5,118.833 124.5,120.5C 123.5,120.5 122.5,120.5 121.5,120.5C 121.868,123.288 122.368,125.954 123,128.5C 121.597,130.198 119.764,130.698 117.5,130C 115.993,131.778 115.16,133.611 115,135.5C 112.589,137.153 111.422,136.487 111.5,133.5C 109.833,133.5 108.167,133.5 106.5,133.5C 106.5,134.5 106.5,135.5 106.5,136.5C 105.07,136.579 103.736,136.246 102.5,135.5C 101.866,133.433 100.866,131.6 99.5,130C 96.3146,131.234 94.3146,130.068 93.5,126.5C 95.1045,124.821 95.7711,122.821 95.5,120.5C 94.5,120.5 93.5,120.5 92.5,120.5C 92.5,118.833 92.5,117.167 92.5,115.5C 95.5497,116.077 97.5497,114.91 98.5,112C 95.8333,110.667 95.8333,109.333 98.5,108C 101.171,108.806 103.838,108.639 106.5,107.5C 106.5,106.5 106.5,105.5 106.5,104.5 Z"/></g>
<g><path style="opacity:1" fill="#fafbfd" d="M 189.5,112.5 C 185.5,112.5 181.5,112.5 177.5,112.5C 177.5,120.5 177.5,128.5 177.5,136.5C 174.833,136.5 172.167,136.5 169.5,136.5C 169.48,134.857 170.147,133.524 171.5,132.5C 170.147,131.476 169.48,130.143 169.5,128.5C 173.5,127.833 173.5,127.167 169.5,126.5C 169.5,125.5 169.5,124.5 169.5,123.5C 173.5,122.833 173.5,122.167 169.5,121.5C 169.48,119.857 170.147,118.524 171.5,117.5C 170.147,116.476 169.48,115.143 169.5,113.5C 165.5,113.5 161.5,113.5 157.5,113.5C 157.5,110.5 157.5,107.5 157.5,104.5C 168.167,104.5 178.833,104.5 189.5,104.5C 189.5,107.167 189.5,109.833 189.5,112.5 Z"/></g>
<g><path style="opacity:1" fill="#2b6ba7" d="M 40.5,106.5 C 44.9366,105.892 48.6033,107.225 51.5,110.5C 51.1667,110.833 50.8333,111.167 50.5,111.5C 48.4149,110.229 46.2482,109.229 44,108.5C 41.7827,109.047 39.7827,110.047 38,111.5C 37.5,111.167 37,110.833 36.5,110.5C 37.8665,109.16 39.1999,107.827 40.5,106.5 Z"/></g>
<g><path style="opacity:1" fill="#2c6da7" d="M 42.5,110.5 C 44.4835,110.383 46.1502,111.05 47.5,112.5C 45.2351,113.647 42.9018,113.814 40.5,113C 41.3805,112.292 42.0472,111.458 42.5,110.5 Z"/></g>
<g><path style="opacity:1" fill="#88b2d0" d="M 189.5,112.5 C 186.038,113.482 182.371,113.815 178.5,113.5C 178.825,121.352 178.492,129.018 177.5,136.5C 177.5,128.5 177.5,120.5 177.5,112.5C 181.5,112.5 185.5,112.5 189.5,112.5 Z"/></g>
<g><path style="opacity:1" fill="#e4edf4" d="M 161.5,124.5 C 168.684,125.944 169.018,127.944 162.5,130.5C 161.534,128.604 161.201,126.604 161.5,124.5 Z"/></g>
<g><path style="opacity:0.797" fill="#01599c" d="M 55.5,201.5 C 61.1764,201.334 66.8431,201.501 72.5,202C 73.8333,203.333 73.8333,204.667 72.5,206C 70.5273,206.495 68.5273,206.662 66.5,206.5C 66.5,211.5 66.5,216.5 66.5,221.5C 64.8561,221.714 63.3561,221.38 62,220.5C 61.5008,215.845 61.3342,211.179 61.5,206.5C 59.4727,206.662 57.4727,206.495 55.5,206C 54.2721,204.51 54.2721,203.01 55.5,201.5 Z"/></g>
<g><path style="opacity:0.882" fill="#005a9b" d="M 75.5,201.5 C 76.8221,201.33 77.9887,201.663 79,202.5C 79.4966,204.81 79.6633,207.143 79.5,209.5C 81.8333,209.5 84.1667,209.5 86.5,209.5C 86.2924,207.08 86.6258,204.747 87.5,202.5C 88.6507,201.269 89.8173,201.269 91,202.5C 91.4995,208.825 91.6662,215.158 91.5,221.5C 89.8561,221.714 88.3561,221.38 87,220.5C 86.5034,218.19 86.3367,215.857 86.5,213.5C 84.1667,213.5 81.8333,213.5 79.5,213.5C 79.5,216.167 79.5,218.833 79.5,221.5C 77.8561,221.714 76.3561,221.38 75,220.5C 74.2098,214.085 74.3765,207.752 75.5,201.5 Z"/></g>
<g><path style="opacity:0.814" fill="#00599b" d="M 96.5,201.5 C 97.8221,201.33 98.9887,201.663 100,202.5C 100.667,208.5 100.667,214.5 100,220.5C 98.6667,221.833 97.3333,221.833 96,220.5C 95.2098,214.085 95.3765,207.752 96.5,201.5 Z"/></g>
<g><path style="opacity:0.836" fill="#015a9c" d="M 105.5,201.5 C 107.716,202.203 109.549,203.536 111,205.5C 112.667,207.833 114.333,210.167 116,212.5C 116.333,209.167 116.667,205.833 117,202.5C 118.333,201.167 119.667,201.167 121,202.5C 121.667,208.5 121.667,214.5 121,220.5C 119.506,221.747 118.006,221.747 116.5,220.5C 114.192,217.025 111.692,213.692 109,210.5C 108.501,214.152 108.335,217.818 108.5,221.5C 107.167,221.5 105.833,221.5 104.5,221.5C 104.207,214.745 104.54,208.078 105.5,201.5 Z"/></g>
<g><path style="opacity:0.829" fill="#015a9c" d="M 130.5,201.5 C 135.06,200.658 138.727,201.991 141.5,205.5C 139.166,207.987 136.666,207.987 134,205.5C 129.49,206.849 127.823,209.849 129,214.5C 131.604,217.774 134.437,218.107 137.5,215.5C 136.009,214.756 134.509,214.09 133,213.5C 132.251,212.365 132.417,211.365 133.5,210.5C 141.258,207.806 144.092,210.473 142,218.5C 138.319,221.36 134.152,222.193 129.5,221C 123.141,216.701 121.975,211.201 126,204.5C 127.652,203.601 129.152,202.601 130.5,201.5 Z"/></g>
<g><path style="opacity:0.837" fill="#01599c" d="M 149.5,201.5 C 153.215,201.196 156.715,201.863 160,203.5C 160.783,205.319 160.283,206.652 158.5,207.5C 155.562,206.425 152.562,206.259 149.5,207C 152.789,208.833 156.122,210.666 159.5,212.5C 161.179,215.946 160.512,218.779 157.5,221C 152.771,221.996 148.271,221.496 144,219.5C 143.146,217.393 143.812,216.059 146,215.5C 149.171,217.681 152.338,217.848 155.5,216C 153.044,214.289 150.377,212.956 147.5,212C 143.297,207.464 143.964,203.964 149.5,201.5 Z"/></g>
</svg>
