<svg width="48" height="48" viewBox="0 0 48 48" fill="none" 
  xmlns="http://www.w3.org/2000/svg">
  <g clip-path="url(#clip0)">
    <path fill-rule="evenodd" clip-rule="evenodd" d="M0 24.5337L15.0823 46H20.0299L23.1421 41.6908L10.9327 24.5337H0ZM0 23.2569L15.0823 1.79053H20.0299L23.1421 6.09975L10.9327 23.2569H0ZM12.7282 23.2568L27.8105 1.8304H32.7581L35.7506 6.01993L23.6609 23.2568H12.7282ZM36.6684 7.21696L25.3766 23.217H48.0001L36.6684 7.21696ZM27.8105 45.9601L12.7282 24.5337H23.6609L35.7506 41.7706L32.7581 45.9601H27.8105ZM25.3766 24.5736L36.6684 40.5736L48.0001 24.5736H25.3766Z" fill="#5654e3"/>
  </g>
  <defs>
    <clipPath id="clip0">
      <path d="M0 0H48V48H0V0Z" fill="white"/>
    </clipPath>
  </defs>
</svg>
