<?xml version="1.0" encoding="UTF-8"?>
<!DOCTYPE svg PUBLIC "-//W3C//DTD SVG 1.1//EN" "http://www.w3.org/Graphics/SVG/1.1/DTD/svg11.dtd">
<svg xmlns="http://www.w3.org/2000/svg" version="1.1" width="600px" height="600px" style="shape-rendering:geometricPrecision; text-rendering:geometricPrecision; image-rendering:optimizeQuality; fill-rule:evenodd; clip-rule:evenodd" xmlns:xlink="http://www.w3.org/1999/xlink">
<g><path style="opacity:0.993" fill="#5426fa" d="M 282.5,125.5 C 244.167,125.5 205.833,125.5 167.5,125.5C 180.28,106.88 193.28,88.3796 206.5,70C 222.167,69.3333 237.833,69.3333 253.5,70C 264.956,85.7452 276.289,101.579 287.5,117.5C 285.822,120.195 284.156,122.861 282.5,125.5 Z"/></g>
<g><path style="opacity:0.994" fill="#5426fa" d="M 412.5,125.5 C 374.33,125.832 336.33,125.499 298.5,124.5C 310.947,106.213 323.613,88.0466 336.5,70C 352.5,69.3333 368.5,69.3333 384.5,70C 395.788,84.7438 406.955,99.5771 418,114.5C 417.797,118.905 415.964,122.572 412.5,125.5 Z"/></g>
<g><path style="opacity:0.996" fill="#5624fa" d="M 167.5,125.5 C 205.833,125.5 244.167,125.5 282.5,125.5C 269.523,144.468 256.189,163.135 242.5,181.5C 204.33,181.832 166.33,181.499 128.5,180.5C 141.144,161.866 154.144,143.532 167.5,125.5 Z"/></g>
<g><path style="opacity:0.996" fill="#5624fa" d="M 298.5,124.5 C 336.33,125.499 374.33,125.832 412.5,125.5C 399.4,144.713 386.067,163.713 372.5,182.5C 334.833,181.833 297.167,181.167 259.5,180.5C 272.513,161.796 285.513,143.129 298.5,124.5 Z"/></g>
<g><path style="opacity:0.981" fill="#5426fa" d="M 459.5,171.5 C 439.5,171.5 419.5,171.5 399.5,171.5C 408.728,157.432 418.561,143.766 429,130.5C 440.15,143.482 450.317,157.148 459.5,171.5 Z"/></g>
<g><path style="opacity:0.996" fill="#5624fa" d="M 399.5,171.5 C 419.5,171.5 439.5,171.5 459.5,171.5C 469.853,184.527 479.853,197.86 489.5,211.5C 449.761,211.827 410.094,211.494 370.5,210.5C 379.813,197.194 389.48,184.194 399.5,171.5 Z"/></g>
<g><path style="opacity:0.99" fill="#5a22f9" d="M 128.5,180.5 C 166.33,181.499 204.33,181.832 242.5,181.5C 216.633,218.725 190.633,255.892 164.5,293C 126.162,293.833 87.829,293.667 49.5,292.5C 75.8554,255.1 102.189,217.767 128.5,180.5 Z"/></g>
<g><path style="opacity:0.991" fill="#5a22f9" d="M 259.5,180.5 C 297.167,181.167 334.833,181.833 372.5,182.5C 346.859,219.149 321.192,255.815 295.5,292.5C 257.167,293.833 218.833,293.833 180.5,292.5C 206.364,254.749 232.697,217.416 259.5,180.5 Z"/></g>
<g><path style="opacity:0.988" fill="#5a22f9" d="M 370.5,210.5 C 410.094,211.494 449.761,211.827 489.5,211.5C 510.178,238.33 530.511,265.497 550.5,293C 470.831,293.833 391.165,293.667 311.5,292.5C 331.192,265.148 350.858,237.815 370.5,210.5 Z"/></g>
<g><path style="opacity:0.989" fill="#5a22f9" d="M 241.5,417.5 C 203.67,418.499 165.67,418.832 127.5,418.5C 101.525,381.518 75.5252,344.518 49.5,307.5C 87.8333,306.167 126.167,306.167 164.5,307.5C 190.679,343.875 216.345,380.542 241.5,417.5 Z"/></g>
<g><path style="opacity:0.989" fill="#5a22f9" d="M 372.5,417.5 C 334.67,418.499 296.67,418.832 258.5,418.5C 232.276,381.742 206.276,344.742 180.5,307.5C 218.496,306.333 256.496,306.167 294.5,307C 320.72,343.713 346.72,380.546 372.5,417.5 Z"/></g>
<g><path style="opacity:0.998" fill="#5e20f9" d="M 537.5,323.5 C 466.167,322.167 394.833,322.167 323.5,323.5C 319.171,318.492 315.171,313.159 311.5,307.5C 391.165,306.333 470.831,306.167 550.5,307C 546.303,312.687 541.97,318.187 537.5,323.5 Z"/></g>
<g><path style="opacity:0.997" fill="#611ef8" d="M 537.5,323.5 C 533.598,330.401 528.931,336.734 523.5,342.5C 461.331,342.168 399.331,342.501 337.5,343.5C 332.451,337.115 327.785,330.448 323.5,323.5C 394.833,322.167 466.167,322.167 537.5,323.5 Z"/></g>
<g><path style="opacity:0.995" fill="#661bf7" d="M 523.5,342.5 C 514.562,356.044 504.895,369.044 494.5,381.5C 451.337,380.501 408.003,380.168 364.5,380.5C 355.145,368.471 346.145,356.137 337.5,343.5C 399.331,342.501 461.331,342.168 523.5,342.5 Z"/></g>
<g><path style="opacity:0.995" fill="#6b19f7" d="M 364.5,380.5 C 408.003,380.168 451.337,380.501 494.5,381.5C 492.262,386.071 489.262,390.071 485.5,393.5C 448.33,393.168 411.33,393.502 374.5,394.5C 370.811,390.135 367.478,385.469 364.5,380.5 Z"/></g>
<g><path style="opacity:0.994" fill="#6e17f6" d="M 485.5,393.5 C 481.598,400.401 476.931,406.734 471.5,412.5C 443.5,412.5 415.5,412.5 387.5,412.5C 382.689,406.891 378.356,400.891 374.5,394.5C 411.33,393.502 448.33,393.168 485.5,393.5 Z"/></g>
<g><path style="opacity:0.988" fill="#7315f6" d="M 387.5,412.5 C 415.5,412.5 443.5,412.5 471.5,412.5C 463.932,424.401 455.598,435.734 446.5,446.5C 435.012,445.505 423.345,445.172 411.5,445.5C 402.778,435.069 394.778,424.069 387.5,412.5 Z"/></g>
<g><path style="opacity:0.995" fill="#5624fa" d="M 372.5,417.5 C 385.99,435.809 398.99,454.476 411.5,473.5C 373.67,474.499 335.67,474.832 297.5,474.5C 284.5,455.833 271.5,437.167 258.5,418.5C 296.67,418.832 334.67,418.499 372.5,417.5 Z"/></g>
<g><path style="opacity:0.996" fill="#5624fa" d="M 241.5,417.5 C 255.189,435.865 268.523,454.532 281.5,473.5C 243.573,474.493 205.573,474.827 167.5,474.5C 153.811,456.135 140.477,437.468 127.5,418.5C 165.67,418.832 203.67,418.499 241.5,417.5 Z"/></g>
<g><path style="opacity:0.979" fill="#7712f5" d="M 411.5,445.5 C 423.345,445.172 435.012,445.505 446.5,446.5C 440.885,454.622 435.051,462.622 429,470.5C 422.655,462.458 416.821,454.125 411.5,445.5 Z"/></g>
<g><path style="opacity:0.994" fill="#5426fa" d="M 281.5,473.5 C 283.738,476.299 285.738,479.299 287.5,482.5C 276.555,498.778 265.222,514.778 253.5,530.5C 237.833,531.833 222.167,531.833 206.5,530.5C 193.449,511.797 180.449,493.131 167.5,474.5C 205.573,474.827 243.573,474.493 281.5,473.5 Z"/></g>
<g><path style="opacity:0.994" fill="#5426fa" d="M 411.5,473.5 C 413.803,475.978 415.969,478.645 418,481.5C 418.667,482.833 418.667,484.167 418,485.5C 406.756,500.322 395.756,515.322 385,530.5C 369.241,531.657 353.408,531.824 337.5,531C 323.947,512.287 310.614,493.454 297.5,474.5C 335.67,474.832 373.67,474.499 411.5,473.5 Z"/></g>
</svg>
